%TF.GenerationSoftware,KiCad,Pcbnew,8.0.3-8.0.3-0~ubuntu22.04.1*%
%TF.CreationDate,2024-07-31T00:50:21+02:00*%
%TF.ProjectId,defcon32_badge,64656663-6f6e-4333-925f-62616467652e,rev?*%
%TF.SameCoordinates,Original*%
%TF.FileFunction,Drillmap*%
%TF.FilePolarity,Positive*%
%FSLAX45Y45*%
G04 Gerber Fmt 4.5, Leading zero omitted, Abs format (unit mm)*
G04 Created by KiCad (PCBNEW 8.0.3-8.0.3-0~ubuntu22.04.1) date 2024-07-31 00:50:21*
%MOMM*%
%LPD*%
G01*
G04 APERTURE LIST*
%ADD10C,0.050000*%
%ADD11C,0.200000*%
%ADD12C,0.100000*%
%ADD13C,0.320000*%
G04 APERTURE END LIST*
D10*
X11000000Y-16000000D02*
X15700000Y-16000000D01*
X16000000Y-6300000D02*
X16000000Y-15700000D01*
X10300000Y-6000000D02*
X15700000Y-6000000D01*
X10000000Y-6300000D02*
G75*
G02*
X10300000Y-6000000I300000J0D01*
G01*
X10000000Y-6300000D02*
X10000000Y-15000000D01*
X16000000Y-15700000D02*
G75*
G02*
X15700000Y-16000000I-300000J0D01*
G01*
X11000000Y-16000000D02*
G75*
G02*
X10000000Y-15000000I0J1000000D01*
G01*
X15700000Y-6000000D02*
G75*
G02*
X16000000Y-6300000I0J-300000D01*
G01*
D11*
D12*
X10225000Y-13900000D02*
X10315000Y-13990000D01*
X10315000Y-13900000D02*
X10225000Y-13990000D01*
X10225000Y-14580000D02*
X10315000Y-14670000D01*
X10315000Y-14580000D02*
X10225000Y-14670000D01*
D13*
X13145000Y-6385000D02*
G75*
G02*
X12825000Y-6385000I-160000J0D01*
G01*
X12825000Y-6385000D02*
G75*
G02*
X13145000Y-6385000I160000J0D01*
G01*
D11*
X10258277Y-16313984D02*
X10258277Y-16113984D01*
X10258277Y-16113984D02*
X10305896Y-16113984D01*
X10305896Y-16113984D02*
X10334467Y-16123508D01*
X10334467Y-16123508D02*
X10353515Y-16142555D01*
X10353515Y-16142555D02*
X10363039Y-16161603D01*
X10363039Y-16161603D02*
X10372563Y-16199698D01*
X10372563Y-16199698D02*
X10372563Y-16228269D01*
X10372563Y-16228269D02*
X10363039Y-16266365D01*
X10363039Y-16266365D02*
X10353515Y-16285412D01*
X10353515Y-16285412D02*
X10334467Y-16304460D01*
X10334467Y-16304460D02*
X10305896Y-16313984D01*
X10305896Y-16313984D02*
X10258277Y-16313984D01*
X10458277Y-16313984D02*
X10458277Y-16180650D01*
X10458277Y-16218746D02*
X10467801Y-16199698D01*
X10467801Y-16199698D02*
X10477324Y-16190174D01*
X10477324Y-16190174D02*
X10496372Y-16180650D01*
X10496372Y-16180650D02*
X10515420Y-16180650D01*
X10582086Y-16313984D02*
X10582086Y-16180650D01*
X10582086Y-16113984D02*
X10572563Y-16123508D01*
X10572563Y-16123508D02*
X10582086Y-16133031D01*
X10582086Y-16133031D02*
X10591610Y-16123508D01*
X10591610Y-16123508D02*
X10582086Y-16113984D01*
X10582086Y-16113984D02*
X10582086Y-16133031D01*
X10705896Y-16313984D02*
X10686848Y-16304460D01*
X10686848Y-16304460D02*
X10677324Y-16285412D01*
X10677324Y-16285412D02*
X10677324Y-16113984D01*
X10810658Y-16313984D02*
X10791610Y-16304460D01*
X10791610Y-16304460D02*
X10782086Y-16285412D01*
X10782086Y-16285412D02*
X10782086Y-16113984D01*
X11039229Y-16313984D02*
X11039229Y-16113984D01*
X11039229Y-16113984D02*
X11105896Y-16256841D01*
X11105896Y-16256841D02*
X11172563Y-16113984D01*
X11172563Y-16113984D02*
X11172563Y-16313984D01*
X11353515Y-16313984D02*
X11353515Y-16209222D01*
X11353515Y-16209222D02*
X11343991Y-16190174D01*
X11343991Y-16190174D02*
X11324943Y-16180650D01*
X11324943Y-16180650D02*
X11286848Y-16180650D01*
X11286848Y-16180650D02*
X11267801Y-16190174D01*
X11353515Y-16304460D02*
X11334467Y-16313984D01*
X11334467Y-16313984D02*
X11286848Y-16313984D01*
X11286848Y-16313984D02*
X11267801Y-16304460D01*
X11267801Y-16304460D02*
X11258277Y-16285412D01*
X11258277Y-16285412D02*
X11258277Y-16266365D01*
X11258277Y-16266365D02*
X11267801Y-16247317D01*
X11267801Y-16247317D02*
X11286848Y-16237793D01*
X11286848Y-16237793D02*
X11334467Y-16237793D01*
X11334467Y-16237793D02*
X11353515Y-16228269D01*
X11448753Y-16180650D02*
X11448753Y-16380650D01*
X11448753Y-16190174D02*
X11467801Y-16180650D01*
X11467801Y-16180650D02*
X11505896Y-16180650D01*
X11505896Y-16180650D02*
X11524943Y-16190174D01*
X11524943Y-16190174D02*
X11534467Y-16199698D01*
X11534467Y-16199698D02*
X11543991Y-16218746D01*
X11543991Y-16218746D02*
X11543991Y-16275888D01*
X11543991Y-16275888D02*
X11534467Y-16294936D01*
X11534467Y-16294936D02*
X11524943Y-16304460D01*
X11524943Y-16304460D02*
X11505896Y-16313984D01*
X11505896Y-16313984D02*
X11467801Y-16313984D01*
X11467801Y-16313984D02*
X11448753Y-16304460D01*
X11629705Y-16294936D02*
X11639229Y-16304460D01*
X11639229Y-16304460D02*
X11629705Y-16313984D01*
X11629705Y-16313984D02*
X11620182Y-16304460D01*
X11620182Y-16304460D02*
X11629705Y-16294936D01*
X11629705Y-16294936D02*
X11629705Y-16313984D01*
X11629705Y-16190174D02*
X11639229Y-16199698D01*
X11639229Y-16199698D02*
X11629705Y-16209222D01*
X11629705Y-16209222D02*
X11620182Y-16199698D01*
X11620182Y-16199698D02*
X11629705Y-16190174D01*
X11629705Y-16190174D02*
X11629705Y-16209222D01*
D12*
X9907500Y-16597500D02*
X9997500Y-16687500D01*
X9997500Y-16597500D02*
X9907500Y-16687500D01*
D11*
X10296372Y-16533984D02*
X10315420Y-16533984D01*
X10315420Y-16533984D02*
X10334467Y-16543508D01*
X10334467Y-16543508D02*
X10343991Y-16553031D01*
X10343991Y-16553031D02*
X10353515Y-16572079D01*
X10353515Y-16572079D02*
X10363039Y-16610174D01*
X10363039Y-16610174D02*
X10363039Y-16657793D01*
X10363039Y-16657793D02*
X10353515Y-16695888D01*
X10353515Y-16695888D02*
X10343991Y-16714936D01*
X10343991Y-16714936D02*
X10334467Y-16724460D01*
X10334467Y-16724460D02*
X10315420Y-16733984D01*
X10315420Y-16733984D02*
X10296372Y-16733984D01*
X10296372Y-16733984D02*
X10277324Y-16724460D01*
X10277324Y-16724460D02*
X10267801Y-16714936D01*
X10267801Y-16714936D02*
X10258277Y-16695888D01*
X10258277Y-16695888D02*
X10248753Y-16657793D01*
X10248753Y-16657793D02*
X10248753Y-16610174D01*
X10248753Y-16610174D02*
X10258277Y-16572079D01*
X10258277Y-16572079D02*
X10267801Y-16553031D01*
X10267801Y-16553031D02*
X10277324Y-16543508D01*
X10277324Y-16543508D02*
X10296372Y-16533984D01*
X10448753Y-16714936D02*
X10458277Y-16724460D01*
X10458277Y-16724460D02*
X10448753Y-16733984D01*
X10448753Y-16733984D02*
X10439229Y-16724460D01*
X10439229Y-16724460D02*
X10448753Y-16714936D01*
X10448753Y-16714936D02*
X10448753Y-16733984D01*
X10553515Y-16733984D02*
X10591610Y-16733984D01*
X10591610Y-16733984D02*
X10610658Y-16724460D01*
X10610658Y-16724460D02*
X10620182Y-16714936D01*
X10620182Y-16714936D02*
X10639229Y-16686365D01*
X10639229Y-16686365D02*
X10648753Y-16648269D01*
X10648753Y-16648269D02*
X10648753Y-16572079D01*
X10648753Y-16572079D02*
X10639229Y-16553031D01*
X10639229Y-16553031D02*
X10629705Y-16543508D01*
X10629705Y-16543508D02*
X10610658Y-16533984D01*
X10610658Y-16533984D02*
X10572563Y-16533984D01*
X10572563Y-16533984D02*
X10553515Y-16543508D01*
X10553515Y-16543508D02*
X10543991Y-16553031D01*
X10543991Y-16553031D02*
X10534467Y-16572079D01*
X10534467Y-16572079D02*
X10534467Y-16619698D01*
X10534467Y-16619698D02*
X10543991Y-16638746D01*
X10543991Y-16638746D02*
X10553515Y-16648269D01*
X10553515Y-16648269D02*
X10572563Y-16657793D01*
X10572563Y-16657793D02*
X10610658Y-16657793D01*
X10610658Y-16657793D02*
X10629705Y-16648269D01*
X10629705Y-16648269D02*
X10639229Y-16638746D01*
X10639229Y-16638746D02*
X10648753Y-16619698D01*
X10772563Y-16533984D02*
X10791610Y-16533984D01*
X10791610Y-16533984D02*
X10810658Y-16543508D01*
X10810658Y-16543508D02*
X10820182Y-16553031D01*
X10820182Y-16553031D02*
X10829705Y-16572079D01*
X10829705Y-16572079D02*
X10839229Y-16610174D01*
X10839229Y-16610174D02*
X10839229Y-16657793D01*
X10839229Y-16657793D02*
X10829705Y-16695888D01*
X10829705Y-16695888D02*
X10820182Y-16714936D01*
X10820182Y-16714936D02*
X10810658Y-16724460D01*
X10810658Y-16724460D02*
X10791610Y-16733984D01*
X10791610Y-16733984D02*
X10772563Y-16733984D01*
X10772563Y-16733984D02*
X10753515Y-16724460D01*
X10753515Y-16724460D02*
X10743991Y-16714936D01*
X10743991Y-16714936D02*
X10734467Y-16695888D01*
X10734467Y-16695888D02*
X10724944Y-16657793D01*
X10724944Y-16657793D02*
X10724944Y-16610174D01*
X10724944Y-16610174D02*
X10734467Y-16572079D01*
X10734467Y-16572079D02*
X10743991Y-16553031D01*
X10743991Y-16553031D02*
X10753515Y-16543508D01*
X10753515Y-16543508D02*
X10772563Y-16533984D01*
X10963039Y-16533984D02*
X10982086Y-16533984D01*
X10982086Y-16533984D02*
X11001134Y-16543508D01*
X11001134Y-16543508D02*
X11010658Y-16553031D01*
X11010658Y-16553031D02*
X11020182Y-16572079D01*
X11020182Y-16572079D02*
X11029705Y-16610174D01*
X11029705Y-16610174D02*
X11029705Y-16657793D01*
X11029705Y-16657793D02*
X11020182Y-16695888D01*
X11020182Y-16695888D02*
X11010658Y-16714936D01*
X11010658Y-16714936D02*
X11001134Y-16724460D01*
X11001134Y-16724460D02*
X10982086Y-16733984D01*
X10982086Y-16733984D02*
X10963039Y-16733984D01*
X10963039Y-16733984D02*
X10943991Y-16724460D01*
X10943991Y-16724460D02*
X10934467Y-16714936D01*
X10934467Y-16714936D02*
X10924944Y-16695888D01*
X10924944Y-16695888D02*
X10915420Y-16657793D01*
X10915420Y-16657793D02*
X10915420Y-16610174D01*
X10915420Y-16610174D02*
X10924944Y-16572079D01*
X10924944Y-16572079D02*
X10934467Y-16553031D01*
X10934467Y-16553031D02*
X10943991Y-16543508D01*
X10943991Y-16543508D02*
X10963039Y-16533984D01*
X11115420Y-16733984D02*
X11115420Y-16600650D01*
X11115420Y-16619698D02*
X11124944Y-16610174D01*
X11124944Y-16610174D02*
X11143991Y-16600650D01*
X11143991Y-16600650D02*
X11172563Y-16600650D01*
X11172563Y-16600650D02*
X11191610Y-16610174D01*
X11191610Y-16610174D02*
X11201134Y-16629222D01*
X11201134Y-16629222D02*
X11201134Y-16733984D01*
X11201134Y-16629222D02*
X11210658Y-16610174D01*
X11210658Y-16610174D02*
X11229705Y-16600650D01*
X11229705Y-16600650D02*
X11258277Y-16600650D01*
X11258277Y-16600650D02*
X11277324Y-16610174D01*
X11277324Y-16610174D02*
X11286848Y-16629222D01*
X11286848Y-16629222D02*
X11286848Y-16733984D01*
X11382086Y-16733984D02*
X11382086Y-16600650D01*
X11382086Y-16619698D02*
X11391610Y-16610174D01*
X11391610Y-16610174D02*
X11410658Y-16600650D01*
X11410658Y-16600650D02*
X11439229Y-16600650D01*
X11439229Y-16600650D02*
X11458277Y-16610174D01*
X11458277Y-16610174D02*
X11467801Y-16629222D01*
X11467801Y-16629222D02*
X11467801Y-16733984D01*
X11467801Y-16629222D02*
X11477324Y-16610174D01*
X11477324Y-16610174D02*
X11496372Y-16600650D01*
X11496372Y-16600650D02*
X11524943Y-16600650D01*
X11524943Y-16600650D02*
X11543991Y-16610174D01*
X11543991Y-16610174D02*
X11553515Y-16629222D01*
X11553515Y-16629222D02*
X11553515Y-16733984D01*
X11943991Y-16524460D02*
X11772563Y-16781603D01*
X12201134Y-16533984D02*
X12220182Y-16533984D01*
X12220182Y-16533984D02*
X12239229Y-16543508D01*
X12239229Y-16543508D02*
X12248753Y-16553031D01*
X12248753Y-16553031D02*
X12258277Y-16572079D01*
X12258277Y-16572079D02*
X12267801Y-16610174D01*
X12267801Y-16610174D02*
X12267801Y-16657793D01*
X12267801Y-16657793D02*
X12258277Y-16695888D01*
X12258277Y-16695888D02*
X12248753Y-16714936D01*
X12248753Y-16714936D02*
X12239229Y-16724460D01*
X12239229Y-16724460D02*
X12220182Y-16733984D01*
X12220182Y-16733984D02*
X12201134Y-16733984D01*
X12201134Y-16733984D02*
X12182086Y-16724460D01*
X12182086Y-16724460D02*
X12172563Y-16714936D01*
X12172563Y-16714936D02*
X12163039Y-16695888D01*
X12163039Y-16695888D02*
X12153515Y-16657793D01*
X12153515Y-16657793D02*
X12153515Y-16610174D01*
X12153515Y-16610174D02*
X12163039Y-16572079D01*
X12163039Y-16572079D02*
X12172563Y-16553031D01*
X12172563Y-16553031D02*
X12182086Y-16543508D01*
X12182086Y-16543508D02*
X12201134Y-16533984D01*
X12353515Y-16714936D02*
X12363039Y-16724460D01*
X12363039Y-16724460D02*
X12353515Y-16733984D01*
X12353515Y-16733984D02*
X12343991Y-16724460D01*
X12343991Y-16724460D02*
X12353515Y-16714936D01*
X12353515Y-16714936D02*
X12353515Y-16733984D01*
X12486848Y-16533984D02*
X12505896Y-16533984D01*
X12505896Y-16533984D02*
X12524944Y-16543508D01*
X12524944Y-16543508D02*
X12534467Y-16553031D01*
X12534467Y-16553031D02*
X12543991Y-16572079D01*
X12543991Y-16572079D02*
X12553515Y-16610174D01*
X12553515Y-16610174D02*
X12553515Y-16657793D01*
X12553515Y-16657793D02*
X12543991Y-16695888D01*
X12543991Y-16695888D02*
X12534467Y-16714936D01*
X12534467Y-16714936D02*
X12524944Y-16724460D01*
X12524944Y-16724460D02*
X12505896Y-16733984D01*
X12505896Y-16733984D02*
X12486848Y-16733984D01*
X12486848Y-16733984D02*
X12467801Y-16724460D01*
X12467801Y-16724460D02*
X12458277Y-16714936D01*
X12458277Y-16714936D02*
X12448753Y-16695888D01*
X12448753Y-16695888D02*
X12439229Y-16657793D01*
X12439229Y-16657793D02*
X12439229Y-16610174D01*
X12439229Y-16610174D02*
X12448753Y-16572079D01*
X12448753Y-16572079D02*
X12458277Y-16553031D01*
X12458277Y-16553031D02*
X12467801Y-16543508D01*
X12467801Y-16543508D02*
X12486848Y-16533984D01*
X12620182Y-16533984D02*
X12743991Y-16533984D01*
X12743991Y-16533984D02*
X12677325Y-16610174D01*
X12677325Y-16610174D02*
X12705896Y-16610174D01*
X12705896Y-16610174D02*
X12724944Y-16619698D01*
X12724944Y-16619698D02*
X12734467Y-16629222D01*
X12734467Y-16629222D02*
X12743991Y-16648269D01*
X12743991Y-16648269D02*
X12743991Y-16695888D01*
X12743991Y-16695888D02*
X12734467Y-16714936D01*
X12734467Y-16714936D02*
X12724944Y-16724460D01*
X12724944Y-16724460D02*
X12705896Y-16733984D01*
X12705896Y-16733984D02*
X12648753Y-16733984D01*
X12648753Y-16733984D02*
X12629706Y-16724460D01*
X12629706Y-16724460D02*
X12620182Y-16714936D01*
X12924944Y-16533984D02*
X12829706Y-16533984D01*
X12829706Y-16533984D02*
X12820182Y-16629222D01*
X12820182Y-16629222D02*
X12829706Y-16619698D01*
X12829706Y-16619698D02*
X12848753Y-16610174D01*
X12848753Y-16610174D02*
X12896372Y-16610174D01*
X12896372Y-16610174D02*
X12915420Y-16619698D01*
X12915420Y-16619698D02*
X12924944Y-16629222D01*
X12924944Y-16629222D02*
X12934467Y-16648269D01*
X12934467Y-16648269D02*
X12934467Y-16695888D01*
X12934467Y-16695888D02*
X12924944Y-16714936D01*
X12924944Y-16714936D02*
X12915420Y-16724460D01*
X12915420Y-16724460D02*
X12896372Y-16733984D01*
X12896372Y-16733984D02*
X12848753Y-16733984D01*
X12848753Y-16733984D02*
X12829706Y-16724460D01*
X12829706Y-16724460D02*
X12820182Y-16714936D01*
X13105896Y-16600650D02*
X13105896Y-16733984D01*
X13058277Y-16524460D02*
X13010658Y-16667317D01*
X13010658Y-16667317D02*
X13134467Y-16667317D01*
X13201134Y-16533984D02*
X13201134Y-16572079D01*
X13277325Y-16533984D02*
X13277325Y-16572079D01*
X13572563Y-16810174D02*
X13563039Y-16800650D01*
X13563039Y-16800650D02*
X13543991Y-16772079D01*
X13543991Y-16772079D02*
X13534468Y-16753031D01*
X13534468Y-16753031D02*
X13524944Y-16724460D01*
X13524944Y-16724460D02*
X13515420Y-16676841D01*
X13515420Y-16676841D02*
X13515420Y-16638746D01*
X13515420Y-16638746D02*
X13524944Y-16591127D01*
X13524944Y-16591127D02*
X13534468Y-16562555D01*
X13534468Y-16562555D02*
X13543991Y-16543508D01*
X13543991Y-16543508D02*
X13563039Y-16514936D01*
X13563039Y-16514936D02*
X13572563Y-16505412D01*
X13639229Y-16553031D02*
X13648753Y-16543508D01*
X13648753Y-16543508D02*
X13667801Y-16533984D01*
X13667801Y-16533984D02*
X13715420Y-16533984D01*
X13715420Y-16533984D02*
X13734468Y-16543508D01*
X13734468Y-16543508D02*
X13743991Y-16553031D01*
X13743991Y-16553031D02*
X13753515Y-16572079D01*
X13753515Y-16572079D02*
X13753515Y-16591127D01*
X13753515Y-16591127D02*
X13743991Y-16619698D01*
X13743991Y-16619698D02*
X13629706Y-16733984D01*
X13629706Y-16733984D02*
X13753515Y-16733984D01*
X13991610Y-16733984D02*
X13991610Y-16533984D01*
X14077325Y-16733984D02*
X14077325Y-16629222D01*
X14077325Y-16629222D02*
X14067801Y-16610174D01*
X14067801Y-16610174D02*
X14048753Y-16600650D01*
X14048753Y-16600650D02*
X14020182Y-16600650D01*
X14020182Y-16600650D02*
X14001134Y-16610174D01*
X14001134Y-16610174D02*
X13991610Y-16619698D01*
X14201134Y-16733984D02*
X14182087Y-16724460D01*
X14182087Y-16724460D02*
X14172563Y-16714936D01*
X14172563Y-16714936D02*
X14163039Y-16695888D01*
X14163039Y-16695888D02*
X14163039Y-16638746D01*
X14163039Y-16638746D02*
X14172563Y-16619698D01*
X14172563Y-16619698D02*
X14182087Y-16610174D01*
X14182087Y-16610174D02*
X14201134Y-16600650D01*
X14201134Y-16600650D02*
X14229706Y-16600650D01*
X14229706Y-16600650D02*
X14248753Y-16610174D01*
X14248753Y-16610174D02*
X14258277Y-16619698D01*
X14258277Y-16619698D02*
X14267801Y-16638746D01*
X14267801Y-16638746D02*
X14267801Y-16695888D01*
X14267801Y-16695888D02*
X14258277Y-16714936D01*
X14258277Y-16714936D02*
X14248753Y-16724460D01*
X14248753Y-16724460D02*
X14229706Y-16733984D01*
X14229706Y-16733984D02*
X14201134Y-16733984D01*
X14382087Y-16733984D02*
X14363039Y-16724460D01*
X14363039Y-16724460D02*
X14353515Y-16705412D01*
X14353515Y-16705412D02*
X14353515Y-16533984D01*
X14534468Y-16724460D02*
X14515420Y-16733984D01*
X14515420Y-16733984D02*
X14477325Y-16733984D01*
X14477325Y-16733984D02*
X14458277Y-16724460D01*
X14458277Y-16724460D02*
X14448753Y-16705412D01*
X14448753Y-16705412D02*
X14448753Y-16629222D01*
X14448753Y-16629222D02*
X14458277Y-16610174D01*
X14458277Y-16610174D02*
X14477325Y-16600650D01*
X14477325Y-16600650D02*
X14515420Y-16600650D01*
X14515420Y-16600650D02*
X14534468Y-16610174D01*
X14534468Y-16610174D02*
X14543991Y-16629222D01*
X14543991Y-16629222D02*
X14543991Y-16648269D01*
X14543991Y-16648269D02*
X14448753Y-16667317D01*
X14620182Y-16724460D02*
X14639230Y-16733984D01*
X14639230Y-16733984D02*
X14677325Y-16733984D01*
X14677325Y-16733984D02*
X14696372Y-16724460D01*
X14696372Y-16724460D02*
X14705896Y-16705412D01*
X14705896Y-16705412D02*
X14705896Y-16695888D01*
X14705896Y-16695888D02*
X14696372Y-16676841D01*
X14696372Y-16676841D02*
X14677325Y-16667317D01*
X14677325Y-16667317D02*
X14648753Y-16667317D01*
X14648753Y-16667317D02*
X14629706Y-16657793D01*
X14629706Y-16657793D02*
X14620182Y-16638746D01*
X14620182Y-16638746D02*
X14620182Y-16629222D01*
X14620182Y-16629222D02*
X14629706Y-16610174D01*
X14629706Y-16610174D02*
X14648753Y-16600650D01*
X14648753Y-16600650D02*
X14677325Y-16600650D01*
X14677325Y-16600650D02*
X14696372Y-16610174D01*
X14772563Y-16810174D02*
X14782087Y-16800650D01*
X14782087Y-16800650D02*
X14801134Y-16772079D01*
X14801134Y-16772079D02*
X14810658Y-16753031D01*
X14810658Y-16753031D02*
X14820182Y-16724460D01*
X14820182Y-16724460D02*
X14829706Y-16676841D01*
X14829706Y-16676841D02*
X14829706Y-16638746D01*
X14829706Y-16638746D02*
X14820182Y-16591127D01*
X14820182Y-16591127D02*
X14810658Y-16562555D01*
X14810658Y-16562555D02*
X14801134Y-16543508D01*
X14801134Y-16543508D02*
X14782087Y-16514936D01*
X14782087Y-16514936D02*
X14772563Y-16505412D01*
X15134468Y-16810174D02*
X15124944Y-16800650D01*
X15124944Y-16800650D02*
X15105896Y-16772079D01*
X15105896Y-16772079D02*
X15096372Y-16753031D01*
X15096372Y-16753031D02*
X15086849Y-16724460D01*
X15086849Y-16724460D02*
X15077325Y-16676841D01*
X15077325Y-16676841D02*
X15077325Y-16638746D01*
X15077325Y-16638746D02*
X15086849Y-16591127D01*
X15086849Y-16591127D02*
X15096372Y-16562555D01*
X15096372Y-16562555D02*
X15105896Y-16543508D01*
X15105896Y-16543508D02*
X15124944Y-16514936D01*
X15124944Y-16514936D02*
X15134468Y-16505412D01*
X15210658Y-16600650D02*
X15210658Y-16733984D01*
X15210658Y-16619698D02*
X15220182Y-16610174D01*
X15220182Y-16610174D02*
X15239230Y-16600650D01*
X15239230Y-16600650D02*
X15267801Y-16600650D01*
X15267801Y-16600650D02*
X15286849Y-16610174D01*
X15286849Y-16610174D02*
X15296372Y-16629222D01*
X15296372Y-16629222D02*
X15296372Y-16733984D01*
X15420182Y-16733984D02*
X15401134Y-16724460D01*
X15401134Y-16724460D02*
X15391611Y-16714936D01*
X15391611Y-16714936D02*
X15382087Y-16695888D01*
X15382087Y-16695888D02*
X15382087Y-16638746D01*
X15382087Y-16638746D02*
X15391611Y-16619698D01*
X15391611Y-16619698D02*
X15401134Y-16610174D01*
X15401134Y-16610174D02*
X15420182Y-16600650D01*
X15420182Y-16600650D02*
X15448753Y-16600650D01*
X15448753Y-16600650D02*
X15467801Y-16610174D01*
X15467801Y-16610174D02*
X15477325Y-16619698D01*
X15477325Y-16619698D02*
X15486849Y-16638746D01*
X15486849Y-16638746D02*
X15486849Y-16695888D01*
X15486849Y-16695888D02*
X15477325Y-16714936D01*
X15477325Y-16714936D02*
X15467801Y-16724460D01*
X15467801Y-16724460D02*
X15448753Y-16733984D01*
X15448753Y-16733984D02*
X15420182Y-16733984D01*
X15543992Y-16600650D02*
X15620182Y-16600650D01*
X15572563Y-16533984D02*
X15572563Y-16705412D01*
X15572563Y-16705412D02*
X15582087Y-16724460D01*
X15582087Y-16724460D02*
X15601134Y-16733984D01*
X15601134Y-16733984D02*
X15620182Y-16733984D01*
X15839230Y-16600650D02*
X15839230Y-16800650D01*
X15839230Y-16610174D02*
X15858277Y-16600650D01*
X15858277Y-16600650D02*
X15896373Y-16600650D01*
X15896373Y-16600650D02*
X15915420Y-16610174D01*
X15915420Y-16610174D02*
X15924944Y-16619698D01*
X15924944Y-16619698D02*
X15934468Y-16638746D01*
X15934468Y-16638746D02*
X15934468Y-16695888D01*
X15934468Y-16695888D02*
X15924944Y-16714936D01*
X15924944Y-16714936D02*
X15915420Y-16724460D01*
X15915420Y-16724460D02*
X15896373Y-16733984D01*
X15896373Y-16733984D02*
X15858277Y-16733984D01*
X15858277Y-16733984D02*
X15839230Y-16724460D01*
X16048753Y-16733984D02*
X16029706Y-16724460D01*
X16029706Y-16724460D02*
X16020182Y-16705412D01*
X16020182Y-16705412D02*
X16020182Y-16533984D01*
X16210658Y-16733984D02*
X16210658Y-16629222D01*
X16210658Y-16629222D02*
X16201134Y-16610174D01*
X16201134Y-16610174D02*
X16182087Y-16600650D01*
X16182087Y-16600650D02*
X16143992Y-16600650D01*
X16143992Y-16600650D02*
X16124944Y-16610174D01*
X16210658Y-16724460D02*
X16191611Y-16733984D01*
X16191611Y-16733984D02*
X16143992Y-16733984D01*
X16143992Y-16733984D02*
X16124944Y-16724460D01*
X16124944Y-16724460D02*
X16115420Y-16705412D01*
X16115420Y-16705412D02*
X16115420Y-16686365D01*
X16115420Y-16686365D02*
X16124944Y-16667317D01*
X16124944Y-16667317D02*
X16143992Y-16657793D01*
X16143992Y-16657793D02*
X16191611Y-16657793D01*
X16191611Y-16657793D02*
X16210658Y-16648269D01*
X16277325Y-16600650D02*
X16353515Y-16600650D01*
X16305896Y-16533984D02*
X16305896Y-16705412D01*
X16305896Y-16705412D02*
X16315420Y-16724460D01*
X16315420Y-16724460D02*
X16334468Y-16733984D01*
X16334468Y-16733984D02*
X16353515Y-16733984D01*
X16496373Y-16724460D02*
X16477325Y-16733984D01*
X16477325Y-16733984D02*
X16439230Y-16733984D01*
X16439230Y-16733984D02*
X16420182Y-16724460D01*
X16420182Y-16724460D02*
X16410658Y-16705412D01*
X16410658Y-16705412D02*
X16410658Y-16629222D01*
X16410658Y-16629222D02*
X16420182Y-16610174D01*
X16420182Y-16610174D02*
X16439230Y-16600650D01*
X16439230Y-16600650D02*
X16477325Y-16600650D01*
X16477325Y-16600650D02*
X16496373Y-16610174D01*
X16496373Y-16610174D02*
X16505896Y-16629222D01*
X16505896Y-16629222D02*
X16505896Y-16648269D01*
X16505896Y-16648269D02*
X16410658Y-16667317D01*
X16677325Y-16733984D02*
X16677325Y-16533984D01*
X16677325Y-16724460D02*
X16658277Y-16733984D01*
X16658277Y-16733984D02*
X16620182Y-16733984D01*
X16620182Y-16733984D02*
X16601134Y-16724460D01*
X16601134Y-16724460D02*
X16591611Y-16714936D01*
X16591611Y-16714936D02*
X16582087Y-16695888D01*
X16582087Y-16695888D02*
X16582087Y-16638746D01*
X16582087Y-16638746D02*
X16591611Y-16619698D01*
X16591611Y-16619698D02*
X16601134Y-16610174D01*
X16601134Y-16610174D02*
X16620182Y-16600650D01*
X16620182Y-16600650D02*
X16658277Y-16600650D01*
X16658277Y-16600650D02*
X16677325Y-16610174D01*
X16753515Y-16810174D02*
X16763039Y-16800650D01*
X16763039Y-16800650D02*
X16782087Y-16772079D01*
X16782087Y-16772079D02*
X16791611Y-16753031D01*
X16791611Y-16753031D02*
X16801135Y-16724460D01*
X16801135Y-16724460D02*
X16810658Y-16676841D01*
X16810658Y-16676841D02*
X16810658Y-16638746D01*
X16810658Y-16638746D02*
X16801135Y-16591127D01*
X16801135Y-16591127D02*
X16791611Y-16562555D01*
X16791611Y-16562555D02*
X16782087Y-16543508D01*
X16782087Y-16543508D02*
X16763039Y-16514936D01*
X16763039Y-16514936D02*
X16753515Y-16505412D01*
X9997500Y-16906500D02*
G75*
G02*
X9797500Y-16906500I-100000J0D01*
G01*
X9797500Y-16906500D02*
G75*
G02*
X9997500Y-16906500I100000J0D01*
G01*
X10239229Y-16797984D02*
X10363039Y-16797984D01*
X10363039Y-16797984D02*
X10296372Y-16874174D01*
X10296372Y-16874174D02*
X10324944Y-16874174D01*
X10324944Y-16874174D02*
X10343991Y-16883698D01*
X10343991Y-16883698D02*
X10353515Y-16893222D01*
X10353515Y-16893222D02*
X10363039Y-16912270D01*
X10363039Y-16912270D02*
X10363039Y-16959889D01*
X10363039Y-16959889D02*
X10353515Y-16978936D01*
X10353515Y-16978936D02*
X10343991Y-16988460D01*
X10343991Y-16988460D02*
X10324944Y-16997984D01*
X10324944Y-16997984D02*
X10267801Y-16997984D01*
X10267801Y-16997984D02*
X10248753Y-16988460D01*
X10248753Y-16988460D02*
X10239229Y-16978936D01*
X10448753Y-16978936D02*
X10458277Y-16988460D01*
X10458277Y-16988460D02*
X10448753Y-16997984D01*
X10448753Y-16997984D02*
X10439229Y-16988460D01*
X10439229Y-16988460D02*
X10448753Y-16978936D01*
X10448753Y-16978936D02*
X10448753Y-16997984D01*
X10534467Y-16817031D02*
X10543991Y-16807508D01*
X10543991Y-16807508D02*
X10563039Y-16797984D01*
X10563039Y-16797984D02*
X10610658Y-16797984D01*
X10610658Y-16797984D02*
X10629705Y-16807508D01*
X10629705Y-16807508D02*
X10639229Y-16817031D01*
X10639229Y-16817031D02*
X10648753Y-16836079D01*
X10648753Y-16836079D02*
X10648753Y-16855127D01*
X10648753Y-16855127D02*
X10639229Y-16883698D01*
X10639229Y-16883698D02*
X10524944Y-16997984D01*
X10524944Y-16997984D02*
X10648753Y-16997984D01*
X10772563Y-16797984D02*
X10791610Y-16797984D01*
X10791610Y-16797984D02*
X10810658Y-16807508D01*
X10810658Y-16807508D02*
X10820182Y-16817031D01*
X10820182Y-16817031D02*
X10829705Y-16836079D01*
X10829705Y-16836079D02*
X10839229Y-16874174D01*
X10839229Y-16874174D02*
X10839229Y-16921793D01*
X10839229Y-16921793D02*
X10829705Y-16959889D01*
X10829705Y-16959889D02*
X10820182Y-16978936D01*
X10820182Y-16978936D02*
X10810658Y-16988460D01*
X10810658Y-16988460D02*
X10791610Y-16997984D01*
X10791610Y-16997984D02*
X10772563Y-16997984D01*
X10772563Y-16997984D02*
X10753515Y-16988460D01*
X10753515Y-16988460D02*
X10743991Y-16978936D01*
X10743991Y-16978936D02*
X10734467Y-16959889D01*
X10734467Y-16959889D02*
X10724944Y-16921793D01*
X10724944Y-16921793D02*
X10724944Y-16874174D01*
X10724944Y-16874174D02*
X10734467Y-16836079D01*
X10734467Y-16836079D02*
X10743991Y-16817031D01*
X10743991Y-16817031D02*
X10753515Y-16807508D01*
X10753515Y-16807508D02*
X10772563Y-16797984D01*
X10963039Y-16797984D02*
X10982086Y-16797984D01*
X10982086Y-16797984D02*
X11001134Y-16807508D01*
X11001134Y-16807508D02*
X11010658Y-16817031D01*
X11010658Y-16817031D02*
X11020182Y-16836079D01*
X11020182Y-16836079D02*
X11029705Y-16874174D01*
X11029705Y-16874174D02*
X11029705Y-16921793D01*
X11029705Y-16921793D02*
X11020182Y-16959889D01*
X11020182Y-16959889D02*
X11010658Y-16978936D01*
X11010658Y-16978936D02*
X11001134Y-16988460D01*
X11001134Y-16988460D02*
X10982086Y-16997984D01*
X10982086Y-16997984D02*
X10963039Y-16997984D01*
X10963039Y-16997984D02*
X10943991Y-16988460D01*
X10943991Y-16988460D02*
X10934467Y-16978936D01*
X10934467Y-16978936D02*
X10924944Y-16959889D01*
X10924944Y-16959889D02*
X10915420Y-16921793D01*
X10915420Y-16921793D02*
X10915420Y-16874174D01*
X10915420Y-16874174D02*
X10924944Y-16836079D01*
X10924944Y-16836079D02*
X10934467Y-16817031D01*
X10934467Y-16817031D02*
X10943991Y-16807508D01*
X10943991Y-16807508D02*
X10963039Y-16797984D01*
X11115420Y-16997984D02*
X11115420Y-16864650D01*
X11115420Y-16883698D02*
X11124944Y-16874174D01*
X11124944Y-16874174D02*
X11143991Y-16864650D01*
X11143991Y-16864650D02*
X11172563Y-16864650D01*
X11172563Y-16864650D02*
X11191610Y-16874174D01*
X11191610Y-16874174D02*
X11201134Y-16893222D01*
X11201134Y-16893222D02*
X11201134Y-16997984D01*
X11201134Y-16893222D02*
X11210658Y-16874174D01*
X11210658Y-16874174D02*
X11229705Y-16864650D01*
X11229705Y-16864650D02*
X11258277Y-16864650D01*
X11258277Y-16864650D02*
X11277324Y-16874174D01*
X11277324Y-16874174D02*
X11286848Y-16893222D01*
X11286848Y-16893222D02*
X11286848Y-16997984D01*
X11382086Y-16997984D02*
X11382086Y-16864650D01*
X11382086Y-16883698D02*
X11391610Y-16874174D01*
X11391610Y-16874174D02*
X11410658Y-16864650D01*
X11410658Y-16864650D02*
X11439229Y-16864650D01*
X11439229Y-16864650D02*
X11458277Y-16874174D01*
X11458277Y-16874174D02*
X11467801Y-16893222D01*
X11467801Y-16893222D02*
X11467801Y-16997984D01*
X11467801Y-16893222D02*
X11477324Y-16874174D01*
X11477324Y-16874174D02*
X11496372Y-16864650D01*
X11496372Y-16864650D02*
X11524943Y-16864650D01*
X11524943Y-16864650D02*
X11543991Y-16874174D01*
X11543991Y-16874174D02*
X11553515Y-16893222D01*
X11553515Y-16893222D02*
X11553515Y-16997984D01*
X11943991Y-16788460D02*
X11772563Y-17045603D01*
X12201134Y-16797984D02*
X12220182Y-16797984D01*
X12220182Y-16797984D02*
X12239229Y-16807508D01*
X12239229Y-16807508D02*
X12248753Y-16817031D01*
X12248753Y-16817031D02*
X12258277Y-16836079D01*
X12258277Y-16836079D02*
X12267801Y-16874174D01*
X12267801Y-16874174D02*
X12267801Y-16921793D01*
X12267801Y-16921793D02*
X12258277Y-16959889D01*
X12258277Y-16959889D02*
X12248753Y-16978936D01*
X12248753Y-16978936D02*
X12239229Y-16988460D01*
X12239229Y-16988460D02*
X12220182Y-16997984D01*
X12220182Y-16997984D02*
X12201134Y-16997984D01*
X12201134Y-16997984D02*
X12182086Y-16988460D01*
X12182086Y-16988460D02*
X12172563Y-16978936D01*
X12172563Y-16978936D02*
X12163039Y-16959889D01*
X12163039Y-16959889D02*
X12153515Y-16921793D01*
X12153515Y-16921793D02*
X12153515Y-16874174D01*
X12153515Y-16874174D02*
X12163039Y-16836079D01*
X12163039Y-16836079D02*
X12172563Y-16817031D01*
X12172563Y-16817031D02*
X12182086Y-16807508D01*
X12182086Y-16807508D02*
X12201134Y-16797984D01*
X12353515Y-16978936D02*
X12363039Y-16988460D01*
X12363039Y-16988460D02*
X12353515Y-16997984D01*
X12353515Y-16997984D02*
X12343991Y-16988460D01*
X12343991Y-16988460D02*
X12353515Y-16978936D01*
X12353515Y-16978936D02*
X12353515Y-16997984D01*
X12553515Y-16997984D02*
X12439229Y-16997984D01*
X12496372Y-16997984D02*
X12496372Y-16797984D01*
X12496372Y-16797984D02*
X12477325Y-16826555D01*
X12477325Y-16826555D02*
X12458277Y-16845603D01*
X12458277Y-16845603D02*
X12439229Y-16855127D01*
X12629706Y-16817031D02*
X12639229Y-16807508D01*
X12639229Y-16807508D02*
X12658277Y-16797984D01*
X12658277Y-16797984D02*
X12705896Y-16797984D01*
X12705896Y-16797984D02*
X12724944Y-16807508D01*
X12724944Y-16807508D02*
X12734467Y-16817031D01*
X12734467Y-16817031D02*
X12743991Y-16836079D01*
X12743991Y-16836079D02*
X12743991Y-16855127D01*
X12743991Y-16855127D02*
X12734467Y-16883698D01*
X12734467Y-16883698D02*
X12620182Y-16997984D01*
X12620182Y-16997984D02*
X12743991Y-16997984D01*
X12915420Y-16797984D02*
X12877325Y-16797984D01*
X12877325Y-16797984D02*
X12858277Y-16807508D01*
X12858277Y-16807508D02*
X12848753Y-16817031D01*
X12848753Y-16817031D02*
X12829706Y-16845603D01*
X12829706Y-16845603D02*
X12820182Y-16883698D01*
X12820182Y-16883698D02*
X12820182Y-16959889D01*
X12820182Y-16959889D02*
X12829706Y-16978936D01*
X12829706Y-16978936D02*
X12839229Y-16988460D01*
X12839229Y-16988460D02*
X12858277Y-16997984D01*
X12858277Y-16997984D02*
X12896372Y-16997984D01*
X12896372Y-16997984D02*
X12915420Y-16988460D01*
X12915420Y-16988460D02*
X12924944Y-16978936D01*
X12924944Y-16978936D02*
X12934467Y-16959889D01*
X12934467Y-16959889D02*
X12934467Y-16912270D01*
X12934467Y-16912270D02*
X12924944Y-16893222D01*
X12924944Y-16893222D02*
X12915420Y-16883698D01*
X12915420Y-16883698D02*
X12896372Y-16874174D01*
X12896372Y-16874174D02*
X12858277Y-16874174D01*
X12858277Y-16874174D02*
X12839229Y-16883698D01*
X12839229Y-16883698D02*
X12829706Y-16893222D01*
X12829706Y-16893222D02*
X12820182Y-16912270D01*
X13058277Y-16797984D02*
X13077325Y-16797984D01*
X13077325Y-16797984D02*
X13096372Y-16807508D01*
X13096372Y-16807508D02*
X13105896Y-16817031D01*
X13105896Y-16817031D02*
X13115420Y-16836079D01*
X13115420Y-16836079D02*
X13124944Y-16874174D01*
X13124944Y-16874174D02*
X13124944Y-16921793D01*
X13124944Y-16921793D02*
X13115420Y-16959889D01*
X13115420Y-16959889D02*
X13105896Y-16978936D01*
X13105896Y-16978936D02*
X13096372Y-16988460D01*
X13096372Y-16988460D02*
X13077325Y-16997984D01*
X13077325Y-16997984D02*
X13058277Y-16997984D01*
X13058277Y-16997984D02*
X13039229Y-16988460D01*
X13039229Y-16988460D02*
X13029706Y-16978936D01*
X13029706Y-16978936D02*
X13020182Y-16959889D01*
X13020182Y-16959889D02*
X13010658Y-16921793D01*
X13010658Y-16921793D02*
X13010658Y-16874174D01*
X13010658Y-16874174D02*
X13020182Y-16836079D01*
X13020182Y-16836079D02*
X13029706Y-16817031D01*
X13029706Y-16817031D02*
X13039229Y-16807508D01*
X13039229Y-16807508D02*
X13058277Y-16797984D01*
X13201134Y-16797984D02*
X13201134Y-16836079D01*
X13277325Y-16797984D02*
X13277325Y-16836079D01*
X13572563Y-17074174D02*
X13563039Y-17064650D01*
X13563039Y-17064650D02*
X13543991Y-17036079D01*
X13543991Y-17036079D02*
X13534468Y-17017031D01*
X13534468Y-17017031D02*
X13524944Y-16988460D01*
X13524944Y-16988460D02*
X13515420Y-16940841D01*
X13515420Y-16940841D02*
X13515420Y-16902746D01*
X13515420Y-16902746D02*
X13524944Y-16855127D01*
X13524944Y-16855127D02*
X13534468Y-16826555D01*
X13534468Y-16826555D02*
X13543991Y-16807508D01*
X13543991Y-16807508D02*
X13563039Y-16778936D01*
X13563039Y-16778936D02*
X13572563Y-16769412D01*
X13753515Y-16997984D02*
X13639229Y-16997984D01*
X13696372Y-16997984D02*
X13696372Y-16797984D01*
X13696372Y-16797984D02*
X13677325Y-16826555D01*
X13677325Y-16826555D02*
X13658277Y-16845603D01*
X13658277Y-16845603D02*
X13639229Y-16855127D01*
X13991610Y-16997984D02*
X13991610Y-16797984D01*
X14077325Y-16997984D02*
X14077325Y-16893222D01*
X14077325Y-16893222D02*
X14067801Y-16874174D01*
X14067801Y-16874174D02*
X14048753Y-16864650D01*
X14048753Y-16864650D02*
X14020182Y-16864650D01*
X14020182Y-16864650D02*
X14001134Y-16874174D01*
X14001134Y-16874174D02*
X13991610Y-16883698D01*
X14201134Y-16997984D02*
X14182087Y-16988460D01*
X14182087Y-16988460D02*
X14172563Y-16978936D01*
X14172563Y-16978936D02*
X14163039Y-16959889D01*
X14163039Y-16959889D02*
X14163039Y-16902746D01*
X14163039Y-16902746D02*
X14172563Y-16883698D01*
X14172563Y-16883698D02*
X14182087Y-16874174D01*
X14182087Y-16874174D02*
X14201134Y-16864650D01*
X14201134Y-16864650D02*
X14229706Y-16864650D01*
X14229706Y-16864650D02*
X14248753Y-16874174D01*
X14248753Y-16874174D02*
X14258277Y-16883698D01*
X14258277Y-16883698D02*
X14267801Y-16902746D01*
X14267801Y-16902746D02*
X14267801Y-16959889D01*
X14267801Y-16959889D02*
X14258277Y-16978936D01*
X14258277Y-16978936D02*
X14248753Y-16988460D01*
X14248753Y-16988460D02*
X14229706Y-16997984D01*
X14229706Y-16997984D02*
X14201134Y-16997984D01*
X14382087Y-16997984D02*
X14363039Y-16988460D01*
X14363039Y-16988460D02*
X14353515Y-16969412D01*
X14353515Y-16969412D02*
X14353515Y-16797984D01*
X14534468Y-16988460D02*
X14515420Y-16997984D01*
X14515420Y-16997984D02*
X14477325Y-16997984D01*
X14477325Y-16997984D02*
X14458277Y-16988460D01*
X14458277Y-16988460D02*
X14448753Y-16969412D01*
X14448753Y-16969412D02*
X14448753Y-16893222D01*
X14448753Y-16893222D02*
X14458277Y-16874174D01*
X14458277Y-16874174D02*
X14477325Y-16864650D01*
X14477325Y-16864650D02*
X14515420Y-16864650D01*
X14515420Y-16864650D02*
X14534468Y-16874174D01*
X14534468Y-16874174D02*
X14543991Y-16893222D01*
X14543991Y-16893222D02*
X14543991Y-16912270D01*
X14543991Y-16912270D02*
X14448753Y-16931317D01*
X14610658Y-17074174D02*
X14620182Y-17064650D01*
X14620182Y-17064650D02*
X14639230Y-17036079D01*
X14639230Y-17036079D02*
X14648753Y-17017031D01*
X14648753Y-17017031D02*
X14658277Y-16988460D01*
X14658277Y-16988460D02*
X14667801Y-16940841D01*
X14667801Y-16940841D02*
X14667801Y-16902746D01*
X14667801Y-16902746D02*
X14658277Y-16855127D01*
X14658277Y-16855127D02*
X14648753Y-16826555D01*
X14648753Y-16826555D02*
X14639230Y-16807508D01*
X14639230Y-16807508D02*
X14620182Y-16778936D01*
X14620182Y-16778936D02*
X14610658Y-16769412D01*
X14972563Y-17074174D02*
X14963039Y-17064650D01*
X14963039Y-17064650D02*
X14943991Y-17036079D01*
X14943991Y-17036079D02*
X14934468Y-17017031D01*
X14934468Y-17017031D02*
X14924944Y-16988460D01*
X14924944Y-16988460D02*
X14915420Y-16940841D01*
X14915420Y-16940841D02*
X14915420Y-16902746D01*
X14915420Y-16902746D02*
X14924944Y-16855127D01*
X14924944Y-16855127D02*
X14934468Y-16826555D01*
X14934468Y-16826555D02*
X14943991Y-16807508D01*
X14943991Y-16807508D02*
X14963039Y-16778936D01*
X14963039Y-16778936D02*
X14972563Y-16769412D01*
X15048753Y-16864650D02*
X15048753Y-16997984D01*
X15048753Y-16883698D02*
X15058277Y-16874174D01*
X15058277Y-16874174D02*
X15077325Y-16864650D01*
X15077325Y-16864650D02*
X15105896Y-16864650D01*
X15105896Y-16864650D02*
X15124944Y-16874174D01*
X15124944Y-16874174D02*
X15134468Y-16893222D01*
X15134468Y-16893222D02*
X15134468Y-16997984D01*
X15258277Y-16997984D02*
X15239230Y-16988460D01*
X15239230Y-16988460D02*
X15229706Y-16978936D01*
X15229706Y-16978936D02*
X15220182Y-16959889D01*
X15220182Y-16959889D02*
X15220182Y-16902746D01*
X15220182Y-16902746D02*
X15229706Y-16883698D01*
X15229706Y-16883698D02*
X15239230Y-16874174D01*
X15239230Y-16874174D02*
X15258277Y-16864650D01*
X15258277Y-16864650D02*
X15286849Y-16864650D01*
X15286849Y-16864650D02*
X15305896Y-16874174D01*
X15305896Y-16874174D02*
X15315420Y-16883698D01*
X15315420Y-16883698D02*
X15324944Y-16902746D01*
X15324944Y-16902746D02*
X15324944Y-16959889D01*
X15324944Y-16959889D02*
X15315420Y-16978936D01*
X15315420Y-16978936D02*
X15305896Y-16988460D01*
X15305896Y-16988460D02*
X15286849Y-16997984D01*
X15286849Y-16997984D02*
X15258277Y-16997984D01*
X15382087Y-16864650D02*
X15458277Y-16864650D01*
X15410658Y-16797984D02*
X15410658Y-16969412D01*
X15410658Y-16969412D02*
X15420182Y-16988460D01*
X15420182Y-16988460D02*
X15439230Y-16997984D01*
X15439230Y-16997984D02*
X15458277Y-16997984D01*
X15677325Y-16864650D02*
X15677325Y-17064650D01*
X15677325Y-16874174D02*
X15696372Y-16864650D01*
X15696372Y-16864650D02*
X15734468Y-16864650D01*
X15734468Y-16864650D02*
X15753515Y-16874174D01*
X15753515Y-16874174D02*
X15763039Y-16883698D01*
X15763039Y-16883698D02*
X15772563Y-16902746D01*
X15772563Y-16902746D02*
X15772563Y-16959889D01*
X15772563Y-16959889D02*
X15763039Y-16978936D01*
X15763039Y-16978936D02*
X15753515Y-16988460D01*
X15753515Y-16988460D02*
X15734468Y-16997984D01*
X15734468Y-16997984D02*
X15696372Y-16997984D01*
X15696372Y-16997984D02*
X15677325Y-16988460D01*
X15886849Y-16997984D02*
X15867801Y-16988460D01*
X15867801Y-16988460D02*
X15858277Y-16969412D01*
X15858277Y-16969412D02*
X15858277Y-16797984D01*
X16048753Y-16997984D02*
X16048753Y-16893222D01*
X16048753Y-16893222D02*
X16039230Y-16874174D01*
X16039230Y-16874174D02*
X16020182Y-16864650D01*
X16020182Y-16864650D02*
X15982087Y-16864650D01*
X15982087Y-16864650D02*
X15963039Y-16874174D01*
X16048753Y-16988460D02*
X16029706Y-16997984D01*
X16029706Y-16997984D02*
X15982087Y-16997984D01*
X15982087Y-16997984D02*
X15963039Y-16988460D01*
X15963039Y-16988460D02*
X15953515Y-16969412D01*
X15953515Y-16969412D02*
X15953515Y-16950365D01*
X15953515Y-16950365D02*
X15963039Y-16931317D01*
X15963039Y-16931317D02*
X15982087Y-16921793D01*
X15982087Y-16921793D02*
X16029706Y-16921793D01*
X16029706Y-16921793D02*
X16048753Y-16912270D01*
X16115420Y-16864650D02*
X16191611Y-16864650D01*
X16143992Y-16797984D02*
X16143992Y-16969412D01*
X16143992Y-16969412D02*
X16153515Y-16988460D01*
X16153515Y-16988460D02*
X16172563Y-16997984D01*
X16172563Y-16997984D02*
X16191611Y-16997984D01*
X16334468Y-16988460D02*
X16315420Y-16997984D01*
X16315420Y-16997984D02*
X16277325Y-16997984D01*
X16277325Y-16997984D02*
X16258277Y-16988460D01*
X16258277Y-16988460D02*
X16248753Y-16969412D01*
X16248753Y-16969412D02*
X16248753Y-16893222D01*
X16248753Y-16893222D02*
X16258277Y-16874174D01*
X16258277Y-16874174D02*
X16277325Y-16864650D01*
X16277325Y-16864650D02*
X16315420Y-16864650D01*
X16315420Y-16864650D02*
X16334468Y-16874174D01*
X16334468Y-16874174D02*
X16343992Y-16893222D01*
X16343992Y-16893222D02*
X16343992Y-16912270D01*
X16343992Y-16912270D02*
X16248753Y-16931317D01*
X16515420Y-16997984D02*
X16515420Y-16797984D01*
X16515420Y-16988460D02*
X16496373Y-16997984D01*
X16496373Y-16997984D02*
X16458277Y-16997984D01*
X16458277Y-16997984D02*
X16439230Y-16988460D01*
X16439230Y-16988460D02*
X16429706Y-16978936D01*
X16429706Y-16978936D02*
X16420182Y-16959889D01*
X16420182Y-16959889D02*
X16420182Y-16902746D01*
X16420182Y-16902746D02*
X16429706Y-16883698D01*
X16429706Y-16883698D02*
X16439230Y-16874174D01*
X16439230Y-16874174D02*
X16458277Y-16864650D01*
X16458277Y-16864650D02*
X16496373Y-16864650D01*
X16496373Y-16864650D02*
X16515420Y-16874174D01*
X16591611Y-17074174D02*
X16601134Y-17064650D01*
X16601134Y-17064650D02*
X16620182Y-17036079D01*
X16620182Y-17036079D02*
X16629706Y-17017031D01*
X16629706Y-17017031D02*
X16639230Y-16988460D01*
X16639230Y-16988460D02*
X16648753Y-16940841D01*
X16648753Y-16940841D02*
X16648753Y-16902746D01*
X16648753Y-16902746D02*
X16639230Y-16855127D01*
X16639230Y-16855127D02*
X16629706Y-16826555D01*
X16629706Y-16826555D02*
X16620182Y-16807508D01*
X16620182Y-16807508D02*
X16601134Y-16778936D01*
X16601134Y-16778936D02*
X16591611Y-16769412D01*
M02*
