%TF.GenerationSoftware,KiCad,Pcbnew,8.0.4-8.0.4-0~ubuntu22.04.1*%
%TF.CreationDate,2024-08-28T20:52:20+02:00*%
%TF.ProjectId,defcon32_badge,64656663-6f6e-4333-925f-62616467652e,rev?*%
%TF.SameCoordinates,Original*%
%TF.FileFunction,Legend,Top*%
%TF.FilePolarity,Positive*%
%FSLAX46Y46*%
G04 Gerber Fmt 4.6, Leading zero omitted, Abs format (unit mm)*
G04 Created by KiCad (PCBNEW 8.0.4-8.0.4-0~ubuntu22.04.1) date 2024-08-28 20:52:20*
%MOMM*%
%LPD*%
G01*
G04 APERTURE LIST*
%ADD10C,0.100000*%
%ADD11C,0.150000*%
%ADD12C,0.120000*%
%ADD13C,0.000000*%
G04 APERTURE END LIST*
D10*
X112900000Y-74575000D02*
X112900000Y-107575000D01*
X112900000Y-74575000D02*
X146900000Y-74575000D01*
X146900000Y-74575000D02*
X146900000Y-107575000D01*
X112900000Y-107575000D02*
X146900000Y-107575000D01*
D11*
X131566667Y-150412295D02*
X131300000Y-150031342D01*
X131109524Y-150412295D02*
X131109524Y-149612295D01*
X131109524Y-149612295D02*
X131414286Y-149612295D01*
X131414286Y-149612295D02*
X131490476Y-149650390D01*
X131490476Y-149650390D02*
X131528571Y-149688485D01*
X131528571Y-149688485D02*
X131566667Y-149764676D01*
X131566667Y-149764676D02*
X131566667Y-149878961D01*
X131566667Y-149878961D02*
X131528571Y-149955152D01*
X131528571Y-149955152D02*
X131490476Y-149993247D01*
X131490476Y-149993247D02*
X131414286Y-150031342D01*
X131414286Y-150031342D02*
X131109524Y-150031342D01*
X131947619Y-150412295D02*
X132100000Y-150412295D01*
X132100000Y-150412295D02*
X132176190Y-150374200D01*
X132176190Y-150374200D02*
X132214286Y-150336104D01*
X132214286Y-150336104D02*
X132290476Y-150221819D01*
X132290476Y-150221819D02*
X132328571Y-150069438D01*
X132328571Y-150069438D02*
X132328571Y-149764676D01*
X132328571Y-149764676D02*
X132290476Y-149688485D01*
X132290476Y-149688485D02*
X132252381Y-149650390D01*
X132252381Y-149650390D02*
X132176190Y-149612295D01*
X132176190Y-149612295D02*
X132023809Y-149612295D01*
X132023809Y-149612295D02*
X131947619Y-149650390D01*
X131947619Y-149650390D02*
X131909524Y-149688485D01*
X131909524Y-149688485D02*
X131871428Y-149764676D01*
X131871428Y-149764676D02*
X131871428Y-149955152D01*
X131871428Y-149955152D02*
X131909524Y-150031342D01*
X131909524Y-150031342D02*
X131947619Y-150069438D01*
X131947619Y-150069438D02*
X132023809Y-150107533D01*
X132023809Y-150107533D02*
X132176190Y-150107533D01*
X132176190Y-150107533D02*
X132252381Y-150069438D01*
X132252381Y-150069438D02*
X132290476Y-150031342D01*
X132290476Y-150031342D02*
X132328571Y-149955152D01*
X122238095Y-136804819D02*
X122809523Y-136804819D01*
X122523809Y-137804819D02*
X122523809Y-136804819D01*
X123142857Y-137804819D02*
X123142857Y-136804819D01*
X123142857Y-136804819D02*
X123523809Y-136804819D01*
X123523809Y-136804819D02*
X123619047Y-136852438D01*
X123619047Y-136852438D02*
X123666666Y-136900057D01*
X123666666Y-136900057D02*
X123714285Y-136995295D01*
X123714285Y-136995295D02*
X123714285Y-137138152D01*
X123714285Y-137138152D02*
X123666666Y-137233390D01*
X123666666Y-137233390D02*
X123619047Y-137281009D01*
X123619047Y-137281009D02*
X123523809Y-137328628D01*
X123523809Y-137328628D02*
X123142857Y-137328628D01*
X124047619Y-136804819D02*
X124666666Y-136804819D01*
X124666666Y-136804819D02*
X124333333Y-137185771D01*
X124333333Y-137185771D02*
X124476190Y-137185771D01*
X124476190Y-137185771D02*
X124571428Y-137233390D01*
X124571428Y-137233390D02*
X124619047Y-137281009D01*
X124619047Y-137281009D02*
X124666666Y-137376247D01*
X124666666Y-137376247D02*
X124666666Y-137614342D01*
X124666666Y-137614342D02*
X124619047Y-137709580D01*
X124619047Y-137709580D02*
X124571428Y-137757200D01*
X124571428Y-137757200D02*
X124476190Y-137804819D01*
X124476190Y-137804819D02*
X124190476Y-137804819D01*
X124190476Y-137804819D02*
X124095238Y-137757200D01*
X124095238Y-137757200D02*
X124047619Y-137709580D01*
X124338095Y-145454819D02*
X124909523Y-145454819D01*
X124623809Y-146454819D02*
X124623809Y-145454819D01*
X125242857Y-146454819D02*
X125242857Y-145454819D01*
X125242857Y-145454819D02*
X125623809Y-145454819D01*
X125623809Y-145454819D02*
X125719047Y-145502438D01*
X125719047Y-145502438D02*
X125766666Y-145550057D01*
X125766666Y-145550057D02*
X125814285Y-145645295D01*
X125814285Y-145645295D02*
X125814285Y-145788152D01*
X125814285Y-145788152D02*
X125766666Y-145883390D01*
X125766666Y-145883390D02*
X125719047Y-145931009D01*
X125719047Y-145931009D02*
X125623809Y-145978628D01*
X125623809Y-145978628D02*
X125242857Y-145978628D01*
X126195238Y-145550057D02*
X126242857Y-145502438D01*
X126242857Y-145502438D02*
X126338095Y-145454819D01*
X126338095Y-145454819D02*
X126576190Y-145454819D01*
X126576190Y-145454819D02*
X126671428Y-145502438D01*
X126671428Y-145502438D02*
X126719047Y-145550057D01*
X126719047Y-145550057D02*
X126766666Y-145645295D01*
X126766666Y-145645295D02*
X126766666Y-145740533D01*
X126766666Y-145740533D02*
X126719047Y-145883390D01*
X126719047Y-145883390D02*
X126147619Y-146454819D01*
X126147619Y-146454819D02*
X126766666Y-146454819D01*
X149084819Y-84442857D02*
X148608628Y-84776190D01*
X149084819Y-85014285D02*
X148084819Y-85014285D01*
X148084819Y-85014285D02*
X148084819Y-84633333D01*
X148084819Y-84633333D02*
X148132438Y-84538095D01*
X148132438Y-84538095D02*
X148180057Y-84490476D01*
X148180057Y-84490476D02*
X148275295Y-84442857D01*
X148275295Y-84442857D02*
X148418152Y-84442857D01*
X148418152Y-84442857D02*
X148513390Y-84490476D01*
X148513390Y-84490476D02*
X148561009Y-84538095D01*
X148561009Y-84538095D02*
X148608628Y-84633333D01*
X148608628Y-84633333D02*
X148608628Y-85014285D01*
X149084819Y-83490476D02*
X149084819Y-84061904D01*
X149084819Y-83776190D02*
X148084819Y-83776190D01*
X148084819Y-83776190D02*
X148227676Y-83871428D01*
X148227676Y-83871428D02*
X148322914Y-83966666D01*
X148322914Y-83966666D02*
X148370533Y-84061904D01*
X149084819Y-82538095D02*
X149084819Y-83109523D01*
X149084819Y-82823809D02*
X148084819Y-82823809D01*
X148084819Y-82823809D02*
X148227676Y-82919047D01*
X148227676Y-82919047D02*
X148322914Y-83014285D01*
X148322914Y-83014285D02*
X148370533Y-83109523D01*
X149116667Y-125332295D02*
X148850000Y-124951342D01*
X148659524Y-125332295D02*
X148659524Y-124532295D01*
X148659524Y-124532295D02*
X148964286Y-124532295D01*
X148964286Y-124532295D02*
X149040476Y-124570390D01*
X149040476Y-124570390D02*
X149078571Y-124608485D01*
X149078571Y-124608485D02*
X149116667Y-124684676D01*
X149116667Y-124684676D02*
X149116667Y-124798961D01*
X149116667Y-124798961D02*
X149078571Y-124875152D01*
X149078571Y-124875152D02*
X149040476Y-124913247D01*
X149040476Y-124913247D02*
X148964286Y-124951342D01*
X148964286Y-124951342D02*
X148659524Y-124951342D01*
X149383333Y-124532295D02*
X149916667Y-124532295D01*
X149916667Y-124532295D02*
X149573809Y-125332295D01*
X121542857Y-64487295D02*
X121542857Y-63687295D01*
X121542857Y-63687295D02*
X121733333Y-63687295D01*
X121733333Y-63687295D02*
X121847619Y-63725390D01*
X121847619Y-63725390D02*
X121923809Y-63801580D01*
X121923809Y-63801580D02*
X121961904Y-63877771D01*
X121961904Y-63877771D02*
X122000000Y-64030152D01*
X122000000Y-64030152D02*
X122000000Y-64144438D01*
X122000000Y-64144438D02*
X121961904Y-64296819D01*
X121961904Y-64296819D02*
X121923809Y-64373009D01*
X121923809Y-64373009D02*
X121847619Y-64449200D01*
X121847619Y-64449200D02*
X121733333Y-64487295D01*
X121733333Y-64487295D02*
X121542857Y-64487295D01*
X122266666Y-63687295D02*
X122761904Y-63687295D01*
X122761904Y-63687295D02*
X122495238Y-63992057D01*
X122495238Y-63992057D02*
X122609523Y-63992057D01*
X122609523Y-63992057D02*
X122685714Y-64030152D01*
X122685714Y-64030152D02*
X122723809Y-64068247D01*
X122723809Y-64068247D02*
X122761904Y-64144438D01*
X122761904Y-64144438D02*
X122761904Y-64334914D01*
X122761904Y-64334914D02*
X122723809Y-64411104D01*
X122723809Y-64411104D02*
X122685714Y-64449200D01*
X122685714Y-64449200D02*
X122609523Y-64487295D01*
X122609523Y-64487295D02*
X122380952Y-64487295D01*
X122380952Y-64487295D02*
X122304761Y-64449200D01*
X122304761Y-64449200D02*
X122266666Y-64411104D01*
X118269047Y-66479819D02*
X117697619Y-66479819D01*
X117983333Y-66479819D02*
X117983333Y-65479819D01*
X117983333Y-65479819D02*
X117888095Y-65622676D01*
X117888095Y-65622676D02*
X117792857Y-65717914D01*
X117792857Y-65717914D02*
X117697619Y-65765533D01*
X147183332Y-137674200D02*
X147297618Y-137712295D01*
X147297618Y-137712295D02*
X147488094Y-137712295D01*
X147488094Y-137712295D02*
X147564285Y-137674200D01*
X147564285Y-137674200D02*
X147602380Y-137636104D01*
X147602380Y-137636104D02*
X147640475Y-137559914D01*
X147640475Y-137559914D02*
X147640475Y-137483723D01*
X147640475Y-137483723D02*
X147602380Y-137407533D01*
X147602380Y-137407533D02*
X147564285Y-137369438D01*
X147564285Y-137369438D02*
X147488094Y-137331342D01*
X147488094Y-137331342D02*
X147335713Y-137293247D01*
X147335713Y-137293247D02*
X147259523Y-137255152D01*
X147259523Y-137255152D02*
X147221428Y-137217057D01*
X147221428Y-137217057D02*
X147183332Y-137140866D01*
X147183332Y-137140866D02*
X147183332Y-137064676D01*
X147183332Y-137064676D02*
X147221428Y-136988485D01*
X147221428Y-136988485D02*
X147259523Y-136950390D01*
X147259523Y-136950390D02*
X147335713Y-136912295D01*
X147335713Y-136912295D02*
X147526190Y-136912295D01*
X147526190Y-136912295D02*
X147640475Y-136950390D01*
X147907142Y-136912295D02*
X148097618Y-137712295D01*
X148097618Y-137712295D02*
X148249999Y-137140866D01*
X148249999Y-137140866D02*
X148402380Y-137712295D01*
X148402380Y-137712295D02*
X148592857Y-136912295D01*
X149316666Y-137712295D02*
X148859523Y-137712295D01*
X149088095Y-137712295D02*
X149088095Y-136912295D01*
X149088095Y-136912295D02*
X149011904Y-137026580D01*
X149011904Y-137026580D02*
X148935714Y-137102771D01*
X148935714Y-137102771D02*
X148859523Y-137140866D01*
X127216667Y-80846104D02*
X127178571Y-80884200D01*
X127178571Y-80884200D02*
X127064286Y-80922295D01*
X127064286Y-80922295D02*
X126988095Y-80922295D01*
X126988095Y-80922295D02*
X126873809Y-80884200D01*
X126873809Y-80884200D02*
X126797619Y-80808009D01*
X126797619Y-80808009D02*
X126759524Y-80731819D01*
X126759524Y-80731819D02*
X126721428Y-80579438D01*
X126721428Y-80579438D02*
X126721428Y-80465152D01*
X126721428Y-80465152D02*
X126759524Y-80312771D01*
X126759524Y-80312771D02*
X126797619Y-80236580D01*
X126797619Y-80236580D02*
X126873809Y-80160390D01*
X126873809Y-80160390D02*
X126988095Y-80122295D01*
X126988095Y-80122295D02*
X127064286Y-80122295D01*
X127064286Y-80122295D02*
X127178571Y-80160390D01*
X127178571Y-80160390D02*
X127216667Y-80198485D01*
X127521428Y-80198485D02*
X127559524Y-80160390D01*
X127559524Y-80160390D02*
X127635714Y-80122295D01*
X127635714Y-80122295D02*
X127826190Y-80122295D01*
X127826190Y-80122295D02*
X127902381Y-80160390D01*
X127902381Y-80160390D02*
X127940476Y-80198485D01*
X127940476Y-80198485D02*
X127978571Y-80274676D01*
X127978571Y-80274676D02*
X127978571Y-80350866D01*
X127978571Y-80350866D02*
X127940476Y-80465152D01*
X127940476Y-80465152D02*
X127483333Y-80922295D01*
X127483333Y-80922295D02*
X127978571Y-80922295D01*
X154662295Y-149733332D02*
X154281342Y-149999999D01*
X154662295Y-150190475D02*
X153862295Y-150190475D01*
X153862295Y-150190475D02*
X153862295Y-149885713D01*
X153862295Y-149885713D02*
X153900390Y-149809523D01*
X153900390Y-149809523D02*
X153938485Y-149771428D01*
X153938485Y-149771428D02*
X154014676Y-149733332D01*
X154014676Y-149733332D02*
X154128961Y-149733332D01*
X154128961Y-149733332D02*
X154205152Y-149771428D01*
X154205152Y-149771428D02*
X154243247Y-149809523D01*
X154243247Y-149809523D02*
X154281342Y-149885713D01*
X154281342Y-149885713D02*
X154281342Y-150190475D01*
X154662295Y-148971428D02*
X154662295Y-149428571D01*
X154662295Y-149199999D02*
X153862295Y-149199999D01*
X153862295Y-149199999D02*
X153976580Y-149276190D01*
X153976580Y-149276190D02*
X154052771Y-149352380D01*
X154052771Y-149352380D02*
X154090866Y-149428571D01*
X124716667Y-130132295D02*
X124450000Y-129751342D01*
X124259524Y-130132295D02*
X124259524Y-129332295D01*
X124259524Y-129332295D02*
X124564286Y-129332295D01*
X124564286Y-129332295D02*
X124640476Y-129370390D01*
X124640476Y-129370390D02*
X124678571Y-129408485D01*
X124678571Y-129408485D02*
X124716667Y-129484676D01*
X124716667Y-129484676D02*
X124716667Y-129598961D01*
X124716667Y-129598961D02*
X124678571Y-129675152D01*
X124678571Y-129675152D02*
X124640476Y-129713247D01*
X124640476Y-129713247D02*
X124564286Y-129751342D01*
X124564286Y-129751342D02*
X124259524Y-129751342D01*
X125402381Y-129598961D02*
X125402381Y-130132295D01*
X125211905Y-129294200D02*
X125021428Y-129865628D01*
X125021428Y-129865628D02*
X125516667Y-129865628D01*
X105959524Y-64487295D02*
X105959524Y-63687295D01*
X105959524Y-63687295D02*
X106150000Y-63687295D01*
X106150000Y-63687295D02*
X106264286Y-63725390D01*
X106264286Y-63725390D02*
X106340476Y-63801580D01*
X106340476Y-63801580D02*
X106378571Y-63877771D01*
X106378571Y-63877771D02*
X106416667Y-64030152D01*
X106416667Y-64030152D02*
X106416667Y-64144438D01*
X106416667Y-64144438D02*
X106378571Y-64296819D01*
X106378571Y-64296819D02*
X106340476Y-64373009D01*
X106340476Y-64373009D02*
X106264286Y-64449200D01*
X106264286Y-64449200D02*
X106150000Y-64487295D01*
X106150000Y-64487295D02*
X105959524Y-64487295D01*
X107102381Y-63953961D02*
X107102381Y-64487295D01*
X106911905Y-63649200D02*
X106721428Y-64220628D01*
X106721428Y-64220628D02*
X107216667Y-64220628D01*
X102685714Y-66479819D02*
X102114286Y-66479819D01*
X102400000Y-66479819D02*
X102400000Y-65479819D01*
X102400000Y-65479819D02*
X102304762Y-65622676D01*
X102304762Y-65622676D02*
X102209524Y-65717914D01*
X102209524Y-65717914D02*
X102114286Y-65765533D01*
X149716667Y-63076104D02*
X149678571Y-63114200D01*
X149678571Y-63114200D02*
X149564286Y-63152295D01*
X149564286Y-63152295D02*
X149488095Y-63152295D01*
X149488095Y-63152295D02*
X149373809Y-63114200D01*
X149373809Y-63114200D02*
X149297619Y-63038009D01*
X149297619Y-63038009D02*
X149259524Y-62961819D01*
X149259524Y-62961819D02*
X149221428Y-62809438D01*
X149221428Y-62809438D02*
X149221428Y-62695152D01*
X149221428Y-62695152D02*
X149259524Y-62542771D01*
X149259524Y-62542771D02*
X149297619Y-62466580D01*
X149297619Y-62466580D02*
X149373809Y-62390390D01*
X149373809Y-62390390D02*
X149488095Y-62352295D01*
X149488095Y-62352295D02*
X149564286Y-62352295D01*
X149564286Y-62352295D02*
X149678571Y-62390390D01*
X149678571Y-62390390D02*
X149716667Y-62428485D01*
X149983333Y-62352295D02*
X150478571Y-62352295D01*
X150478571Y-62352295D02*
X150211905Y-62657057D01*
X150211905Y-62657057D02*
X150326190Y-62657057D01*
X150326190Y-62657057D02*
X150402381Y-62695152D01*
X150402381Y-62695152D02*
X150440476Y-62733247D01*
X150440476Y-62733247D02*
X150478571Y-62809438D01*
X150478571Y-62809438D02*
X150478571Y-62999914D01*
X150478571Y-62999914D02*
X150440476Y-63076104D01*
X150440476Y-63076104D02*
X150402381Y-63114200D01*
X150402381Y-63114200D02*
X150326190Y-63152295D01*
X150326190Y-63152295D02*
X150097619Y-63152295D01*
X150097619Y-63152295D02*
X150021428Y-63114200D01*
X150021428Y-63114200D02*
X149983333Y-63076104D01*
X152709524Y-64487295D02*
X152709524Y-63687295D01*
X152709524Y-63687295D02*
X152900000Y-63687295D01*
X152900000Y-63687295D02*
X153014286Y-63725390D01*
X153014286Y-63725390D02*
X153090476Y-63801580D01*
X153090476Y-63801580D02*
X153128571Y-63877771D01*
X153128571Y-63877771D02*
X153166667Y-64030152D01*
X153166667Y-64030152D02*
X153166667Y-64144438D01*
X153166667Y-64144438D02*
X153128571Y-64296819D01*
X153128571Y-64296819D02*
X153090476Y-64373009D01*
X153090476Y-64373009D02*
X153014286Y-64449200D01*
X153014286Y-64449200D02*
X152900000Y-64487295D01*
X152900000Y-64487295D02*
X152709524Y-64487295D01*
X153928571Y-64487295D02*
X153471428Y-64487295D01*
X153700000Y-64487295D02*
X153700000Y-63687295D01*
X153700000Y-63687295D02*
X153623809Y-63801580D01*
X153623809Y-63801580D02*
X153547619Y-63877771D01*
X153547619Y-63877771D02*
X153471428Y-63915866D01*
X149435714Y-66479819D02*
X148864286Y-66479819D01*
X149150000Y-66479819D02*
X149150000Y-65479819D01*
X149150000Y-65479819D02*
X149054762Y-65622676D01*
X149054762Y-65622676D02*
X148959524Y-65717914D01*
X148959524Y-65717914D02*
X148864286Y-65765533D01*
X116583333Y-153862295D02*
X116583333Y-154433723D01*
X116583333Y-154433723D02*
X116545238Y-154548009D01*
X116545238Y-154548009D02*
X116469047Y-154624200D01*
X116469047Y-154624200D02*
X116354762Y-154662295D01*
X116354762Y-154662295D02*
X116278571Y-154662295D01*
X116926190Y-153938485D02*
X116964286Y-153900390D01*
X116964286Y-153900390D02*
X117040476Y-153862295D01*
X117040476Y-153862295D02*
X117230952Y-153862295D01*
X117230952Y-153862295D02*
X117307143Y-153900390D01*
X117307143Y-153900390D02*
X117345238Y-153938485D01*
X117345238Y-153938485D02*
X117383333Y-154014676D01*
X117383333Y-154014676D02*
X117383333Y-154090866D01*
X117383333Y-154090866D02*
X117345238Y-154205152D01*
X117345238Y-154205152D02*
X116888095Y-154662295D01*
X116888095Y-154662295D02*
X117383333Y-154662295D01*
X120932295Y-134733332D02*
X120551342Y-134999999D01*
X120932295Y-135190475D02*
X120132295Y-135190475D01*
X120132295Y-135190475D02*
X120132295Y-134885713D01*
X120132295Y-134885713D02*
X120170390Y-134809523D01*
X120170390Y-134809523D02*
X120208485Y-134771428D01*
X120208485Y-134771428D02*
X120284676Y-134733332D01*
X120284676Y-134733332D02*
X120398961Y-134733332D01*
X120398961Y-134733332D02*
X120475152Y-134771428D01*
X120475152Y-134771428D02*
X120513247Y-134809523D01*
X120513247Y-134809523D02*
X120551342Y-134885713D01*
X120551342Y-134885713D02*
X120551342Y-135190475D01*
X120132295Y-134009523D02*
X120132295Y-134390475D01*
X120132295Y-134390475D02*
X120513247Y-134428571D01*
X120513247Y-134428571D02*
X120475152Y-134390475D01*
X120475152Y-134390475D02*
X120437057Y-134314285D01*
X120437057Y-134314285D02*
X120437057Y-134123809D01*
X120437057Y-134123809D02*
X120475152Y-134047618D01*
X120475152Y-134047618D02*
X120513247Y-134009523D01*
X120513247Y-134009523D02*
X120589438Y-133971428D01*
X120589438Y-133971428D02*
X120779914Y-133971428D01*
X120779914Y-133971428D02*
X120856104Y-134009523D01*
X120856104Y-134009523D02*
X120894200Y-134047618D01*
X120894200Y-134047618D02*
X120932295Y-134123809D01*
X120932295Y-134123809D02*
X120932295Y-134314285D01*
X120932295Y-134314285D02*
X120894200Y-134390475D01*
X120894200Y-134390475D02*
X120856104Y-134428571D01*
X151866667Y-136362295D02*
X151600000Y-135981342D01*
X151409524Y-136362295D02*
X151409524Y-135562295D01*
X151409524Y-135562295D02*
X151714286Y-135562295D01*
X151714286Y-135562295D02*
X151790476Y-135600390D01*
X151790476Y-135600390D02*
X151828571Y-135638485D01*
X151828571Y-135638485D02*
X151866667Y-135714676D01*
X151866667Y-135714676D02*
X151866667Y-135828961D01*
X151866667Y-135828961D02*
X151828571Y-135905152D01*
X151828571Y-135905152D02*
X151790476Y-135943247D01*
X151790476Y-135943247D02*
X151714286Y-135981342D01*
X151714286Y-135981342D02*
X151409524Y-135981342D01*
X152171428Y-135638485D02*
X152209524Y-135600390D01*
X152209524Y-135600390D02*
X152285714Y-135562295D01*
X152285714Y-135562295D02*
X152476190Y-135562295D01*
X152476190Y-135562295D02*
X152552381Y-135600390D01*
X152552381Y-135600390D02*
X152590476Y-135638485D01*
X152590476Y-135638485D02*
X152628571Y-135714676D01*
X152628571Y-135714676D02*
X152628571Y-135790866D01*
X152628571Y-135790866D02*
X152590476Y-135905152D01*
X152590476Y-135905152D02*
X152133333Y-136362295D01*
X152133333Y-136362295D02*
X152628571Y-136362295D01*
X139833332Y-123624200D02*
X139947618Y-123662295D01*
X139947618Y-123662295D02*
X140138094Y-123662295D01*
X140138094Y-123662295D02*
X140214285Y-123624200D01*
X140214285Y-123624200D02*
X140252380Y-123586104D01*
X140252380Y-123586104D02*
X140290475Y-123509914D01*
X140290475Y-123509914D02*
X140290475Y-123433723D01*
X140290475Y-123433723D02*
X140252380Y-123357533D01*
X140252380Y-123357533D02*
X140214285Y-123319438D01*
X140214285Y-123319438D02*
X140138094Y-123281342D01*
X140138094Y-123281342D02*
X139985713Y-123243247D01*
X139985713Y-123243247D02*
X139909523Y-123205152D01*
X139909523Y-123205152D02*
X139871428Y-123167057D01*
X139871428Y-123167057D02*
X139833332Y-123090866D01*
X139833332Y-123090866D02*
X139833332Y-123014676D01*
X139833332Y-123014676D02*
X139871428Y-122938485D01*
X139871428Y-122938485D02*
X139909523Y-122900390D01*
X139909523Y-122900390D02*
X139985713Y-122862295D01*
X139985713Y-122862295D02*
X140176190Y-122862295D01*
X140176190Y-122862295D02*
X140290475Y-122900390D01*
X140557142Y-122862295D02*
X140747618Y-123662295D01*
X140747618Y-123662295D02*
X140899999Y-123090866D01*
X140899999Y-123090866D02*
X141052380Y-123662295D01*
X141052380Y-123662295D02*
X141242857Y-122862295D01*
X141471428Y-122862295D02*
X142004762Y-122862295D01*
X142004762Y-122862295D02*
X141661904Y-123662295D01*
X121482295Y-118133332D02*
X121101342Y-118399999D01*
X121482295Y-118590475D02*
X120682295Y-118590475D01*
X120682295Y-118590475D02*
X120682295Y-118285713D01*
X120682295Y-118285713D02*
X120720390Y-118209523D01*
X120720390Y-118209523D02*
X120758485Y-118171428D01*
X120758485Y-118171428D02*
X120834676Y-118133332D01*
X120834676Y-118133332D02*
X120948961Y-118133332D01*
X120948961Y-118133332D02*
X121025152Y-118171428D01*
X121025152Y-118171428D02*
X121063247Y-118209523D01*
X121063247Y-118209523D02*
X121101342Y-118285713D01*
X121101342Y-118285713D02*
X121101342Y-118590475D01*
X120682295Y-117866666D02*
X120682295Y-117371428D01*
X120682295Y-117371428D02*
X120987057Y-117638094D01*
X120987057Y-117638094D02*
X120987057Y-117523809D01*
X120987057Y-117523809D02*
X121025152Y-117447618D01*
X121025152Y-117447618D02*
X121063247Y-117409523D01*
X121063247Y-117409523D02*
X121139438Y-117371428D01*
X121139438Y-117371428D02*
X121329914Y-117371428D01*
X121329914Y-117371428D02*
X121406104Y-117409523D01*
X121406104Y-117409523D02*
X121444200Y-117447618D01*
X121444200Y-117447618D02*
X121482295Y-117523809D01*
X121482295Y-117523809D02*
X121482295Y-117752380D01*
X121482295Y-117752380D02*
X121444200Y-117828571D01*
X121444200Y-117828571D02*
X121406104Y-117866666D01*
X151783332Y-115724200D02*
X151897618Y-115762295D01*
X151897618Y-115762295D02*
X152088094Y-115762295D01*
X152088094Y-115762295D02*
X152164285Y-115724200D01*
X152164285Y-115724200D02*
X152202380Y-115686104D01*
X152202380Y-115686104D02*
X152240475Y-115609914D01*
X152240475Y-115609914D02*
X152240475Y-115533723D01*
X152240475Y-115533723D02*
X152202380Y-115457533D01*
X152202380Y-115457533D02*
X152164285Y-115419438D01*
X152164285Y-115419438D02*
X152088094Y-115381342D01*
X152088094Y-115381342D02*
X151935713Y-115343247D01*
X151935713Y-115343247D02*
X151859523Y-115305152D01*
X151859523Y-115305152D02*
X151821428Y-115267057D01*
X151821428Y-115267057D02*
X151783332Y-115190866D01*
X151783332Y-115190866D02*
X151783332Y-115114676D01*
X151783332Y-115114676D02*
X151821428Y-115038485D01*
X151821428Y-115038485D02*
X151859523Y-115000390D01*
X151859523Y-115000390D02*
X151935713Y-114962295D01*
X151935713Y-114962295D02*
X152126190Y-114962295D01*
X152126190Y-114962295D02*
X152240475Y-115000390D01*
X152507142Y-114962295D02*
X152697618Y-115762295D01*
X152697618Y-115762295D02*
X152849999Y-115190866D01*
X152849999Y-115190866D02*
X153002380Y-115762295D01*
X153002380Y-115762295D02*
X153192857Y-114962295D01*
X153840476Y-114962295D02*
X153688095Y-114962295D01*
X153688095Y-114962295D02*
X153611904Y-115000390D01*
X153611904Y-115000390D02*
X153573809Y-115038485D01*
X153573809Y-115038485D02*
X153497619Y-115152771D01*
X153497619Y-115152771D02*
X153459523Y-115305152D01*
X153459523Y-115305152D02*
X153459523Y-115609914D01*
X153459523Y-115609914D02*
X153497619Y-115686104D01*
X153497619Y-115686104D02*
X153535714Y-115724200D01*
X153535714Y-115724200D02*
X153611904Y-115762295D01*
X153611904Y-115762295D02*
X153764285Y-115762295D01*
X153764285Y-115762295D02*
X153840476Y-115724200D01*
X153840476Y-115724200D02*
X153878571Y-115686104D01*
X153878571Y-115686104D02*
X153916666Y-115609914D01*
X153916666Y-115609914D02*
X153916666Y-115419438D01*
X153916666Y-115419438D02*
X153878571Y-115343247D01*
X153878571Y-115343247D02*
X153840476Y-115305152D01*
X153840476Y-115305152D02*
X153764285Y-115267057D01*
X153764285Y-115267057D02*
X153611904Y-115267057D01*
X153611904Y-115267057D02*
X153535714Y-115305152D01*
X153535714Y-115305152D02*
X153497619Y-115343247D01*
X153497619Y-115343247D02*
X153459523Y-115419438D01*
X111112295Y-143159523D02*
X111759914Y-143159523D01*
X111759914Y-143159523D02*
X111836104Y-143121428D01*
X111836104Y-143121428D02*
X111874200Y-143083333D01*
X111874200Y-143083333D02*
X111912295Y-143007142D01*
X111912295Y-143007142D02*
X111912295Y-142854761D01*
X111912295Y-142854761D02*
X111874200Y-142778571D01*
X111874200Y-142778571D02*
X111836104Y-142740476D01*
X111836104Y-142740476D02*
X111759914Y-142702380D01*
X111759914Y-142702380D02*
X111112295Y-142702380D01*
X111188485Y-142359524D02*
X111150390Y-142321428D01*
X111150390Y-142321428D02*
X111112295Y-142245238D01*
X111112295Y-142245238D02*
X111112295Y-142054762D01*
X111112295Y-142054762D02*
X111150390Y-141978571D01*
X111150390Y-141978571D02*
X111188485Y-141940476D01*
X111188485Y-141940476D02*
X111264676Y-141902381D01*
X111264676Y-141902381D02*
X111340866Y-141902381D01*
X111340866Y-141902381D02*
X111455152Y-141940476D01*
X111455152Y-141940476D02*
X111912295Y-142397619D01*
X111912295Y-142397619D02*
X111912295Y-141902381D01*
X120838095Y-144306819D02*
X121409523Y-144306819D01*
X121123809Y-145306819D02*
X121123809Y-144306819D01*
X121742857Y-145306819D02*
X121742857Y-144306819D01*
X121742857Y-144306819D02*
X122123809Y-144306819D01*
X122123809Y-144306819D02*
X122219047Y-144354438D01*
X122219047Y-144354438D02*
X122266666Y-144402057D01*
X122266666Y-144402057D02*
X122314285Y-144497295D01*
X122314285Y-144497295D02*
X122314285Y-144640152D01*
X122314285Y-144640152D02*
X122266666Y-144735390D01*
X122266666Y-144735390D02*
X122219047Y-144783009D01*
X122219047Y-144783009D02*
X122123809Y-144830628D01*
X122123809Y-144830628D02*
X121742857Y-144830628D01*
X123171428Y-144640152D02*
X123171428Y-145306819D01*
X122933333Y-144259200D02*
X122695238Y-144973485D01*
X122695238Y-144973485D02*
X123314285Y-144973485D01*
X137126190Y-64487295D02*
X137126190Y-63687295D01*
X137126190Y-63687295D02*
X137316666Y-63687295D01*
X137316666Y-63687295D02*
X137430952Y-63725390D01*
X137430952Y-63725390D02*
X137507142Y-63801580D01*
X137507142Y-63801580D02*
X137545237Y-63877771D01*
X137545237Y-63877771D02*
X137583333Y-64030152D01*
X137583333Y-64030152D02*
X137583333Y-64144438D01*
X137583333Y-64144438D02*
X137545237Y-64296819D01*
X137545237Y-64296819D02*
X137507142Y-64373009D01*
X137507142Y-64373009D02*
X137430952Y-64449200D01*
X137430952Y-64449200D02*
X137316666Y-64487295D01*
X137316666Y-64487295D02*
X137126190Y-64487295D01*
X137888094Y-63763485D02*
X137926190Y-63725390D01*
X137926190Y-63725390D02*
X138002380Y-63687295D01*
X138002380Y-63687295D02*
X138192856Y-63687295D01*
X138192856Y-63687295D02*
X138269047Y-63725390D01*
X138269047Y-63725390D02*
X138307142Y-63763485D01*
X138307142Y-63763485D02*
X138345237Y-63839676D01*
X138345237Y-63839676D02*
X138345237Y-63915866D01*
X138345237Y-63915866D02*
X138307142Y-64030152D01*
X138307142Y-64030152D02*
X137849999Y-64487295D01*
X137849999Y-64487295D02*
X138345237Y-64487295D01*
X133852380Y-66479819D02*
X133280952Y-66479819D01*
X133566666Y-66479819D02*
X133566666Y-65479819D01*
X133566666Y-65479819D02*
X133471428Y-65622676D01*
X133471428Y-65622676D02*
X133376190Y-65717914D01*
X133376190Y-65717914D02*
X133280952Y-65765533D01*
X109909524Y-153262295D02*
X109909524Y-152462295D01*
X109909524Y-152462295D02*
X110100000Y-152462295D01*
X110100000Y-152462295D02*
X110214286Y-152500390D01*
X110214286Y-152500390D02*
X110290476Y-152576580D01*
X110290476Y-152576580D02*
X110328571Y-152652771D01*
X110328571Y-152652771D02*
X110366667Y-152805152D01*
X110366667Y-152805152D02*
X110366667Y-152919438D01*
X110366667Y-152919438D02*
X110328571Y-153071819D01*
X110328571Y-153071819D02*
X110290476Y-153148009D01*
X110290476Y-153148009D02*
X110214286Y-153224200D01*
X110214286Y-153224200D02*
X110100000Y-153262295D01*
X110100000Y-153262295D02*
X109909524Y-153262295D01*
X110747619Y-153262295D02*
X110900000Y-153262295D01*
X110900000Y-153262295D02*
X110976190Y-153224200D01*
X110976190Y-153224200D02*
X111014286Y-153186104D01*
X111014286Y-153186104D02*
X111090476Y-153071819D01*
X111090476Y-153071819D02*
X111128571Y-152919438D01*
X111128571Y-152919438D02*
X111128571Y-152614676D01*
X111128571Y-152614676D02*
X111090476Y-152538485D01*
X111090476Y-152538485D02*
X111052381Y-152500390D01*
X111052381Y-152500390D02*
X110976190Y-152462295D01*
X110976190Y-152462295D02*
X110823809Y-152462295D01*
X110823809Y-152462295D02*
X110747619Y-152500390D01*
X110747619Y-152500390D02*
X110709524Y-152538485D01*
X110709524Y-152538485D02*
X110671428Y-152614676D01*
X110671428Y-152614676D02*
X110671428Y-152805152D01*
X110671428Y-152805152D02*
X110709524Y-152881342D01*
X110709524Y-152881342D02*
X110747619Y-152919438D01*
X110747619Y-152919438D02*
X110823809Y-152957533D01*
X110823809Y-152957533D02*
X110976190Y-152957533D01*
X110976190Y-152957533D02*
X111052381Y-152919438D01*
X111052381Y-152919438D02*
X111090476Y-152881342D01*
X111090476Y-152881342D02*
X111128571Y-152805152D01*
X107824200Y-143916667D02*
X107862295Y-143802381D01*
X107862295Y-143802381D02*
X107862295Y-143611905D01*
X107862295Y-143611905D02*
X107824200Y-143535714D01*
X107824200Y-143535714D02*
X107786104Y-143497619D01*
X107786104Y-143497619D02*
X107709914Y-143459524D01*
X107709914Y-143459524D02*
X107633723Y-143459524D01*
X107633723Y-143459524D02*
X107557533Y-143497619D01*
X107557533Y-143497619D02*
X107519438Y-143535714D01*
X107519438Y-143535714D02*
X107481342Y-143611905D01*
X107481342Y-143611905D02*
X107443247Y-143764286D01*
X107443247Y-143764286D02*
X107405152Y-143840476D01*
X107405152Y-143840476D02*
X107367057Y-143878571D01*
X107367057Y-143878571D02*
X107290866Y-143916667D01*
X107290866Y-143916667D02*
X107214676Y-143916667D01*
X107214676Y-143916667D02*
X107138485Y-143878571D01*
X107138485Y-143878571D02*
X107100390Y-143840476D01*
X107100390Y-143840476D02*
X107062295Y-143764286D01*
X107062295Y-143764286D02*
X107062295Y-143573809D01*
X107062295Y-143573809D02*
X107100390Y-143459524D01*
X107062295Y-143192857D02*
X107862295Y-143002381D01*
X107862295Y-143002381D02*
X107290866Y-142850000D01*
X107290866Y-142850000D02*
X107862295Y-142697619D01*
X107862295Y-142697619D02*
X107062295Y-142507143D01*
X107405152Y-142088095D02*
X107367057Y-142164285D01*
X107367057Y-142164285D02*
X107328961Y-142202380D01*
X107328961Y-142202380D02*
X107252771Y-142240476D01*
X107252771Y-142240476D02*
X107214676Y-142240476D01*
X107214676Y-142240476D02*
X107138485Y-142202380D01*
X107138485Y-142202380D02*
X107100390Y-142164285D01*
X107100390Y-142164285D02*
X107062295Y-142088095D01*
X107062295Y-142088095D02*
X107062295Y-141935714D01*
X107062295Y-141935714D02*
X107100390Y-141859523D01*
X107100390Y-141859523D02*
X107138485Y-141821428D01*
X107138485Y-141821428D02*
X107214676Y-141783333D01*
X107214676Y-141783333D02*
X107252771Y-141783333D01*
X107252771Y-141783333D02*
X107328961Y-141821428D01*
X107328961Y-141821428D02*
X107367057Y-141859523D01*
X107367057Y-141859523D02*
X107405152Y-141935714D01*
X107405152Y-141935714D02*
X107405152Y-142088095D01*
X107405152Y-142088095D02*
X107443247Y-142164285D01*
X107443247Y-142164285D02*
X107481342Y-142202380D01*
X107481342Y-142202380D02*
X107557533Y-142240476D01*
X107557533Y-142240476D02*
X107709914Y-142240476D01*
X107709914Y-142240476D02*
X107786104Y-142202380D01*
X107786104Y-142202380D02*
X107824200Y-142164285D01*
X107824200Y-142164285D02*
X107862295Y-142088095D01*
X107862295Y-142088095D02*
X107862295Y-141935714D01*
X107862295Y-141935714D02*
X107824200Y-141859523D01*
X107824200Y-141859523D02*
X107786104Y-141821428D01*
X107786104Y-141821428D02*
X107709914Y-141783333D01*
X107709914Y-141783333D02*
X107557533Y-141783333D01*
X107557533Y-141783333D02*
X107481342Y-141821428D01*
X107481342Y-141821428D02*
X107443247Y-141859523D01*
X107443247Y-141859523D02*
X107405152Y-141935714D01*
X112058332Y-128874200D02*
X112172618Y-128912295D01*
X112172618Y-128912295D02*
X112363094Y-128912295D01*
X112363094Y-128912295D02*
X112439285Y-128874200D01*
X112439285Y-128874200D02*
X112477380Y-128836104D01*
X112477380Y-128836104D02*
X112515475Y-128759914D01*
X112515475Y-128759914D02*
X112515475Y-128683723D01*
X112515475Y-128683723D02*
X112477380Y-128607533D01*
X112477380Y-128607533D02*
X112439285Y-128569438D01*
X112439285Y-128569438D02*
X112363094Y-128531342D01*
X112363094Y-128531342D02*
X112210713Y-128493247D01*
X112210713Y-128493247D02*
X112134523Y-128455152D01*
X112134523Y-128455152D02*
X112096428Y-128417057D01*
X112096428Y-128417057D02*
X112058332Y-128340866D01*
X112058332Y-128340866D02*
X112058332Y-128264676D01*
X112058332Y-128264676D02*
X112096428Y-128188485D01*
X112096428Y-128188485D02*
X112134523Y-128150390D01*
X112134523Y-128150390D02*
X112210713Y-128112295D01*
X112210713Y-128112295D02*
X112401190Y-128112295D01*
X112401190Y-128112295D02*
X112515475Y-128150390D01*
X112782142Y-128112295D02*
X112972618Y-128912295D01*
X112972618Y-128912295D02*
X113124999Y-128340866D01*
X113124999Y-128340866D02*
X113277380Y-128912295D01*
X113277380Y-128912295D02*
X113467857Y-128112295D01*
X114115476Y-128378961D02*
X114115476Y-128912295D01*
X113925000Y-128074200D02*
X113734523Y-128645628D01*
X113734523Y-128645628D02*
X114229762Y-128645628D01*
X120383332Y-120624200D02*
X120497618Y-120662295D01*
X120497618Y-120662295D02*
X120688094Y-120662295D01*
X120688094Y-120662295D02*
X120764285Y-120624200D01*
X120764285Y-120624200D02*
X120802380Y-120586104D01*
X120802380Y-120586104D02*
X120840475Y-120509914D01*
X120840475Y-120509914D02*
X120840475Y-120433723D01*
X120840475Y-120433723D02*
X120802380Y-120357533D01*
X120802380Y-120357533D02*
X120764285Y-120319438D01*
X120764285Y-120319438D02*
X120688094Y-120281342D01*
X120688094Y-120281342D02*
X120535713Y-120243247D01*
X120535713Y-120243247D02*
X120459523Y-120205152D01*
X120459523Y-120205152D02*
X120421428Y-120167057D01*
X120421428Y-120167057D02*
X120383332Y-120090866D01*
X120383332Y-120090866D02*
X120383332Y-120014676D01*
X120383332Y-120014676D02*
X120421428Y-119938485D01*
X120421428Y-119938485D02*
X120459523Y-119900390D01*
X120459523Y-119900390D02*
X120535713Y-119862295D01*
X120535713Y-119862295D02*
X120726190Y-119862295D01*
X120726190Y-119862295D02*
X120840475Y-119900390D01*
X121107142Y-119862295D02*
X121297618Y-120662295D01*
X121297618Y-120662295D02*
X121449999Y-120090866D01*
X121449999Y-120090866D02*
X121602380Y-120662295D01*
X121602380Y-120662295D02*
X121792857Y-119862295D01*
X122021428Y-119862295D02*
X122516666Y-119862295D01*
X122516666Y-119862295D02*
X122250000Y-120167057D01*
X122250000Y-120167057D02*
X122364285Y-120167057D01*
X122364285Y-120167057D02*
X122440476Y-120205152D01*
X122440476Y-120205152D02*
X122478571Y-120243247D01*
X122478571Y-120243247D02*
X122516666Y-120319438D01*
X122516666Y-120319438D02*
X122516666Y-120509914D01*
X122516666Y-120509914D02*
X122478571Y-120586104D01*
X122478571Y-120586104D02*
X122440476Y-120624200D01*
X122440476Y-120624200D02*
X122364285Y-120662295D01*
X122364285Y-120662295D02*
X122135714Y-120662295D01*
X122135714Y-120662295D02*
X122059523Y-120624200D01*
X122059523Y-120624200D02*
X122021428Y-120586104D01*
X102316667Y-130312295D02*
X102050000Y-129931342D01*
X101859524Y-130312295D02*
X101859524Y-129512295D01*
X101859524Y-129512295D02*
X102164286Y-129512295D01*
X102164286Y-129512295D02*
X102240476Y-129550390D01*
X102240476Y-129550390D02*
X102278571Y-129588485D01*
X102278571Y-129588485D02*
X102316667Y-129664676D01*
X102316667Y-129664676D02*
X102316667Y-129778961D01*
X102316667Y-129778961D02*
X102278571Y-129855152D01*
X102278571Y-129855152D02*
X102240476Y-129893247D01*
X102240476Y-129893247D02*
X102164286Y-129931342D01*
X102164286Y-129931342D02*
X101859524Y-129931342D01*
X103002381Y-129512295D02*
X102850000Y-129512295D01*
X102850000Y-129512295D02*
X102773809Y-129550390D01*
X102773809Y-129550390D02*
X102735714Y-129588485D01*
X102735714Y-129588485D02*
X102659524Y-129702771D01*
X102659524Y-129702771D02*
X102621428Y-129855152D01*
X102621428Y-129855152D02*
X102621428Y-130159914D01*
X102621428Y-130159914D02*
X102659524Y-130236104D01*
X102659524Y-130236104D02*
X102697619Y-130274200D01*
X102697619Y-130274200D02*
X102773809Y-130312295D01*
X102773809Y-130312295D02*
X102926190Y-130312295D01*
X102926190Y-130312295D02*
X103002381Y-130274200D01*
X103002381Y-130274200D02*
X103040476Y-130236104D01*
X103040476Y-130236104D02*
X103078571Y-130159914D01*
X103078571Y-130159914D02*
X103078571Y-129969438D01*
X103078571Y-129969438D02*
X103040476Y-129893247D01*
X103040476Y-129893247D02*
X103002381Y-129855152D01*
X103002381Y-129855152D02*
X102926190Y-129817057D01*
X102926190Y-129817057D02*
X102773809Y-129817057D01*
X102773809Y-129817057D02*
X102697619Y-129855152D01*
X102697619Y-129855152D02*
X102659524Y-129893247D01*
X102659524Y-129893247D02*
X102621428Y-129969438D01*
X128538095Y-141306819D02*
X129109523Y-141306819D01*
X128823809Y-142306819D02*
X128823809Y-141306819D01*
X129442857Y-142306819D02*
X129442857Y-141306819D01*
X129442857Y-141306819D02*
X129823809Y-141306819D01*
X129823809Y-141306819D02*
X129919047Y-141354438D01*
X129919047Y-141354438D02*
X129966666Y-141402057D01*
X129966666Y-141402057D02*
X130014285Y-141497295D01*
X130014285Y-141497295D02*
X130014285Y-141640152D01*
X130014285Y-141640152D02*
X129966666Y-141735390D01*
X129966666Y-141735390D02*
X129919047Y-141783009D01*
X129919047Y-141783009D02*
X129823809Y-141830628D01*
X129823809Y-141830628D02*
X129442857Y-141830628D01*
X130966666Y-142306819D02*
X130395238Y-142306819D01*
X130680952Y-142306819D02*
X130680952Y-141306819D01*
X130680952Y-141306819D02*
X130585714Y-141449676D01*
X130585714Y-141449676D02*
X130490476Y-141544914D01*
X130490476Y-141544914D02*
X130395238Y-141592533D01*
X154586104Y-156233332D02*
X154624200Y-156271428D01*
X154624200Y-156271428D02*
X154662295Y-156385713D01*
X154662295Y-156385713D02*
X154662295Y-156461904D01*
X154662295Y-156461904D02*
X154624200Y-156576190D01*
X154624200Y-156576190D02*
X154548009Y-156652380D01*
X154548009Y-156652380D02*
X154471819Y-156690475D01*
X154471819Y-156690475D02*
X154319438Y-156728571D01*
X154319438Y-156728571D02*
X154205152Y-156728571D01*
X154205152Y-156728571D02*
X154052771Y-156690475D01*
X154052771Y-156690475D02*
X153976580Y-156652380D01*
X153976580Y-156652380D02*
X153900390Y-156576190D01*
X153900390Y-156576190D02*
X153862295Y-156461904D01*
X153862295Y-156461904D02*
X153862295Y-156385713D01*
X153862295Y-156385713D02*
X153900390Y-156271428D01*
X153900390Y-156271428D02*
X153938485Y-156233332D01*
X154662295Y-155471428D02*
X154662295Y-155928571D01*
X154662295Y-155699999D02*
X153862295Y-155699999D01*
X153862295Y-155699999D02*
X153976580Y-155776190D01*
X153976580Y-155776190D02*
X154052771Y-155852380D01*
X154052771Y-155852380D02*
X154090866Y-155928571D01*
X151740476Y-140412295D02*
X151740476Y-141059914D01*
X151740476Y-141059914D02*
X151778571Y-141136104D01*
X151778571Y-141136104D02*
X151816666Y-141174200D01*
X151816666Y-141174200D02*
X151892857Y-141212295D01*
X151892857Y-141212295D02*
X152045238Y-141212295D01*
X152045238Y-141212295D02*
X152121428Y-141174200D01*
X152121428Y-141174200D02*
X152159523Y-141136104D01*
X152159523Y-141136104D02*
X152197619Y-141059914D01*
X152197619Y-141059914D02*
X152197619Y-140412295D01*
X152997618Y-141212295D02*
X152540475Y-141212295D01*
X152769047Y-141212295D02*
X152769047Y-140412295D01*
X152769047Y-140412295D02*
X152692856Y-140526580D01*
X152692856Y-140526580D02*
X152616666Y-140602771D01*
X152616666Y-140602771D02*
X152540475Y-140640866D01*
X158466104Y-153483332D02*
X158504200Y-153521428D01*
X158504200Y-153521428D02*
X158542295Y-153635713D01*
X158542295Y-153635713D02*
X158542295Y-153711904D01*
X158542295Y-153711904D02*
X158504200Y-153826190D01*
X158504200Y-153826190D02*
X158428009Y-153902380D01*
X158428009Y-153902380D02*
X158351819Y-153940475D01*
X158351819Y-153940475D02*
X158199438Y-153978571D01*
X158199438Y-153978571D02*
X158085152Y-153978571D01*
X158085152Y-153978571D02*
X157932771Y-153940475D01*
X157932771Y-153940475D02*
X157856580Y-153902380D01*
X157856580Y-153902380D02*
X157780390Y-153826190D01*
X157780390Y-153826190D02*
X157742295Y-153711904D01*
X157742295Y-153711904D02*
X157742295Y-153635713D01*
X157742295Y-153635713D02*
X157780390Y-153521428D01*
X157780390Y-153521428D02*
X157818485Y-153483332D01*
X158085152Y-153026190D02*
X158047057Y-153102380D01*
X158047057Y-153102380D02*
X158008961Y-153140475D01*
X158008961Y-153140475D02*
X157932771Y-153178571D01*
X157932771Y-153178571D02*
X157894676Y-153178571D01*
X157894676Y-153178571D02*
X157818485Y-153140475D01*
X157818485Y-153140475D02*
X157780390Y-153102380D01*
X157780390Y-153102380D02*
X157742295Y-153026190D01*
X157742295Y-153026190D02*
X157742295Y-152873809D01*
X157742295Y-152873809D02*
X157780390Y-152797618D01*
X157780390Y-152797618D02*
X157818485Y-152759523D01*
X157818485Y-152759523D02*
X157894676Y-152721428D01*
X157894676Y-152721428D02*
X157932771Y-152721428D01*
X157932771Y-152721428D02*
X158008961Y-152759523D01*
X158008961Y-152759523D02*
X158047057Y-152797618D01*
X158047057Y-152797618D02*
X158085152Y-152873809D01*
X158085152Y-152873809D02*
X158085152Y-153026190D01*
X158085152Y-153026190D02*
X158123247Y-153102380D01*
X158123247Y-153102380D02*
X158161342Y-153140475D01*
X158161342Y-153140475D02*
X158237533Y-153178571D01*
X158237533Y-153178571D02*
X158389914Y-153178571D01*
X158389914Y-153178571D02*
X158466104Y-153140475D01*
X158466104Y-153140475D02*
X158504200Y-153102380D01*
X158504200Y-153102380D02*
X158542295Y-153026190D01*
X158542295Y-153026190D02*
X158542295Y-152873809D01*
X158542295Y-152873809D02*
X158504200Y-152797618D01*
X158504200Y-152797618D02*
X158466104Y-152759523D01*
X158466104Y-152759523D02*
X158389914Y-152721428D01*
X158389914Y-152721428D02*
X158237533Y-152721428D01*
X158237533Y-152721428D02*
X158161342Y-152759523D01*
X158161342Y-152759523D02*
X158123247Y-152797618D01*
X158123247Y-152797618D02*
X158085152Y-152873809D01*
X122892295Y-76741666D02*
X123463723Y-76741666D01*
X123463723Y-76741666D02*
X123578009Y-76779761D01*
X123578009Y-76779761D02*
X123654200Y-76855952D01*
X123654200Y-76855952D02*
X123692295Y-76970237D01*
X123692295Y-76970237D02*
X123692295Y-77046428D01*
X123692295Y-75941666D02*
X123692295Y-76398809D01*
X123692295Y-76170237D02*
X122892295Y-76170237D01*
X122892295Y-76170237D02*
X123006580Y-76246428D01*
X123006580Y-76246428D02*
X123082771Y-76322618D01*
X123082771Y-76322618D02*
X123120866Y-76398809D01*
X104683332Y-120574200D02*
X104797618Y-120612295D01*
X104797618Y-120612295D02*
X104988094Y-120612295D01*
X104988094Y-120612295D02*
X105064285Y-120574200D01*
X105064285Y-120574200D02*
X105102380Y-120536104D01*
X105102380Y-120536104D02*
X105140475Y-120459914D01*
X105140475Y-120459914D02*
X105140475Y-120383723D01*
X105140475Y-120383723D02*
X105102380Y-120307533D01*
X105102380Y-120307533D02*
X105064285Y-120269438D01*
X105064285Y-120269438D02*
X104988094Y-120231342D01*
X104988094Y-120231342D02*
X104835713Y-120193247D01*
X104835713Y-120193247D02*
X104759523Y-120155152D01*
X104759523Y-120155152D02*
X104721428Y-120117057D01*
X104721428Y-120117057D02*
X104683332Y-120040866D01*
X104683332Y-120040866D02*
X104683332Y-119964676D01*
X104683332Y-119964676D02*
X104721428Y-119888485D01*
X104721428Y-119888485D02*
X104759523Y-119850390D01*
X104759523Y-119850390D02*
X104835713Y-119812295D01*
X104835713Y-119812295D02*
X105026190Y-119812295D01*
X105026190Y-119812295D02*
X105140475Y-119850390D01*
X105407142Y-119812295D02*
X105597618Y-120612295D01*
X105597618Y-120612295D02*
X105749999Y-120040866D01*
X105749999Y-120040866D02*
X105902380Y-120612295D01*
X105902380Y-120612295D02*
X106092857Y-119812295D01*
X106778571Y-119812295D02*
X106397619Y-119812295D01*
X106397619Y-119812295D02*
X106359523Y-120193247D01*
X106359523Y-120193247D02*
X106397619Y-120155152D01*
X106397619Y-120155152D02*
X106473809Y-120117057D01*
X106473809Y-120117057D02*
X106664285Y-120117057D01*
X106664285Y-120117057D02*
X106740476Y-120155152D01*
X106740476Y-120155152D02*
X106778571Y-120193247D01*
X106778571Y-120193247D02*
X106816666Y-120269438D01*
X106816666Y-120269438D02*
X106816666Y-120459914D01*
X106816666Y-120459914D02*
X106778571Y-120536104D01*
X106778571Y-120536104D02*
X106740476Y-120574200D01*
X106740476Y-120574200D02*
X106664285Y-120612295D01*
X106664285Y-120612295D02*
X106473809Y-120612295D01*
X106473809Y-120612295D02*
X106397619Y-120574200D01*
X106397619Y-120574200D02*
X106359523Y-120536104D01*
X118516667Y-63026104D02*
X118478571Y-63064200D01*
X118478571Y-63064200D02*
X118364286Y-63102295D01*
X118364286Y-63102295D02*
X118288095Y-63102295D01*
X118288095Y-63102295D02*
X118173809Y-63064200D01*
X118173809Y-63064200D02*
X118097619Y-62988009D01*
X118097619Y-62988009D02*
X118059524Y-62911819D01*
X118059524Y-62911819D02*
X118021428Y-62759438D01*
X118021428Y-62759438D02*
X118021428Y-62645152D01*
X118021428Y-62645152D02*
X118059524Y-62492771D01*
X118059524Y-62492771D02*
X118097619Y-62416580D01*
X118097619Y-62416580D02*
X118173809Y-62340390D01*
X118173809Y-62340390D02*
X118288095Y-62302295D01*
X118288095Y-62302295D02*
X118364286Y-62302295D01*
X118364286Y-62302295D02*
X118478571Y-62340390D01*
X118478571Y-62340390D02*
X118516667Y-62378485D01*
X119240476Y-62302295D02*
X118859524Y-62302295D01*
X118859524Y-62302295D02*
X118821428Y-62683247D01*
X118821428Y-62683247D02*
X118859524Y-62645152D01*
X118859524Y-62645152D02*
X118935714Y-62607057D01*
X118935714Y-62607057D02*
X119126190Y-62607057D01*
X119126190Y-62607057D02*
X119202381Y-62645152D01*
X119202381Y-62645152D02*
X119240476Y-62683247D01*
X119240476Y-62683247D02*
X119278571Y-62759438D01*
X119278571Y-62759438D02*
X119278571Y-62949914D01*
X119278571Y-62949914D02*
X119240476Y-63026104D01*
X119240476Y-63026104D02*
X119202381Y-63064200D01*
X119202381Y-63064200D02*
X119126190Y-63102295D01*
X119126190Y-63102295D02*
X118935714Y-63102295D01*
X118935714Y-63102295D02*
X118859524Y-63064200D01*
X118859524Y-63064200D02*
X118821428Y-63026104D01*
X131235714Y-146742295D02*
X130969047Y-146361342D01*
X130778571Y-146742295D02*
X130778571Y-145942295D01*
X130778571Y-145942295D02*
X131083333Y-145942295D01*
X131083333Y-145942295D02*
X131159523Y-145980390D01*
X131159523Y-145980390D02*
X131197618Y-146018485D01*
X131197618Y-146018485D02*
X131235714Y-146094676D01*
X131235714Y-146094676D02*
X131235714Y-146208961D01*
X131235714Y-146208961D02*
X131197618Y-146285152D01*
X131197618Y-146285152D02*
X131159523Y-146323247D01*
X131159523Y-146323247D02*
X131083333Y-146361342D01*
X131083333Y-146361342D02*
X130778571Y-146361342D01*
X131997618Y-146742295D02*
X131540475Y-146742295D01*
X131769047Y-146742295D02*
X131769047Y-145942295D01*
X131769047Y-145942295D02*
X131692856Y-146056580D01*
X131692856Y-146056580D02*
X131616666Y-146132771D01*
X131616666Y-146132771D02*
X131540475Y-146170866D01*
X132492857Y-145942295D02*
X132569047Y-145942295D01*
X132569047Y-145942295D02*
X132645238Y-145980390D01*
X132645238Y-145980390D02*
X132683333Y-146018485D01*
X132683333Y-146018485D02*
X132721428Y-146094676D01*
X132721428Y-146094676D02*
X132759523Y-146247057D01*
X132759523Y-146247057D02*
X132759523Y-146437533D01*
X132759523Y-146437533D02*
X132721428Y-146589914D01*
X132721428Y-146589914D02*
X132683333Y-146666104D01*
X132683333Y-146666104D02*
X132645238Y-146704200D01*
X132645238Y-146704200D02*
X132569047Y-146742295D01*
X132569047Y-146742295D02*
X132492857Y-146742295D01*
X132492857Y-146742295D02*
X132416666Y-146704200D01*
X132416666Y-146704200D02*
X132378571Y-146666104D01*
X132378571Y-146666104D02*
X132340476Y-146589914D01*
X132340476Y-146589914D02*
X132302380Y-146437533D01*
X132302380Y-146437533D02*
X132302380Y-146247057D01*
X132302380Y-146247057D02*
X132340476Y-146094676D01*
X132340476Y-146094676D02*
X132378571Y-146018485D01*
X132378571Y-146018485D02*
X132416666Y-145980390D01*
X132416666Y-145980390D02*
X132492857Y-145942295D01*
X112658332Y-112274200D02*
X112772618Y-112312295D01*
X112772618Y-112312295D02*
X112963094Y-112312295D01*
X112963094Y-112312295D02*
X113039285Y-112274200D01*
X113039285Y-112274200D02*
X113077380Y-112236104D01*
X113077380Y-112236104D02*
X113115475Y-112159914D01*
X113115475Y-112159914D02*
X113115475Y-112083723D01*
X113115475Y-112083723D02*
X113077380Y-112007533D01*
X113077380Y-112007533D02*
X113039285Y-111969438D01*
X113039285Y-111969438D02*
X112963094Y-111931342D01*
X112963094Y-111931342D02*
X112810713Y-111893247D01*
X112810713Y-111893247D02*
X112734523Y-111855152D01*
X112734523Y-111855152D02*
X112696428Y-111817057D01*
X112696428Y-111817057D02*
X112658332Y-111740866D01*
X112658332Y-111740866D02*
X112658332Y-111664676D01*
X112658332Y-111664676D02*
X112696428Y-111588485D01*
X112696428Y-111588485D02*
X112734523Y-111550390D01*
X112734523Y-111550390D02*
X112810713Y-111512295D01*
X112810713Y-111512295D02*
X113001190Y-111512295D01*
X113001190Y-111512295D02*
X113115475Y-111550390D01*
X113382142Y-111512295D02*
X113572618Y-112312295D01*
X113572618Y-112312295D02*
X113724999Y-111740866D01*
X113724999Y-111740866D02*
X113877380Y-112312295D01*
X113877380Y-112312295D02*
X114067857Y-111512295D01*
X114334523Y-111588485D02*
X114372619Y-111550390D01*
X114372619Y-111550390D02*
X114448809Y-111512295D01*
X114448809Y-111512295D02*
X114639285Y-111512295D01*
X114639285Y-111512295D02*
X114715476Y-111550390D01*
X114715476Y-111550390D02*
X114753571Y-111588485D01*
X114753571Y-111588485D02*
X114791666Y-111664676D01*
X114791666Y-111664676D02*
X114791666Y-111740866D01*
X114791666Y-111740866D02*
X114753571Y-111855152D01*
X114753571Y-111855152D02*
X114296428Y-112312295D01*
X114296428Y-112312295D02*
X114791666Y-112312295D01*
X144266667Y-133282295D02*
X144000000Y-132901342D01*
X143809524Y-133282295D02*
X143809524Y-132482295D01*
X143809524Y-132482295D02*
X144114286Y-132482295D01*
X144114286Y-132482295D02*
X144190476Y-132520390D01*
X144190476Y-132520390D02*
X144228571Y-132558485D01*
X144228571Y-132558485D02*
X144266667Y-132634676D01*
X144266667Y-132634676D02*
X144266667Y-132748961D01*
X144266667Y-132748961D02*
X144228571Y-132825152D01*
X144228571Y-132825152D02*
X144190476Y-132863247D01*
X144190476Y-132863247D02*
X144114286Y-132901342D01*
X144114286Y-132901342D02*
X143809524Y-132901342D01*
X144723809Y-132825152D02*
X144647619Y-132787057D01*
X144647619Y-132787057D02*
X144609524Y-132748961D01*
X144609524Y-132748961D02*
X144571428Y-132672771D01*
X144571428Y-132672771D02*
X144571428Y-132634676D01*
X144571428Y-132634676D02*
X144609524Y-132558485D01*
X144609524Y-132558485D02*
X144647619Y-132520390D01*
X144647619Y-132520390D02*
X144723809Y-132482295D01*
X144723809Y-132482295D02*
X144876190Y-132482295D01*
X144876190Y-132482295D02*
X144952381Y-132520390D01*
X144952381Y-132520390D02*
X144990476Y-132558485D01*
X144990476Y-132558485D02*
X145028571Y-132634676D01*
X145028571Y-132634676D02*
X145028571Y-132672771D01*
X145028571Y-132672771D02*
X144990476Y-132748961D01*
X144990476Y-132748961D02*
X144952381Y-132787057D01*
X144952381Y-132787057D02*
X144876190Y-132825152D01*
X144876190Y-132825152D02*
X144723809Y-132825152D01*
X144723809Y-132825152D02*
X144647619Y-132863247D01*
X144647619Y-132863247D02*
X144609524Y-132901342D01*
X144609524Y-132901342D02*
X144571428Y-132977533D01*
X144571428Y-132977533D02*
X144571428Y-133129914D01*
X144571428Y-133129914D02*
X144609524Y-133206104D01*
X144609524Y-133206104D02*
X144647619Y-133244200D01*
X144647619Y-133244200D02*
X144723809Y-133282295D01*
X144723809Y-133282295D02*
X144876190Y-133282295D01*
X144876190Y-133282295D02*
X144952381Y-133244200D01*
X144952381Y-133244200D02*
X144990476Y-133206104D01*
X144990476Y-133206104D02*
X145028571Y-133129914D01*
X145028571Y-133129914D02*
X145028571Y-132977533D01*
X145028571Y-132977533D02*
X144990476Y-132901342D01*
X144990476Y-132901342D02*
X144952381Y-132863247D01*
X144952381Y-132863247D02*
X144876190Y-132825152D01*
X111866667Y-148986104D02*
X111828571Y-149024200D01*
X111828571Y-149024200D02*
X111714286Y-149062295D01*
X111714286Y-149062295D02*
X111638095Y-149062295D01*
X111638095Y-149062295D02*
X111523809Y-149024200D01*
X111523809Y-149024200D02*
X111447619Y-148948009D01*
X111447619Y-148948009D02*
X111409524Y-148871819D01*
X111409524Y-148871819D02*
X111371428Y-148719438D01*
X111371428Y-148719438D02*
X111371428Y-148605152D01*
X111371428Y-148605152D02*
X111409524Y-148452771D01*
X111409524Y-148452771D02*
X111447619Y-148376580D01*
X111447619Y-148376580D02*
X111523809Y-148300390D01*
X111523809Y-148300390D02*
X111638095Y-148262295D01*
X111638095Y-148262295D02*
X111714286Y-148262295D01*
X111714286Y-148262295D02*
X111828571Y-148300390D01*
X111828571Y-148300390D02*
X111866667Y-148338485D01*
X112133333Y-148262295D02*
X112666667Y-148262295D01*
X112666667Y-148262295D02*
X112323809Y-149062295D01*
D12*
%TO.C,R9*%
X131546359Y-148520000D02*
X131853641Y-148520000D01*
X131546359Y-149280000D02*
X131853641Y-149280000D01*
%TO.C,TP3*%
X121800000Y-137700000D02*
G75*
G02*
X120400000Y-137700000I-700000J0D01*
G01*
X120400000Y-137700000D02*
G75*
G02*
X121800000Y-137700000I700000J0D01*
G01*
%TO.C,TP2*%
X128800000Y-145900000D02*
G75*
G02*
X127400000Y-145900000I-700000J0D01*
G01*
X127400000Y-145900000D02*
G75*
G02*
X128800000Y-145900000I700000J0D01*
G01*
%TO.C,R11*%
X149420000Y-83953641D02*
X149420000Y-83646359D01*
X150180000Y-83953641D02*
X150180000Y-83646359D01*
%TO.C,R7*%
X149403641Y-123420000D02*
X149096359Y-123420000D01*
X149403641Y-124180000D02*
X149096359Y-124180000D01*
%TO.C,D3*%
X118483333Y-64875000D02*
X125783333Y-64875000D01*
X118483333Y-70375000D02*
X125783333Y-70375000D01*
X125783333Y-70375000D02*
X125783333Y-69225000D01*
%TO.C,SW1*%
X146430000Y-138130000D02*
X150570000Y-138130000D01*
X146430000Y-138430000D02*
X146430000Y-138130000D01*
X146430000Y-141270000D02*
X146430000Y-140970000D01*
X150570000Y-138130000D02*
X150570000Y-138430000D01*
X150570000Y-140970000D02*
X150570000Y-141270000D01*
X150570000Y-141270000D02*
X146430000Y-141270000D01*
D13*
%TO.C,G\u002A\u002A\u002A*%
G36*
X128591697Y-137950044D02*
G01*
X128621551Y-137978312D01*
X128665040Y-138020302D01*
X128717793Y-138071822D01*
X128723507Y-138077433D01*
X128839763Y-138180289D01*
X128962585Y-138265298D01*
X129095677Y-138333726D01*
X129242747Y-138386841D01*
X129407500Y-138425907D01*
X129593644Y-138452192D01*
X129804884Y-138466962D01*
X129870278Y-138469241D01*
X129993282Y-138471231D01*
X130114016Y-138469869D01*
X130236120Y-138464730D01*
X130363237Y-138455390D01*
X130499010Y-138441424D01*
X130647080Y-138422407D01*
X130811089Y-138397915D01*
X130994680Y-138367524D01*
X131201495Y-138330807D01*
X131435176Y-138287341D01*
X131443034Y-138285854D01*
X131524893Y-138270705D01*
X131595060Y-138258390D01*
X131648104Y-138249810D01*
X131678593Y-138245864D01*
X131683753Y-138245962D01*
X131672003Y-138254092D01*
X131636434Y-138273639D01*
X131581514Y-138302263D01*
X131511712Y-138337629D01*
X131447839Y-138369362D01*
X131275356Y-138458299D01*
X131129588Y-138542414D01*
X131006678Y-138624287D01*
X130902770Y-138706495D01*
X130814006Y-138791620D01*
X130809916Y-138795978D01*
X130721263Y-138898984D01*
X130655650Y-138995753D01*
X130608333Y-139094790D01*
X130574566Y-139204598D01*
X130569372Y-139227010D01*
X130554085Y-139311329D01*
X130539598Y-139420118D01*
X130526558Y-139546392D01*
X130515612Y-139683167D01*
X130507405Y-139823458D01*
X130502945Y-139944953D01*
X130499381Y-140086501D01*
X130464920Y-140022102D01*
X130412927Y-139944414D01*
X130348309Y-139885573D01*
X130267439Y-139844020D01*
X130166687Y-139818198D01*
X130042425Y-139806548D01*
X129960712Y-139805640D01*
X129768049Y-139807875D01*
X129768049Y-139769325D01*
X129762625Y-139742737D01*
X129750841Y-139741410D01*
X129740075Y-139763344D01*
X129740639Y-139788699D01*
X129741512Y-139808405D01*
X129731208Y-139823183D01*
X129703813Y-139837027D01*
X129653418Y-139853930D01*
X129636356Y-139859156D01*
X129478877Y-139917958D01*
X129337713Y-139992702D01*
X129216459Y-140080739D01*
X129118710Y-140179419D01*
X129048061Y-140286091D01*
X129042823Y-140296682D01*
X129012013Y-140395782D01*
X129007949Y-140503233D01*
X129029479Y-140612865D01*
X129075447Y-140718504D01*
X129138235Y-140806754D01*
X129165806Y-140839966D01*
X129180265Y-140861063D01*
X129180540Y-140865015D01*
X129163566Y-140858411D01*
X129125040Y-140840637D01*
X129071464Y-140814747D01*
X129033431Y-140795903D01*
X128855723Y-140718341D01*
X128690006Y-140669560D01*
X128535555Y-140649571D01*
X128391643Y-140658384D01*
X128257546Y-140696011D01*
X128132536Y-140762463D01*
X128068381Y-140810480D01*
X128014290Y-140859517D01*
X127970449Y-140910385D01*
X127935748Y-140967029D01*
X127909082Y-141033394D01*
X127889341Y-141113425D01*
X127875420Y-141211068D01*
X127866211Y-141330267D01*
X127860606Y-141474967D01*
X127858828Y-141557027D01*
X127855527Y-141694154D01*
X127850457Y-141803893D01*
X127842793Y-141890300D01*
X127831708Y-141957429D01*
X127816378Y-142009333D01*
X127795975Y-142050068D01*
X127769675Y-142083687D01*
X127747155Y-142105297D01*
X127689518Y-142142959D01*
X127611998Y-142176409D01*
X127526165Y-142201815D01*
X127443588Y-142215346D01*
X127411191Y-142216550D01*
X127351809Y-142211613D01*
X127283493Y-142200240D01*
X127251641Y-142192877D01*
X127151667Y-142158564D01*
X127029769Y-142102280D01*
X126886336Y-142024223D01*
X126721759Y-141924592D01*
X126709040Y-141916551D01*
X126566166Y-141830078D01*
X126443497Y-141764825D01*
X126338961Y-141719810D01*
X126250483Y-141694048D01*
X126233861Y-141691010D01*
X126140458Y-141691234D01*
X126044974Y-141719602D01*
X125952162Y-141773553D01*
X125866777Y-141850528D01*
X125813540Y-141917361D01*
X125786120Y-141954314D01*
X125765489Y-141977416D01*
X125759316Y-141981359D01*
X125746956Y-141968679D01*
X125724667Y-141936073D01*
X125702477Y-141899448D01*
X125646576Y-141818268D01*
X125569697Y-141728540D01*
X125478457Y-141636814D01*
X125379472Y-141549640D01*
X125279361Y-141473567D01*
X125256772Y-141458263D01*
X125078943Y-141352001D01*
X124908633Y-141273877D01*
X124742168Y-141222631D01*
X124575873Y-141197005D01*
X124483591Y-141193375D01*
X124324009Y-141205681D01*
X124183306Y-141243049D01*
X124060820Y-141305893D01*
X123955890Y-141394627D01*
X123867854Y-141509666D01*
X123812891Y-141612633D01*
X123789897Y-141661474D01*
X123775582Y-141685221D01*
X123765946Y-141687565D01*
X123756988Y-141672196D01*
X123754561Y-141666443D01*
X123709230Y-141561310D01*
X123668654Y-141478776D01*
X123628214Y-141411416D01*
X123583294Y-141351802D01*
X123529278Y-141292507D01*
X123510044Y-141273109D01*
X123436034Y-141204738D01*
X123359662Y-141145982D01*
X123276485Y-141094823D01*
X123223971Y-141069473D01*
X126937090Y-141069473D01*
X126948378Y-141084751D01*
X126951889Y-141085201D01*
X126973189Y-141073768D01*
X126976408Y-141069473D01*
X127031455Y-141069473D01*
X127044193Y-141083426D01*
X127055046Y-141085201D01*
X127075976Y-141076708D01*
X127078638Y-141069473D01*
X127070651Y-141060725D01*
X127146659Y-141060725D01*
X127154709Y-141072418D01*
X127187114Y-141081056D01*
X127240327Y-141085085D01*
X127252569Y-141085201D01*
X127302139Y-141087005D01*
X127336159Y-141091691D01*
X127346371Y-141096996D01*
X127350939Y-141187207D01*
X127358528Y-141274905D01*
X127368198Y-141352049D01*
X127379012Y-141410598D01*
X127385647Y-141433427D01*
X127397641Y-141481717D01*
X127405298Y-141544515D01*
X127406835Y-141586220D01*
X127408420Y-141640286D01*
X127412996Y-141682623D01*
X127418091Y-141700697D01*
X127419551Y-141713043D01*
X127403632Y-141709605D01*
X127383395Y-141709364D01*
X127377469Y-141734135D01*
X127377461Y-141735767D01*
X127384618Y-141775876D01*
X127408370Y-141792058D01*
X127419653Y-141792941D01*
X127426527Y-141788113D01*
X127431366Y-141771322D01*
X127434274Y-141739107D01*
X127435353Y-141688007D01*
X127434709Y-141614559D01*
X127432445Y-141515302D01*
X127430267Y-141439071D01*
X127419660Y-141085201D01*
X127473267Y-141084960D01*
X127522967Y-141081171D01*
X127547851Y-141072235D01*
X127546785Y-141065713D01*
X127588741Y-141065713D01*
X127604200Y-141068232D01*
X127624599Y-141065340D01*
X127624768Y-141061609D01*
X127707740Y-141061609D01*
X127715603Y-141069473D01*
X127723467Y-141061609D01*
X127717517Y-141055660D01*
X127741318Y-141055660D01*
X127752524Y-141068251D01*
X127755363Y-141070078D01*
X127779347Y-141082754D01*
X127786377Y-141084719D01*
X127804787Y-141077382D01*
X127817392Y-141070078D01*
X127831607Y-141056741D01*
X127816791Y-141046351D01*
X127813460Y-141045045D01*
X127775418Y-141041366D01*
X127759295Y-141045045D01*
X127741318Y-141055660D01*
X127717517Y-141055660D01*
X127715603Y-141053746D01*
X127707740Y-141061609D01*
X127624768Y-141061609D01*
X127624842Y-141059971D01*
X127603793Y-141056217D01*
X127594698Y-141058729D01*
X127588741Y-141065713D01*
X127546785Y-141065713D01*
X127546010Y-141060969D01*
X127515540Y-141050192D01*
X127498806Y-141047212D01*
X127428248Y-141036631D01*
X127408167Y-140856458D01*
X127399153Y-140785540D01*
X127389696Y-140727762D01*
X127380955Y-140689301D01*
X127374416Y-140676284D01*
X127365923Y-140689978D01*
X127363517Y-140723352D01*
X127363709Y-140727399D01*
X127363666Y-140767482D01*
X127360866Y-140827217D01*
X127355888Y-140894981D01*
X127354701Y-140908266D01*
X127342732Y-141038018D01*
X127267018Y-141038018D01*
X127216732Y-141039923D01*
X127177137Y-141044738D01*
X127166516Y-141047530D01*
X127146659Y-141060725D01*
X127070651Y-141060725D01*
X127065899Y-141055520D01*
X127055046Y-141053746D01*
X127034116Y-141062238D01*
X127031455Y-141069473D01*
X126976408Y-141069473D01*
X126972843Y-141056009D01*
X126961609Y-141053746D01*
X126940090Y-141061957D01*
X126937090Y-141069473D01*
X123223971Y-141069473D01*
X123182058Y-141049240D01*
X123071935Y-141007214D01*
X122941673Y-140966726D01*
X122786827Y-140925757D01*
X122698514Y-140904394D01*
X122535531Y-140864912D01*
X122394848Y-140828781D01*
X122277968Y-140796451D01*
X122186391Y-140768377D01*
X122121620Y-140745010D01*
X122085157Y-140726804D01*
X122077275Y-140717161D01*
X122091984Y-140713764D01*
X122132277Y-140708315D01*
X122192403Y-140701502D01*
X122266608Y-140694013D01*
X122285665Y-140692212D01*
X122425143Y-140677652D01*
X122547205Y-140660848D01*
X122658956Y-140639950D01*
X122767504Y-140613112D01*
X122879955Y-140578485D01*
X123003416Y-140534222D01*
X123144993Y-140478476D01*
X123189912Y-140460073D01*
X124173986Y-140460073D01*
X124175701Y-140466499D01*
X124191168Y-140485082D01*
X124212199Y-140473908D01*
X124239125Y-140432629D01*
X124269078Y-140368497D01*
X124290251Y-140319348D01*
X124321331Y-140248173D01*
X124359379Y-140161657D01*
X124401454Y-140066486D01*
X124444615Y-139969346D01*
X124444973Y-139968544D01*
X124485970Y-139875584D01*
X124523651Y-139788378D01*
X124555666Y-139712503D01*
X124579666Y-139653533D01*
X124593304Y-139617043D01*
X124594060Y-139614674D01*
X124609843Y-139570392D01*
X124625078Y-139537948D01*
X124628487Y-139532860D01*
X124638230Y-139502356D01*
X124637034Y-139485678D01*
X124628145Y-139480630D01*
X124610330Y-139505158D01*
X124586955Y-139551764D01*
X124559784Y-139604551D01*
X124532604Y-139647806D01*
X124513815Y-139669721D01*
X124497539Y-139692160D01*
X124473689Y-139736701D01*
X124444917Y-139797031D01*
X124413879Y-139866834D01*
X124383225Y-139939798D01*
X124355611Y-140009607D01*
X124333690Y-140069949D01*
X124320114Y-140114508D01*
X124317502Y-140136880D01*
X124316230Y-140159296D01*
X124305631Y-140198741D01*
X124288693Y-140247811D01*
X124268404Y-140299107D01*
X124247754Y-140345225D01*
X124229731Y-140378766D01*
X124217324Y-140392328D01*
X124214882Y-140391019D01*
X124201740Y-140387515D01*
X124187041Y-140404601D01*
X124176039Y-140432160D01*
X124173986Y-140460073D01*
X123189912Y-140460073D01*
X123209659Y-140451983D01*
X123429912Y-140356985D01*
X123623735Y-140264227D01*
X123795738Y-140170834D01*
X123950528Y-140073934D01*
X124092714Y-139970656D01*
X124226904Y-139858126D01*
X124350160Y-139741054D01*
X124416689Y-139672373D01*
X124480795Y-139602566D01*
X124536425Y-139538471D01*
X124577526Y-139486925D01*
X124587350Y-139473126D01*
X124629851Y-139416698D01*
X124662287Y-139387351D01*
X124677530Y-139383382D01*
X124700010Y-139376015D01*
X124703777Y-139363065D01*
X124713889Y-139334074D01*
X124735841Y-139303711D01*
X124762836Y-139265928D01*
X124776864Y-139233594D01*
X124788438Y-139205914D01*
X124798318Y-139197894D01*
X124814454Y-139211177D01*
X124843059Y-139248656D01*
X124881792Y-139306777D01*
X124928313Y-139381984D01*
X124980283Y-139470722D01*
X124995045Y-139496718D01*
X125030772Y-139558933D01*
X125064635Y-139614634D01*
X125099360Y-139667162D01*
X125137672Y-139719859D01*
X125182297Y-139776066D01*
X125235962Y-139839125D01*
X125301392Y-139912376D01*
X125381313Y-139999162D01*
X125478451Y-140102824D01*
X125559583Y-140188730D01*
X125667096Y-140301487D01*
X125756872Y-140393424D01*
X125832000Y-140467294D01*
X125895568Y-140525852D01*
X125950663Y-140571851D01*
X126000375Y-140608046D01*
X126047792Y-140637189D01*
X126083620Y-140656033D01*
X126145719Y-140685513D01*
X126193289Y-140703118D01*
X126239118Y-140711744D01*
X126295996Y-140714286D01*
X126340152Y-140714102D01*
X126403762Y-140712275D01*
X126455806Y-140708701D01*
X126487886Y-140704035D01*
X126493007Y-140702169D01*
X126494024Y-140683673D01*
X126477219Y-140642636D01*
X126443684Y-140581649D01*
X126438857Y-140573563D01*
X126428327Y-140554838D01*
X127365856Y-140554838D01*
X127368750Y-140564821D01*
X127384307Y-140580963D01*
X127392159Y-140566621D01*
X127393189Y-140547318D01*
X127389335Y-140524501D01*
X127376051Y-140529858D01*
X127375686Y-140530220D01*
X127365856Y-140554838D01*
X126428327Y-140554838D01*
X126412830Y-140527281D01*
X126379490Y-140463575D01*
X126353536Y-140411973D01*
X127337519Y-140411973D01*
X127338397Y-140431885D01*
X127350147Y-140469363D01*
X127353376Y-140479690D01*
X127369658Y-140501402D01*
X127389758Y-140494857D01*
X127399370Y-140478404D01*
X127408616Y-140435511D01*
X127405568Y-140396868D01*
X127393401Y-140368901D01*
X127375293Y-140358034D01*
X127354421Y-140370693D01*
X127349545Y-140377639D01*
X127337519Y-140411973D01*
X126353536Y-140411973D01*
X126341121Y-140387288D01*
X126300002Y-140303261D01*
X126258416Y-140216335D01*
X126218643Y-140131352D01*
X126182965Y-140053153D01*
X126153662Y-139986581D01*
X126133016Y-139936477D01*
X126123309Y-139907682D01*
X126123004Y-139903201D01*
X126136896Y-139905682D01*
X126169757Y-139922763D01*
X126214870Y-139950887D01*
X126221486Y-139955305D01*
X126348272Y-140033252D01*
X126459047Y-140085449D01*
X126555081Y-140112428D01*
X126606811Y-140116731D01*
X126711426Y-140103343D01*
X126808001Y-140063485D01*
X126897631Y-139996157D01*
X126981416Y-139900355D01*
X127060453Y-139775078D01*
X127125335Y-139643293D01*
X127146425Y-139595117D01*
X127162467Y-139559920D01*
X127174598Y-139540029D01*
X127183956Y-139537770D01*
X127191680Y-139555472D01*
X127198907Y-139595461D01*
X127206775Y-139660064D01*
X127216421Y-139751610D01*
X127226684Y-139850588D01*
X127237338Y-139946364D01*
X127247243Y-140017968D01*
X127258015Y-140072594D01*
X127271271Y-140117434D01*
X127288625Y-140159684D01*
X127302652Y-140188730D01*
X127347600Y-140264237D01*
X127394025Y-140316339D01*
X127407310Y-140326346D01*
X127455159Y-140353874D01*
X127489114Y-140359574D01*
X127515058Y-140340873D01*
X127538875Y-140295197D01*
X127551095Y-140263436D01*
X127586681Y-140172456D01*
X127635367Y-140057755D01*
X127695336Y-139923304D01*
X127764770Y-139773073D01*
X127841850Y-139611035D01*
X127852575Y-139589060D01*
X129470600Y-139589060D01*
X129474507Y-139628684D01*
X129476424Y-139634338D01*
X129486261Y-139651176D01*
X129501102Y-139644202D01*
X129511162Y-139634525D01*
X129528713Y-139597455D01*
X129525731Y-139567706D01*
X129512180Y-139539414D01*
X129496169Y-139532219D01*
X129478721Y-139552249D01*
X129470600Y-139589060D01*
X127852575Y-139589060D01*
X127905321Y-139480990D01*
X129484953Y-139480990D01*
X129490708Y-139493936D01*
X129495438Y-139491475D01*
X129497321Y-139472810D01*
X129495438Y-139470505D01*
X129486088Y-139472664D01*
X129484953Y-139480990D01*
X127905321Y-139480990D01*
X127924761Y-139441161D01*
X127959653Y-139370897D01*
X128062736Y-139163020D01*
X128152319Y-138979258D01*
X128229953Y-138816109D01*
X128297188Y-138670067D01*
X128355576Y-138537630D01*
X128376473Y-138487594D01*
X129447341Y-138487594D01*
X129447398Y-138531777D01*
X129448476Y-138597387D01*
X129450412Y-138679426D01*
X129453040Y-138772892D01*
X129456196Y-138872787D01*
X129459715Y-138974111D01*
X129463433Y-139071865D01*
X129467185Y-139161050D01*
X129470807Y-139236665D01*
X129474133Y-139293711D01*
X129476588Y-139323715D01*
X129482400Y-139365139D01*
X129487526Y-139375775D01*
X129492156Y-139355404D01*
X129496481Y-139303807D01*
X129496677Y-139300667D01*
X129499489Y-139274155D01*
X129726395Y-139274155D01*
X129726852Y-139332723D01*
X129729323Y-139397045D01*
X129733424Y-139459498D01*
X129738773Y-139512458D01*
X129744988Y-139548300D01*
X129750872Y-139559628D01*
X129756450Y-139545187D01*
X129761595Y-139507000D01*
X129765330Y-139452772D01*
X129765766Y-139442211D01*
X129766713Y-139363902D01*
X129763897Y-139295641D01*
X129757963Y-139242123D01*
X129749557Y-139208040D01*
X129739328Y-139198085D01*
X129733053Y-139204781D01*
X129728334Y-139228967D01*
X129726395Y-139274155D01*
X129499489Y-139274155D01*
X129502380Y-139246907D01*
X129511165Y-139204783D01*
X129518681Y-139187292D01*
X129523196Y-139165186D01*
X129524301Y-139119054D01*
X129522914Y-139070381D01*
X129720867Y-139070381D01*
X129723269Y-139114446D01*
X129729451Y-139140470D01*
X129735102Y-139143770D01*
X129743416Y-139123863D01*
X129746486Y-139085227D01*
X129746133Y-139072613D01*
X129740710Y-139022030D01*
X129732960Y-139001423D01*
X129725559Y-139011030D01*
X129721188Y-139051086D01*
X129720867Y-139070381D01*
X129522914Y-139070381D01*
X129522506Y-139056081D01*
X129518319Y-138983450D01*
X129512252Y-138908347D01*
X129504812Y-138837954D01*
X129496509Y-138779456D01*
X129487851Y-138740038D01*
X129486744Y-138736737D01*
X129481801Y-138703821D01*
X129480957Y-138651447D01*
X129484068Y-138595342D01*
X129487536Y-138526963D01*
X129482861Y-138486132D01*
X129474997Y-138472690D01*
X129454570Y-138465668D01*
X129448471Y-138469837D01*
X129447341Y-138487594D01*
X128376473Y-138487594D01*
X128406669Y-138415292D01*
X128452017Y-138299551D01*
X128493171Y-138186901D01*
X128525324Y-138093034D01*
X128546827Y-138029415D01*
X128564569Y-137978685D01*
X128576329Y-137947087D01*
X128579849Y-137939690D01*
X128591697Y-137950044D01*
G37*
D12*
%TO.C,C2*%
X127457836Y-79040000D02*
X127242164Y-79040000D01*
X127457836Y-79760000D02*
X127242164Y-79760000D01*
%TO.C,R1*%
X153920000Y-151696359D02*
X153920000Y-152003641D01*
X154680000Y-151696359D02*
X154680000Y-152003641D01*
%TO.C,R4*%
X125003641Y-128220000D02*
X124696359Y-128220000D01*
X125003641Y-128980000D02*
X124696359Y-128980000D01*
%TO.C,D4*%
X102900000Y-64875000D02*
X110200000Y-64875000D01*
X102900000Y-70375000D02*
X110200000Y-70375000D01*
X110200000Y-70375000D02*
X110200000Y-69225000D01*
%TO.C,C3*%
X149742164Y-63590000D02*
X149957836Y-63590000D01*
X149742164Y-64310000D02*
X149957836Y-64310000D01*
%TO.C,D1*%
X149650000Y-64875000D02*
X156950000Y-64875000D01*
X149650000Y-70375000D02*
X156950000Y-70375000D01*
X156950000Y-70375000D02*
X156950000Y-69225000D01*
%TO.C,J2*%
X112590000Y-155390000D02*
X112590000Y-159750000D01*
X112590000Y-155390000D02*
X115090000Y-155390000D01*
X115090000Y-155390000D02*
X115090000Y-155190000D01*
X115750000Y-155190000D02*
X115090000Y-155190000D01*
X118610000Y-155390000D02*
X121110000Y-155390000D01*
X121110000Y-155390000D02*
X121110000Y-159750000D01*
%TO.C,R5*%
X119020000Y-134446359D02*
X119020000Y-134753641D01*
X119780000Y-134446359D02*
X119780000Y-134753641D01*
%TO.C,R2*%
X150946359Y-136820000D02*
X151253641Y-136820000D01*
X150946359Y-137580000D02*
X151253641Y-137580000D01*
%TO.C,SW7*%
X137670000Y-124120000D02*
X144130000Y-124120000D01*
X137670000Y-124150000D02*
X137670000Y-124120000D01*
X137670000Y-126050000D02*
X137670000Y-128650000D01*
X137670000Y-130580000D02*
X137670000Y-130550000D01*
X137670000Y-130580000D02*
X144130000Y-130580000D01*
X144130000Y-124120000D02*
X144130000Y-124150000D01*
X144130000Y-126050000D02*
X144130000Y-128650000D01*
X144130000Y-130580000D02*
X144130000Y-130550000D01*
D13*
%TO.C,G\u002A\u002A\u002A*%
G36*
X148591697Y-61950044D02*
G01*
X148621551Y-61978312D01*
X148665040Y-62020302D01*
X148717793Y-62071822D01*
X148723507Y-62077433D01*
X148839763Y-62180289D01*
X148962585Y-62265298D01*
X149095677Y-62333726D01*
X149242747Y-62386841D01*
X149407500Y-62425907D01*
X149593644Y-62452192D01*
X149804884Y-62466962D01*
X149870278Y-62469241D01*
X149993282Y-62471231D01*
X150114016Y-62469869D01*
X150236120Y-62464730D01*
X150363237Y-62455390D01*
X150499010Y-62441424D01*
X150647080Y-62422407D01*
X150811089Y-62397915D01*
X150994680Y-62367524D01*
X151201495Y-62330807D01*
X151435176Y-62287341D01*
X151443034Y-62285854D01*
X151524893Y-62270705D01*
X151595060Y-62258390D01*
X151648104Y-62249810D01*
X151678593Y-62245864D01*
X151683753Y-62245962D01*
X151672003Y-62254092D01*
X151636434Y-62273639D01*
X151581514Y-62302263D01*
X151511712Y-62337629D01*
X151447839Y-62369362D01*
X151275356Y-62458299D01*
X151129588Y-62542414D01*
X151006678Y-62624287D01*
X150902770Y-62706495D01*
X150814006Y-62791620D01*
X150809916Y-62795978D01*
X150721263Y-62898984D01*
X150655650Y-62995753D01*
X150608333Y-63094790D01*
X150574566Y-63204598D01*
X150569372Y-63227010D01*
X150554085Y-63311329D01*
X150539598Y-63420118D01*
X150526558Y-63546392D01*
X150515612Y-63683167D01*
X150507405Y-63823458D01*
X150502945Y-63944953D01*
X150499381Y-64086501D01*
X150464920Y-64022102D01*
X150412927Y-63944414D01*
X150348309Y-63885573D01*
X150267439Y-63844020D01*
X150166687Y-63818198D01*
X150042425Y-63806548D01*
X149960712Y-63805640D01*
X149768049Y-63807875D01*
X149768049Y-63769325D01*
X149762625Y-63742737D01*
X149750841Y-63741410D01*
X149740075Y-63763344D01*
X149740639Y-63788699D01*
X149741512Y-63808405D01*
X149731208Y-63823183D01*
X149703813Y-63837027D01*
X149653418Y-63853930D01*
X149636356Y-63859156D01*
X149478877Y-63917958D01*
X149337713Y-63992702D01*
X149216459Y-64080739D01*
X149118710Y-64179419D01*
X149048061Y-64286091D01*
X149042823Y-64296682D01*
X149012013Y-64395782D01*
X149007949Y-64503233D01*
X149029479Y-64612865D01*
X149075447Y-64718504D01*
X149138235Y-64806754D01*
X149165806Y-64839966D01*
X149180265Y-64861063D01*
X149180540Y-64865015D01*
X149163566Y-64858411D01*
X149125040Y-64840637D01*
X149071464Y-64814747D01*
X149033431Y-64795903D01*
X148855723Y-64718341D01*
X148690006Y-64669560D01*
X148535555Y-64649571D01*
X148391643Y-64658384D01*
X148257546Y-64696011D01*
X148132536Y-64762463D01*
X148068381Y-64810480D01*
X148014290Y-64859517D01*
X147970449Y-64910385D01*
X147935748Y-64967029D01*
X147909082Y-65033394D01*
X147889341Y-65113425D01*
X147875420Y-65211068D01*
X147866211Y-65330267D01*
X147860606Y-65474967D01*
X147858828Y-65557027D01*
X147855527Y-65694154D01*
X147850457Y-65803893D01*
X147842793Y-65890300D01*
X147831708Y-65957429D01*
X147816378Y-66009333D01*
X147795975Y-66050068D01*
X147769675Y-66083687D01*
X147747155Y-66105297D01*
X147689518Y-66142959D01*
X147611998Y-66176409D01*
X147526165Y-66201815D01*
X147443588Y-66215346D01*
X147411191Y-66216550D01*
X147351809Y-66211613D01*
X147283493Y-66200240D01*
X147251641Y-66192877D01*
X147151667Y-66158564D01*
X147029769Y-66102280D01*
X146886336Y-66024223D01*
X146721759Y-65924592D01*
X146709040Y-65916551D01*
X146566166Y-65830078D01*
X146443497Y-65764825D01*
X146338961Y-65719810D01*
X146250483Y-65694048D01*
X146233861Y-65691010D01*
X146140458Y-65691234D01*
X146044974Y-65719602D01*
X145952162Y-65773553D01*
X145866777Y-65850528D01*
X145813540Y-65917361D01*
X145786120Y-65954314D01*
X145765489Y-65977416D01*
X145759316Y-65981359D01*
X145746956Y-65968679D01*
X145724667Y-65936073D01*
X145702477Y-65899448D01*
X145646576Y-65818268D01*
X145569697Y-65728540D01*
X145478457Y-65636814D01*
X145379472Y-65549640D01*
X145279361Y-65473567D01*
X145256772Y-65458263D01*
X145078943Y-65352001D01*
X144908633Y-65273877D01*
X144742168Y-65222631D01*
X144575873Y-65197005D01*
X144483591Y-65193375D01*
X144324009Y-65205681D01*
X144183306Y-65243049D01*
X144060820Y-65305893D01*
X143955890Y-65394627D01*
X143867854Y-65509666D01*
X143812891Y-65612633D01*
X143789897Y-65661474D01*
X143775582Y-65685221D01*
X143765946Y-65687565D01*
X143756988Y-65672196D01*
X143754561Y-65666443D01*
X143709230Y-65561310D01*
X143668654Y-65478776D01*
X143628214Y-65411416D01*
X143583294Y-65351802D01*
X143529278Y-65292507D01*
X143510044Y-65273109D01*
X143436034Y-65204738D01*
X143359662Y-65145982D01*
X143276485Y-65094823D01*
X143223971Y-65069473D01*
X146937090Y-65069473D01*
X146948378Y-65084751D01*
X146951889Y-65085201D01*
X146973189Y-65073768D01*
X146976408Y-65069473D01*
X147031455Y-65069473D01*
X147044193Y-65083426D01*
X147055046Y-65085201D01*
X147075976Y-65076708D01*
X147078638Y-65069473D01*
X147070651Y-65060725D01*
X147146659Y-65060725D01*
X147154709Y-65072418D01*
X147187114Y-65081056D01*
X147240327Y-65085085D01*
X147252569Y-65085201D01*
X147302139Y-65087005D01*
X147336159Y-65091691D01*
X147346371Y-65096996D01*
X147350939Y-65187207D01*
X147358528Y-65274905D01*
X147368198Y-65352049D01*
X147379012Y-65410598D01*
X147385647Y-65433427D01*
X147397641Y-65481717D01*
X147405298Y-65544515D01*
X147406835Y-65586220D01*
X147408420Y-65640286D01*
X147412996Y-65682623D01*
X147418091Y-65700697D01*
X147419551Y-65713043D01*
X147403632Y-65709605D01*
X147383395Y-65709364D01*
X147377469Y-65734135D01*
X147377461Y-65735767D01*
X147384618Y-65775876D01*
X147408370Y-65792058D01*
X147419653Y-65792941D01*
X147426527Y-65788113D01*
X147431366Y-65771322D01*
X147434274Y-65739107D01*
X147435353Y-65688007D01*
X147434709Y-65614559D01*
X147432445Y-65515302D01*
X147430267Y-65439071D01*
X147419660Y-65085201D01*
X147473267Y-65084960D01*
X147522967Y-65081171D01*
X147547851Y-65072235D01*
X147546785Y-65065713D01*
X147588741Y-65065713D01*
X147604200Y-65068232D01*
X147624599Y-65065340D01*
X147624768Y-65061609D01*
X147707740Y-65061609D01*
X147715603Y-65069473D01*
X147723467Y-65061609D01*
X147717517Y-65055660D01*
X147741318Y-65055660D01*
X147752524Y-65068251D01*
X147755363Y-65070078D01*
X147779347Y-65082754D01*
X147786377Y-65084719D01*
X147804787Y-65077382D01*
X147817392Y-65070078D01*
X147831607Y-65056741D01*
X147816791Y-65046351D01*
X147813460Y-65045045D01*
X147775418Y-65041366D01*
X147759295Y-65045045D01*
X147741318Y-65055660D01*
X147717517Y-65055660D01*
X147715603Y-65053746D01*
X147707740Y-65061609D01*
X147624768Y-65061609D01*
X147624842Y-65059971D01*
X147603793Y-65056217D01*
X147594698Y-65058729D01*
X147588741Y-65065713D01*
X147546785Y-65065713D01*
X147546010Y-65060969D01*
X147515540Y-65050192D01*
X147498806Y-65047212D01*
X147428248Y-65036631D01*
X147408167Y-64856458D01*
X147399153Y-64785540D01*
X147389696Y-64727762D01*
X147380955Y-64689301D01*
X147374416Y-64676284D01*
X147365923Y-64689978D01*
X147363517Y-64723352D01*
X147363709Y-64727399D01*
X147363666Y-64767482D01*
X147360866Y-64827217D01*
X147355888Y-64894981D01*
X147354701Y-64908266D01*
X147342732Y-65038018D01*
X147267018Y-65038018D01*
X147216732Y-65039923D01*
X147177137Y-65044738D01*
X147166516Y-65047530D01*
X147146659Y-65060725D01*
X147070651Y-65060725D01*
X147065899Y-65055520D01*
X147055046Y-65053746D01*
X147034116Y-65062238D01*
X147031455Y-65069473D01*
X146976408Y-65069473D01*
X146972843Y-65056009D01*
X146961609Y-65053746D01*
X146940090Y-65061957D01*
X146937090Y-65069473D01*
X143223971Y-65069473D01*
X143182058Y-65049240D01*
X143071935Y-65007214D01*
X142941673Y-64966726D01*
X142786827Y-64925757D01*
X142698514Y-64904394D01*
X142535531Y-64864912D01*
X142394848Y-64828781D01*
X142277968Y-64796451D01*
X142186391Y-64768377D01*
X142121620Y-64745010D01*
X142085157Y-64726804D01*
X142077275Y-64717161D01*
X142091984Y-64713764D01*
X142132277Y-64708315D01*
X142192403Y-64701502D01*
X142266608Y-64694013D01*
X142285665Y-64692212D01*
X142425143Y-64677652D01*
X142547205Y-64660848D01*
X142658956Y-64639950D01*
X142767504Y-64613112D01*
X142879955Y-64578485D01*
X143003416Y-64534222D01*
X143144993Y-64478476D01*
X143189912Y-64460073D01*
X144173986Y-64460073D01*
X144175701Y-64466499D01*
X144191168Y-64485082D01*
X144212199Y-64473908D01*
X144239125Y-64432629D01*
X144269078Y-64368497D01*
X144290251Y-64319348D01*
X144321331Y-64248173D01*
X144359379Y-64161657D01*
X144401454Y-64066486D01*
X144444615Y-63969346D01*
X144444973Y-63968544D01*
X144485970Y-63875584D01*
X144523651Y-63788378D01*
X144555666Y-63712503D01*
X144579666Y-63653533D01*
X144593304Y-63617043D01*
X144594060Y-63614674D01*
X144609843Y-63570392D01*
X144625078Y-63537948D01*
X144628487Y-63532860D01*
X144638230Y-63502356D01*
X144637034Y-63485678D01*
X144628145Y-63480630D01*
X144610330Y-63505158D01*
X144586955Y-63551764D01*
X144559784Y-63604551D01*
X144532604Y-63647806D01*
X144513815Y-63669721D01*
X144497539Y-63692160D01*
X144473689Y-63736701D01*
X144444917Y-63797031D01*
X144413879Y-63866834D01*
X144383225Y-63939798D01*
X144355611Y-64009607D01*
X144333690Y-64069949D01*
X144320114Y-64114508D01*
X144317502Y-64136880D01*
X144316230Y-64159296D01*
X144305631Y-64198741D01*
X144288693Y-64247811D01*
X144268404Y-64299107D01*
X144247754Y-64345225D01*
X144229731Y-64378766D01*
X144217324Y-64392328D01*
X144214882Y-64391019D01*
X144201740Y-64387515D01*
X144187041Y-64404601D01*
X144176039Y-64432160D01*
X144173986Y-64460073D01*
X143189912Y-64460073D01*
X143209659Y-64451983D01*
X143429912Y-64356985D01*
X143623735Y-64264227D01*
X143795738Y-64170834D01*
X143950528Y-64073934D01*
X144092714Y-63970656D01*
X144226904Y-63858126D01*
X144350160Y-63741054D01*
X144416689Y-63672373D01*
X144480795Y-63602566D01*
X144536425Y-63538471D01*
X144577526Y-63486925D01*
X144587350Y-63473126D01*
X144629851Y-63416698D01*
X144662287Y-63387351D01*
X144677530Y-63383382D01*
X144700010Y-63376015D01*
X144703777Y-63363065D01*
X144713889Y-63334074D01*
X144735841Y-63303711D01*
X144762836Y-63265928D01*
X144776864Y-63233594D01*
X144788438Y-63205914D01*
X144798318Y-63197894D01*
X144814454Y-63211177D01*
X144843059Y-63248656D01*
X144881792Y-63306777D01*
X144928313Y-63381984D01*
X144980283Y-63470722D01*
X144995045Y-63496718D01*
X145030772Y-63558933D01*
X145064635Y-63614634D01*
X145099360Y-63667162D01*
X145137672Y-63719859D01*
X145182297Y-63776066D01*
X145235962Y-63839125D01*
X145301392Y-63912376D01*
X145381313Y-63999162D01*
X145478451Y-64102824D01*
X145559583Y-64188730D01*
X145667096Y-64301487D01*
X145756872Y-64393424D01*
X145832000Y-64467294D01*
X145895568Y-64525852D01*
X145950663Y-64571851D01*
X146000375Y-64608046D01*
X146047792Y-64637189D01*
X146083620Y-64656033D01*
X146145719Y-64685513D01*
X146193289Y-64703118D01*
X146239118Y-64711744D01*
X146295996Y-64714286D01*
X146340152Y-64714102D01*
X146403762Y-64712275D01*
X146455806Y-64708701D01*
X146487886Y-64704035D01*
X146493007Y-64702169D01*
X146494024Y-64683673D01*
X146477219Y-64642636D01*
X146443684Y-64581649D01*
X146438857Y-64573563D01*
X146428327Y-64554838D01*
X147365856Y-64554838D01*
X147368750Y-64564821D01*
X147384307Y-64580963D01*
X147392159Y-64566621D01*
X147393189Y-64547318D01*
X147389335Y-64524501D01*
X147376051Y-64529858D01*
X147375686Y-64530220D01*
X147365856Y-64554838D01*
X146428327Y-64554838D01*
X146412830Y-64527281D01*
X146379490Y-64463575D01*
X146353536Y-64411973D01*
X147337519Y-64411973D01*
X147338397Y-64431885D01*
X147350147Y-64469363D01*
X147353376Y-64479690D01*
X147369658Y-64501402D01*
X147389758Y-64494857D01*
X147399370Y-64478404D01*
X147408616Y-64435511D01*
X147405568Y-64396868D01*
X147393401Y-64368901D01*
X147375293Y-64358034D01*
X147354421Y-64370693D01*
X147349545Y-64377639D01*
X147337519Y-64411973D01*
X146353536Y-64411973D01*
X146341121Y-64387288D01*
X146300002Y-64303261D01*
X146258416Y-64216335D01*
X146218643Y-64131352D01*
X146182965Y-64053153D01*
X146153662Y-63986581D01*
X146133016Y-63936477D01*
X146123309Y-63907682D01*
X146123004Y-63903201D01*
X146136896Y-63905682D01*
X146169757Y-63922763D01*
X146214870Y-63950887D01*
X146221486Y-63955305D01*
X146348272Y-64033252D01*
X146459047Y-64085449D01*
X146555081Y-64112428D01*
X146606811Y-64116731D01*
X146711426Y-64103343D01*
X146808001Y-64063485D01*
X146897631Y-63996157D01*
X146981416Y-63900355D01*
X147060453Y-63775078D01*
X147125335Y-63643293D01*
X147146425Y-63595117D01*
X147162467Y-63559920D01*
X147174598Y-63540029D01*
X147183956Y-63537770D01*
X147191680Y-63555472D01*
X147198907Y-63595461D01*
X147206775Y-63660064D01*
X147216421Y-63751610D01*
X147226684Y-63850588D01*
X147237338Y-63946364D01*
X147247243Y-64017968D01*
X147258015Y-64072594D01*
X147271271Y-64117434D01*
X147288625Y-64159684D01*
X147302652Y-64188730D01*
X147347600Y-64264237D01*
X147394025Y-64316339D01*
X147407310Y-64326346D01*
X147455159Y-64353874D01*
X147489114Y-64359574D01*
X147515058Y-64340873D01*
X147538875Y-64295197D01*
X147551095Y-64263436D01*
X147586681Y-64172456D01*
X147635367Y-64057755D01*
X147695336Y-63923304D01*
X147764770Y-63773073D01*
X147841850Y-63611035D01*
X147852575Y-63589060D01*
X149470600Y-63589060D01*
X149474507Y-63628684D01*
X149476424Y-63634338D01*
X149486261Y-63651176D01*
X149501102Y-63644202D01*
X149511162Y-63634525D01*
X149528713Y-63597455D01*
X149525731Y-63567706D01*
X149512180Y-63539414D01*
X149496169Y-63532219D01*
X149478721Y-63552249D01*
X149470600Y-63589060D01*
X147852575Y-63589060D01*
X147905321Y-63480990D01*
X149484953Y-63480990D01*
X149490708Y-63493936D01*
X149495438Y-63491475D01*
X149497321Y-63472810D01*
X149495438Y-63470505D01*
X149486088Y-63472664D01*
X149484953Y-63480990D01*
X147905321Y-63480990D01*
X147924761Y-63441161D01*
X147959653Y-63370897D01*
X148062736Y-63163020D01*
X148152319Y-62979258D01*
X148229953Y-62816109D01*
X148297188Y-62670067D01*
X148355576Y-62537630D01*
X148376473Y-62487594D01*
X149447341Y-62487594D01*
X149447398Y-62531777D01*
X149448476Y-62597387D01*
X149450412Y-62679426D01*
X149453040Y-62772892D01*
X149456196Y-62872787D01*
X149459715Y-62974111D01*
X149463433Y-63071865D01*
X149467185Y-63161050D01*
X149470807Y-63236665D01*
X149474133Y-63293711D01*
X149476588Y-63323715D01*
X149482400Y-63365139D01*
X149487526Y-63375775D01*
X149492156Y-63355404D01*
X149496481Y-63303807D01*
X149496677Y-63300667D01*
X149499489Y-63274155D01*
X149726395Y-63274155D01*
X149726852Y-63332723D01*
X149729323Y-63397045D01*
X149733424Y-63459498D01*
X149738773Y-63512458D01*
X149744988Y-63548300D01*
X149750872Y-63559628D01*
X149756450Y-63545187D01*
X149761595Y-63507000D01*
X149765330Y-63452772D01*
X149765766Y-63442211D01*
X149766713Y-63363902D01*
X149763897Y-63295641D01*
X149757963Y-63242123D01*
X149749557Y-63208040D01*
X149739328Y-63198085D01*
X149733053Y-63204781D01*
X149728334Y-63228967D01*
X149726395Y-63274155D01*
X149499489Y-63274155D01*
X149502380Y-63246907D01*
X149511165Y-63204783D01*
X149518681Y-63187292D01*
X149523196Y-63165186D01*
X149524301Y-63119054D01*
X149522914Y-63070381D01*
X149720867Y-63070381D01*
X149723269Y-63114446D01*
X149729451Y-63140470D01*
X149735102Y-63143770D01*
X149743416Y-63123863D01*
X149746486Y-63085227D01*
X149746133Y-63072613D01*
X149740710Y-63022030D01*
X149732960Y-63001423D01*
X149725559Y-63011030D01*
X149721188Y-63051086D01*
X149720867Y-63070381D01*
X149522914Y-63070381D01*
X149522506Y-63056081D01*
X149518319Y-62983450D01*
X149512252Y-62908347D01*
X149504812Y-62837954D01*
X149496509Y-62779456D01*
X149487851Y-62740038D01*
X149486744Y-62736737D01*
X149481801Y-62703821D01*
X149480957Y-62651447D01*
X149484068Y-62595342D01*
X149487536Y-62526963D01*
X149482861Y-62486132D01*
X149474997Y-62472690D01*
X149454570Y-62465668D01*
X149448471Y-62469837D01*
X149447341Y-62487594D01*
X148376473Y-62487594D01*
X148406669Y-62415292D01*
X148452017Y-62299551D01*
X148493171Y-62186901D01*
X148525324Y-62093034D01*
X148546827Y-62029415D01*
X148564569Y-61978685D01*
X148576329Y-61947087D01*
X148579849Y-61939690D01*
X148591697Y-61950044D01*
G37*
G36*
X127900510Y-118190051D02*
G01*
X127868112Y-118222449D01*
X127835714Y-118190051D01*
X127868112Y-118157653D01*
X127900510Y-118190051D01*
G37*
G36*
X128094898Y-117866072D02*
G01*
X128062500Y-117898469D01*
X128030102Y-117866072D01*
X128062500Y-117833674D01*
X128094898Y-117866072D01*
G37*
G36*
X128094898Y-118514031D02*
G01*
X128062500Y-118546429D01*
X128030102Y-118514031D01*
X128062500Y-118481633D01*
X128094898Y-118514031D01*
G37*
G36*
X128613265Y-117671684D02*
G01*
X128580867Y-117704082D01*
X128548469Y-117671684D01*
X128580867Y-117639286D01*
X128613265Y-117671684D01*
G37*
G36*
X128872449Y-112423214D02*
G01*
X128840051Y-112455612D01*
X128807653Y-112423214D01*
X128840051Y-112390816D01*
X128872449Y-112423214D01*
G37*
G36*
X129779592Y-122725765D02*
G01*
X129747194Y-122758163D01*
X129714796Y-122725765D01*
X129747194Y-122693367D01*
X129779592Y-122725765D01*
G37*
G36*
X130621939Y-123179337D02*
G01*
X130589541Y-123211735D01*
X130557143Y-123179337D01*
X130589541Y-123146939D01*
X130621939Y-123179337D01*
G37*
G36*
X133019388Y-112747194D02*
G01*
X132986990Y-112779592D01*
X132954592Y-112747194D01*
X132986990Y-112714796D01*
X133019388Y-112747194D01*
G37*
G36*
X130017177Y-122714966D02*
G01*
X130024932Y-122791864D01*
X130017177Y-122801361D01*
X129978656Y-122792466D01*
X129973979Y-122758163D01*
X129997687Y-122704829D01*
X130017177Y-122714966D01*
G37*
G36*
X130405668Y-122741964D02*
G01*
X130414226Y-122874624D01*
X130405668Y-122903954D01*
X130382018Y-122912094D01*
X130372986Y-122822959D01*
X130383169Y-122730973D01*
X130405668Y-122741964D01*
G37*
G36*
X130471814Y-112378667D02*
G01*
X130479538Y-112479935D01*
X130466698Y-112502859D01*
X130437248Y-112483535D01*
X130432666Y-112417815D01*
X130448491Y-112348675D01*
X130471814Y-112378667D01*
G37*
G36*
X132738321Y-114448087D02*
G01*
X132746879Y-114580747D01*
X132738321Y-114610077D01*
X132714671Y-114618216D01*
X132705639Y-114529082D01*
X132715822Y-114437095D01*
X132738321Y-114448087D01*
G37*
G36*
X132868197Y-113384354D02*
G01*
X132875952Y-113461251D01*
X132868197Y-113470748D01*
X132829676Y-113461854D01*
X132825000Y-113427551D01*
X132848708Y-113374217D01*
X132868197Y-113384354D01*
G37*
G36*
X140578911Y-122261395D02*
G01*
X140586666Y-122338292D01*
X140578911Y-122347789D01*
X140540390Y-122338895D01*
X140535714Y-122304592D01*
X140559422Y-122251258D01*
X140578911Y-122261395D01*
G37*
G36*
X140578911Y-122779762D02*
G01*
X140586666Y-122856660D01*
X140578911Y-122866157D01*
X140540390Y-122857262D01*
X140535714Y-122822959D01*
X140559422Y-122769625D01*
X140578911Y-122779762D01*
G37*
G36*
X137979956Y-121116756D02*
G01*
X137968601Y-121167298D01*
X137916313Y-121258502D01*
X137882503Y-121243224D01*
X137879082Y-121206885D01*
X137926142Y-121119021D01*
X137943135Y-121106326D01*
X137979956Y-121116756D01*
G37*
G36*
X130407222Y-112951039D02*
G01*
X130395153Y-112973980D01*
X130334101Y-113035860D01*
X130322709Y-113038776D01*
X130318288Y-112996921D01*
X130330357Y-112973980D01*
X130391409Y-112912099D01*
X130402801Y-112909184D01*
X130407222Y-112951039D01*
G37*
G36*
X130684098Y-122351628D02*
G01*
X130686735Y-122369388D01*
X130664627Y-122432499D01*
X130658161Y-122434184D01*
X130602840Y-122388779D01*
X130589541Y-122369388D01*
X130594678Y-122309679D01*
X130618115Y-122304592D01*
X130684098Y-122351628D01*
G37*
G36*
X140902216Y-122344288D02*
G01*
X140892092Y-122369388D01*
X140833866Y-122431202D01*
X140823472Y-122434184D01*
X140795641Y-122384052D01*
X140794898Y-122369388D01*
X140844710Y-122307082D01*
X140863518Y-122304592D01*
X140902216Y-122344288D01*
G37*
G36*
X128159692Y-113281552D02*
G01*
X128159694Y-113284170D01*
X128105130Y-113385253D01*
X128023236Y-113410252D01*
X127930554Y-113410278D01*
X127937085Y-113368467D01*
X128000880Y-113294449D01*
X128104096Y-113190591D01*
X128149466Y-113186781D01*
X128159692Y-113281552D01*
G37*
G36*
X127800533Y-113564789D02*
G01*
X128154127Y-113579094D01*
X128140712Y-115269011D01*
X128127296Y-116958929D01*
X127823606Y-116978511D01*
X127625383Y-116980439D01*
X127513388Y-116945315D01*
X127450723Y-116868805D01*
X127424038Y-116746602D01*
X127410057Y-116502116D01*
X127408739Y-116133273D01*
X127420044Y-115637996D01*
X127422439Y-115565816D01*
X127576530Y-115565816D01*
X127600238Y-115619151D01*
X127619728Y-115609014D01*
X127627483Y-115532116D01*
X127619728Y-115522619D01*
X127581207Y-115531514D01*
X127576530Y-115565816D01*
X127422439Y-115565816D01*
X127424373Y-115507506D01*
X127440906Y-115071381D01*
X127457144Y-114748210D01*
X127475015Y-114521375D01*
X127496447Y-114374257D01*
X127523366Y-114290238D01*
X127557701Y-114252699D01*
X127570470Y-114247815D01*
X127633156Y-114224464D01*
X127569911Y-114213275D01*
X127560332Y-114212619D01*
X127491206Y-114183514D01*
X127456826Y-114088011D01*
X127446974Y-113895942D01*
X127446939Y-113877793D01*
X127446939Y-113848725D01*
X127576530Y-113848725D01*
X127608928Y-113881123D01*
X127641326Y-113848725D01*
X127608928Y-113816327D01*
X127576530Y-113848725D01*
X127446939Y-113848725D01*
X127446939Y-113550484D01*
X127800533Y-113564789D01*
G37*
G36*
X127842044Y-111597961D02*
G01*
X128229563Y-111609087D01*
X128506026Y-111629686D01*
X128689949Y-111667119D01*
X128799851Y-111728745D01*
X128854250Y-111821924D01*
X128871663Y-111954016D01*
X128872449Y-112007493D01*
X128836880Y-112156515D01*
X128717474Y-112236862D01*
X128495177Y-112261221D01*
X128491333Y-112261225D01*
X128307958Y-112295480D01*
X128202480Y-112410075D01*
X128161461Y-112622753D01*
X128159694Y-112699181D01*
X128147681Y-112862442D01*
X128116980Y-112943362D01*
X128099375Y-112944349D01*
X128016156Y-112952475D01*
X127998357Y-112972923D01*
X128004040Y-113033319D01*
X128029040Y-113038776D01*
X128036110Y-113082640D01*
X127972945Y-113193944D01*
X127919471Y-113265559D01*
X127798436Y-113402693D01*
X127704798Y-113483340D01*
X127681824Y-113492345D01*
X127651405Y-113440940D01*
X127661000Y-113319238D01*
X127699475Y-113176012D01*
X127755697Y-113060037D01*
X127788093Y-113026790D01*
X127832354Y-112983330D01*
X127790941Y-112974972D01*
X127696490Y-113016697D01*
X127620927Y-113156832D01*
X127572823Y-113324701D01*
X127525000Y-113524745D01*
X127518367Y-113294719D01*
X127535556Y-113115070D01*
X127586326Y-112985076D01*
X127592729Y-112977433D01*
X127641313Y-112917091D01*
X127595903Y-112934115D01*
X127592729Y-112935900D01*
X127538380Y-112928849D01*
X127514278Y-112816768D01*
X127511735Y-112722294D01*
X127461290Y-112480700D01*
X127318489Y-112322578D01*
X127096130Y-112261513D01*
X127077378Y-112261225D01*
X126949102Y-112206718D01*
X126882105Y-112063067D01*
X126886234Y-111860079D01*
X126912376Y-111761837D01*
X126973630Y-111580867D01*
X127842044Y-111597961D01*
G37*
G36*
X137900013Y-117981973D02*
G01*
X138246732Y-118054839D01*
X138520044Y-118204828D01*
X138741927Y-118443026D01*
X138894855Y-118699977D01*
X138996400Y-118945955D01*
X139049806Y-119212603D01*
X139066630Y-119486372D01*
X139068198Y-119738300D01*
X139049992Y-119906321D01*
X138999650Y-120035908D01*
X138904812Y-120172534D01*
X138867219Y-120219968D01*
X138747595Y-120378766D01*
X138671299Y-120498397D01*
X138656633Y-120536291D01*
X138695050Y-120610769D01*
X138795095Y-120751227D01*
X138915816Y-120903524D01*
X139040700Y-121059181D01*
X139117207Y-121182400D01*
X139157191Y-121313087D01*
X139172504Y-121491147D01*
X139174999Y-121756487D01*
X139175000Y-121776151D01*
X139168767Y-122076782D01*
X139144001Y-122295456D01*
X139091606Y-122479467D01*
X139002482Y-122676104D01*
X139001484Y-122678077D01*
X138866496Y-122909977D01*
X138717666Y-123073393D01*
X138528513Y-123181605D01*
X138272555Y-123247890D01*
X137923310Y-123285527D01*
X137772175Y-123294491D01*
X137406363Y-123305261D01*
X137163649Y-123293680D01*
X137046261Y-123259863D01*
X137043221Y-123257098D01*
X137014957Y-123160798D01*
X136993749Y-122936142D01*
X136979649Y-122584179D01*
X136972711Y-122105956D01*
X136972590Y-122064552D01*
X137691725Y-122064552D01*
X137698092Y-122307845D01*
X137713117Y-122479292D01*
X137724024Y-122526078D01*
X137814815Y-122610201D01*
X137959591Y-122620156D01*
X138106992Y-122557249D01*
X138152429Y-122515179D01*
X138303120Y-122252602D01*
X138371385Y-121932674D01*
X138357042Y-121598195D01*
X138259907Y-121291966D01*
X138158342Y-121135439D01*
X137998307Y-120992955D01*
X137865239Y-120970455D01*
X137768512Y-121067868D01*
X137742591Y-121138606D01*
X137719448Y-121286443D01*
X137702915Y-121515569D01*
X137693503Y-121787699D01*
X137691725Y-122064552D01*
X136972590Y-122064552D01*
X136971939Y-121842568D01*
X136972245Y-121393570D01*
X136974354Y-121057387D01*
X136980048Y-120817241D01*
X136991112Y-120656357D01*
X137009329Y-120557956D01*
X137036483Y-120505262D01*
X137074357Y-120481497D01*
X137117729Y-120471239D01*
X137263520Y-120443158D01*
X137116300Y-120434334D01*
X136969079Y-120425510D01*
X136983344Y-119442402D01*
X137716111Y-119442402D01*
X137717427Y-119485969D01*
X137726598Y-119734655D01*
X137735063Y-119931750D01*
X137741303Y-120042659D01*
X137742346Y-120052934D01*
X137804382Y-120085755D01*
X137946382Y-120101331D01*
X137966072Y-120101531D01*
X138127182Y-120079285D01*
X138235590Y-119989095D01*
X138299820Y-119883967D01*
X138383966Y-119615576D01*
X138375154Y-119332886D01*
X138279544Y-119080511D01*
X138171056Y-118951504D01*
X137989604Y-118825852D01*
X137856961Y-118807900D01*
X137769550Y-118901864D01*
X137723793Y-119111960D01*
X137716111Y-119442402D01*
X136983344Y-119442402D01*
X136986708Y-119210587D01*
X136992271Y-118827211D01*
X137058333Y-118827211D01*
X137067228Y-118865732D01*
X137101530Y-118870408D01*
X137154865Y-118846700D01*
X137144728Y-118827211D01*
X137067830Y-118819456D01*
X137058333Y-118827211D01*
X136992271Y-118827211D01*
X137004337Y-117995663D01*
X137457908Y-117975142D01*
X137900013Y-117981973D01*
G37*
G36*
X143819912Y-117907298D02*
G01*
X143877058Y-117910658D01*
X144086722Y-117939718D01*
X144198495Y-118011026D01*
X144230422Y-118151151D01*
X144200541Y-118386664D01*
X144200484Y-118386968D01*
X144153444Y-118539239D01*
X144060398Y-118605575D01*
X143951502Y-118623482D01*
X143743112Y-118643623D01*
X143741294Y-120976276D01*
X143739512Y-121515747D01*
X143735248Y-122015597D01*
X143728831Y-122460690D01*
X143720589Y-122835890D01*
X143710852Y-123126064D01*
X143699947Y-123316077D01*
X143688873Y-123389924D01*
X143584899Y-123451770D01*
X143411340Y-123474072D01*
X143221183Y-123459360D01*
X143067417Y-123410162D01*
X143010284Y-123357526D01*
X142996299Y-123267420D01*
X142982818Y-123063773D01*
X142970329Y-122762632D01*
X142959321Y-122380049D01*
X142950280Y-121932073D01*
X142947377Y-121712805D01*
X143405466Y-121712805D01*
X143438333Y-121760117D01*
X143449173Y-121755284D01*
X143490324Y-121670230D01*
X143514041Y-121505765D01*
X143516326Y-121431423D01*
X143528480Y-121255024D01*
X143559070Y-121143642D01*
X143574739Y-121127466D01*
X143584154Y-121074899D01*
X143542341Y-121022318D01*
X143477181Y-120982626D01*
X143451131Y-121043449D01*
X143446912Y-121119512D01*
X143435621Y-121309823D01*
X143414344Y-121530124D01*
X143412156Y-121548521D01*
X143405466Y-121712805D01*
X142947377Y-121712805D01*
X142943696Y-121434753D01*
X142940853Y-121073469D01*
X142938635Y-120776488D01*
X143391850Y-120776488D01*
X143403763Y-120860529D01*
X143425882Y-120861533D01*
X143441350Y-120774811D01*
X143430998Y-120737341D01*
X143402226Y-120712797D01*
X143391850Y-120776488D01*
X142938635Y-120776488D01*
X142936958Y-120551976D01*
X142931600Y-120069160D01*
X142926289Y-119719730D01*
X143386735Y-119719730D01*
X143396943Y-119927634D01*
X143422018Y-120008199D01*
X143453636Y-119961587D01*
X143483473Y-119787960D01*
X143490280Y-119717722D01*
X143489920Y-119544979D01*
X143461992Y-119433543D01*
X143449488Y-119419911D01*
X143412293Y-119454024D01*
X143390505Y-119595353D01*
X143386735Y-119719730D01*
X142926289Y-119719730D01*
X142925092Y-119641006D01*
X142917747Y-119283495D01*
X142915370Y-119201659D01*
X143394083Y-119201659D01*
X143404824Y-119300419D01*
X143451530Y-119323980D01*
X143498235Y-119268094D01*
X143515334Y-119145791D01*
X143505659Y-119032668D01*
X143472143Y-119036089D01*
X143451530Y-119064796D01*
X143394083Y-119201659D01*
X142915370Y-119201659D01*
X142909878Y-119012610D01*
X142901798Y-118844334D01*
X142896277Y-118796451D01*
X142805360Y-118710437D01*
X142601198Y-118650985D01*
X142571421Y-118646205D01*
X142278741Y-118602315D01*
X142298171Y-118266591D01*
X142317602Y-117930867D01*
X142641408Y-117910464D01*
X142882115Y-117906262D01*
X143107095Y-117919694D01*
X143175975Y-117929599D01*
X143386735Y-117969138D01*
X143387727Y-118371176D01*
X143397002Y-118598640D01*
X143420065Y-118780292D01*
X143445548Y-118862947D01*
X143474792Y-118867280D01*
X143478039Y-118756129D01*
X143469164Y-118658013D01*
X143460358Y-118449457D01*
X143501516Y-118309553D01*
X143572166Y-118217135D01*
X143660311Y-118095768D01*
X143651363Y-118005353D01*
X143633489Y-117980687D01*
X143608460Y-117928173D01*
X143663392Y-117905782D01*
X143819912Y-117907298D01*
G37*
G36*
X128400608Y-117654060D02*
G01*
X128455362Y-117692456D01*
X128451275Y-117704082D01*
X128480440Y-117746622D01*
X128617320Y-117767665D01*
X128674237Y-117768878D01*
X128937245Y-117768878D01*
X128947461Y-118757015D01*
X128956155Y-119618715D01*
X128963079Y-120359868D01*
X128968178Y-120989510D01*
X128971400Y-121516676D01*
X128972693Y-121950399D01*
X128972004Y-122299715D01*
X128969281Y-122573659D01*
X128964470Y-122781264D01*
X128957519Y-122931565D01*
X128948375Y-123033598D01*
X128936986Y-123096396D01*
X128923298Y-123128995D01*
X128921965Y-123130740D01*
X128804421Y-123190897D01*
X128620936Y-123209285D01*
X128427702Y-123187469D01*
X128280909Y-123127015D01*
X128264007Y-123112403D01*
X128220522Y-123047062D01*
X128195327Y-122941284D01*
X128186657Y-122770786D01*
X128192745Y-122511283D01*
X128203760Y-122283757D01*
X128215865Y-121943464D01*
X128216957Y-121689031D01*
X128483673Y-121689031D01*
X128516071Y-121721429D01*
X128548469Y-121689031D01*
X128516071Y-121656633D01*
X128483673Y-121689031D01*
X128216957Y-121689031D01*
X128217304Y-121608070D01*
X128211705Y-121429847D01*
X128548469Y-121429847D01*
X128580867Y-121462245D01*
X128613265Y-121429847D01*
X128580867Y-121397449D01*
X128548469Y-121429847D01*
X128211705Y-121429847D01*
X128208380Y-121324014D01*
X128196607Y-121184364D01*
X128175745Y-121041072D01*
X128807653Y-121041072D01*
X128840051Y-121073469D01*
X128872449Y-121041072D01*
X128840051Y-121008674D01*
X128807653Y-121041072D01*
X128175745Y-121041072D01*
X128166233Y-120975743D01*
X128129336Y-120865155D01*
X128066817Y-120821656D01*
X127968201Y-120814286D01*
X127878934Y-120822048D01*
X127813200Y-120856182D01*
X127768369Y-120932957D01*
X127741811Y-121068646D01*
X127730895Y-121279517D01*
X127732992Y-121581843D01*
X127745472Y-121991892D01*
X127751474Y-122155039D01*
X127764617Y-122594723D01*
X127766096Y-122911831D01*
X127755727Y-123112871D01*
X127733325Y-123204347D01*
X127721562Y-123211735D01*
X127596357Y-123228546D01*
X127565631Y-123236271D01*
X127443154Y-123241181D01*
X127284949Y-123219468D01*
X127090561Y-123178129D01*
X127058163Y-120470723D01*
X127055684Y-120263520D01*
X128613265Y-120263520D01*
X128645663Y-120295918D01*
X128678061Y-120263520D01*
X128645663Y-120231123D01*
X128613265Y-120263520D01*
X127055684Y-120263520D01*
X127025765Y-117763318D01*
X127382143Y-117782297D01*
X127738520Y-117801276D01*
X127741888Y-118886735D01*
X127745784Y-119323330D01*
X127756698Y-119645446D01*
X127778117Y-119868147D01*
X127813524Y-120006498D01*
X127866405Y-120075564D01*
X127940246Y-120090410D01*
X128016426Y-120073473D01*
X128107003Y-119999278D01*
X128174086Y-119873060D01*
X128196804Y-119748571D01*
X128167203Y-119685178D01*
X128155059Y-119615156D01*
X128148971Y-119439538D01*
X128149132Y-119182191D01*
X128155730Y-118866977D01*
X128159694Y-118744638D01*
X128176332Y-118359724D01*
X128196237Y-118086312D01*
X128221790Y-117906314D01*
X128255372Y-117801643D01*
X128289286Y-117760219D01*
X128351454Y-117710764D01*
X128302469Y-117718457D01*
X128283410Y-117724372D01*
X128139846Y-117721196D01*
X128089022Y-117699079D01*
X128069384Y-117660054D01*
X128171718Y-117642000D01*
X128244513Y-117640278D01*
X128400608Y-117654060D01*
G37*
G36*
X132592444Y-111464326D02*
G01*
X132913904Y-111475255D01*
X133127631Y-111499588D01*
X133255452Y-111547965D01*
X133319196Y-111631028D01*
X133340692Y-111759419D01*
X133342375Y-111829918D01*
X133307829Y-111986570D01*
X133217246Y-112047155D01*
X133099204Y-112122803D01*
X133062772Y-112186879D01*
X133038984Y-112255766D01*
X133028142Y-112198014D01*
X133026904Y-112180230D01*
X132967476Y-112095912D01*
X132837489Y-112065431D01*
X132687845Y-112097434D01*
X132652659Y-112116636D01*
X132609791Y-112204174D01*
X132572876Y-112386278D01*
X132544632Y-112627963D01*
X132527777Y-112894243D01*
X132525031Y-113150133D01*
X132539112Y-113360647D01*
X132550797Y-113427551D01*
X132591101Y-113563627D01*
X132656843Y-113635638D01*
X132787284Y-113670813D01*
X132924514Y-113686735D01*
X133115580Y-113710773D01*
X133213051Y-113751366D01*
X133252403Y-113836681D01*
X133266031Y-113957880D01*
X133237835Y-114168667D01*
X133114385Y-114293232D01*
X132900430Y-114327780D01*
X132814104Y-114319273D01*
X132688494Y-114316665D01*
X132599425Y-114362282D01*
X132542226Y-114472252D01*
X132512225Y-114662704D01*
X132504751Y-114949764D01*
X132515132Y-115349561D01*
X132515195Y-115351194D01*
X132530558Y-115661252D01*
X132549968Y-115923120D01*
X132570998Y-116110173D01*
X132591223Y-116195789D01*
X132592280Y-116197042D01*
X132678640Y-116229399D01*
X132849038Y-116261621D01*
X132974766Y-116277148D01*
X133171717Y-116301947D01*
X133274171Y-116340753D01*
X133316857Y-116417375D01*
X133331274Y-116521556D01*
X133336057Y-116658523D01*
X133291119Y-116717925D01*
X133161501Y-116732311D01*
X133104488Y-116732706D01*
X132883171Y-116738712D01*
X132622586Y-116753111D01*
X132533418Y-116759777D01*
X132311625Y-116769291D01*
X132122304Y-116762929D01*
X132062925Y-116754612D01*
X131916411Y-116722940D01*
X131919264Y-116278572D01*
X132177041Y-116278572D01*
X132200748Y-116331906D01*
X132220238Y-116321769D01*
X132227993Y-116244871D01*
X132220238Y-116235374D01*
X132181717Y-116244269D01*
X132177041Y-116278572D01*
X131919264Y-116278572D01*
X131921763Y-115889299D01*
X132206255Y-115889299D01*
X132237291Y-115924518D01*
X132242812Y-115921591D01*
X132287783Y-115834968D01*
X132306632Y-115681760D01*
X132306633Y-115680785D01*
X132299139Y-115537809D01*
X132277566Y-115522461D01*
X132243275Y-115633702D01*
X132219722Y-115747226D01*
X132206255Y-115889299D01*
X131921763Y-115889299D01*
X131926457Y-115158155D01*
X132268197Y-115158155D01*
X132277002Y-115181518D01*
X132339553Y-115238973D01*
X132370161Y-115173534D01*
X132371428Y-115140819D01*
X132339549Y-115074082D01*
X132305576Y-115080500D01*
X132268197Y-115158155D01*
X131926457Y-115158155D01*
X131928832Y-114788265D01*
X132371428Y-114788265D01*
X132395136Y-114841600D01*
X132414626Y-114831463D01*
X132422381Y-114754565D01*
X132414626Y-114745068D01*
X132376105Y-114753963D01*
X132371428Y-114788265D01*
X131928832Y-114788265D01*
X131930080Y-114593878D01*
X132371428Y-114593878D01*
X132395136Y-114647212D01*
X132414626Y-114637075D01*
X132422381Y-114560177D01*
X132414626Y-114550680D01*
X132376105Y-114559575D01*
X132371428Y-114593878D01*
X131930080Y-114593878D01*
X131933333Y-114087108D01*
X131950255Y-111451276D01*
X132592444Y-111464326D01*
G37*
G36*
X129668598Y-111462742D02*
G01*
X129799681Y-111491893D01*
X129829194Y-111511606D01*
X129841443Y-111594822D01*
X129849919Y-111782973D01*
X129854077Y-112051440D01*
X129853372Y-112375607D01*
X129851519Y-112520934D01*
X129848100Y-112914639D01*
X129853106Y-113196574D01*
X129867800Y-113384365D01*
X129893445Y-113495634D01*
X129924809Y-113543223D01*
X130060897Y-113588440D01*
X130210460Y-113555060D01*
X130311155Y-113459851D01*
X130319370Y-113437100D01*
X130343159Y-113368214D01*
X130354001Y-113425966D01*
X130355239Y-113443750D01*
X130399386Y-113544320D01*
X130483467Y-113535874D01*
X130531930Y-113480721D01*
X130549772Y-113391016D01*
X130566183Y-113197502D01*
X130579639Y-112925960D01*
X130588619Y-112602173D01*
X130590288Y-112492583D01*
X130594991Y-112161008D01*
X130600262Y-111876802D01*
X130605549Y-111664618D01*
X130610301Y-111549112D01*
X130611676Y-111536332D01*
X130675709Y-111508018D01*
X130816008Y-111496491D01*
X130980464Y-111500840D01*
X131116966Y-111520151D01*
X131171259Y-111546131D01*
X131179721Y-111620549D01*
X131189454Y-111808019D01*
X131199933Y-112092013D01*
X131210635Y-112456004D01*
X131221037Y-112883463D01*
X131230614Y-113357864D01*
X131233106Y-113498557D01*
X131242415Y-114030691D01*
X131252052Y-114563338D01*
X131261523Y-115070526D01*
X131270336Y-115526279D01*
X131277996Y-115904623D01*
X131284011Y-116179585D01*
X131284053Y-116181378D01*
X131290993Y-116509034D01*
X131291054Y-116729333D01*
X131280458Y-116864471D01*
X131255429Y-116936646D01*
X131212188Y-116968056D01*
X131148017Y-116980747D01*
X130973676Y-116984060D01*
X130775441Y-116961611D01*
X130557143Y-116920658D01*
X130557143Y-115765129D01*
X130557143Y-115144643D01*
X130751530Y-115144643D01*
X130783928Y-115177041D01*
X130816326Y-115144643D01*
X130783928Y-115112245D01*
X130751530Y-115144643D01*
X130557143Y-115144643D01*
X130557143Y-114820663D01*
X130881122Y-114820663D01*
X130913520Y-114853061D01*
X130945918Y-114820663D01*
X130913520Y-114788265D01*
X130881122Y-114820663D01*
X130557143Y-114820663D01*
X130557143Y-114609600D01*
X130359835Y-114527872D01*
X130160624Y-114479954D01*
X130012476Y-114514513D01*
X129958859Y-114542789D01*
X129919606Y-114583988D01*
X129892229Y-114656914D01*
X129874239Y-114780368D01*
X129863148Y-114973149D01*
X129856467Y-115254061D01*
X129851707Y-115641905D01*
X129850742Y-115736329D01*
X129842872Y-116199040D01*
X129829446Y-116541630D01*
X129809763Y-116773480D01*
X129783121Y-116903971D01*
X129760729Y-116939560D01*
X129593443Y-116986623D01*
X129393575Y-116972400D01*
X129250415Y-116910332D01*
X129225479Y-116877571D01*
X129205069Y-116815657D01*
X129188794Y-116712981D01*
X129176262Y-116557936D01*
X129167081Y-116338915D01*
X129160862Y-116044310D01*
X129157211Y-115662513D01*
X129155739Y-115181917D01*
X129156054Y-114590914D01*
X129157035Y-114140306D01*
X129157457Y-113978316D01*
X130881122Y-113978316D01*
X130913520Y-114010714D01*
X130945918Y-113978316D01*
X130913520Y-113945918D01*
X130881122Y-113978316D01*
X129157457Y-113978316D01*
X129158131Y-113719133D01*
X130881122Y-113719133D01*
X130913520Y-113751531D01*
X130945918Y-113719133D01*
X130913520Y-113686735D01*
X130881122Y-113719133D01*
X129158131Y-113719133D01*
X129164030Y-111451276D01*
X129477940Y-111451276D01*
X129668598Y-111462742D01*
G37*
G36*
X133310265Y-117790715D02*
G01*
X133558737Y-117909093D01*
X133727731Y-118113706D01*
X133823581Y-118413414D01*
X133852621Y-118817078D01*
X133848796Y-118970623D01*
X133829337Y-119421174D01*
X133512521Y-119421174D01*
X133195705Y-119421174D01*
X133188541Y-119007336D01*
X133174986Y-118758574D01*
X133140007Y-118608546D01*
X133076132Y-118527148D01*
X133067985Y-118521698D01*
X132929630Y-118484404D01*
X132841199Y-118521733D01*
X132808471Y-118542913D01*
X132782484Y-118569380D01*
X132762974Y-118614300D01*
X132749678Y-118690839D01*
X132742332Y-118812161D01*
X132740674Y-118991432D01*
X132744438Y-119241818D01*
X132753363Y-119576483D01*
X132767184Y-120008594D01*
X132785639Y-120551316D01*
X132795078Y-120826207D01*
X132812386Y-121287614D01*
X132830747Y-121634044D01*
X132853723Y-121880088D01*
X132884877Y-122040339D01*
X132927771Y-122129386D01*
X132985969Y-122161821D01*
X133063034Y-122152235D01*
X133114517Y-122134428D01*
X133158903Y-122088537D01*
X133190144Y-121977624D01*
X133211172Y-121782046D01*
X133224921Y-121482155D01*
X133227910Y-121375110D01*
X133246173Y-120652296D01*
X133553954Y-120632547D01*
X133861735Y-120612798D01*
X133861735Y-121509073D01*
X133858324Y-121910694D01*
X133843350Y-122204750D01*
X133809699Y-122413193D01*
X133750258Y-122557974D01*
X133657914Y-122661043D01*
X133525553Y-122744354D01*
X133449210Y-122782114D01*
X133133645Y-122874964D01*
X132811551Y-122848140D01*
X132630612Y-122786386D01*
X132454071Y-122696033D01*
X132322089Y-122579931D01*
X132227301Y-122418389D01*
X132162341Y-122191720D01*
X132119842Y-121880235D01*
X132115783Y-121818623D01*
X132436224Y-121818623D01*
X132468622Y-121851020D01*
X132501020Y-121818623D01*
X132468622Y-121786225D01*
X132436224Y-121818623D01*
X132115783Y-121818623D01*
X132094441Y-121494643D01*
X132565816Y-121494643D01*
X132598214Y-121527041D01*
X132630612Y-121494643D01*
X132598214Y-121462245D01*
X132565816Y-121494643D01*
X132094441Y-121494643D01*
X132092438Y-121464244D01*
X132086720Y-121332653D01*
X132068475Y-120881838D01*
X132065726Y-120814286D01*
X132565816Y-120814286D01*
X132589524Y-120867620D01*
X132609013Y-120857483D01*
X132616768Y-120780585D01*
X132609013Y-120771089D01*
X132570492Y-120779983D01*
X132565816Y-120814286D01*
X132065726Y-120814286D01*
X132058695Y-120641497D01*
X132522619Y-120641497D01*
X132531513Y-120680018D01*
X132565816Y-120684694D01*
X132619151Y-120660986D01*
X132609013Y-120641497D01*
X132532116Y-120633742D01*
X132522619Y-120641497D01*
X132058695Y-120641497D01*
X132047560Y-120367882D01*
X132047267Y-120360714D01*
X132565816Y-120360714D01*
X132589524Y-120414049D01*
X132609013Y-120403912D01*
X132616768Y-120327014D01*
X132609013Y-120317517D01*
X132570492Y-120326412D01*
X132565816Y-120360714D01*
X132047267Y-120360714D01*
X132032699Y-120004337D01*
X132565816Y-120004337D01*
X132598214Y-120036735D01*
X132630612Y-120004337D01*
X132598214Y-119971939D01*
X132565816Y-120004337D01*
X132032699Y-120004337D01*
X132026681Y-119857123D01*
X132010096Y-119453572D01*
X131995955Y-119083072D01*
X131990671Y-118815799D01*
X131996643Y-118625549D01*
X132016270Y-118486117D01*
X132051950Y-118371298D01*
X132106083Y-118254889D01*
X132122789Y-118222449D01*
X132304246Y-117966358D01*
X132539486Y-117813722D01*
X132850890Y-117752140D01*
X132975980Y-117749711D01*
X133310265Y-117790715D01*
G37*
G36*
X130478741Y-117652603D02*
G01*
X130911753Y-117671684D01*
X130961908Y-117930867D01*
X130993556Y-118123980D01*
X131030257Y-118391569D01*
X131064589Y-118679120D01*
X131067773Y-118708418D01*
X131115581Y-119116783D01*
X131176985Y-119587741D01*
X131246220Y-120081228D01*
X131317518Y-120557177D01*
X131385114Y-120975521D01*
X131431445Y-121235459D01*
X131526842Y-121763911D01*
X131613810Y-122294578D01*
X131682734Y-122768284D01*
X131691999Y-122839158D01*
X131731410Y-123146939D01*
X131411394Y-123146939D01*
X131160324Y-123123967D01*
X131018237Y-123046968D01*
X130971487Y-122903816D01*
X130985893Y-122768878D01*
X130986825Y-122560204D01*
X130925981Y-122339881D01*
X130822097Y-122145475D01*
X130693905Y-122014549D01*
X130592759Y-121980612D01*
X130495616Y-121994483D01*
X130443854Y-122058459D01*
X130417596Y-122206089D01*
X130410383Y-122288393D01*
X130386114Y-122596174D01*
X130374434Y-122288393D01*
X130349147Y-122074677D01*
X130294712Y-121983818D01*
X130278520Y-121980612D01*
X130140811Y-122037828D01*
X130053289Y-122181242D01*
X130038775Y-122281329D01*
X130012843Y-122413350D01*
X129973979Y-122466582D01*
X129921377Y-122556939D01*
X129908191Y-122648595D01*
X129891026Y-122733345D01*
X129859594Y-122721039D01*
X129764909Y-122636561D01*
X129658977Y-122602961D01*
X129590959Y-122631585D01*
X129585204Y-122657704D01*
X129562564Y-122798019D01*
X129545874Y-122850058D01*
X129550461Y-122931969D01*
X129643067Y-122952551D01*
X129752067Y-122926656D01*
X129779592Y-122887755D01*
X129828900Y-122824842D01*
X129844388Y-122822959D01*
X129902248Y-122875278D01*
X129909184Y-122917873D01*
X129966713Y-123027172D01*
X130112844Y-123097629D01*
X130283356Y-123111206D01*
X130413177Y-123123857D01*
X130465369Y-123155709D01*
X130422771Y-123179047D01*
X130281436Y-123193980D01*
X130071963Y-123200258D01*
X129824950Y-123197633D01*
X129570995Y-123185854D01*
X129342219Y-123164862D01*
X129192943Y-123127357D01*
X129138748Y-123048168D01*
X129136187Y-122997043D01*
X129168705Y-122816388D01*
X129201880Y-122725765D01*
X129243130Y-122649631D01*
X129249554Y-122686953D01*
X129239840Y-122768447D01*
X129252835Y-122887183D01*
X129319206Y-122906141D01*
X129411737Y-122827030D01*
X129457412Y-122754800D01*
X129514017Y-122625021D01*
X129490676Y-122571495D01*
X129427581Y-122563776D01*
X129333827Y-122517373D01*
X129293052Y-122373079D01*
X129304442Y-122123262D01*
X129350612Y-121842078D01*
X129405736Y-121526206D01*
X129410289Y-121494643D01*
X131269898Y-121494643D01*
X131302296Y-121527041D01*
X131334694Y-121494643D01*
X131302296Y-121462245D01*
X131269898Y-121494643D01*
X129410289Y-121494643D01*
X129454968Y-121184907D01*
X129458592Y-121152964D01*
X130193039Y-121152964D01*
X130207852Y-121214528D01*
X130288803Y-121250499D01*
X130442842Y-121267626D01*
X130463773Y-121267857D01*
X130614044Y-121257152D01*
X130674465Y-121199947D01*
X130684473Y-121058610D01*
X130684458Y-121057270D01*
X130670631Y-120891476D01*
X130637073Y-120668964D01*
X130591638Y-120428570D01*
X130542176Y-120209131D01*
X130496539Y-120049483D01*
X130469064Y-119991853D01*
X130426140Y-120015148D01*
X130373556Y-120136627D01*
X130317808Y-120325897D01*
X130265389Y-120552561D01*
X130222791Y-120786224D01*
X130196510Y-120996490D01*
X130193039Y-121152964D01*
X129458592Y-121152964D01*
X129483304Y-120935169D01*
X129507917Y-120731401D01*
X129552154Y-120430039D01*
X129611281Y-120060774D01*
X129680561Y-119653292D01*
X129746863Y-119282873D01*
X129819649Y-118885795D01*
X129886642Y-118519310D01*
X129943418Y-118207699D01*
X129985552Y-117975244D01*
X130008486Y-117846991D01*
X130045729Y-117633523D01*
X130478741Y-117652603D01*
G37*
G36*
X141171513Y-118009106D02*
G01*
X141219970Y-118288368D01*
X141264239Y-118578683D01*
X141281432Y-118708418D01*
X141331362Y-119094802D01*
X141396181Y-119560746D01*
X141468842Y-120058087D01*
X141542300Y-120538663D01*
X141609509Y-120954312D01*
X141613213Y-120976276D01*
X141661782Y-121272656D01*
X141705017Y-121552786D01*
X141735634Y-121768937D01*
X141741788Y-121818623D01*
X141776801Y-122044250D01*
X141822703Y-122252389D01*
X141828252Y-122272194D01*
X141868189Y-122442319D01*
X141882169Y-122563776D01*
X141892543Y-122688848D01*
X141921438Y-122871798D01*
X141928259Y-122907422D01*
X141976948Y-123153875D01*
X141596510Y-123134208D01*
X141216071Y-123114541D01*
X141232294Y-122849395D01*
X141189298Y-122515564D01*
X141097896Y-122298630D01*
X140996107Y-122125191D01*
X140899136Y-122037142D01*
X140760032Y-122001071D01*
X140667895Y-121992656D01*
X140480637Y-121994377D01*
X140346675Y-122023119D01*
X140322225Y-122038591D01*
X140288970Y-122133353D01*
X140266043Y-122317339D01*
X140258476Y-122544915D01*
X140258686Y-122766058D01*
X140254284Y-122866309D01*
X140242651Y-122854356D01*
X140221168Y-122738882D01*
X140213710Y-122693367D01*
X140185087Y-122553659D01*
X140163505Y-122514587D01*
X140156671Y-122547577D01*
X140122915Y-122661533D01*
X140077776Y-122693367D01*
X140038031Y-122739630D01*
X140056124Y-122848382D01*
X140117585Y-122974569D01*
X140197192Y-123065160D01*
X140341961Y-123120104D01*
X140439719Y-123119882D01*
X140594434Y-123123816D01*
X140671392Y-123152071D01*
X140653161Y-123175021D01*
X140535228Y-123191056D01*
X140347314Y-123199824D01*
X140119143Y-123200975D01*
X139880437Y-123194159D01*
X139660918Y-123179025D01*
X139547576Y-123165324D01*
X139414810Y-123119248D01*
X139371658Y-123009655D01*
X139370380Y-122964446D01*
X139396143Y-122795602D01*
X139440417Y-122693367D01*
X139482125Y-122653259D01*
X139480670Y-122721160D01*
X139466964Y-122788802D01*
X139442351Y-122918905D01*
X139465925Y-122937868D01*
X139557533Y-122861006D01*
X139558917Y-122859754D01*
X139605994Y-122801571D01*
X139762692Y-122801571D01*
X139786644Y-122915658D01*
X139871440Y-122940238D01*
X139964614Y-122866784D01*
X139984833Y-122789696D01*
X139959692Y-122648279D01*
X139901449Y-122569243D01*
X139836316Y-122578357D01*
X139811314Y-122619110D01*
X139762692Y-122801571D01*
X139605994Y-122801571D01*
X139658801Y-122736306D01*
X139692647Y-122626052D01*
X139651493Y-122566405D01*
X139629806Y-122563776D01*
X139558423Y-122504737D01*
X139521672Y-122342454D01*
X139521850Y-122099175D01*
X139554541Y-121834803D01*
X139591349Y-121613058D01*
X139610338Y-121494643D01*
X141507653Y-121494643D01*
X141540051Y-121527041D01*
X141572449Y-121494643D01*
X141540051Y-121462245D01*
X141507653Y-121494643D01*
X139610338Y-121494643D01*
X139631119Y-121365051D01*
X141507653Y-121365051D01*
X141540051Y-121397449D01*
X141572449Y-121365051D01*
X141540051Y-121332653D01*
X141507653Y-121365051D01*
X139631119Y-121365051D01*
X139641049Y-121303130D01*
X139646590Y-121267857D01*
X140393398Y-121267857D01*
X140622722Y-121267857D01*
X140787382Y-121249761D01*
X140889281Y-121205439D01*
X140895298Y-121197873D01*
X140902690Y-121109663D01*
X140886698Y-120936210D01*
X140853623Y-120711437D01*
X140809769Y-120469270D01*
X140761440Y-120243634D01*
X140714939Y-120068453D01*
X140676568Y-119977653D01*
X140667524Y-119971939D01*
X140616201Y-120031965D01*
X140559125Y-120194207D01*
X140503202Y-120431906D01*
X140455341Y-120718305D01*
X140437514Y-120862883D01*
X140393398Y-121267857D01*
X139646590Y-121267857D01*
X139697303Y-120944997D01*
X139753776Y-120578634D01*
X139757362Y-120555102D01*
X139820690Y-120152248D01*
X139898406Y-119677474D01*
X139981264Y-119186279D01*
X140060020Y-118734161D01*
X140070393Y-118676020D01*
X140250222Y-117671684D01*
X140675577Y-117652729D01*
X141100932Y-117633774D01*
X141171513Y-118009106D01*
G37*
G36*
X134778689Y-117782031D02*
G01*
X134979829Y-117859506D01*
X135029887Y-117900295D01*
X135096295Y-117981695D01*
X135131304Y-118081355D01*
X135140035Y-118233910D01*
X135127608Y-118473995D01*
X135123302Y-118532056D01*
X135101666Y-118784659D01*
X135079309Y-118993782D01*
X135060560Y-119119724D01*
X135058159Y-119129592D01*
X135060900Y-119234244D01*
X135101577Y-119339640D01*
X135155817Y-119394557D01*
X135180585Y-119386899D01*
X135217050Y-119313869D01*
X135280492Y-119156360D01*
X135338478Y-119000000D01*
X135500686Y-118571110D01*
X135648357Y-118226066D01*
X135775586Y-117977253D01*
X135876469Y-117837057D01*
X135902482Y-117817012D01*
X136038226Y-117786803D01*
X136220334Y-117795901D01*
X136232127Y-117798003D01*
X136346850Y-117826563D01*
X136419159Y-117872897D01*
X136447083Y-117954119D01*
X136428651Y-118087341D01*
X136361891Y-118289675D01*
X136244834Y-118578234D01*
X136104874Y-118902806D01*
X135980429Y-119215869D01*
X135920224Y-119445349D01*
X135918840Y-119616940D01*
X135938827Y-119689887D01*
X135987134Y-119886564D01*
X135999169Y-120024754D01*
X136019472Y-120242892D01*
X136076171Y-120546858D01*
X136160616Y-120900971D01*
X136264156Y-121269549D01*
X136378141Y-121616910D01*
X136399154Y-121674576D01*
X136494736Y-121955670D01*
X136574602Y-122232920D01*
X136623300Y-122451984D01*
X136626723Y-122474716D01*
X136637131Y-122697063D01*
X136578348Y-122823492D01*
X136429829Y-122878204D01*
X136276876Y-122886763D01*
X136131811Y-122866040D01*
X136020054Y-122789518D01*
X135929304Y-122638032D01*
X135847260Y-122392414D01*
X135778497Y-122110204D01*
X135673098Y-121641524D01*
X135590508Y-121284617D01*
X135526337Y-121024552D01*
X135476193Y-120846396D01*
X135435684Y-120735219D01*
X135400419Y-120676088D01*
X135366006Y-120654073D01*
X135349713Y-120652296D01*
X135246543Y-120714579D01*
X135170288Y-120896451D01*
X135122343Y-121190449D01*
X135104098Y-121589110D01*
X135110124Y-121936473D01*
X135120021Y-122283279D01*
X135117372Y-122522863D01*
X135100562Y-122677131D01*
X135067971Y-122767991D01*
X135046745Y-122795019D01*
X134931688Y-122878720D01*
X134862937Y-122846900D01*
X134834956Y-122695332D01*
X134833673Y-122632396D01*
X134821405Y-122461983D01*
X134790912Y-122355479D01*
X134780602Y-122344236D01*
X134750538Y-122373806D01*
X134753395Y-122487661D01*
X134725358Y-122674020D01*
X134603558Y-122802701D01*
X134421406Y-122840948D01*
X134396301Y-122837779D01*
X134279116Y-122776897D01*
X134247480Y-122705060D01*
X134246914Y-122616920D01*
X134246650Y-122414560D01*
X134246676Y-122113352D01*
X134246688Y-122098374D01*
X134740970Y-122098374D01*
X134765419Y-122211681D01*
X134812075Y-122239796D01*
X134823755Y-122181078D01*
X134831598Y-122029218D01*
X134833673Y-121872619D01*
X134825005Y-121650068D01*
X134803837Y-121555125D01*
X134777426Y-121587319D01*
X134753031Y-121746182D01*
X134743563Y-121878450D01*
X134740970Y-122098374D01*
X134246688Y-122098374D01*
X134246981Y-121728668D01*
X134247551Y-121275878D01*
X134247670Y-121203061D01*
X134779108Y-121203061D01*
X134789291Y-121295048D01*
X134811791Y-121284056D01*
X134820349Y-121151396D01*
X134811791Y-121122066D01*
X134788141Y-121113927D01*
X134779108Y-121203061D01*
X134247670Y-121203061D01*
X134248199Y-120879082D01*
X134704082Y-120879082D01*
X134714534Y-120984558D01*
X134728922Y-121008674D01*
X134762959Y-120955247D01*
X134787652Y-120879082D01*
X134791286Y-120775759D01*
X134762811Y-120749490D01*
X134715077Y-120803813D01*
X134704082Y-120879082D01*
X134248199Y-120879082D01*
X134248377Y-120770355D01*
X134248671Y-120619898D01*
X134768877Y-120619898D01*
X134792585Y-120673232D01*
X134812075Y-120663095D01*
X134819830Y-120586198D01*
X134812075Y-120576701D01*
X134773554Y-120585595D01*
X134768877Y-120619898D01*
X134248671Y-120619898D01*
X134249368Y-120263520D01*
X134251146Y-119646950D01*
X134254010Y-119147276D01*
X134258551Y-118751803D01*
X134265363Y-118447837D01*
X134275037Y-118222683D01*
X134288166Y-118063645D01*
X134305342Y-117958030D01*
X134327158Y-117893142D01*
X134354205Y-117856287D01*
X134361977Y-117849873D01*
X134551738Y-117777235D01*
X134778689Y-117782031D01*
G37*
G36*
X142411014Y-111429910D02*
G01*
X142733167Y-111649837D01*
X143132648Y-111803078D01*
X143615571Y-111889962D01*
X144188048Y-111910824D01*
X144856194Y-111865997D01*
X145626121Y-111755811D01*
X146237755Y-111638119D01*
X146264731Y-111649171D01*
X146192401Y-111708690D01*
X146036150Y-111804818D01*
X145981750Y-111835412D01*
X145569725Y-112091814D01*
X145268329Y-112354993D01*
X145060073Y-112651212D01*
X144927465Y-113006730D01*
X144853017Y-113447809D01*
X144843977Y-113543764D01*
X144817642Y-113806659D01*
X144791044Y-113955990D01*
X144759841Y-114007721D01*
X144724256Y-113984054D01*
X144608609Y-113893095D01*
X144433047Y-113818462D01*
X144233017Y-113766728D01*
X144043965Y-113744464D01*
X143901336Y-113758244D01*
X143840578Y-113814639D01*
X143840306Y-113820151D01*
X143800879Y-113859429D01*
X143777440Y-113849917D01*
X143671552Y-113848257D01*
X143497775Y-113905008D01*
X143292803Y-114002051D01*
X143093328Y-114121270D01*
X142936046Y-114244549D01*
X142899270Y-114283492D01*
X142776519Y-114490908D01*
X142738820Y-114745674D01*
X142738775Y-114757015D01*
X142752423Y-114938550D01*
X142786726Y-115059683D01*
X142803571Y-115079847D01*
X142865851Y-115160216D01*
X142868367Y-115177697D01*
X142816356Y-115187794D01*
X142684042Y-115148566D01*
X142592985Y-115110500D01*
X142241352Y-115004505D01*
X141898213Y-114997981D01*
X141590083Y-115085533D01*
X141343473Y-115261765D01*
X141250130Y-115383728D01*
X141174035Y-115547967D01*
X141132892Y-115752755D01*
X141118971Y-116039302D01*
X141118758Y-116084184D01*
X141102181Y-116496142D01*
X141051118Y-116795300D01*
X140961809Y-116994750D01*
X140830494Y-117107590D01*
X140824048Y-117110608D01*
X140563294Y-117174005D01*
X140269009Y-117163878D01*
X140088414Y-117115227D01*
X139961417Y-117052322D01*
X139762802Y-116940724D01*
X139530042Y-116801688D01*
X139467415Y-116762957D01*
X139124579Y-116573381D01*
X138849023Y-116480065D01*
X138623238Y-116481262D01*
X138429711Y-116575230D01*
X138344720Y-116651148D01*
X138170663Y-116829337D01*
X137781888Y-116434891D01*
X137427095Y-116134415D01*
X137050412Y-115919786D01*
X136960466Y-115889796D01*
X140553362Y-115889796D01*
X140558417Y-116029940D01*
X140571340Y-116068411D01*
X140581443Y-116035587D01*
X140592163Y-115846773D01*
X140581443Y-115744005D01*
X140565419Y-115713299D01*
X140555252Y-115794708D01*
X140553362Y-115889796D01*
X136960466Y-115889796D01*
X136669868Y-115792904D01*
X136303494Y-115755668D01*
X135969317Y-115809979D01*
X135685368Y-115957736D01*
X135475181Y-116191817D01*
X135337095Y-116415245D01*
X135243434Y-116233515D01*
X135079462Y-115977903D01*
X134866069Y-115768441D01*
X134695665Y-115663010D01*
X140146939Y-115663010D01*
X140179337Y-115695408D01*
X140211735Y-115663010D01*
X140276530Y-115663010D01*
X140308928Y-115695408D01*
X140341326Y-115663010D01*
X140989286Y-115663010D01*
X141021684Y-115695408D01*
X141054082Y-115663010D01*
X141021684Y-115630612D01*
X140989286Y-115663010D01*
X140341326Y-115663010D01*
X140308928Y-115630612D01*
X140276530Y-115663010D01*
X140211735Y-115663010D01*
X140179337Y-115630612D01*
X140146939Y-115663010D01*
X134695665Y-115663010D01*
X134584535Y-115594253D01*
X134275564Y-115468623D01*
X140146939Y-115468623D01*
X140179337Y-115501020D01*
X140211735Y-115468623D01*
X140276530Y-115468623D01*
X140308928Y-115501020D01*
X140341326Y-115468623D01*
X140535714Y-115468623D01*
X140568112Y-115501020D01*
X140600510Y-115468623D01*
X140989286Y-115468623D01*
X141021684Y-115501020D01*
X141054082Y-115468623D01*
X141021684Y-115436225D01*
X140989286Y-115468623D01*
X140600510Y-115468623D01*
X140568112Y-115436225D01*
X140535714Y-115468623D01*
X140341326Y-115468623D01*
X140308928Y-115436225D01*
X140276530Y-115468623D01*
X140211735Y-115468623D01*
X140179337Y-115436225D01*
X140146939Y-115468623D01*
X134275564Y-115468623D01*
X134216143Y-115444462D01*
X133742173Y-115308189D01*
X133586352Y-115270591D01*
X133352147Y-115210847D01*
X133176233Y-115156330D01*
X133088739Y-115116691D01*
X133084184Y-115109767D01*
X133143151Y-115082021D01*
X133297375Y-115051916D01*
X133502488Y-115027127D01*
X133828012Y-114967375D01*
X134221942Y-114849862D01*
X134640386Y-114691072D01*
X135805612Y-114691072D01*
X135838010Y-114723469D01*
X135870408Y-114691072D01*
X135838010Y-114658674D01*
X135805612Y-114691072D01*
X134640386Y-114691072D01*
X134645211Y-114689241D01*
X135058752Y-114500160D01*
X135065083Y-114496684D01*
X136129592Y-114496684D01*
X136161990Y-114529082D01*
X136194388Y-114496684D01*
X136161990Y-114464286D01*
X136129592Y-114496684D01*
X135065083Y-114496684D01*
X135384439Y-114321352D01*
X135784395Y-114043112D01*
X136323979Y-114043112D01*
X136356377Y-114075510D01*
X136388775Y-114043112D01*
X136356377Y-114010714D01*
X136323979Y-114043112D01*
X135784395Y-114043112D01*
X135879719Y-113976797D01*
X135946494Y-113913520D01*
X136129592Y-113913520D01*
X136161990Y-113945918D01*
X136194388Y-113913520D01*
X136161990Y-113881123D01*
X136129592Y-113913520D01*
X135946494Y-113913520D01*
X136260435Y-113616025D01*
X136278970Y-113589541D01*
X136518367Y-113589541D01*
X136550765Y-113621939D01*
X136583163Y-113589541D01*
X136550765Y-113557143D01*
X136518367Y-113589541D01*
X136278970Y-113589541D01*
X136519446Y-113245925D01*
X136538905Y-113207594D01*
X136635003Y-113018775D01*
X136708807Y-112887438D01*
X136741573Y-112844388D01*
X136782559Y-112896663D01*
X136868757Y-113035158D01*
X136983226Y-113232381D01*
X137010130Y-113280223D01*
X137151120Y-113496246D01*
X137353858Y-113760507D01*
X137596789Y-114049463D01*
X137858355Y-114339569D01*
X138117001Y-114607279D01*
X138351169Y-114829050D01*
X138539303Y-114981338D01*
X138604453Y-115021576D01*
X138773439Y-115080990D01*
X138964204Y-115110647D01*
X139123426Y-115105360D01*
X139187348Y-115078299D01*
X139174788Y-115009642D01*
X139112028Y-114855725D01*
X139011137Y-114644939D01*
X138965086Y-114555407D01*
X138852559Y-114330722D01*
X138773070Y-114152510D01*
X138738821Y-114049006D01*
X138740244Y-114035096D01*
X138809585Y-114045423D01*
X138943704Y-114109746D01*
X138989503Y-114136572D01*
X139164600Y-114223786D01*
X139316144Y-114268040D01*
X139336990Y-114269414D01*
X139549427Y-114212937D01*
X139765575Y-114063037D01*
X139947497Y-113849006D01*
X139999232Y-113758027D01*
X140080715Y-113602522D01*
X140127379Y-113552060D01*
X140157770Y-113593590D01*
X140170697Y-113637381D01*
X140200645Y-113814479D01*
X140211092Y-113978316D01*
X140243987Y-114159927D01*
X140325057Y-114349851D01*
X140430728Y-114506830D01*
X140537426Y-114589602D01*
X140562793Y-114593878D01*
X140651990Y-114539303D01*
X140699785Y-114448087D01*
X140740260Y-114346151D01*
X140827597Y-114147977D01*
X140952428Y-113874087D01*
X141105386Y-113545002D01*
X141277107Y-113181242D01*
X141283235Y-113168367D01*
X143663566Y-113168367D01*
X143668621Y-113308511D01*
X143681544Y-113346983D01*
X143691647Y-113314158D01*
X143699924Y-113168367D01*
X143857954Y-113168367D01*
X143863009Y-113308511D01*
X143875932Y-113346983D01*
X143886035Y-113314158D01*
X143896755Y-113125344D01*
X143886035Y-113022577D01*
X143870011Y-112991871D01*
X143859844Y-113073279D01*
X143857954Y-113168367D01*
X143699924Y-113168367D01*
X143702367Y-113125344D01*
X143691647Y-113022577D01*
X143675623Y-112991871D01*
X143665456Y-113073279D01*
X143663566Y-113168367D01*
X141283235Y-113168367D01*
X141298656Y-113135969D01*
X141480900Y-112748123D01*
X141599951Y-112488010D01*
X143275675Y-112488010D01*
X143279793Y-112641676D01*
X143291342Y-112697844D01*
X143302755Y-112667090D01*
X143314422Y-112489328D01*
X143303639Y-112343110D01*
X143288793Y-112298145D01*
X143278590Y-112368177D01*
X143275675Y-112488010D01*
X141599951Y-112488010D01*
X141653083Y-112371922D01*
X141803543Y-112033590D01*
X141920617Y-111759351D01*
X141992620Y-111575497D01*
X142130923Y-111181351D01*
X142411014Y-111429910D01*
G37*
D12*
%TO.C,R3*%
X119570000Y-117846359D02*
X119570000Y-118153641D01*
X120330000Y-117846359D02*
X120330000Y-118153641D01*
%TO.C,SW6*%
X149620000Y-116220000D02*
X156080000Y-116220000D01*
X149620000Y-116250000D02*
X149620000Y-116220000D01*
X149620000Y-118150000D02*
X149620000Y-120750000D01*
X149620000Y-122680000D02*
X149620000Y-122650000D01*
X149620000Y-122680000D02*
X156080000Y-122680000D01*
X156080000Y-116220000D02*
X156080000Y-116250000D01*
X156080000Y-118150000D02*
X156080000Y-120750000D01*
X156080000Y-122680000D02*
X156080000Y-122650000D01*
%TO.C,U2*%
X112640000Y-140640000D02*
X113900000Y-140640000D01*
X112640000Y-144400000D02*
X112640000Y-140640000D01*
X119460000Y-140640000D02*
X118200000Y-140640000D01*
X119460000Y-144400000D02*
X119460000Y-140640000D01*
X112740000Y-145680000D02*
X112410000Y-145920000D01*
X112410000Y-145440000D01*
X112740000Y-145680000D01*
G36*
X112740000Y-145680000D02*
G01*
X112410000Y-145920000D01*
X112410000Y-145440000D01*
X112740000Y-145680000D01*
G37*
%TO.C,TP4*%
X122800000Y-146300000D02*
G75*
G02*
X121400000Y-146300000I-700000J0D01*
G01*
X121400000Y-146300000D02*
G75*
G02*
X122800000Y-146300000I700000J0D01*
G01*
%TO.C,D2*%
X134066666Y-64875000D02*
X141366666Y-64875000D01*
X134066666Y-70375000D02*
X141366666Y-70375000D01*
X141366666Y-70375000D02*
X141366666Y-69225000D01*
%TO.C,D9*%
X112760000Y-149950000D02*
X109100000Y-149950000D01*
X112760000Y-151850000D02*
X109100000Y-151850000D01*
X112760000Y-151850000D02*
X112760000Y-149950000D01*
%TO.C,SW8*%
X102300000Y-138250000D02*
X104600000Y-138250000D01*
X104600000Y-138250000D02*
X104600000Y-139450000D01*
X104600000Y-141950000D02*
X104600000Y-141250000D01*
X104600000Y-144450000D02*
X104600000Y-143750000D01*
X104600000Y-146250000D02*
X104600000Y-147450000D01*
X104600000Y-147450000D02*
X102300000Y-147450000D01*
%TO.C,SW4*%
X109895000Y-129370000D02*
X116355000Y-129370000D01*
X109895000Y-129400000D02*
X109895000Y-129370000D01*
X109895000Y-131300000D02*
X109895000Y-133900000D01*
X109895000Y-135830000D02*
X109895000Y-135800000D01*
X109895000Y-135830000D02*
X116355000Y-135830000D01*
X116355000Y-129370000D02*
X116355000Y-129400000D01*
X116355000Y-131300000D02*
X116355000Y-133900000D01*
X116355000Y-135830000D02*
X116355000Y-135800000D01*
D13*
%TO.C,G\u002A\u002A\u002A*%
G36*
X107591697Y-108950044D02*
G01*
X107621551Y-108978312D01*
X107665040Y-109020302D01*
X107717793Y-109071822D01*
X107723507Y-109077433D01*
X107839763Y-109180289D01*
X107962585Y-109265298D01*
X108095677Y-109333726D01*
X108242747Y-109386841D01*
X108407500Y-109425907D01*
X108593644Y-109452192D01*
X108804884Y-109466962D01*
X108870278Y-109469241D01*
X108993282Y-109471231D01*
X109114016Y-109469869D01*
X109236120Y-109464730D01*
X109363237Y-109455390D01*
X109499010Y-109441424D01*
X109647080Y-109422407D01*
X109811089Y-109397915D01*
X109994680Y-109367524D01*
X110201495Y-109330807D01*
X110435176Y-109287341D01*
X110443034Y-109285854D01*
X110524893Y-109270705D01*
X110595060Y-109258390D01*
X110648104Y-109249810D01*
X110678593Y-109245864D01*
X110683753Y-109245962D01*
X110672003Y-109254092D01*
X110636434Y-109273639D01*
X110581514Y-109302263D01*
X110511712Y-109337629D01*
X110447839Y-109369362D01*
X110275356Y-109458299D01*
X110129588Y-109542414D01*
X110006678Y-109624287D01*
X109902770Y-109706495D01*
X109814006Y-109791620D01*
X109809916Y-109795978D01*
X109721263Y-109898984D01*
X109655650Y-109995753D01*
X109608333Y-110094790D01*
X109574566Y-110204598D01*
X109569372Y-110227010D01*
X109554085Y-110311329D01*
X109539598Y-110420118D01*
X109526558Y-110546392D01*
X109515612Y-110683167D01*
X109507405Y-110823458D01*
X109502945Y-110944953D01*
X109499381Y-111086501D01*
X109464920Y-111022102D01*
X109412927Y-110944414D01*
X109348309Y-110885573D01*
X109267439Y-110844020D01*
X109166687Y-110818198D01*
X109042425Y-110806548D01*
X108960712Y-110805640D01*
X108768049Y-110807875D01*
X108768049Y-110769325D01*
X108762625Y-110742737D01*
X108750841Y-110741410D01*
X108740075Y-110763344D01*
X108740639Y-110788699D01*
X108741512Y-110808405D01*
X108731208Y-110823183D01*
X108703813Y-110837027D01*
X108653418Y-110853930D01*
X108636356Y-110859156D01*
X108478877Y-110917958D01*
X108337713Y-110992702D01*
X108216459Y-111080739D01*
X108118710Y-111179419D01*
X108048061Y-111286091D01*
X108042823Y-111296682D01*
X108012013Y-111395782D01*
X108007949Y-111503233D01*
X108029479Y-111612865D01*
X108075447Y-111718504D01*
X108138235Y-111806754D01*
X108165806Y-111839966D01*
X108180265Y-111861063D01*
X108180540Y-111865015D01*
X108163566Y-111858411D01*
X108125040Y-111840637D01*
X108071464Y-111814747D01*
X108033431Y-111795903D01*
X107855723Y-111718341D01*
X107690006Y-111669560D01*
X107535555Y-111649571D01*
X107391643Y-111658384D01*
X107257546Y-111696011D01*
X107132536Y-111762463D01*
X107068381Y-111810480D01*
X107014290Y-111859517D01*
X106970449Y-111910385D01*
X106935748Y-111967029D01*
X106909082Y-112033394D01*
X106889341Y-112113425D01*
X106875420Y-112211068D01*
X106866211Y-112330267D01*
X106860606Y-112474967D01*
X106858828Y-112557027D01*
X106855527Y-112694154D01*
X106850457Y-112803893D01*
X106842793Y-112890300D01*
X106831708Y-112957429D01*
X106816378Y-113009333D01*
X106795975Y-113050068D01*
X106769675Y-113083687D01*
X106747155Y-113105297D01*
X106689518Y-113142959D01*
X106611998Y-113176409D01*
X106526165Y-113201815D01*
X106443588Y-113215346D01*
X106411191Y-113216550D01*
X106351809Y-113211613D01*
X106283493Y-113200240D01*
X106251641Y-113192877D01*
X106151667Y-113158564D01*
X106029769Y-113102280D01*
X105886336Y-113024223D01*
X105721759Y-112924592D01*
X105709040Y-112916551D01*
X105566166Y-112830078D01*
X105443497Y-112764825D01*
X105338961Y-112719810D01*
X105250483Y-112694048D01*
X105233861Y-112691010D01*
X105140458Y-112691234D01*
X105044974Y-112719602D01*
X104952162Y-112773553D01*
X104866777Y-112850528D01*
X104813540Y-112917361D01*
X104786120Y-112954314D01*
X104765489Y-112977416D01*
X104759316Y-112981359D01*
X104746956Y-112968679D01*
X104724667Y-112936073D01*
X104702477Y-112899448D01*
X104646576Y-112818268D01*
X104569697Y-112728540D01*
X104478457Y-112636814D01*
X104379472Y-112549640D01*
X104279361Y-112473567D01*
X104256772Y-112458263D01*
X104078943Y-112352001D01*
X103908633Y-112273877D01*
X103742168Y-112222631D01*
X103575873Y-112197005D01*
X103483591Y-112193375D01*
X103324009Y-112205681D01*
X103183306Y-112243049D01*
X103060820Y-112305893D01*
X102955890Y-112394627D01*
X102867854Y-112509666D01*
X102812891Y-112612633D01*
X102789897Y-112661474D01*
X102775582Y-112685221D01*
X102765946Y-112687565D01*
X102756988Y-112672196D01*
X102754561Y-112666443D01*
X102709230Y-112561310D01*
X102668654Y-112478776D01*
X102628214Y-112411416D01*
X102583294Y-112351802D01*
X102529278Y-112292507D01*
X102510044Y-112273109D01*
X102436034Y-112204738D01*
X102359662Y-112145982D01*
X102276485Y-112094823D01*
X102223971Y-112069473D01*
X105937090Y-112069473D01*
X105948378Y-112084751D01*
X105951889Y-112085201D01*
X105973189Y-112073768D01*
X105976408Y-112069473D01*
X106031455Y-112069473D01*
X106044193Y-112083426D01*
X106055046Y-112085201D01*
X106075976Y-112076708D01*
X106078638Y-112069473D01*
X106070651Y-112060725D01*
X106146659Y-112060725D01*
X106154709Y-112072418D01*
X106187114Y-112081056D01*
X106240327Y-112085085D01*
X106252569Y-112085201D01*
X106302139Y-112087005D01*
X106336159Y-112091691D01*
X106346371Y-112096996D01*
X106350939Y-112187207D01*
X106358528Y-112274905D01*
X106368198Y-112352049D01*
X106379012Y-112410598D01*
X106385647Y-112433427D01*
X106397641Y-112481717D01*
X106405298Y-112544515D01*
X106406835Y-112586220D01*
X106408420Y-112640286D01*
X106412996Y-112682623D01*
X106418091Y-112700697D01*
X106419551Y-112713043D01*
X106403632Y-112709605D01*
X106383395Y-112709364D01*
X106377469Y-112734135D01*
X106377461Y-112735767D01*
X106384618Y-112775876D01*
X106408370Y-112792058D01*
X106419653Y-112792941D01*
X106426527Y-112788113D01*
X106431366Y-112771322D01*
X106434274Y-112739107D01*
X106435353Y-112688007D01*
X106434709Y-112614559D01*
X106432445Y-112515302D01*
X106430267Y-112439071D01*
X106419660Y-112085201D01*
X106473267Y-112084960D01*
X106522967Y-112081171D01*
X106547851Y-112072235D01*
X106546785Y-112065713D01*
X106588741Y-112065713D01*
X106604200Y-112068232D01*
X106624599Y-112065340D01*
X106624768Y-112061609D01*
X106707740Y-112061609D01*
X106715603Y-112069473D01*
X106723467Y-112061609D01*
X106717517Y-112055660D01*
X106741318Y-112055660D01*
X106752524Y-112068251D01*
X106755363Y-112070078D01*
X106779347Y-112082754D01*
X106786377Y-112084719D01*
X106804787Y-112077382D01*
X106817392Y-112070078D01*
X106831607Y-112056741D01*
X106816791Y-112046351D01*
X106813460Y-112045045D01*
X106775418Y-112041366D01*
X106759295Y-112045045D01*
X106741318Y-112055660D01*
X106717517Y-112055660D01*
X106715603Y-112053746D01*
X106707740Y-112061609D01*
X106624768Y-112061609D01*
X106624842Y-112059971D01*
X106603793Y-112056217D01*
X106594698Y-112058729D01*
X106588741Y-112065713D01*
X106546785Y-112065713D01*
X106546010Y-112060969D01*
X106515540Y-112050192D01*
X106498806Y-112047212D01*
X106428248Y-112036631D01*
X106408167Y-111856458D01*
X106399153Y-111785540D01*
X106389696Y-111727762D01*
X106380955Y-111689301D01*
X106374416Y-111676284D01*
X106365923Y-111689978D01*
X106363517Y-111723352D01*
X106363709Y-111727399D01*
X106363666Y-111767482D01*
X106360866Y-111827217D01*
X106355888Y-111894981D01*
X106354701Y-111908266D01*
X106342732Y-112038018D01*
X106267018Y-112038018D01*
X106216732Y-112039923D01*
X106177137Y-112044738D01*
X106166516Y-112047530D01*
X106146659Y-112060725D01*
X106070651Y-112060725D01*
X106065899Y-112055520D01*
X106055046Y-112053746D01*
X106034116Y-112062238D01*
X106031455Y-112069473D01*
X105976408Y-112069473D01*
X105972843Y-112056009D01*
X105961609Y-112053746D01*
X105940090Y-112061957D01*
X105937090Y-112069473D01*
X102223971Y-112069473D01*
X102182058Y-112049240D01*
X102071935Y-112007214D01*
X101941673Y-111966726D01*
X101786827Y-111925757D01*
X101698514Y-111904394D01*
X101535531Y-111864912D01*
X101394848Y-111828781D01*
X101277968Y-111796451D01*
X101186391Y-111768377D01*
X101121620Y-111745010D01*
X101085157Y-111726804D01*
X101077275Y-111717161D01*
X101091984Y-111713764D01*
X101132277Y-111708315D01*
X101192403Y-111701502D01*
X101266608Y-111694013D01*
X101285665Y-111692212D01*
X101425143Y-111677652D01*
X101547205Y-111660848D01*
X101658956Y-111639950D01*
X101767504Y-111613112D01*
X101879955Y-111578485D01*
X102003416Y-111534222D01*
X102144993Y-111478476D01*
X102189912Y-111460073D01*
X103173986Y-111460073D01*
X103175701Y-111466499D01*
X103191168Y-111485082D01*
X103212199Y-111473908D01*
X103239125Y-111432629D01*
X103269078Y-111368497D01*
X103290251Y-111319348D01*
X103321331Y-111248173D01*
X103359379Y-111161657D01*
X103401454Y-111066486D01*
X103444615Y-110969346D01*
X103444973Y-110968544D01*
X103485970Y-110875584D01*
X103523651Y-110788378D01*
X103555666Y-110712503D01*
X103579666Y-110653533D01*
X103593304Y-110617043D01*
X103594060Y-110614674D01*
X103609843Y-110570392D01*
X103625078Y-110537948D01*
X103628487Y-110532860D01*
X103638230Y-110502356D01*
X103637034Y-110485678D01*
X103628145Y-110480630D01*
X103610330Y-110505158D01*
X103586955Y-110551764D01*
X103559784Y-110604551D01*
X103532604Y-110647806D01*
X103513815Y-110669721D01*
X103497539Y-110692160D01*
X103473689Y-110736701D01*
X103444917Y-110797031D01*
X103413879Y-110866834D01*
X103383225Y-110939798D01*
X103355611Y-111009607D01*
X103333690Y-111069949D01*
X103320114Y-111114508D01*
X103317502Y-111136880D01*
X103316230Y-111159296D01*
X103305631Y-111198741D01*
X103288693Y-111247811D01*
X103268404Y-111299107D01*
X103247754Y-111345225D01*
X103229731Y-111378766D01*
X103217324Y-111392328D01*
X103214882Y-111391019D01*
X103201740Y-111387515D01*
X103187041Y-111404601D01*
X103176039Y-111432160D01*
X103173986Y-111460073D01*
X102189912Y-111460073D01*
X102209659Y-111451983D01*
X102429912Y-111356985D01*
X102623735Y-111264227D01*
X102795738Y-111170834D01*
X102950528Y-111073934D01*
X103092714Y-110970656D01*
X103226904Y-110858126D01*
X103350160Y-110741054D01*
X103416689Y-110672373D01*
X103480795Y-110602566D01*
X103536425Y-110538471D01*
X103577526Y-110486925D01*
X103587350Y-110473126D01*
X103629851Y-110416698D01*
X103662287Y-110387351D01*
X103677530Y-110383382D01*
X103700010Y-110376015D01*
X103703777Y-110363065D01*
X103713889Y-110334074D01*
X103735841Y-110303711D01*
X103762836Y-110265928D01*
X103776864Y-110233594D01*
X103788438Y-110205914D01*
X103798318Y-110197894D01*
X103814454Y-110211177D01*
X103843059Y-110248656D01*
X103881792Y-110306777D01*
X103928313Y-110381984D01*
X103980283Y-110470722D01*
X103995045Y-110496718D01*
X104030772Y-110558933D01*
X104064635Y-110614634D01*
X104099360Y-110667162D01*
X104137672Y-110719859D01*
X104182297Y-110776066D01*
X104235962Y-110839125D01*
X104301392Y-110912376D01*
X104381313Y-110999162D01*
X104478451Y-111102824D01*
X104559583Y-111188730D01*
X104667096Y-111301487D01*
X104756872Y-111393424D01*
X104832000Y-111467294D01*
X104895568Y-111525852D01*
X104950663Y-111571851D01*
X105000375Y-111608046D01*
X105047792Y-111637189D01*
X105083620Y-111656033D01*
X105145719Y-111685513D01*
X105193289Y-111703118D01*
X105239118Y-111711744D01*
X105295996Y-111714286D01*
X105340152Y-111714102D01*
X105403762Y-111712275D01*
X105455806Y-111708701D01*
X105487886Y-111704035D01*
X105493007Y-111702169D01*
X105494024Y-111683673D01*
X105477219Y-111642636D01*
X105443684Y-111581649D01*
X105438857Y-111573563D01*
X105428327Y-111554838D01*
X106365856Y-111554838D01*
X106368750Y-111564821D01*
X106384307Y-111580963D01*
X106392159Y-111566621D01*
X106393189Y-111547318D01*
X106389335Y-111524501D01*
X106376051Y-111529858D01*
X106375686Y-111530220D01*
X106365856Y-111554838D01*
X105428327Y-111554838D01*
X105412830Y-111527281D01*
X105379490Y-111463575D01*
X105353536Y-111411973D01*
X106337519Y-111411973D01*
X106338397Y-111431885D01*
X106350147Y-111469363D01*
X106353376Y-111479690D01*
X106369658Y-111501402D01*
X106389758Y-111494857D01*
X106399370Y-111478404D01*
X106408616Y-111435511D01*
X106405568Y-111396868D01*
X106393401Y-111368901D01*
X106375293Y-111358034D01*
X106354421Y-111370693D01*
X106349545Y-111377639D01*
X106337519Y-111411973D01*
X105353536Y-111411973D01*
X105341121Y-111387288D01*
X105300002Y-111303261D01*
X105258416Y-111216335D01*
X105218643Y-111131352D01*
X105182965Y-111053153D01*
X105153662Y-110986581D01*
X105133016Y-110936477D01*
X105123309Y-110907682D01*
X105123004Y-110903201D01*
X105136896Y-110905682D01*
X105169757Y-110922763D01*
X105214870Y-110950887D01*
X105221486Y-110955305D01*
X105348272Y-111033252D01*
X105459047Y-111085449D01*
X105555081Y-111112428D01*
X105606811Y-111116731D01*
X105711426Y-111103343D01*
X105808001Y-111063485D01*
X105897631Y-110996157D01*
X105981416Y-110900355D01*
X106060453Y-110775078D01*
X106125335Y-110643293D01*
X106146425Y-110595117D01*
X106162467Y-110559920D01*
X106174598Y-110540029D01*
X106183956Y-110537770D01*
X106191680Y-110555472D01*
X106198907Y-110595461D01*
X106206775Y-110660064D01*
X106216421Y-110751610D01*
X106226684Y-110850588D01*
X106237338Y-110946364D01*
X106247243Y-111017968D01*
X106258015Y-111072594D01*
X106271271Y-111117434D01*
X106288625Y-111159684D01*
X106302652Y-111188730D01*
X106347600Y-111264237D01*
X106394025Y-111316339D01*
X106407310Y-111326346D01*
X106455159Y-111353874D01*
X106489114Y-111359574D01*
X106515058Y-111340873D01*
X106538875Y-111295197D01*
X106551095Y-111263436D01*
X106586681Y-111172456D01*
X106635367Y-111057755D01*
X106695336Y-110923304D01*
X106764770Y-110773073D01*
X106841850Y-110611035D01*
X106852575Y-110589060D01*
X108470600Y-110589060D01*
X108474507Y-110628684D01*
X108476424Y-110634338D01*
X108486261Y-110651176D01*
X108501102Y-110644202D01*
X108511162Y-110634525D01*
X108528713Y-110597455D01*
X108525731Y-110567706D01*
X108512180Y-110539414D01*
X108496169Y-110532219D01*
X108478721Y-110552249D01*
X108470600Y-110589060D01*
X106852575Y-110589060D01*
X106905321Y-110480990D01*
X108484953Y-110480990D01*
X108490708Y-110493936D01*
X108495438Y-110491475D01*
X108497321Y-110472810D01*
X108495438Y-110470505D01*
X108486088Y-110472664D01*
X108484953Y-110480990D01*
X106905321Y-110480990D01*
X106924761Y-110441161D01*
X106959653Y-110370897D01*
X107062736Y-110163020D01*
X107152319Y-109979258D01*
X107229953Y-109816109D01*
X107297188Y-109670067D01*
X107355576Y-109537630D01*
X107376473Y-109487594D01*
X108447341Y-109487594D01*
X108447398Y-109531777D01*
X108448476Y-109597387D01*
X108450412Y-109679426D01*
X108453040Y-109772892D01*
X108456196Y-109872787D01*
X108459715Y-109974111D01*
X108463433Y-110071865D01*
X108467185Y-110161050D01*
X108470807Y-110236665D01*
X108474133Y-110293711D01*
X108476588Y-110323715D01*
X108482400Y-110365139D01*
X108487526Y-110375775D01*
X108492156Y-110355404D01*
X108496481Y-110303807D01*
X108496677Y-110300667D01*
X108499489Y-110274155D01*
X108726395Y-110274155D01*
X108726852Y-110332723D01*
X108729323Y-110397045D01*
X108733424Y-110459498D01*
X108738773Y-110512458D01*
X108744988Y-110548300D01*
X108750872Y-110559628D01*
X108756450Y-110545187D01*
X108761595Y-110507000D01*
X108765330Y-110452772D01*
X108765766Y-110442211D01*
X108766713Y-110363902D01*
X108763897Y-110295641D01*
X108757963Y-110242123D01*
X108749557Y-110208040D01*
X108739328Y-110198085D01*
X108733053Y-110204781D01*
X108728334Y-110228967D01*
X108726395Y-110274155D01*
X108499489Y-110274155D01*
X108502380Y-110246907D01*
X108511165Y-110204783D01*
X108518681Y-110187292D01*
X108523196Y-110165186D01*
X108524301Y-110119054D01*
X108522914Y-110070381D01*
X108720867Y-110070381D01*
X108723269Y-110114446D01*
X108729451Y-110140470D01*
X108735102Y-110143770D01*
X108743416Y-110123863D01*
X108746486Y-110085227D01*
X108746133Y-110072613D01*
X108740710Y-110022030D01*
X108732960Y-110001423D01*
X108725559Y-110011030D01*
X108721188Y-110051086D01*
X108720867Y-110070381D01*
X108522914Y-110070381D01*
X108522506Y-110056081D01*
X108518319Y-109983450D01*
X108512252Y-109908347D01*
X108504812Y-109837954D01*
X108496509Y-109779456D01*
X108487851Y-109740038D01*
X108486744Y-109736737D01*
X108481801Y-109703821D01*
X108480957Y-109651447D01*
X108484068Y-109595342D01*
X108487536Y-109526963D01*
X108482861Y-109486132D01*
X108474997Y-109472690D01*
X108454570Y-109465668D01*
X108448471Y-109469837D01*
X108447341Y-109487594D01*
X107376473Y-109487594D01*
X107406669Y-109415292D01*
X107452017Y-109299551D01*
X107493171Y-109186901D01*
X107525324Y-109093034D01*
X107546827Y-109029415D01*
X107564569Y-108978685D01*
X107576329Y-108947087D01*
X107579849Y-108939690D01*
X107591697Y-108950044D01*
G37*
D12*
%TO.C,SW3*%
X118220000Y-121120000D02*
X124680000Y-121120000D01*
X118220000Y-121150000D02*
X118220000Y-121120000D01*
X118220000Y-123050000D02*
X118220000Y-125650000D01*
X118220000Y-127580000D02*
X118220000Y-127550000D01*
X118220000Y-127580000D02*
X124680000Y-127580000D01*
X124680000Y-121120000D02*
X124680000Y-121150000D01*
X124680000Y-123050000D02*
X124680000Y-125650000D01*
X124680000Y-127580000D02*
X124680000Y-127550000D01*
%TO.C,R6*%
X102346359Y-128270000D02*
X102653641Y-128270000D01*
X102346359Y-129030000D02*
X102653641Y-129030000D01*
%TO.C,TP1*%
X130500000Y-143300000D02*
G75*
G02*
X129100000Y-143300000I-700000J0D01*
G01*
X129100000Y-143300000D02*
G75*
G02*
X130500000Y-143300000I700000J0D01*
G01*
%TO.C,C1*%
X153940000Y-153992164D02*
X153940000Y-154207836D01*
X154660000Y-153992164D02*
X154660000Y-154207836D01*
%TO.C,U1*%
X134340000Y-142140000D02*
X134340000Y-141840000D01*
X134340000Y-162060000D02*
X134340000Y-155560000D01*
X152560000Y-141840000D02*
X134340000Y-141840000D01*
X152560000Y-142140000D02*
X152560000Y-141840000D01*
X152560000Y-162060000D02*
X134340000Y-162060000D01*
X152560000Y-162060000D02*
X152560000Y-156250000D01*
X152550000Y-156050000D02*
X152550000Y-155550000D01*
X153050000Y-155550000D01*
X152550000Y-156050000D01*
G36*
X152550000Y-156050000D02*
G01*
X152550000Y-155550000D01*
X153050000Y-155550000D01*
X152550000Y-156050000D01*
G37*
%TO.C,C8*%
X155765000Y-153038748D02*
X155765000Y-153561252D01*
X157235000Y-153038748D02*
X157235000Y-153561252D01*
%TO.C,J1*%
X124770000Y-75145000D02*
X126100000Y-75145000D01*
X124770000Y-76475000D02*
X124770000Y-75145000D01*
X127370000Y-75145000D02*
X135050000Y-75145000D01*
X127370000Y-77805000D02*
X127370000Y-75145000D01*
X127370000Y-77805000D02*
X135050000Y-77805000D01*
X135050000Y-77805000D02*
X135050000Y-75145000D01*
%TO.C,SW5*%
X102520000Y-121070000D02*
X108980000Y-121070000D01*
X102520000Y-121100000D02*
X102520000Y-121070000D01*
X102520000Y-123000000D02*
X102520000Y-125600000D01*
X102520000Y-127530000D02*
X102520000Y-127500000D01*
X102520000Y-127530000D02*
X108980000Y-127530000D01*
X108980000Y-121070000D02*
X108980000Y-121100000D01*
X108980000Y-123000000D02*
X108980000Y-125600000D01*
X108980000Y-127530000D02*
X108980000Y-127500000D01*
%TO.C,C5*%
X118542164Y-63540000D02*
X118757836Y-63540000D01*
X118542164Y-64260000D02*
X118757836Y-64260000D01*
%TO.C,R10*%
X131596359Y-147170000D02*
X131903641Y-147170000D01*
X131596359Y-147930000D02*
X131903641Y-147930000D01*
%TO.C,SW2*%
X110495000Y-112770000D02*
X116955000Y-112770000D01*
X110495000Y-112800000D02*
X110495000Y-112770000D01*
X110495000Y-114700000D02*
X110495000Y-117300000D01*
X110495000Y-119230000D02*
X110495000Y-119200000D01*
X110495000Y-119230000D02*
X116955000Y-119230000D01*
X116955000Y-112770000D02*
X116955000Y-112800000D01*
X116955000Y-114700000D02*
X116955000Y-117300000D01*
X116955000Y-119230000D02*
X116955000Y-119200000D01*
%TO.C,R8*%
X144553641Y-131370000D02*
X144246359Y-131370000D01*
X144553641Y-132130000D02*
X144246359Y-132130000D01*
%TO.C,C7*%
X114338748Y-147965000D02*
X114861252Y-147965000D01*
X114338748Y-149435000D02*
X114861252Y-149435000D01*
%TD*%
M02*
