%TF.GenerationSoftware,KiCad,Pcbnew,8.0.4-8.0.4-0~ubuntu22.04.1*%
%TF.CreationDate,2024-08-28T20:52:20+02:00*%
%TF.ProjectId,defcon32_badge,64656663-6f6e-4333-925f-62616467652e,rev?*%
%TF.SameCoordinates,Original*%
%TF.FileFunction,Legend,Bot*%
%TF.FilePolarity,Positive*%
%FSLAX46Y46*%
G04 Gerber Fmt 4.6, Leading zero omitted, Abs format (unit mm)*
G04 Created by KiCad (PCBNEW 8.0.4-8.0.4-0~ubuntu22.04.1) date 2024-08-28 20:52:20*
%MOMM*%
%LPD*%
G01*
G04 APERTURE LIST*
%ADD10C,0.150000*%
%ADD11C,0.300000*%
%ADD12C,0.000000*%
%ADD13C,0.120000*%
G04 APERTURE END LIST*
D10*
X154216666Y-95697295D02*
X154216666Y-96268723D01*
X154216666Y-96268723D02*
X154254761Y-96383009D01*
X154254761Y-96383009D02*
X154330952Y-96459200D01*
X154330952Y-96459200D02*
X154445237Y-96497295D01*
X154445237Y-96497295D02*
X154521428Y-96497295D01*
X153911904Y-95697295D02*
X153416666Y-95697295D01*
X153416666Y-95697295D02*
X153683332Y-96002057D01*
X153683332Y-96002057D02*
X153569047Y-96002057D01*
X153569047Y-96002057D02*
X153492856Y-96040152D01*
X153492856Y-96040152D02*
X153454761Y-96078247D01*
X153454761Y-96078247D02*
X153416666Y-96154438D01*
X153416666Y-96154438D02*
X153416666Y-96344914D01*
X153416666Y-96344914D02*
X153454761Y-96421104D01*
X153454761Y-96421104D02*
X153492856Y-96459200D01*
X153492856Y-96459200D02*
X153569047Y-96497295D01*
X153569047Y-96497295D02*
X153797618Y-96497295D01*
X153797618Y-96497295D02*
X153873809Y-96459200D01*
X153873809Y-96459200D02*
X153911904Y-96421104D01*
X150604819Y-82924405D02*
X149604819Y-82924405D01*
X149604819Y-82924405D02*
X149604819Y-83162500D01*
X149604819Y-83162500D02*
X149652438Y-83305357D01*
X149652438Y-83305357D02*
X149747676Y-83400595D01*
X149747676Y-83400595D02*
X149842914Y-83448214D01*
X149842914Y-83448214D02*
X150033390Y-83495833D01*
X150033390Y-83495833D02*
X150176247Y-83495833D01*
X150176247Y-83495833D02*
X150366723Y-83448214D01*
X150366723Y-83448214D02*
X150461961Y-83400595D01*
X150461961Y-83400595D02*
X150557200Y-83305357D01*
X150557200Y-83305357D02*
X150604819Y-83162500D01*
X150604819Y-83162500D02*
X150604819Y-82924405D01*
X149604819Y-84400595D02*
X149604819Y-83924405D01*
X149604819Y-83924405D02*
X150081009Y-83876786D01*
X150081009Y-83876786D02*
X150033390Y-83924405D01*
X150033390Y-83924405D02*
X149985771Y-84019643D01*
X149985771Y-84019643D02*
X149985771Y-84257738D01*
X149985771Y-84257738D02*
X150033390Y-84352976D01*
X150033390Y-84352976D02*
X150081009Y-84400595D01*
X150081009Y-84400595D02*
X150176247Y-84448214D01*
X150176247Y-84448214D02*
X150414342Y-84448214D01*
X150414342Y-84448214D02*
X150509580Y-84400595D01*
X150509580Y-84400595D02*
X150557200Y-84352976D01*
X150557200Y-84352976D02*
X150604819Y-84257738D01*
X150604819Y-84257738D02*
X150604819Y-84019643D01*
X150604819Y-84019643D02*
X150557200Y-83924405D01*
X150557200Y-83924405D02*
X150509580Y-83876786D01*
D11*
X131321427Y-88249757D02*
X131464285Y-88178328D01*
X131464285Y-88178328D02*
X131678570Y-88178328D01*
X131678570Y-88178328D02*
X131892856Y-88249757D01*
X131892856Y-88249757D02*
X132035713Y-88392614D01*
X132035713Y-88392614D02*
X132107142Y-88535471D01*
X132107142Y-88535471D02*
X132178570Y-88821185D01*
X132178570Y-88821185D02*
X132178570Y-89035471D01*
X132178570Y-89035471D02*
X132107142Y-89321185D01*
X132107142Y-89321185D02*
X132035713Y-89464042D01*
X132035713Y-89464042D02*
X131892856Y-89606900D01*
X131892856Y-89606900D02*
X131678570Y-89678328D01*
X131678570Y-89678328D02*
X131535713Y-89678328D01*
X131535713Y-89678328D02*
X131321427Y-89606900D01*
X131321427Y-89606900D02*
X131249999Y-89535471D01*
X131249999Y-89535471D02*
X131249999Y-89035471D01*
X131249999Y-89035471D02*
X131535713Y-89035471D01*
X130392856Y-88178328D02*
X130392856Y-88535471D01*
X130749999Y-88392614D02*
X130392856Y-88535471D01*
X130392856Y-88535471D02*
X130035713Y-88392614D01*
X130607142Y-88821185D02*
X130392856Y-88535471D01*
X130392856Y-88535471D02*
X130178570Y-88821185D01*
X129249999Y-88178328D02*
X129249999Y-88535471D01*
X129607142Y-88392614D02*
X129249999Y-88535471D01*
X129249999Y-88535471D02*
X128892856Y-88392614D01*
X129464285Y-88821185D02*
X129249999Y-88535471D01*
X129249999Y-88535471D02*
X129035713Y-88821185D01*
X128107142Y-88178328D02*
X128107142Y-88535471D01*
X128464285Y-88392614D02*
X128107142Y-88535471D01*
X128107142Y-88535471D02*
X127749999Y-88392614D01*
X128321428Y-88821185D02*
X128107142Y-88535471D01*
X128107142Y-88535471D02*
X127892856Y-88821185D01*
D12*
%TO.C,G\u002A\u002A\u002A*%
G36*
X154982828Y-89041710D02*
G01*
X154982801Y-89639087D01*
X154982408Y-92792939D01*
X154981206Y-95561257D01*
X154978627Y-97970282D01*
X154974106Y-100046251D01*
X154967075Y-101815404D01*
X154956968Y-103303979D01*
X154943220Y-104538216D01*
X154925263Y-105544354D01*
X154902531Y-106348631D01*
X154874458Y-106977287D01*
X154840477Y-107456560D01*
X154800022Y-107812689D01*
X154752527Y-108071913D01*
X154697424Y-108260472D01*
X154634149Y-108404603D01*
X154562134Y-108530547D01*
X154497105Y-108628397D01*
X153952624Y-109186253D01*
X153261682Y-109626046D01*
X153188345Y-109659161D01*
X153016497Y-109727000D01*
X152813071Y-109785890D01*
X152550580Y-109836342D01*
X152201537Y-109878869D01*
X151738456Y-109913981D01*
X151133851Y-109942190D01*
X150360235Y-109964009D01*
X149390121Y-109979947D01*
X148196022Y-109990517D01*
X146750454Y-109996231D01*
X145025928Y-109997600D01*
X142994959Y-109995135D01*
X140630060Y-109989348D01*
X137903744Y-109980751D01*
X134788525Y-109969855D01*
X117195902Y-109906909D01*
X115527696Y-109388353D01*
X113953636Y-108820827D01*
X112269886Y-107971974D01*
X110715636Y-106875055D01*
X109168154Y-105454143D01*
X108167734Y-104354942D01*
X106878145Y-102545516D01*
X105917715Y-100582325D01*
X105232837Y-98368852D01*
X105156731Y-98037025D01*
X105081285Y-97657406D01*
X105017691Y-97245988D01*
X104964952Y-96767808D01*
X104922070Y-96187902D01*
X104888049Y-95471308D01*
X104861891Y-94583063D01*
X104842598Y-93488203D01*
X104829175Y-92151766D01*
X104820623Y-90538788D01*
X104815946Y-88614308D01*
X104814147Y-86343360D01*
X104814228Y-83690983D01*
X104815259Y-81207512D01*
X104817823Y-78921343D01*
X104822827Y-76988405D01*
X104831228Y-75376042D01*
X104838367Y-74634426D01*
X113341203Y-74634426D01*
X113394782Y-88011065D01*
X113448361Y-101387705D01*
X129947951Y-101441007D01*
X146447541Y-101494310D01*
X146447541Y-88064368D01*
X146447541Y-74634426D01*
X129894372Y-74634426D01*
X113341203Y-74634426D01*
X104838367Y-74634426D01*
X104843978Y-74051596D01*
X104862033Y-72982411D01*
X104886344Y-72135831D01*
X104917868Y-71479197D01*
X104957558Y-70979854D01*
X105006368Y-70605145D01*
X105065252Y-70322413D01*
X105135164Y-70099000D01*
X105217058Y-69902252D01*
X105260151Y-69812085D01*
X105733111Y-69111798D01*
X106305518Y-68601800D01*
X106415144Y-68538626D01*
X106544829Y-68480074D01*
X106713909Y-68428306D01*
X106945948Y-68382904D01*
X107264506Y-68343451D01*
X107693148Y-68309529D01*
X108255434Y-68280720D01*
X108974929Y-68256607D01*
X109875192Y-68236772D01*
X110979789Y-68220798D01*
X112312279Y-68208268D01*
X113896227Y-68198762D01*
X115755194Y-68191865D01*
X117912742Y-68187158D01*
X120392435Y-68184225D01*
X123217834Y-68182646D01*
X126412501Y-68182005D01*
X130000000Y-68181884D01*
X132750649Y-68181966D01*
X136040391Y-68182536D01*
X138955071Y-68184002D01*
X141518225Y-68186769D01*
X143753389Y-68191239D01*
X145684098Y-68197818D01*
X147333888Y-68206909D01*
X148726297Y-68218916D01*
X149884859Y-68234244D01*
X150833110Y-68253297D01*
X151594587Y-68276479D01*
X152192826Y-68304193D01*
X152651363Y-68336843D01*
X152993733Y-68374835D01*
X153243473Y-68418572D01*
X153424118Y-68468458D01*
X153559205Y-68524896D01*
X153672269Y-68588292D01*
X153842706Y-68687952D01*
X154042935Y-68804264D01*
X154218326Y-68927847D01*
X154370519Y-69084270D01*
X154501151Y-69299105D01*
X154611860Y-69597921D01*
X154704286Y-70006288D01*
X154780067Y-70549775D01*
X154840841Y-71253954D01*
X154888246Y-72144394D01*
X154923921Y-73246664D01*
X154949504Y-74586336D01*
X154966634Y-76188979D01*
X154976949Y-78080163D01*
X154982088Y-80285458D01*
X154983687Y-82830434D01*
X154983389Y-85740661D01*
X154982994Y-88064368D01*
X154982828Y-89041710D01*
G37*
G36*
X108644424Y-144537630D02*
G01*
X108702812Y-144670067D01*
X108770047Y-144816109D01*
X108847681Y-144979258D01*
X108937264Y-145163020D01*
X109040347Y-145370897D01*
X109075239Y-145441161D01*
X109094679Y-145480990D01*
X109147425Y-145589060D01*
X109158150Y-145611035D01*
X109235230Y-145773073D01*
X109304664Y-145923304D01*
X109364633Y-146057755D01*
X109413319Y-146172456D01*
X109448905Y-146263436D01*
X109461125Y-146295197D01*
X109484942Y-146340873D01*
X109510886Y-146359574D01*
X109544841Y-146353874D01*
X109592690Y-146326346D01*
X109605975Y-146316339D01*
X109652400Y-146264237D01*
X109697348Y-146188730D01*
X109711375Y-146159684D01*
X109728729Y-146117434D01*
X109741985Y-146072594D01*
X109752757Y-146017968D01*
X109762662Y-145946364D01*
X109773316Y-145850588D01*
X109783579Y-145751610D01*
X109793225Y-145660064D01*
X109801093Y-145595461D01*
X109808320Y-145555472D01*
X109816044Y-145537770D01*
X109825402Y-145540029D01*
X109837533Y-145559920D01*
X109853575Y-145595117D01*
X109874665Y-145643293D01*
X109939547Y-145775078D01*
X110018584Y-145900355D01*
X110102369Y-145996157D01*
X110191999Y-146063485D01*
X110288574Y-146103343D01*
X110393189Y-146116731D01*
X110444919Y-146112428D01*
X110540953Y-146085449D01*
X110651728Y-146033252D01*
X110778514Y-145955305D01*
X110785130Y-145950887D01*
X110830243Y-145922763D01*
X110863104Y-145905682D01*
X110876996Y-145903201D01*
X110876691Y-145907682D01*
X110866984Y-145936477D01*
X110846338Y-145986581D01*
X110817035Y-146053153D01*
X110781357Y-146131352D01*
X110741584Y-146216335D01*
X110699998Y-146303261D01*
X110658879Y-146387288D01*
X110646464Y-146411973D01*
X110620510Y-146463575D01*
X110587170Y-146527281D01*
X110571673Y-146554838D01*
X110561143Y-146573563D01*
X110556316Y-146581649D01*
X110522781Y-146642636D01*
X110505976Y-146683673D01*
X110506993Y-146702169D01*
X110512114Y-146704035D01*
X110544194Y-146708701D01*
X110596238Y-146712275D01*
X110659848Y-146714102D01*
X110704004Y-146714286D01*
X110760882Y-146711744D01*
X110806711Y-146703118D01*
X110854281Y-146685513D01*
X110916380Y-146656033D01*
X110952208Y-146637189D01*
X110999625Y-146608046D01*
X111049337Y-146571851D01*
X111104432Y-146525852D01*
X111168000Y-146467294D01*
X111243128Y-146393424D01*
X111332904Y-146301487D01*
X111440417Y-146188730D01*
X111521549Y-146102824D01*
X111618687Y-145999162D01*
X111698608Y-145912376D01*
X111764038Y-145839125D01*
X111817703Y-145776066D01*
X111862328Y-145719859D01*
X111900640Y-145667162D01*
X111935365Y-145614634D01*
X111969228Y-145558933D01*
X112001717Y-145502356D01*
X112361770Y-145502356D01*
X112371513Y-145532860D01*
X112374922Y-145537948D01*
X112390157Y-145570392D01*
X112405940Y-145614674D01*
X112406696Y-145617043D01*
X112420334Y-145653533D01*
X112444334Y-145712503D01*
X112476349Y-145788378D01*
X112514030Y-145875584D01*
X112555027Y-145968544D01*
X112555385Y-145969346D01*
X112598546Y-146066486D01*
X112640621Y-146161657D01*
X112678669Y-146248173D01*
X112709749Y-146319348D01*
X112730922Y-146368497D01*
X112760875Y-146432629D01*
X112787801Y-146473908D01*
X112808832Y-146485082D01*
X112824299Y-146466499D01*
X112826014Y-146460073D01*
X112823961Y-146432160D01*
X112812959Y-146404601D01*
X112798260Y-146387515D01*
X112785118Y-146391019D01*
X112782676Y-146392328D01*
X112770269Y-146378766D01*
X112752246Y-146345225D01*
X112731596Y-146299107D01*
X112711307Y-146247811D01*
X112694369Y-146198741D01*
X112683770Y-146159296D01*
X112682498Y-146136880D01*
X112679886Y-146114508D01*
X112666310Y-146069949D01*
X112644389Y-146009607D01*
X112616775Y-145939798D01*
X112586121Y-145866834D01*
X112555083Y-145797031D01*
X112526311Y-145736701D01*
X112502461Y-145692160D01*
X112486185Y-145669721D01*
X112467396Y-145647806D01*
X112440216Y-145604551D01*
X112413045Y-145551764D01*
X112389670Y-145505158D01*
X112371855Y-145480630D01*
X112362966Y-145485678D01*
X112361770Y-145502356D01*
X112001717Y-145502356D01*
X112004955Y-145496718D01*
X112019717Y-145470722D01*
X112071687Y-145381984D01*
X112118208Y-145306777D01*
X112156941Y-145248656D01*
X112185546Y-145211177D01*
X112201682Y-145197894D01*
X112211562Y-145205914D01*
X112223136Y-145233594D01*
X112237164Y-145265928D01*
X112264159Y-145303711D01*
X112286111Y-145334074D01*
X112296223Y-145363065D01*
X112299990Y-145376015D01*
X112322470Y-145383382D01*
X112337713Y-145387351D01*
X112370149Y-145416698D01*
X112412650Y-145473126D01*
X112422474Y-145486925D01*
X112463575Y-145538471D01*
X112519205Y-145602566D01*
X112583311Y-145672373D01*
X112649840Y-145741054D01*
X112773096Y-145858126D01*
X112907286Y-145970656D01*
X113049472Y-146073934D01*
X113204262Y-146170834D01*
X113376265Y-146264227D01*
X113570088Y-146356985D01*
X113790341Y-146451983D01*
X113810088Y-146460073D01*
X113855007Y-146478476D01*
X113996584Y-146534222D01*
X114120045Y-146578485D01*
X114232496Y-146613112D01*
X114341044Y-146639950D01*
X114452795Y-146660848D01*
X114574857Y-146677652D01*
X114714335Y-146692212D01*
X114733392Y-146694013D01*
X114807597Y-146701502D01*
X114867723Y-146708315D01*
X114908016Y-146713764D01*
X114922725Y-146717161D01*
X114914843Y-146726804D01*
X114878380Y-146745010D01*
X114813609Y-146768377D01*
X114722032Y-146796451D01*
X114605152Y-146828781D01*
X114464469Y-146864912D01*
X114301486Y-146904394D01*
X114213173Y-146925757D01*
X114058327Y-146966726D01*
X113928065Y-147007214D01*
X113817942Y-147049240D01*
X113776029Y-147069473D01*
X113723515Y-147094823D01*
X113640338Y-147145982D01*
X113563966Y-147204738D01*
X113489956Y-147273109D01*
X113470722Y-147292507D01*
X113416706Y-147351802D01*
X113371786Y-147411416D01*
X113331346Y-147478776D01*
X113290770Y-147561310D01*
X113245439Y-147666443D01*
X113243012Y-147672196D01*
X113234054Y-147687565D01*
X113224418Y-147685221D01*
X113210103Y-147661474D01*
X113187109Y-147612633D01*
X113132146Y-147509666D01*
X113044110Y-147394627D01*
X112939180Y-147305893D01*
X112816694Y-147243049D01*
X112675991Y-147205681D01*
X112516409Y-147193375D01*
X112424127Y-147197005D01*
X112257832Y-147222631D01*
X112091367Y-147273877D01*
X111921057Y-147352001D01*
X111743228Y-147458263D01*
X111720639Y-147473567D01*
X111620528Y-147549640D01*
X111521543Y-147636814D01*
X111430303Y-147728540D01*
X111353424Y-147818268D01*
X111297523Y-147899448D01*
X111275333Y-147936073D01*
X111253044Y-147968679D01*
X111240684Y-147981359D01*
X111234511Y-147977416D01*
X111213880Y-147954314D01*
X111186460Y-147917361D01*
X111133223Y-147850528D01*
X111047838Y-147773553D01*
X110955026Y-147719602D01*
X110859542Y-147691234D01*
X110766139Y-147691010D01*
X110749517Y-147694048D01*
X110661039Y-147719810D01*
X110556503Y-147764825D01*
X110433834Y-147830078D01*
X110290960Y-147916551D01*
X110278241Y-147924592D01*
X110113664Y-148024223D01*
X109970231Y-148102280D01*
X109848333Y-148158564D01*
X109748359Y-148192877D01*
X109716507Y-148200240D01*
X109648191Y-148211613D01*
X109588809Y-148216550D01*
X109556412Y-148215346D01*
X109473835Y-148201815D01*
X109388002Y-148176409D01*
X109310482Y-148142959D01*
X109252845Y-148105297D01*
X109230325Y-148083687D01*
X109204025Y-148050068D01*
X109183622Y-148009333D01*
X109168292Y-147957429D01*
X109157207Y-147890300D01*
X109149543Y-147803893D01*
X109144473Y-147694154D01*
X109141172Y-147557027D01*
X109139394Y-147474967D01*
X109133789Y-147330267D01*
X109124580Y-147211068D01*
X109110659Y-147113425D01*
X109096677Y-147056741D01*
X109168393Y-147056741D01*
X109182608Y-147070078D01*
X109195213Y-147077382D01*
X109213623Y-147084719D01*
X109220653Y-147082754D01*
X109240556Y-147072235D01*
X109452149Y-147072235D01*
X109477033Y-147081171D01*
X109526733Y-147084960D01*
X109580340Y-147085201D01*
X109569733Y-147439071D01*
X109567555Y-147515302D01*
X109565291Y-147614559D01*
X109564647Y-147688007D01*
X109565726Y-147739107D01*
X109568634Y-147771322D01*
X109573473Y-147788113D01*
X109580347Y-147792941D01*
X109591630Y-147792058D01*
X109615382Y-147775876D01*
X109622539Y-147735767D01*
X109622531Y-147734135D01*
X109616605Y-147709364D01*
X109596368Y-147709605D01*
X109580449Y-147713043D01*
X109581909Y-147700697D01*
X109587004Y-147682623D01*
X109591580Y-147640286D01*
X109593165Y-147586220D01*
X109594702Y-147544515D01*
X109602359Y-147481717D01*
X109614353Y-147433427D01*
X109620988Y-147410598D01*
X109631802Y-147352049D01*
X109641472Y-147274905D01*
X109649061Y-147187207D01*
X109653629Y-147096996D01*
X109663841Y-147091691D01*
X109697861Y-147087005D01*
X109747431Y-147085201D01*
X109759673Y-147085085D01*
X109812886Y-147081056D01*
X109845291Y-147072418D01*
X109847318Y-147069473D01*
X109921362Y-147069473D01*
X109924024Y-147076708D01*
X109944954Y-147085201D01*
X109955807Y-147083426D01*
X109968545Y-147069473D01*
X110023592Y-147069473D01*
X110026811Y-147073768D01*
X110048111Y-147085201D01*
X110051622Y-147084751D01*
X110062910Y-147069473D01*
X110059910Y-147061957D01*
X110038391Y-147053746D01*
X110027157Y-147056009D01*
X110023592Y-147069473D01*
X109968545Y-147069473D01*
X109965884Y-147062238D01*
X109944954Y-147053746D01*
X109934101Y-147055520D01*
X109929349Y-147060725D01*
X109921362Y-147069473D01*
X109847318Y-147069473D01*
X109853341Y-147060725D01*
X109833484Y-147047530D01*
X109822863Y-147044738D01*
X109783268Y-147039923D01*
X109732982Y-147038018D01*
X109657268Y-147038018D01*
X109645299Y-146908266D01*
X109644112Y-146894981D01*
X109639134Y-146827217D01*
X109636334Y-146767482D01*
X109636291Y-146727399D01*
X109636483Y-146723352D01*
X109634077Y-146689978D01*
X109625584Y-146676284D01*
X109619045Y-146689301D01*
X109610304Y-146727762D01*
X109600847Y-146785540D01*
X109591833Y-146856458D01*
X109571752Y-147036631D01*
X109501194Y-147047212D01*
X109484460Y-147050192D01*
X109453990Y-147060969D01*
X109453215Y-147065713D01*
X109452149Y-147072235D01*
X109240556Y-147072235D01*
X109244637Y-147070078D01*
X109247476Y-147068251D01*
X109253387Y-147061609D01*
X109276533Y-147061609D01*
X109284397Y-147069473D01*
X109292260Y-147061609D01*
X109290622Y-147059971D01*
X109375158Y-147059971D01*
X109375232Y-147061609D01*
X109375401Y-147065340D01*
X109395800Y-147068232D01*
X109411259Y-147065713D01*
X109405302Y-147058729D01*
X109396207Y-147056217D01*
X109375158Y-147059971D01*
X109290622Y-147059971D01*
X109284397Y-147053746D01*
X109282483Y-147055660D01*
X109276533Y-147061609D01*
X109253387Y-147061609D01*
X109258682Y-147055660D01*
X109240705Y-147045045D01*
X109224582Y-147041366D01*
X109186540Y-147045045D01*
X109183209Y-147046351D01*
X109168393Y-147056741D01*
X109096677Y-147056741D01*
X109090918Y-147033394D01*
X109064252Y-146967029D01*
X109029551Y-146910385D01*
X108985710Y-146859517D01*
X108931619Y-146810480D01*
X108867464Y-146762463D01*
X108742454Y-146696011D01*
X108608357Y-146658384D01*
X108464445Y-146649571D01*
X108309994Y-146669560D01*
X108144277Y-146718341D01*
X107966569Y-146795903D01*
X107928536Y-146814747D01*
X107874960Y-146840637D01*
X107836434Y-146858411D01*
X107819460Y-146865015D01*
X107819735Y-146861063D01*
X107834194Y-146839966D01*
X107861765Y-146806754D01*
X107924553Y-146718504D01*
X107970521Y-146612865D01*
X107983393Y-146547318D01*
X109606811Y-146547318D01*
X109607841Y-146566621D01*
X109615693Y-146580963D01*
X109631250Y-146564821D01*
X109634144Y-146554838D01*
X109624314Y-146530220D01*
X109623949Y-146529858D01*
X109610665Y-146524501D01*
X109606811Y-146547318D01*
X107983393Y-146547318D01*
X107992051Y-146503233D01*
X107989490Y-146435511D01*
X109591384Y-146435511D01*
X109600630Y-146478404D01*
X109610242Y-146494857D01*
X109630342Y-146501402D01*
X109646624Y-146479690D01*
X109649853Y-146469363D01*
X109661603Y-146431885D01*
X109662481Y-146411973D01*
X109650455Y-146377639D01*
X109645579Y-146370693D01*
X109624707Y-146358034D01*
X109606599Y-146368901D01*
X109594432Y-146396868D01*
X109591384Y-146435511D01*
X107989490Y-146435511D01*
X107987987Y-146395782D01*
X107957177Y-146296682D01*
X107951939Y-146286091D01*
X107881290Y-146179419D01*
X107783541Y-146080739D01*
X107662287Y-145992702D01*
X107521123Y-145917958D01*
X107363644Y-145859156D01*
X107346582Y-145853930D01*
X107296187Y-145837027D01*
X107268792Y-145823183D01*
X107258488Y-145808405D01*
X107259361Y-145788699D01*
X107259925Y-145763344D01*
X107249159Y-145741410D01*
X107237375Y-145742737D01*
X107231951Y-145769325D01*
X107231951Y-145807875D01*
X107039288Y-145805640D01*
X106957575Y-145806548D01*
X106833313Y-145818198D01*
X106732561Y-145844020D01*
X106651691Y-145885573D01*
X106587073Y-145944414D01*
X106535080Y-146022102D01*
X106500619Y-146086501D01*
X106497055Y-145944953D01*
X106492595Y-145823458D01*
X106484388Y-145683167D01*
X106477529Y-145597455D01*
X107471287Y-145597455D01*
X107488838Y-145634525D01*
X107498898Y-145644202D01*
X107513739Y-145651176D01*
X107523576Y-145634338D01*
X107525493Y-145628684D01*
X107529400Y-145589060D01*
X107521279Y-145552249D01*
X107503831Y-145532219D01*
X107487820Y-145539414D01*
X107474269Y-145567706D01*
X107471287Y-145597455D01*
X106477529Y-145597455D01*
X106473442Y-145546392D01*
X106460402Y-145420118D01*
X106452916Y-145363902D01*
X107233287Y-145363902D01*
X107234234Y-145442211D01*
X107234670Y-145452772D01*
X107238405Y-145507000D01*
X107243550Y-145545187D01*
X107249128Y-145559628D01*
X107255012Y-145548300D01*
X107261227Y-145512458D01*
X107265231Y-145472810D01*
X107502679Y-145472810D01*
X107504562Y-145491475D01*
X107509292Y-145493936D01*
X107515047Y-145480990D01*
X107513912Y-145472664D01*
X107504562Y-145470505D01*
X107502679Y-145472810D01*
X107265231Y-145472810D01*
X107266576Y-145459498D01*
X107270677Y-145397045D01*
X107273148Y-145332723D01*
X107273605Y-145274155D01*
X107271666Y-145228967D01*
X107266947Y-145204781D01*
X107260672Y-145198085D01*
X107250443Y-145208040D01*
X107242037Y-145242123D01*
X107236103Y-145295641D01*
X107233287Y-145363902D01*
X106452916Y-145363902D01*
X106445915Y-145311329D01*
X106430628Y-145227010D01*
X106425434Y-145204598D01*
X106391667Y-145094790D01*
X106387098Y-145085227D01*
X107253514Y-145085227D01*
X107256584Y-145123863D01*
X107264898Y-145143770D01*
X107270549Y-145140470D01*
X107275636Y-145119054D01*
X107475699Y-145119054D01*
X107476804Y-145165186D01*
X107481319Y-145187292D01*
X107488835Y-145204783D01*
X107497620Y-145246907D01*
X107500511Y-145274155D01*
X107503323Y-145300667D01*
X107503519Y-145303807D01*
X107507844Y-145355404D01*
X107512474Y-145375775D01*
X107517600Y-145365139D01*
X107523412Y-145323715D01*
X107525867Y-145293711D01*
X107529193Y-145236665D01*
X107532815Y-145161050D01*
X107536567Y-145071865D01*
X107540285Y-144974111D01*
X107543804Y-144872787D01*
X107546960Y-144772892D01*
X107549588Y-144679426D01*
X107551524Y-144597387D01*
X107552602Y-144531777D01*
X107552659Y-144487594D01*
X107551529Y-144469837D01*
X107545430Y-144465668D01*
X107525003Y-144472690D01*
X107517139Y-144486132D01*
X107512464Y-144526963D01*
X107515932Y-144595342D01*
X107519043Y-144651447D01*
X107518199Y-144703821D01*
X107513256Y-144736737D01*
X107512149Y-144740038D01*
X107503491Y-144779456D01*
X107495188Y-144837954D01*
X107487748Y-144908347D01*
X107481681Y-144983450D01*
X107477494Y-145056081D01*
X107477086Y-145070381D01*
X107475699Y-145119054D01*
X107275636Y-145119054D01*
X107276731Y-145114446D01*
X107279133Y-145070381D01*
X107278812Y-145051086D01*
X107274441Y-145011030D01*
X107267040Y-145001423D01*
X107259290Y-145022030D01*
X107253867Y-145072613D01*
X107253514Y-145085227D01*
X106387098Y-145085227D01*
X106344350Y-144995753D01*
X106278737Y-144898984D01*
X106190084Y-144795978D01*
X106185994Y-144791620D01*
X106097230Y-144706495D01*
X105993322Y-144624287D01*
X105870412Y-144542414D01*
X105724644Y-144458299D01*
X105552161Y-144369362D01*
X105488288Y-144337629D01*
X105418486Y-144302263D01*
X105363566Y-144273639D01*
X105327997Y-144254092D01*
X105316247Y-144245962D01*
X105321407Y-144245864D01*
X105351896Y-144249810D01*
X105404940Y-144258390D01*
X105475107Y-144270705D01*
X105556966Y-144285854D01*
X105564824Y-144287341D01*
X105798505Y-144330807D01*
X106005320Y-144367524D01*
X106188911Y-144397915D01*
X106352920Y-144422407D01*
X106500990Y-144441424D01*
X106636763Y-144455390D01*
X106763880Y-144464730D01*
X106885984Y-144469869D01*
X107006718Y-144471231D01*
X107129722Y-144469241D01*
X107195116Y-144466962D01*
X107406356Y-144452192D01*
X107592500Y-144425907D01*
X107757253Y-144386841D01*
X107904323Y-144333726D01*
X108037415Y-144265298D01*
X108160237Y-144180289D01*
X108276493Y-144077433D01*
X108282207Y-144071822D01*
X108334960Y-144020302D01*
X108378449Y-143978312D01*
X108408303Y-143950044D01*
X108420151Y-143939690D01*
X108423671Y-143947087D01*
X108435431Y-143978685D01*
X108453173Y-144029415D01*
X108474676Y-144093034D01*
X108506829Y-144186901D01*
X108547983Y-144299551D01*
X108593331Y-144415292D01*
X108623527Y-144487594D01*
X108644424Y-144537630D01*
G37*
G36*
X110644424Y-63537630D02*
G01*
X110702812Y-63670067D01*
X110770047Y-63816109D01*
X110847681Y-63979258D01*
X110937264Y-64163020D01*
X111040347Y-64370897D01*
X111075239Y-64441161D01*
X111094679Y-64480990D01*
X111147425Y-64589060D01*
X111158150Y-64611035D01*
X111235230Y-64773073D01*
X111304664Y-64923304D01*
X111364633Y-65057755D01*
X111413319Y-65172456D01*
X111448905Y-65263436D01*
X111461125Y-65295197D01*
X111484942Y-65340873D01*
X111510886Y-65359574D01*
X111544841Y-65353874D01*
X111592690Y-65326346D01*
X111605975Y-65316339D01*
X111652400Y-65264237D01*
X111697348Y-65188730D01*
X111711375Y-65159684D01*
X111728729Y-65117434D01*
X111741985Y-65072594D01*
X111752757Y-65017968D01*
X111762662Y-64946364D01*
X111773316Y-64850588D01*
X111783579Y-64751610D01*
X111793225Y-64660064D01*
X111801093Y-64595461D01*
X111808320Y-64555472D01*
X111816044Y-64537770D01*
X111825402Y-64540029D01*
X111837533Y-64559920D01*
X111853575Y-64595117D01*
X111874665Y-64643293D01*
X111939547Y-64775078D01*
X112018584Y-64900355D01*
X112102369Y-64996157D01*
X112191999Y-65063485D01*
X112288574Y-65103343D01*
X112393189Y-65116731D01*
X112444919Y-65112428D01*
X112540953Y-65085449D01*
X112651728Y-65033252D01*
X112778514Y-64955305D01*
X112785130Y-64950887D01*
X112830243Y-64922763D01*
X112863104Y-64905682D01*
X112876996Y-64903201D01*
X112876691Y-64907682D01*
X112866984Y-64936477D01*
X112846338Y-64986581D01*
X112817035Y-65053153D01*
X112781357Y-65131352D01*
X112741584Y-65216335D01*
X112699998Y-65303261D01*
X112658879Y-65387288D01*
X112646464Y-65411973D01*
X112620510Y-65463575D01*
X112587170Y-65527281D01*
X112571673Y-65554838D01*
X112561143Y-65573563D01*
X112556316Y-65581649D01*
X112522781Y-65642636D01*
X112505976Y-65683673D01*
X112506993Y-65702169D01*
X112512114Y-65704035D01*
X112544194Y-65708701D01*
X112596238Y-65712275D01*
X112659848Y-65714102D01*
X112704004Y-65714286D01*
X112760882Y-65711744D01*
X112806711Y-65703118D01*
X112854281Y-65685513D01*
X112916380Y-65656033D01*
X112952208Y-65637189D01*
X112999625Y-65608046D01*
X113049337Y-65571851D01*
X113104432Y-65525852D01*
X113168000Y-65467294D01*
X113243128Y-65393424D01*
X113332904Y-65301487D01*
X113440417Y-65188730D01*
X113521549Y-65102824D01*
X113618687Y-64999162D01*
X113698608Y-64912376D01*
X113764038Y-64839125D01*
X113817703Y-64776066D01*
X113862328Y-64719859D01*
X113900640Y-64667162D01*
X113935365Y-64614634D01*
X113969228Y-64558933D01*
X114001717Y-64502356D01*
X114361770Y-64502356D01*
X114371513Y-64532860D01*
X114374922Y-64537948D01*
X114390157Y-64570392D01*
X114405940Y-64614674D01*
X114406696Y-64617043D01*
X114420334Y-64653533D01*
X114444334Y-64712503D01*
X114476349Y-64788378D01*
X114514030Y-64875584D01*
X114555027Y-64968544D01*
X114555385Y-64969346D01*
X114598546Y-65066486D01*
X114640621Y-65161657D01*
X114678669Y-65248173D01*
X114709749Y-65319348D01*
X114730922Y-65368497D01*
X114760875Y-65432629D01*
X114787801Y-65473908D01*
X114808832Y-65485082D01*
X114824299Y-65466499D01*
X114826014Y-65460073D01*
X114823961Y-65432160D01*
X114812959Y-65404601D01*
X114798260Y-65387515D01*
X114785118Y-65391019D01*
X114782676Y-65392328D01*
X114770269Y-65378766D01*
X114752246Y-65345225D01*
X114731596Y-65299107D01*
X114711307Y-65247811D01*
X114694369Y-65198741D01*
X114683770Y-65159296D01*
X114682498Y-65136880D01*
X114679886Y-65114508D01*
X114666310Y-65069949D01*
X114644389Y-65009607D01*
X114616775Y-64939798D01*
X114586121Y-64866834D01*
X114555083Y-64797031D01*
X114526311Y-64736701D01*
X114502461Y-64692160D01*
X114486185Y-64669721D01*
X114467396Y-64647806D01*
X114440216Y-64604551D01*
X114413045Y-64551764D01*
X114389670Y-64505158D01*
X114371855Y-64480630D01*
X114362966Y-64485678D01*
X114361770Y-64502356D01*
X114001717Y-64502356D01*
X114004955Y-64496718D01*
X114019717Y-64470722D01*
X114071687Y-64381984D01*
X114118208Y-64306777D01*
X114156941Y-64248656D01*
X114185546Y-64211177D01*
X114201682Y-64197894D01*
X114211562Y-64205914D01*
X114223136Y-64233594D01*
X114237164Y-64265928D01*
X114264159Y-64303711D01*
X114286111Y-64334074D01*
X114296223Y-64363065D01*
X114299990Y-64376015D01*
X114322470Y-64383382D01*
X114337713Y-64387351D01*
X114370149Y-64416698D01*
X114412650Y-64473126D01*
X114422474Y-64486925D01*
X114463575Y-64538471D01*
X114519205Y-64602566D01*
X114583311Y-64672373D01*
X114649840Y-64741054D01*
X114773096Y-64858126D01*
X114907286Y-64970656D01*
X115049472Y-65073934D01*
X115204262Y-65170834D01*
X115376265Y-65264227D01*
X115570088Y-65356985D01*
X115790341Y-65451983D01*
X115810088Y-65460073D01*
X115855007Y-65478476D01*
X115996584Y-65534222D01*
X116120045Y-65578485D01*
X116232496Y-65613112D01*
X116341044Y-65639950D01*
X116452795Y-65660848D01*
X116574857Y-65677652D01*
X116714335Y-65692212D01*
X116733392Y-65694013D01*
X116807597Y-65701502D01*
X116867723Y-65708315D01*
X116908016Y-65713764D01*
X116922725Y-65717161D01*
X116914843Y-65726804D01*
X116878380Y-65745010D01*
X116813609Y-65768377D01*
X116722032Y-65796451D01*
X116605152Y-65828781D01*
X116464469Y-65864912D01*
X116301486Y-65904394D01*
X116213173Y-65925757D01*
X116058327Y-65966726D01*
X115928065Y-66007214D01*
X115817942Y-66049240D01*
X115776029Y-66069473D01*
X115723515Y-66094823D01*
X115640338Y-66145982D01*
X115563966Y-66204738D01*
X115489956Y-66273109D01*
X115470722Y-66292507D01*
X115416706Y-66351802D01*
X115371786Y-66411416D01*
X115331346Y-66478776D01*
X115290770Y-66561310D01*
X115245439Y-66666443D01*
X115243012Y-66672196D01*
X115234054Y-66687565D01*
X115224418Y-66685221D01*
X115210103Y-66661474D01*
X115187109Y-66612633D01*
X115132146Y-66509666D01*
X115044110Y-66394627D01*
X114939180Y-66305893D01*
X114816694Y-66243049D01*
X114675991Y-66205681D01*
X114516409Y-66193375D01*
X114424127Y-66197005D01*
X114257832Y-66222631D01*
X114091367Y-66273877D01*
X113921057Y-66352001D01*
X113743228Y-66458263D01*
X113720639Y-66473567D01*
X113620528Y-66549640D01*
X113521543Y-66636814D01*
X113430303Y-66728540D01*
X113353424Y-66818268D01*
X113297523Y-66899448D01*
X113275333Y-66936073D01*
X113253044Y-66968679D01*
X113240684Y-66981359D01*
X113234511Y-66977416D01*
X113213880Y-66954314D01*
X113186460Y-66917361D01*
X113133223Y-66850528D01*
X113047838Y-66773553D01*
X112955026Y-66719602D01*
X112859542Y-66691234D01*
X112766139Y-66691010D01*
X112749517Y-66694048D01*
X112661039Y-66719810D01*
X112556503Y-66764825D01*
X112433834Y-66830078D01*
X112290960Y-66916551D01*
X112278241Y-66924592D01*
X112113664Y-67024223D01*
X111970231Y-67102280D01*
X111848333Y-67158564D01*
X111748359Y-67192877D01*
X111716507Y-67200240D01*
X111648191Y-67211613D01*
X111588809Y-67216550D01*
X111556412Y-67215346D01*
X111473835Y-67201815D01*
X111388002Y-67176409D01*
X111310482Y-67142959D01*
X111252845Y-67105297D01*
X111230325Y-67083687D01*
X111204025Y-67050068D01*
X111183622Y-67009333D01*
X111168292Y-66957429D01*
X111157207Y-66890300D01*
X111149543Y-66803893D01*
X111144473Y-66694154D01*
X111141172Y-66557027D01*
X111139394Y-66474967D01*
X111133789Y-66330267D01*
X111124580Y-66211068D01*
X111110659Y-66113425D01*
X111096677Y-66056741D01*
X111168393Y-66056741D01*
X111182608Y-66070078D01*
X111195213Y-66077382D01*
X111213623Y-66084719D01*
X111220653Y-66082754D01*
X111240556Y-66072235D01*
X111452149Y-66072235D01*
X111477033Y-66081171D01*
X111526733Y-66084960D01*
X111580340Y-66085201D01*
X111569733Y-66439071D01*
X111567555Y-66515302D01*
X111565291Y-66614559D01*
X111564647Y-66688007D01*
X111565726Y-66739107D01*
X111568634Y-66771322D01*
X111573473Y-66788113D01*
X111580347Y-66792941D01*
X111591630Y-66792058D01*
X111615382Y-66775876D01*
X111622539Y-66735767D01*
X111622531Y-66734135D01*
X111616605Y-66709364D01*
X111596368Y-66709605D01*
X111580449Y-66713043D01*
X111581909Y-66700697D01*
X111587004Y-66682623D01*
X111591580Y-66640286D01*
X111593165Y-66586220D01*
X111594702Y-66544515D01*
X111602359Y-66481717D01*
X111614353Y-66433427D01*
X111620988Y-66410598D01*
X111631802Y-66352049D01*
X111641472Y-66274905D01*
X111649061Y-66187207D01*
X111653629Y-66096996D01*
X111663841Y-66091691D01*
X111697861Y-66087005D01*
X111747431Y-66085201D01*
X111759673Y-66085085D01*
X111812886Y-66081056D01*
X111845291Y-66072418D01*
X111847318Y-66069473D01*
X111921362Y-66069473D01*
X111924024Y-66076708D01*
X111944954Y-66085201D01*
X111955807Y-66083426D01*
X111968545Y-66069473D01*
X112023592Y-66069473D01*
X112026811Y-66073768D01*
X112048111Y-66085201D01*
X112051622Y-66084751D01*
X112062910Y-66069473D01*
X112059910Y-66061957D01*
X112038391Y-66053746D01*
X112027157Y-66056009D01*
X112023592Y-66069473D01*
X111968545Y-66069473D01*
X111965884Y-66062238D01*
X111944954Y-66053746D01*
X111934101Y-66055520D01*
X111929349Y-66060725D01*
X111921362Y-66069473D01*
X111847318Y-66069473D01*
X111853341Y-66060725D01*
X111833484Y-66047530D01*
X111822863Y-66044738D01*
X111783268Y-66039923D01*
X111732982Y-66038018D01*
X111657268Y-66038018D01*
X111645299Y-65908266D01*
X111644112Y-65894981D01*
X111639134Y-65827217D01*
X111636334Y-65767482D01*
X111636291Y-65727399D01*
X111636483Y-65723352D01*
X111634077Y-65689978D01*
X111625584Y-65676284D01*
X111619045Y-65689301D01*
X111610304Y-65727762D01*
X111600847Y-65785540D01*
X111591833Y-65856458D01*
X111571752Y-66036631D01*
X111501194Y-66047212D01*
X111484460Y-66050192D01*
X111453990Y-66060969D01*
X111453215Y-66065713D01*
X111452149Y-66072235D01*
X111240556Y-66072235D01*
X111244637Y-66070078D01*
X111247476Y-66068251D01*
X111253387Y-66061609D01*
X111276533Y-66061609D01*
X111284397Y-66069473D01*
X111292260Y-66061609D01*
X111290622Y-66059971D01*
X111375158Y-66059971D01*
X111375232Y-66061609D01*
X111375401Y-66065340D01*
X111395800Y-66068232D01*
X111411259Y-66065713D01*
X111405302Y-66058729D01*
X111396207Y-66056217D01*
X111375158Y-66059971D01*
X111290622Y-66059971D01*
X111284397Y-66053746D01*
X111282483Y-66055660D01*
X111276533Y-66061609D01*
X111253387Y-66061609D01*
X111258682Y-66055660D01*
X111240705Y-66045045D01*
X111224582Y-66041366D01*
X111186540Y-66045045D01*
X111183209Y-66046351D01*
X111168393Y-66056741D01*
X111096677Y-66056741D01*
X111090918Y-66033394D01*
X111064252Y-65967029D01*
X111029551Y-65910385D01*
X110985710Y-65859517D01*
X110931619Y-65810480D01*
X110867464Y-65762463D01*
X110742454Y-65696011D01*
X110608357Y-65658384D01*
X110464445Y-65649571D01*
X110309994Y-65669560D01*
X110144277Y-65718341D01*
X109966569Y-65795903D01*
X109928536Y-65814747D01*
X109874960Y-65840637D01*
X109836434Y-65858411D01*
X109819460Y-65865015D01*
X109819735Y-65861063D01*
X109834194Y-65839966D01*
X109861765Y-65806754D01*
X109924553Y-65718504D01*
X109970521Y-65612865D01*
X109983393Y-65547318D01*
X111606811Y-65547318D01*
X111607841Y-65566621D01*
X111615693Y-65580963D01*
X111631250Y-65564821D01*
X111634144Y-65554838D01*
X111624314Y-65530220D01*
X111623949Y-65529858D01*
X111610665Y-65524501D01*
X111606811Y-65547318D01*
X109983393Y-65547318D01*
X109992051Y-65503233D01*
X109989490Y-65435511D01*
X111591384Y-65435511D01*
X111600630Y-65478404D01*
X111610242Y-65494857D01*
X111630342Y-65501402D01*
X111646624Y-65479690D01*
X111649853Y-65469363D01*
X111661603Y-65431885D01*
X111662481Y-65411973D01*
X111650455Y-65377639D01*
X111645579Y-65370693D01*
X111624707Y-65358034D01*
X111606599Y-65368901D01*
X111594432Y-65396868D01*
X111591384Y-65435511D01*
X109989490Y-65435511D01*
X109987987Y-65395782D01*
X109957177Y-65296682D01*
X109951939Y-65286091D01*
X109881290Y-65179419D01*
X109783541Y-65080739D01*
X109662287Y-64992702D01*
X109521123Y-64917958D01*
X109363644Y-64859156D01*
X109346582Y-64853930D01*
X109296187Y-64837027D01*
X109268792Y-64823183D01*
X109258488Y-64808405D01*
X109259361Y-64788699D01*
X109259925Y-64763344D01*
X109249159Y-64741410D01*
X109237375Y-64742737D01*
X109231951Y-64769325D01*
X109231951Y-64807875D01*
X109039288Y-64805640D01*
X108957575Y-64806548D01*
X108833313Y-64818198D01*
X108732561Y-64844020D01*
X108651691Y-64885573D01*
X108587073Y-64944414D01*
X108535080Y-65022102D01*
X108500619Y-65086501D01*
X108497055Y-64944953D01*
X108492595Y-64823458D01*
X108484388Y-64683167D01*
X108477529Y-64597455D01*
X109471287Y-64597455D01*
X109488838Y-64634525D01*
X109498898Y-64644202D01*
X109513739Y-64651176D01*
X109523576Y-64634338D01*
X109525493Y-64628684D01*
X109529400Y-64589060D01*
X109521279Y-64552249D01*
X109503831Y-64532219D01*
X109487820Y-64539414D01*
X109474269Y-64567706D01*
X109471287Y-64597455D01*
X108477529Y-64597455D01*
X108473442Y-64546392D01*
X108460402Y-64420118D01*
X108452916Y-64363902D01*
X109233287Y-64363902D01*
X109234234Y-64442211D01*
X109234670Y-64452772D01*
X109238405Y-64507000D01*
X109243550Y-64545187D01*
X109249128Y-64559628D01*
X109255012Y-64548300D01*
X109261227Y-64512458D01*
X109265231Y-64472810D01*
X109502679Y-64472810D01*
X109504562Y-64491475D01*
X109509292Y-64493936D01*
X109515047Y-64480990D01*
X109513912Y-64472664D01*
X109504562Y-64470505D01*
X109502679Y-64472810D01*
X109265231Y-64472810D01*
X109266576Y-64459498D01*
X109270677Y-64397045D01*
X109273148Y-64332723D01*
X109273605Y-64274155D01*
X109271666Y-64228967D01*
X109266947Y-64204781D01*
X109260672Y-64198085D01*
X109250443Y-64208040D01*
X109242037Y-64242123D01*
X109236103Y-64295641D01*
X109233287Y-64363902D01*
X108452916Y-64363902D01*
X108445915Y-64311329D01*
X108430628Y-64227010D01*
X108425434Y-64204598D01*
X108391667Y-64094790D01*
X108387098Y-64085227D01*
X109253514Y-64085227D01*
X109256584Y-64123863D01*
X109264898Y-64143770D01*
X109270549Y-64140470D01*
X109275636Y-64119054D01*
X109475699Y-64119054D01*
X109476804Y-64165186D01*
X109481319Y-64187292D01*
X109488835Y-64204783D01*
X109497620Y-64246907D01*
X109500511Y-64274155D01*
X109503323Y-64300667D01*
X109503519Y-64303807D01*
X109507844Y-64355404D01*
X109512474Y-64375775D01*
X109517600Y-64365139D01*
X109523412Y-64323715D01*
X109525867Y-64293711D01*
X109529193Y-64236665D01*
X109532815Y-64161050D01*
X109536567Y-64071865D01*
X109540285Y-63974111D01*
X109543804Y-63872787D01*
X109546960Y-63772892D01*
X109549588Y-63679426D01*
X109551524Y-63597387D01*
X109552602Y-63531777D01*
X109552659Y-63487594D01*
X109551529Y-63469837D01*
X109545430Y-63465668D01*
X109525003Y-63472690D01*
X109517139Y-63486132D01*
X109512464Y-63526963D01*
X109515932Y-63595342D01*
X109519043Y-63651447D01*
X109518199Y-63703821D01*
X109513256Y-63736737D01*
X109512149Y-63740038D01*
X109503491Y-63779456D01*
X109495188Y-63837954D01*
X109487748Y-63908347D01*
X109481681Y-63983450D01*
X109477494Y-64056081D01*
X109477086Y-64070381D01*
X109475699Y-64119054D01*
X109275636Y-64119054D01*
X109276731Y-64114446D01*
X109279133Y-64070381D01*
X109278812Y-64051086D01*
X109274441Y-64011030D01*
X109267040Y-64001423D01*
X109259290Y-64022030D01*
X109253867Y-64072613D01*
X109253514Y-64085227D01*
X108387098Y-64085227D01*
X108344350Y-63995753D01*
X108278737Y-63898984D01*
X108190084Y-63795978D01*
X108185994Y-63791620D01*
X108097230Y-63706495D01*
X107993322Y-63624287D01*
X107870412Y-63542414D01*
X107724644Y-63458299D01*
X107552161Y-63369362D01*
X107488288Y-63337629D01*
X107418486Y-63302263D01*
X107363566Y-63273639D01*
X107327997Y-63254092D01*
X107316247Y-63245962D01*
X107321407Y-63245864D01*
X107351896Y-63249810D01*
X107404940Y-63258390D01*
X107475107Y-63270705D01*
X107556966Y-63285854D01*
X107564824Y-63287341D01*
X107798505Y-63330807D01*
X108005320Y-63367524D01*
X108188911Y-63397915D01*
X108352920Y-63422407D01*
X108500990Y-63441424D01*
X108636763Y-63455390D01*
X108763880Y-63464730D01*
X108885984Y-63469869D01*
X109006718Y-63471231D01*
X109129722Y-63469241D01*
X109195116Y-63466962D01*
X109406356Y-63452192D01*
X109592500Y-63425907D01*
X109757253Y-63386841D01*
X109904323Y-63333726D01*
X110037415Y-63265298D01*
X110160237Y-63180289D01*
X110276493Y-63077433D01*
X110282207Y-63071822D01*
X110334960Y-63020302D01*
X110378449Y-62978312D01*
X110408303Y-62950044D01*
X110420151Y-62939690D01*
X110423671Y-62947087D01*
X110435431Y-62978685D01*
X110453173Y-63029415D01*
X110474676Y-63093034D01*
X110506829Y-63186901D01*
X110547983Y-63299551D01*
X110593331Y-63415292D01*
X110623527Y-63487594D01*
X110644424Y-63537630D01*
G37*
D13*
%TO.C,J3*%
X152620000Y-97575000D02*
X155280000Y-97575000D01*
X152620000Y-100785000D02*
X152620000Y-97575000D01*
X152620000Y-102975000D02*
X152620000Y-102305000D01*
X152620000Y-102975000D02*
X155280000Y-102975000D01*
X155280000Y-98245000D02*
X155280000Y-97575000D01*
X155280000Y-98245000D02*
X156490000Y-98245000D01*
X155280000Y-102975000D02*
X155280000Y-99765000D01*
%TO.C,D5*%
X150840000Y-81977500D02*
X150840000Y-84662500D01*
X152760000Y-81977500D02*
X150840000Y-81977500D01*
X152760000Y-84662500D02*
X152760000Y-81977500D01*
D12*
%TO.C,G\u002A\u002A\u002A*%
G36*
X132540000Y-91328333D02*
G01*
X132497666Y-91370667D01*
X132455333Y-91328333D01*
X132497666Y-91286000D01*
X132540000Y-91328333D01*
G37*
G36*
X132709333Y-91921000D02*
G01*
X132667000Y-91963333D01*
X132624666Y-91921000D01*
X132667000Y-91878667D01*
X132709333Y-91921000D01*
G37*
G36*
X133048000Y-91328333D02*
G01*
X133005666Y-91370667D01*
X132963333Y-91328333D01*
X133005666Y-91286000D01*
X133048000Y-91328333D01*
G37*
G36*
X136180666Y-87179667D02*
G01*
X136138333Y-87222000D01*
X136096000Y-87179667D01*
X136138333Y-87137333D01*
X136180666Y-87179667D01*
G37*
G36*
X133189111Y-89959555D02*
G01*
X133202357Y-89985022D01*
X133132666Y-90016000D01*
X133087844Y-90009890D01*
X133076222Y-89959555D01*
X133088631Y-89949422D01*
X133189111Y-89959555D01*
G37*
G36*
X136011333Y-86968000D02*
G01*
X136005223Y-87012822D01*
X135954889Y-87024444D01*
X135944756Y-87012035D01*
X135954889Y-86911555D01*
X135980355Y-86898310D01*
X136011333Y-86968000D01*
G37*
G36*
X136124674Y-87384806D02*
G01*
X136125577Y-87521045D01*
X136080668Y-87613990D01*
X136030135Y-87623557D01*
X136011333Y-87471003D01*
X136028502Y-87374586D01*
X136092302Y-87346715D01*
X136124674Y-87384806D01*
G37*
G36*
X136274889Y-88975689D02*
G01*
X136312166Y-89030194D01*
X136312226Y-89161956D01*
X136263869Y-89227266D01*
X136201491Y-89229527D01*
X136180666Y-89067733D01*
X136180673Y-89063855D01*
X136202262Y-88944068D01*
X136274889Y-88975689D01*
G37*
G36*
X135926666Y-86417667D02*
G01*
X135968454Y-86531667D01*
X136005382Y-86697830D01*
X135999063Y-86741801D01*
X135926666Y-86756333D01*
X135871872Y-86663471D01*
X135847951Y-86476170D01*
X135853154Y-86362094D01*
X135874312Y-86315823D01*
X135926666Y-86417667D01*
G37*
G36*
X133447601Y-91652488D02*
G01*
X133418416Y-91868083D01*
X133413102Y-91893596D01*
X133365750Y-92054680D01*
X133325105Y-92099327D01*
X133323311Y-92097170D01*
X133314894Y-91988625D01*
X133344333Y-91794000D01*
X133391796Y-91624640D01*
X133434089Y-91566701D01*
X133447601Y-91652488D01*
G37*
G36*
X133035314Y-92019378D02*
G01*
X133046526Y-92140738D01*
X133103240Y-92253055D01*
X133238500Y-92267833D01*
X133396922Y-92268597D01*
X133640666Y-92309182D01*
X133647312Y-92311126D01*
X133698058Y-92344769D01*
X133583578Y-92366579D01*
X133302000Y-92376930D01*
X133295572Y-92377010D01*
X133035154Y-92371779D01*
X132875109Y-92351903D01*
X132849860Y-92321595D01*
X132928561Y-92206643D01*
X132985341Y-92005391D01*
X133022628Y-91751667D01*
X133035314Y-92019378D01*
G37*
G36*
X134725064Y-88455333D02*
G01*
X134724533Y-88717811D01*
X134723628Y-89165692D01*
X134723317Y-89828046D01*
X134724092Y-90418131D01*
X134724797Y-90608667D01*
X134725918Y-90911682D01*
X134728757Y-91284432D01*
X134732574Y-91512117D01*
X134736494Y-91769953D01*
X134722344Y-92000634D01*
X134678678Y-92133171D01*
X134597650Y-92208042D01*
X134480099Y-92257510D01*
X134226768Y-92295809D01*
X133981761Y-92271822D01*
X133820406Y-92187538D01*
X133805649Y-92161639D01*
X133774075Y-92003196D01*
X133759520Y-91712144D01*
X133761664Y-91276494D01*
X133780184Y-90684262D01*
X133784777Y-90564631D01*
X133912756Y-90564631D01*
X133922889Y-90665111D01*
X133948355Y-90678357D01*
X133979333Y-90608667D01*
X133973223Y-90563844D01*
X133922889Y-90552222D01*
X133912756Y-90564631D01*
X133784777Y-90564631D01*
X133789095Y-90452166D01*
X133803297Y-89946501D01*
X133797694Y-89579916D01*
X133764415Y-89330632D01*
X133695590Y-89176873D01*
X133583349Y-89096861D01*
X133419821Y-89068818D01*
X133197136Y-89070969D01*
X133065558Y-89071707D01*
X132847317Y-89022298D01*
X132740090Y-88874467D01*
X132724486Y-88726832D01*
X133957384Y-88726832D01*
X134085166Y-88737249D01*
X134244789Y-88766417D01*
X134318000Y-88830667D01*
X134350552Y-88907313D01*
X134438686Y-88891731D01*
X134522601Y-88776215D01*
X134542277Y-88717811D01*
X134536691Y-88613336D01*
X134421993Y-88591453D01*
X134174443Y-88643082D01*
X134137356Y-88652975D01*
X133971149Y-88702571D01*
X133957384Y-88726832D01*
X132724486Y-88726832D01*
X132710630Y-88595738D01*
X132733286Y-88434555D01*
X132857558Y-88271437D01*
X133066418Y-88195667D01*
X134318000Y-88195667D01*
X134360333Y-88238000D01*
X134402666Y-88195667D01*
X134360333Y-88153333D01*
X134318000Y-88195667D01*
X133066418Y-88195667D01*
X133106387Y-88181167D01*
X133498012Y-88153501D01*
X133852333Y-88153670D01*
X133810000Y-86890215D01*
X133801949Y-86678134D01*
X133779790Y-86254352D01*
X133753344Y-85905330D01*
X133725258Y-85662580D01*
X133698176Y-85557611D01*
X133659373Y-85536949D01*
X133482717Y-85501783D01*
X133232509Y-85487398D01*
X133115206Y-85484244D01*
X132874600Y-85459291D01*
X132730500Y-85417836D01*
X132721991Y-85411602D01*
X132650861Y-85270236D01*
X132627407Y-85054318D01*
X132652167Y-84842699D01*
X132725683Y-84714229D01*
X132791969Y-84696584D01*
X133001543Y-84678902D01*
X133303770Y-84671406D01*
X133654996Y-84673186D01*
X134011567Y-84683333D01*
X134329830Y-84700936D01*
X134566133Y-84725088D01*
X134676822Y-84754877D01*
X134690239Y-84842568D01*
X134702607Y-85081596D01*
X134712902Y-85452064D01*
X134720811Y-85934566D01*
X134726019Y-86509697D01*
X134728214Y-87158050D01*
X134727080Y-87860222D01*
X134725944Y-88195667D01*
X134725064Y-88455333D01*
G37*
G36*
X116707333Y-86330129D02*
G01*
X116708433Y-86415733D01*
X116721978Y-86539670D01*
X116767011Y-86951741D01*
X116895985Y-87419555D01*
X116921885Y-87513500D01*
X117147130Y-88045441D01*
X117182982Y-88130109D01*
X117560224Y-88830667D01*
X117754324Y-89171739D01*
X117953528Y-89539429D01*
X118111215Y-89849535D01*
X118204442Y-90058333D01*
X118206299Y-90063414D01*
X118261658Y-90288282D01*
X118312295Y-90618080D01*
X118354729Y-91007425D01*
X118385477Y-91410928D01*
X118401057Y-91783205D01*
X118397987Y-92078869D01*
X118372786Y-92252534D01*
X118361861Y-92274132D01*
X118300669Y-92322162D01*
X118173816Y-92354611D01*
X117955398Y-92374299D01*
X117619510Y-92384045D01*
X117140248Y-92386667D01*
X117011679Y-92386366D01*
X116583960Y-92380914D01*
X116220246Y-92369668D01*
X115955643Y-92353997D01*
X115825258Y-92335275D01*
X115783438Y-92309782D01*
X115727830Y-92205151D01*
X115699348Y-91999095D01*
X115691333Y-91657941D01*
X115691333Y-91032000D01*
X116465126Y-91032000D01*
X117238920Y-91032000D01*
X117187861Y-90600885D01*
X117104272Y-90241581D01*
X116851986Y-89733051D01*
X116781809Y-89622436D01*
X116588293Y-89300734D01*
X116367747Y-88917770D01*
X116155491Y-88534333D01*
X115838495Y-87947588D01*
X116076267Y-87947588D01*
X116091221Y-88079949D01*
X116134177Y-88196323D01*
X116178768Y-88191621D01*
X116199333Y-88045441D01*
X116182968Y-87890213D01*
X116133323Y-87783864D01*
X116091929Y-87808297D01*
X116076267Y-87947588D01*
X115838495Y-87947588D01*
X115743812Y-87772333D01*
X115735677Y-87445022D01*
X116044976Y-87445022D01*
X116114666Y-87476000D01*
X116159489Y-87469890D01*
X116171111Y-87419555D01*
X116158702Y-87409422D01*
X116058222Y-87419555D01*
X116044976Y-87445022D01*
X115735677Y-87445022D01*
X115716457Y-86671667D01*
X115716646Y-86591997D01*
X116030000Y-86591997D01*
X116032201Y-86600446D01*
X116114666Y-86629333D01*
X116137873Y-86625888D01*
X116199333Y-86539670D01*
X116192685Y-86509046D01*
X116114666Y-86502333D01*
X116089329Y-86519711D01*
X116030000Y-86591997D01*
X115716646Y-86591997D01*
X115717836Y-86090355D01*
X115875643Y-86090355D01*
X115945333Y-86121333D01*
X115990155Y-86115223D01*
X116001778Y-86064889D01*
X115989368Y-86054756D01*
X115888889Y-86064889D01*
X115875643Y-86090355D01*
X115717836Y-86090355D01*
X115718036Y-86005820D01*
X115763225Y-85480233D01*
X115856780Y-85079957D01*
X116003339Y-84785208D01*
X116207537Y-84576202D01*
X116417471Y-84477058D01*
X116739646Y-84398176D01*
X117098153Y-84355401D01*
X117427927Y-84356239D01*
X117663904Y-84408194D01*
X117801232Y-84469397D01*
X117994675Y-84543197D01*
X118024867Y-84554802D01*
X118206351Y-84721290D01*
X118350806Y-85025862D01*
X118449263Y-85443221D01*
X118492755Y-85948071D01*
X118494892Y-86060844D01*
X118488681Y-86409775D01*
X118456794Y-86620499D01*
X118396257Y-86716725D01*
X118391172Y-86719527D01*
X118246469Y-86744040D01*
X118007630Y-86745424D01*
X117740492Y-86727854D01*
X117510892Y-86695506D01*
X117384666Y-86652557D01*
X117365189Y-86576300D01*
X117348679Y-86372583D01*
X117342333Y-86092920D01*
X117338548Y-85845351D01*
X117316260Y-85663619D01*
X117261993Y-85577164D01*
X117162386Y-85545327D01*
X117010267Y-85548776D01*
X116838923Y-85665089D01*
X116739469Y-85922912D01*
X116728265Y-86064889D01*
X116707333Y-86330129D01*
G37*
G36*
X137430420Y-88365000D02*
G01*
X137433178Y-88902726D01*
X137434014Y-89169333D01*
X137434943Y-89465667D01*
X137435523Y-89650569D01*
X137435721Y-89983334D01*
X137435930Y-90335530D01*
X137434486Y-90939867D01*
X137433799Y-91048175D01*
X137431277Y-91445840D01*
X137429034Y-91624667D01*
X137426387Y-91835708D01*
X137419903Y-92091731D01*
X137411910Y-92196167D01*
X137353497Y-92240003D01*
X137175038Y-92275630D01*
X136861754Y-92295703D01*
X136396603Y-92302000D01*
X135421893Y-92302000D01*
X135365479Y-92077229D01*
X135340467Y-91910527D01*
X135397083Y-91720190D01*
X135584990Y-91611515D01*
X135841584Y-91580631D01*
X137045422Y-91580631D01*
X137055555Y-91681111D01*
X137081022Y-91694357D01*
X137112000Y-91624667D01*
X137105890Y-91579844D01*
X137055555Y-91568222D01*
X137045422Y-91580631D01*
X135841584Y-91580631D01*
X135918552Y-91571367D01*
X136082368Y-91563452D01*
X136303841Y-91537831D01*
X136414709Y-91503513D01*
X136431202Y-91478852D01*
X136477973Y-91298924D01*
X136511984Y-90992206D01*
X136530228Y-90615722D01*
X136863951Y-90615722D01*
X136863970Y-90616668D01*
X136889794Y-90870260D01*
X136943280Y-91074333D01*
X136971830Y-91119035D01*
X136986265Y-91048175D01*
X136967735Y-90820333D01*
X136956657Y-90728789D01*
X136918406Y-90479189D01*
X136887228Y-90371277D01*
X136867588Y-90413854D01*
X136863951Y-90615722D01*
X136530228Y-90615722D01*
X136531423Y-90591066D01*
X136534477Y-90127874D01*
X136527788Y-89910167D01*
X136774630Y-89910167D01*
X136778104Y-90000913D01*
X136815667Y-90097193D01*
X136889750Y-90033124D01*
X136900144Y-89983334D01*
X136853710Y-89842624D01*
X136839104Y-89820497D01*
X136788853Y-89787922D01*
X136774630Y-89910167D01*
X136527788Y-89910167D01*
X136519333Y-89635000D01*
X136510866Y-89465667D01*
X136688666Y-89465667D01*
X136731000Y-89508000D01*
X136773333Y-89465667D01*
X136731000Y-89423333D01*
X136688666Y-89465667D01*
X136510866Y-89465667D01*
X136493848Y-89125298D01*
X136706756Y-89125298D01*
X136716889Y-89225778D01*
X136742355Y-89239023D01*
X136773333Y-89169333D01*
X136767223Y-89124511D01*
X136716889Y-89112889D01*
X136706756Y-89125298D01*
X136493848Y-89125298D01*
X136477000Y-88788333D01*
X136056133Y-88762014D01*
X135788971Y-88733248D01*
X135562704Y-88655447D01*
X135449540Y-88510533D01*
X135418666Y-88274963D01*
X135429588Y-88111000D01*
X136519333Y-88111000D01*
X136561666Y-88153333D01*
X136604000Y-88111000D01*
X136561666Y-88068667D01*
X136519333Y-88111000D01*
X135429588Y-88111000D01*
X135430427Y-88098409D01*
X135498193Y-87963677D01*
X135659951Y-87896010D01*
X135953230Y-87866746D01*
X136035514Y-87861052D01*
X136268234Y-87830025D01*
X136407872Y-87788893D01*
X136410038Y-87787384D01*
X136453490Y-87672733D01*
X136485828Y-87432054D01*
X136506694Y-87106497D01*
X136515732Y-86737211D01*
X136512584Y-86365346D01*
X136496894Y-86032053D01*
X136468306Y-85778481D01*
X136426461Y-85645779D01*
X136297134Y-85566930D01*
X136085633Y-85528667D01*
X136023074Y-85530443D01*
X135876471Y-85578372D01*
X135830470Y-85719167D01*
X135818940Y-85909667D01*
X135782861Y-85723848D01*
X135738158Y-85613896D01*
X135631551Y-85582248D01*
X135528021Y-85578701D01*
X135427838Y-85456428D01*
X135380278Y-85238875D01*
X135400619Y-84966762D01*
X135466998Y-84647278D01*
X136437666Y-84643472D01*
X137408333Y-84639667D01*
X137428914Y-88111000D01*
X137430420Y-88365000D01*
G37*
G36*
X144157191Y-88212058D02*
G01*
X144216780Y-88382369D01*
X144306992Y-88487755D01*
X144440324Y-88563383D01*
X144555903Y-88647607D01*
X144647477Y-88845464D01*
X144619804Y-89064058D01*
X144470064Y-89239307D01*
X144448425Y-89253283D01*
X144377333Y-89317473D01*
X144334054Y-89415987D01*
X144313667Y-89582528D01*
X144311255Y-89850800D01*
X144321897Y-90254507D01*
X144351000Y-91159000D01*
X144040691Y-91184849D01*
X143911242Y-91191204D01*
X143787641Y-91167780D01*
X143703301Y-91083542D01*
X143644903Y-90911505D01*
X143599128Y-90624684D01*
X143552657Y-90196096D01*
X143545075Y-90123738D01*
X143504711Y-89805588D01*
X143462493Y-89559676D01*
X143426415Y-89434253D01*
X143417275Y-89422925D01*
X143280677Y-89363064D01*
X143063137Y-89338667D01*
X142758933Y-89338667D01*
X142812398Y-90212469D01*
X142828371Y-90523205D01*
X142832154Y-90867529D01*
X142810443Y-91082194D01*
X142762058Y-91190075D01*
X142718620Y-91221713D01*
X142526291Y-91251825D01*
X142304962Y-91190453D01*
X142128500Y-91053517D01*
X142110429Y-91024950D01*
X142046159Y-90826659D01*
X142017619Y-90571318D01*
X142008387Y-90349451D01*
X141971740Y-89995556D01*
X141915537Y-89683732D01*
X141848141Y-89456369D01*
X141777909Y-89355858D01*
X141714819Y-89329552D01*
X141531836Y-89168025D01*
X141443422Y-88948870D01*
X141461835Y-88726923D01*
X141599333Y-88557018D01*
X141675851Y-88494400D01*
X141732930Y-88378913D01*
X141757243Y-88181136D01*
X141758649Y-87857800D01*
X141748471Y-87520828D01*
X141716055Y-87155511D01*
X141662587Y-86938885D01*
X142537715Y-86938885D01*
X142546109Y-87154702D01*
X142567087Y-87443427D01*
X142596298Y-87758065D01*
X142629388Y-88051618D01*
X142662004Y-88277092D01*
X142689792Y-88387491D01*
X142799494Y-88472033D01*
X143002145Y-88531397D01*
X143186833Y-88519747D01*
X143205863Y-88506706D01*
X143258883Y-88365493D01*
X143278194Y-88115181D01*
X143268094Y-87800301D01*
X143232879Y-87465380D01*
X143176845Y-87154949D01*
X143104289Y-86913536D01*
X143019509Y-86785671D01*
X142902466Y-86758231D01*
X142702691Y-86776956D01*
X142546689Y-86842551D01*
X142546260Y-86842972D01*
X142537715Y-86938885D01*
X141662587Y-86938885D01*
X141655059Y-86908383D01*
X141556937Y-86749542D01*
X141413142Y-86649086D01*
X141299258Y-86583566D01*
X141138769Y-86399063D01*
X141138335Y-86193155D01*
X141301762Y-85988403D01*
X141383669Y-85919871D01*
X141466240Y-85819974D01*
X141506572Y-85686197D01*
X141515316Y-85473492D01*
X141503123Y-85136813D01*
X141472333Y-84470333D01*
X141733545Y-84444843D01*
X141881124Y-84441889D01*
X142024541Y-84492515D01*
X142128497Y-84630021D01*
X142211305Y-84881656D01*
X142291279Y-85274667D01*
X142404989Y-85909667D01*
X142700661Y-85909667D01*
X142996333Y-85909667D01*
X143038666Y-85190000D01*
X143059776Y-84863817D01*
X143085710Y-84639858D01*
X143126719Y-84518450D01*
X143195110Y-84464914D01*
X143303189Y-84444570D01*
X143461368Y-84447995D01*
X143640455Y-84550755D01*
X143758490Y-84785608D01*
X143827458Y-85169118D01*
X143844658Y-85326318D01*
X143888748Y-85626187D01*
X143945765Y-85811607D01*
X144031594Y-85921833D01*
X144162122Y-85996121D01*
X144204400Y-86019092D01*
X144340970Y-86188699D01*
X144391587Y-86419944D01*
X144351748Y-86646600D01*
X144216950Y-86802440D01*
X144167233Y-86831130D01*
X144094887Y-86901319D01*
X144061345Y-87017815D01*
X144059234Y-87221354D01*
X144081184Y-87552668D01*
X144115731Y-87941653D01*
X144142337Y-88115181D01*
X144157191Y-88212058D01*
G37*
G36*
X125545698Y-89169333D02*
G01*
X125548631Y-89579840D01*
X125551128Y-90389807D01*
X125548468Y-91080469D01*
X125540821Y-91641830D01*
X125528359Y-92063896D01*
X125511251Y-92336673D01*
X125489668Y-92450167D01*
X125460927Y-92474580D01*
X125289876Y-92532743D01*
X125047216Y-92556000D01*
X124957268Y-92555312D01*
X124771055Y-92533994D01*
X124681255Y-92455850D01*
X124632957Y-92284950D01*
X124631140Y-92275089D01*
X124615066Y-92075787D01*
X124609069Y-91753426D01*
X124613303Y-91350404D01*
X124627924Y-90909117D01*
X124638821Y-90619853D01*
X124643921Y-90147869D01*
X124626541Y-89831681D01*
X124586884Y-89677333D01*
X124572669Y-89657674D01*
X124493343Y-89592991D01*
X124413326Y-89677333D01*
X124402796Y-89694019D01*
X124296869Y-89895258D01*
X124152075Y-90206592D01*
X123986319Y-90585351D01*
X123817507Y-90988864D01*
X123749573Y-91159000D01*
X123663543Y-91374459D01*
X123619016Y-91493853D01*
X123542333Y-91699466D01*
X123471781Y-91921213D01*
X123439537Y-92029371D01*
X123333137Y-92260940D01*
X123216722Y-92391989D01*
X123015218Y-92456583D01*
X122760372Y-92485170D01*
X122525436Y-92474382D01*
X122382148Y-92421668D01*
X122364930Y-92356018D01*
X122345807Y-92136760D01*
X122340407Y-92012370D01*
X122504588Y-92012370D01*
X122511391Y-92139771D01*
X122545322Y-92173461D01*
X122690593Y-92217333D01*
X122734915Y-92210895D01*
X122792632Y-92128240D01*
X122787264Y-91921000D01*
X122784765Y-91898340D01*
X122789024Y-91690812D01*
X122862668Y-91624667D01*
X122951687Y-91590543D01*
X122958968Y-91493853D01*
X122855128Y-91404915D01*
X122836387Y-91394548D01*
X122790040Y-91315426D01*
X122765864Y-91159000D01*
X122803333Y-91159000D01*
X122845666Y-91201333D01*
X122888000Y-91159000D01*
X122845666Y-91116667D01*
X122803333Y-91159000D01*
X122765864Y-91159000D01*
X122763935Y-91146516D01*
X122755554Y-90861460D01*
X122762381Y-90433903D01*
X122766418Y-90112427D01*
X122759346Y-89810209D01*
X122741357Y-89613084D01*
X122714204Y-89553091D01*
X122686853Y-89643738D01*
X122663698Y-89870646D01*
X122648399Y-90198052D01*
X122643356Y-90590824D01*
X122638246Y-90955678D01*
X122619709Y-91339670D01*
X122590709Y-91643591D01*
X122554465Y-91822836D01*
X122504588Y-92012370D01*
X122340407Y-92012370D01*
X122329594Y-91763312D01*
X122316259Y-91233515D01*
X122305770Y-90545207D01*
X122298097Y-89696229D01*
X122293295Y-88702572D01*
X122654989Y-88702572D01*
X122667934Y-88974573D01*
X122695248Y-89176741D01*
X122730685Y-89254000D01*
X122756968Y-89240438D01*
X122753473Y-89137917D01*
X122755275Y-89037741D01*
X122846845Y-88883917D01*
X122914790Y-88793772D01*
X122894047Y-88746000D01*
X122830084Y-88673138D01*
X122803333Y-88496997D01*
X122781363Y-88310946D01*
X122724980Y-88199569D01*
X122687419Y-88240649D01*
X122661366Y-88418160D01*
X122654989Y-88702572D01*
X122293295Y-88702572D01*
X122293207Y-88684419D01*
X122291071Y-87507619D01*
X122291657Y-86163667D01*
X122292970Y-85952668D01*
X122302413Y-85520337D01*
X122319376Y-85158615D01*
X122342030Y-84900406D01*
X122368551Y-84778613D01*
X122466203Y-84704857D01*
X122678408Y-84640101D01*
X122928615Y-84612490D01*
X123150848Y-84628198D01*
X123279133Y-84693399D01*
X123329171Y-84845353D01*
X123356030Y-85177280D01*
X123345085Y-85665400D01*
X123296283Y-86304823D01*
X123267501Y-86663627D01*
X123262253Y-86988327D01*
X123296405Y-87186175D01*
X123374570Y-87279337D01*
X123501364Y-87289976D01*
X123592131Y-87238754D01*
X123710290Y-87075153D01*
X123847503Y-86786916D01*
X124010050Y-86360577D01*
X124204210Y-85782667D01*
X124357773Y-85380959D01*
X124582535Y-84986216D01*
X124830298Y-84733169D01*
X125091397Y-84630994D01*
X125356167Y-84688869D01*
X125419216Y-84735878D01*
X125477580Y-84848892D01*
X125506797Y-85051533D01*
X125515996Y-85383479D01*
X125517388Y-85597463D01*
X125520059Y-85963567D01*
X125523795Y-86452775D01*
X125528413Y-87041521D01*
X125533725Y-87706239D01*
X125539549Y-88423365D01*
X125542602Y-88793772D01*
X125545698Y-89169333D01*
G37*
G36*
X128427543Y-85569024D02*
G01*
X128437619Y-85854839D01*
X128438577Y-86255679D01*
X128432619Y-86798667D01*
X128428711Y-87179873D01*
X128430238Y-87643880D01*
X128441298Y-87944401D01*
X128447983Y-87989637D01*
X128462053Y-88084856D01*
X128492664Y-88068667D01*
X128512722Y-87986527D01*
X128540436Y-87737406D01*
X128556271Y-87395757D01*
X128557252Y-87010333D01*
X128554763Y-86863704D01*
X128549643Y-86380556D01*
X128548238Y-85894945D01*
X128550908Y-85492741D01*
X128560666Y-84821816D01*
X128763699Y-85012555D01*
X128818384Y-85066095D01*
X128894329Y-85156310D01*
X128956078Y-85264701D01*
X129004440Y-85406373D01*
X129040222Y-85596429D01*
X129064231Y-85849976D01*
X129077275Y-86182117D01*
X129080160Y-86607957D01*
X129073695Y-87142600D01*
X129058687Y-87801153D01*
X129035944Y-88598719D01*
X129011253Y-89390646D01*
X129006272Y-89550402D01*
X128941666Y-91582472D01*
X128645777Y-91950389D01*
X128525695Y-92090185D01*
X128312389Y-92303723D01*
X128137777Y-92439242D01*
X128042610Y-92479029D01*
X127745014Y-92526132D01*
X127382380Y-92518723D01*
X127019143Y-92460604D01*
X126719740Y-92355575D01*
X126632503Y-92300130D01*
X126417139Y-92066345D01*
X126198011Y-91683444D01*
X125936000Y-91145618D01*
X125936000Y-89958768D01*
X127077088Y-89958768D01*
X127083224Y-90398565D01*
X127097335Y-90715968D01*
X127119714Y-90924776D01*
X127150655Y-91038793D01*
X127229857Y-91152941D01*
X127431414Y-91267209D01*
X127653937Y-91245875D01*
X127841669Y-91085194D01*
X127866732Y-91040821D01*
X127903618Y-90936615D01*
X127932313Y-90782143D01*
X127954022Y-90557561D01*
X127969953Y-90243025D01*
X127981311Y-89818690D01*
X127988562Y-89316100D01*
X128229209Y-89316100D01*
X128285500Y-89337370D01*
X128306732Y-89342394D01*
X128370286Y-89463419D01*
X128392630Y-89740833D01*
X128396171Y-89863163D01*
X128422684Y-90108035D01*
X128466341Y-90257271D01*
X128492955Y-90238969D01*
X128516160Y-90077485D01*
X128530537Y-89787513D01*
X128534392Y-89390646D01*
X128533941Y-89319054D01*
X128525826Y-88927937D01*
X128510364Y-88645528D01*
X128490007Y-88483936D01*
X128467202Y-88455273D01*
X128444400Y-88571651D01*
X128424052Y-88845179D01*
X128417830Y-88919228D01*
X128368584Y-89140176D01*
X128292934Y-89264279D01*
X128229209Y-89316100D01*
X127988562Y-89316100D01*
X127989303Y-89264713D01*
X127995137Y-88561249D01*
X127997651Y-87989637D01*
X127994978Y-87304093D01*
X127983003Y-86761044D01*
X127959599Y-86344743D01*
X127922635Y-86039444D01*
X127869984Y-85829401D01*
X127799516Y-85698865D01*
X127709103Y-85632092D01*
X127596616Y-85613333D01*
X127499199Y-85614848D01*
X127392770Y-85630378D01*
X127309132Y-85677167D01*
X127245083Y-85772470D01*
X127197424Y-85933544D01*
X127162956Y-86177646D01*
X127138479Y-86522032D01*
X127120793Y-86983958D01*
X127106699Y-87580682D01*
X127092996Y-88329459D01*
X127087564Y-88656785D01*
X127078632Y-89382775D01*
X127077088Y-89958768D01*
X125936000Y-89958768D01*
X125936000Y-88381890D01*
X125936144Y-87767767D01*
X125937415Y-87130733D01*
X125941082Y-86627119D01*
X125948413Y-86236906D01*
X125960677Y-85940076D01*
X125979143Y-85716611D01*
X126005077Y-85546491D01*
X126020325Y-85486333D01*
X128306666Y-85486333D01*
X128349000Y-85528667D01*
X128391333Y-85486333D01*
X128349000Y-85444000D01*
X128306666Y-85486333D01*
X126020325Y-85486333D01*
X126039749Y-85409699D01*
X126084427Y-85286216D01*
X126140379Y-85156023D01*
X126280712Y-84886169D01*
X126498953Y-84636736D01*
X126795021Y-84480798D01*
X127213352Y-84386487D01*
X127518269Y-84368627D01*
X127903831Y-84455753D01*
X127964384Y-84480024D01*
X128151553Y-84540114D01*
X128245363Y-84545748D01*
X128283293Y-84545830D01*
X128383726Y-84630500D01*
X128397259Y-84647374D01*
X128428130Y-84743988D01*
X128309735Y-84808026D01*
X128294108Y-84813004D01*
X128190365Y-84859102D01*
X128191324Y-84933266D01*
X128293909Y-85090313D01*
X128320588Y-85130524D01*
X128371230Y-85233988D01*
X128406148Y-85371114D01*
X128418604Y-85486333D01*
X128427543Y-85569024D01*
G37*
G36*
X132440241Y-88579723D02*
G01*
X132500292Y-88831494D01*
X132569846Y-88915333D01*
X132570922Y-88916630D01*
X132608418Y-88928591D01*
X132552315Y-88990597D01*
X132515395Y-89041512D01*
X132463816Y-89224764D01*
X132430208Y-89478562D01*
X132418639Y-89743808D01*
X132421739Y-89790222D01*
X132433174Y-89961409D01*
X132438117Y-89973667D01*
X132477881Y-90072269D01*
X132489353Y-90081012D01*
X132501434Y-90179237D01*
X132499949Y-90181977D01*
X132480276Y-90274997D01*
X132474179Y-90303826D01*
X132455057Y-90467555D01*
X132446278Y-90542721D01*
X132422032Y-90849802D01*
X132415015Y-90965532D01*
X132406316Y-91241444D01*
X132426985Y-91411316D01*
X132488014Y-91522851D01*
X132600397Y-91623749D01*
X132816836Y-91794000D01*
X132589544Y-91794000D01*
X132511439Y-91796257D01*
X132412904Y-91831995D01*
X132440055Y-91933025D01*
X132473290Y-92023250D01*
X132476721Y-92229359D01*
X132466121Y-92260115D01*
X132351206Y-92368391D01*
X132198009Y-92370297D01*
X132086049Y-92259667D01*
X132075817Y-92193773D01*
X132140490Y-92131370D01*
X132195080Y-92119358D01*
X132133826Y-92060396D01*
X132068405Y-91988027D01*
X132141225Y-91893419D01*
X132174738Y-91850284D01*
X132240397Y-91660724D01*
X132273286Y-91404268D01*
X132279741Y-91289367D01*
X132306706Y-91057080D01*
X132342469Y-90924461D01*
X132357825Y-90886875D01*
X132299082Y-90896915D01*
X132247195Y-90953868D01*
X132213819Y-91074333D01*
X132201333Y-91119398D01*
X132199989Y-91151154D01*
X132130057Y-91414195D01*
X131981849Y-91715828D01*
X131794101Y-91988179D01*
X131605546Y-92163375D01*
X131573226Y-92180925D01*
X131265820Y-92270691D01*
X130833603Y-92301683D01*
X130556507Y-92288597D01*
X130144871Y-92191719D01*
X129842805Y-91990041D01*
X129626677Y-91671219D01*
X129619678Y-91656206D01*
X129504596Y-91309485D01*
X129438703Y-90914296D01*
X129428874Y-90538219D01*
X129481983Y-90248833D01*
X129488628Y-90232023D01*
X129569852Y-90091927D01*
X129700763Y-90029961D01*
X129940710Y-90016000D01*
X130308945Y-90016000D01*
X130387306Y-90537266D01*
X130387790Y-90540480D01*
X130468478Y-90907918D01*
X130583377Y-91120682D01*
X130745307Y-91191992D01*
X130967091Y-91135068D01*
X131100389Y-91074333D01*
X131693333Y-91074333D01*
X131735666Y-91116667D01*
X131778000Y-91074333D01*
X131735666Y-91032000D01*
X131693333Y-91074333D01*
X131100389Y-91074333D01*
X131185333Y-91035630D01*
X131185333Y-90493022D01*
X131708310Y-90493022D01*
X131778000Y-90524000D01*
X131822822Y-90517890D01*
X131834444Y-90467555D01*
X131822035Y-90457422D01*
X131721555Y-90467555D01*
X131708310Y-90493022D01*
X131185333Y-90493022D01*
X131185333Y-90135870D01*
X131739777Y-90135870D01*
X131745695Y-90223269D01*
X131773024Y-90284814D01*
X131835458Y-90351925D01*
X131862666Y-90274997D01*
X131859658Y-90252000D01*
X131778970Y-90143599D01*
X131739777Y-90135870D01*
X131185333Y-90135870D01*
X131185333Y-89973667D01*
X131693333Y-89973667D01*
X131735666Y-90016000D01*
X131778000Y-89973667D01*
X131735666Y-89931333D01*
X131693333Y-89973667D01*
X131185333Y-89973667D01*
X131185333Y-89815688D01*
X131708310Y-89815688D01*
X131778000Y-89846667D01*
X131822822Y-89840556D01*
X131834444Y-89790222D01*
X131822035Y-89780089D01*
X131721555Y-89790222D01*
X131708310Y-89815688D01*
X131185333Y-89815688D01*
X131185333Y-88871298D01*
X131711422Y-88871298D01*
X131721555Y-88971778D01*
X131747022Y-88985023D01*
X131778000Y-88915333D01*
X131771890Y-88870511D01*
X131721555Y-88858889D01*
X131711422Y-88871298D01*
X131185333Y-88871298D01*
X131185333Y-88470321D01*
X131185306Y-88449667D01*
X131524000Y-88449667D01*
X131566333Y-88492000D01*
X131608666Y-88449667D01*
X131566333Y-88407333D01*
X131524000Y-88449667D01*
X131185306Y-88449667D01*
X131184401Y-87770238D01*
X131180789Y-87167239D01*
X131173614Y-86698060D01*
X131161997Y-86344339D01*
X131145059Y-86087716D01*
X131121922Y-85909832D01*
X131091706Y-85792327D01*
X131053532Y-85716839D01*
X130945442Y-85601556D01*
X130768485Y-85546576D01*
X130604211Y-85632293D01*
X130476297Y-85842418D01*
X130408419Y-86160662D01*
X130405538Y-86194497D01*
X130369618Y-86399302D01*
X130279409Y-86500257D01*
X130087350Y-86555915D01*
X129829035Y-86584710D01*
X129627939Y-86522774D01*
X129522681Y-86338360D01*
X129492521Y-86012521D01*
X129498943Y-85863625D01*
X129544577Y-85558169D01*
X129619521Y-85328489D01*
X129619997Y-85327577D01*
X129709003Y-85124343D01*
X129746000Y-84975561D01*
X129791157Y-84859582D01*
X129969309Y-84716666D01*
X130244481Y-84595708D01*
X130575465Y-84507037D01*
X130921056Y-84460984D01*
X131240045Y-84467879D01*
X131491225Y-84538051D01*
X131688163Y-84660416D01*
X131922155Y-84894629D01*
X132095512Y-85211577D01*
X132215749Y-85632215D01*
X132290380Y-86177495D01*
X132326920Y-86868372D01*
X132353015Y-87585814D01*
X132391054Y-88163701D01*
X132424864Y-88449667D01*
X132440241Y-88579723D01*
G37*
G36*
X140555030Y-87124378D02*
G01*
X140617993Y-87327833D01*
X140622603Y-87363310D01*
X140639771Y-87583881D01*
X140656867Y-87925959D01*
X140673380Y-88363111D01*
X140688804Y-88868908D01*
X140702630Y-89416916D01*
X140714349Y-89980706D01*
X140723454Y-90533845D01*
X140729435Y-91049903D01*
X140731786Y-91502447D01*
X140729997Y-91865047D01*
X140723561Y-92111271D01*
X140711968Y-92214688D01*
X140704273Y-92223602D01*
X140568674Y-92269184D01*
X140314175Y-92295773D01*
X139983359Y-92304244D01*
X139618805Y-92295470D01*
X139263096Y-92270325D01*
X138958813Y-92229681D01*
X138748536Y-92174413D01*
X138533613Y-92062718D01*
X138236583Y-91800412D01*
X138074817Y-91484583D01*
X138064309Y-91415022D01*
X138052334Y-91178836D01*
X138051455Y-90847779D01*
X138059526Y-90566333D01*
X138382000Y-90566333D01*
X138424333Y-90608667D01*
X138466666Y-90566333D01*
X138424333Y-90524000D01*
X138382000Y-90566333D01*
X138059526Y-90566333D01*
X138062274Y-90470502D01*
X138065289Y-90402439D01*
X138074535Y-90227667D01*
X138636000Y-90227667D01*
X138678333Y-90270000D01*
X138720666Y-90227667D01*
X138678333Y-90185333D01*
X138636000Y-90227667D01*
X138074535Y-90227667D01*
X138084070Y-90047420D01*
X138107754Y-89824134D01*
X138114273Y-89802631D01*
X138400089Y-89802631D01*
X138410222Y-89903111D01*
X138435688Y-89916357D01*
X138466666Y-89846667D01*
X138460556Y-89801844D01*
X138410222Y-89790222D01*
X138400089Y-89802631D01*
X138114273Y-89802631D01*
X138145370Y-89700054D01*
X138205945Y-89642649D01*
X138298510Y-89619392D01*
X138382533Y-89604684D01*
X138521973Y-89559856D01*
X138498793Y-89523185D01*
X138311444Y-89508000D01*
X138043333Y-89508000D01*
X138043333Y-89127000D01*
X138382000Y-89127000D01*
X138424333Y-89169333D01*
X138466666Y-89127000D01*
X138424333Y-89084667D01*
X138382000Y-89127000D01*
X138043333Y-89127000D01*
X138043333Y-88746000D01*
X138044899Y-88546522D01*
X138060304Y-88220865D01*
X138094218Y-88037241D01*
X138149166Y-87977316D01*
X138211558Y-87966180D01*
X138149166Y-87927927D01*
X138116174Y-87898324D01*
X138062223Y-87719230D01*
X138043333Y-87402295D01*
X138045916Y-87204311D01*
X138066508Y-87017671D01*
X138071114Y-87010333D01*
X138720666Y-87010333D01*
X138763000Y-87052667D01*
X138805333Y-87010333D01*
X138763000Y-86968000D01*
X138720666Y-87010333D01*
X138071114Y-87010333D01*
X138120340Y-86931910D01*
X138222237Y-86905892D01*
X138333622Y-86890505D01*
X138441634Y-86851921D01*
X138457036Y-86825138D01*
X138443244Y-86686717D01*
X138362237Y-86527724D01*
X138310070Y-86481167D01*
X138587906Y-86481167D01*
X138609837Y-86612698D01*
X138632708Y-86798667D01*
X138632823Y-86800168D01*
X138668642Y-86841076D01*
X138753397Y-86724732D01*
X138864793Y-86523798D01*
X138918574Y-86724732D01*
X138925010Y-86762141D01*
X138940230Y-86963133D01*
X138942108Y-87010333D01*
X138953424Y-87294786D01*
X138963858Y-87729416D01*
X138970798Y-88239338D01*
X138973510Y-88796866D01*
X138975700Y-89127000D01*
X138977442Y-89389566D01*
X138987201Y-89846667D01*
X138989666Y-89962147D01*
X139000989Y-90227667D01*
X139009336Y-90423404D01*
X139020691Y-90566333D01*
X139035603Y-90754026D01*
X139067616Y-90934699D01*
X139117881Y-91057096D01*
X139231417Y-91173747D01*
X139434505Y-91201333D01*
X139445129Y-91201296D01*
X139646730Y-91186050D01*
X139758282Y-91151496D01*
X139766397Y-91112309D01*
X139776275Y-90926088D01*
X139781688Y-90609490D01*
X139782500Y-90186720D01*
X139778573Y-89681986D01*
X139769772Y-89119496D01*
X139731425Y-87137333D01*
X139920313Y-87137333D01*
X139947872Y-87137025D01*
X140050964Y-87112946D01*
X140007600Y-87035733D01*
X139951744Y-86954394D01*
X139895983Y-86760567D01*
X139891577Y-86714389D01*
X139866457Y-86696240D01*
X139818981Y-86841000D01*
X139801367Y-86906503D01*
X139769581Y-86998177D01*
X139758326Y-86945145D01*
X139760885Y-86735167D01*
X139767401Y-86611228D01*
X139810440Y-86427728D01*
X139901386Y-86369382D01*
X139961243Y-86349714D01*
X139863666Y-86297468D01*
X139739875Y-86193363D01*
X139651168Y-85985919D01*
X139628751Y-85887055D01*
X139542845Y-85768346D01*
X139354835Y-85740333D01*
X139252863Y-85746685D01*
X139097630Y-85820712D01*
X138980554Y-86015500D01*
X138851133Y-86214240D01*
X138705918Y-86290667D01*
X138596117Y-86330855D01*
X138587906Y-86481167D01*
X138310070Y-86481167D01*
X138249818Y-86427394D01*
X138231961Y-86420863D01*
X138165700Y-86424354D01*
X138209157Y-86538109D01*
X138250310Y-86662198D01*
X138179638Y-86741047D01*
X138118402Y-86729650D01*
X138050164Y-86598536D01*
X138009963Y-86367509D01*
X138000751Y-86076869D01*
X138025480Y-85766919D01*
X138087104Y-85477961D01*
X138170628Y-85243199D01*
X138297840Y-85025569D01*
X138477961Y-84876892D01*
X138740024Y-84782445D01*
X139113059Y-84727500D01*
X139626098Y-84697332D01*
X140583333Y-84660692D01*
X140583333Y-85515355D01*
X140580880Y-85900418D01*
X140570025Y-86146656D01*
X140545581Y-86279728D01*
X140502358Y-86327779D01*
X140435166Y-86318952D01*
X140379004Y-86300774D01*
X140345936Y-86306702D01*
X140447685Y-86393128D01*
X140533149Y-86463056D01*
X140552875Y-86522548D01*
X140426519Y-86565925D01*
X140394666Y-86576727D01*
X140273442Y-86689394D01*
X140234190Y-86848743D01*
X140279050Y-86991068D01*
X140410163Y-87052667D01*
X140435744Y-87053855D01*
X140535693Y-87112946D01*
X140555030Y-87124378D01*
G37*
G36*
X121561389Y-85007061D02*
G01*
X121492044Y-85104467D01*
X121484864Y-85110572D01*
X121375368Y-85289753D01*
X121398494Y-85474625D01*
X121547224Y-85601902D01*
X121710151Y-85745169D01*
X121840797Y-86043410D01*
X121878950Y-86187204D01*
X121897554Y-86410041D01*
X121814064Y-86535274D01*
X121607822Y-86581477D01*
X121258166Y-86567225D01*
X120771333Y-86523698D01*
X120771333Y-86116554D01*
X120784110Y-85861294D01*
X120834811Y-85721285D01*
X120940834Y-85655613D01*
X120977687Y-85642330D01*
X121069562Y-85553571D01*
X121056122Y-85374741D01*
X120990435Y-85152562D01*
X120879204Y-84931248D01*
X120824232Y-84893667D01*
X121025333Y-84893667D01*
X121067666Y-84936000D01*
X121110000Y-84893667D01*
X121067666Y-84851333D01*
X121025333Y-84893667D01*
X120824232Y-84893667D01*
X120762307Y-84851333D01*
X120737223Y-84882582D01*
X120807619Y-84984381D01*
X120826795Y-85005487D01*
X120913353Y-85179306D01*
X120940412Y-85379493D01*
X120907380Y-85544638D01*
X120813666Y-85613333D01*
X120754979Y-85601899D01*
X120686666Y-85512957D01*
X120686600Y-85510216D01*
X120629693Y-85380544D01*
X120498385Y-85212164D01*
X120429574Y-85134484D01*
X120368107Y-85016820D01*
X120424075Y-84941310D01*
X120443812Y-84914895D01*
X120354780Y-84882507D01*
X120122498Y-84870872D01*
X119706950Y-84870872D01*
X119740058Y-85154469D01*
X119741121Y-85163078D01*
X119783589Y-85311042D01*
X119806074Y-85389384D01*
X119912417Y-85542783D01*
X119948262Y-85569466D01*
X120007167Y-85604728D01*
X119945833Y-85528817D01*
X119879578Y-85442631D01*
X119851794Y-85318745D01*
X119967000Y-85274667D01*
X120025503Y-85264521D01*
X120094000Y-85185003D01*
X120081080Y-85149639D01*
X119988166Y-85156244D01*
X119940881Y-85178145D01*
X119952889Y-85140074D01*
X120024615Y-85084644D01*
X120191325Y-85088026D01*
X120408810Y-85242042D01*
X120449144Y-85280593D01*
X120575472Y-85431377D01*
X120588930Y-85512214D01*
X120483229Y-85501207D01*
X120374218Y-85481740D01*
X120207985Y-85568161D01*
X120090194Y-85802482D01*
X120028454Y-86173456D01*
X120022325Y-86268853D01*
X120022496Y-86545244D01*
X120069347Y-86735555D01*
X120175722Y-86903459D01*
X120381460Y-87086832D01*
X120620581Y-87203124D01*
X120680963Y-87219390D01*
X120796365Y-87268756D01*
X120860514Y-87360280D01*
X120892870Y-87536302D01*
X120912893Y-87839165D01*
X120936486Y-88280333D01*
X120943278Y-88407333D01*
X120684124Y-88407333D01*
X120539614Y-88421925D01*
X120269940Y-88561609D01*
X120232180Y-88619000D01*
X120082658Y-88846254D01*
X120035747Y-89042333D01*
X119980755Y-89272192D01*
X119964427Y-89721580D01*
X120027451Y-90079923D01*
X120163669Y-90320735D01*
X120286165Y-90382889D01*
X120366213Y-90423505D01*
X120405610Y-90427745D01*
X120511946Y-90425639D01*
X120585145Y-90375064D01*
X120639733Y-90246269D01*
X120690238Y-90009499D01*
X120751185Y-89635000D01*
X120817504Y-89211667D01*
X121279339Y-89155069D01*
X121467440Y-89135896D01*
X121691457Y-89125574D01*
X121804877Y-89137843D01*
X121829888Y-89202061D01*
X121835974Y-89398821D01*
X121815399Y-89679676D01*
X121773377Y-89997998D01*
X121715121Y-90307156D01*
X121645842Y-90560519D01*
X121463783Y-90946330D01*
X121168214Y-91342908D01*
X120825026Y-91631558D01*
X120541755Y-91756516D01*
X120174962Y-91773766D01*
X119773127Y-91633676D01*
X119581574Y-91525670D01*
X119335204Y-91323389D01*
X119151947Y-91053347D01*
X118991188Y-90665245D01*
X118928425Y-90408355D01*
X119008310Y-90408355D01*
X119078000Y-90439333D01*
X119122822Y-90433223D01*
X119134444Y-90382889D01*
X119122035Y-90372756D01*
X119021555Y-90382889D01*
X119008310Y-90408355D01*
X118928425Y-90408355D01*
X118863834Y-90143982D01*
X118839046Y-89454287D01*
X118912525Y-89042333D01*
X119162666Y-89042333D01*
X119205000Y-89084667D01*
X119247333Y-89042333D01*
X119205000Y-89000000D01*
X119162666Y-89042333D01*
X118912525Y-89042333D01*
X118963056Y-88759031D01*
X119006458Y-88617298D01*
X119180756Y-88617298D01*
X119190889Y-88717778D01*
X119216355Y-88731023D01*
X119247333Y-88661333D01*
X119241562Y-88619000D01*
X119416666Y-88619000D01*
X119459000Y-88661333D01*
X119501333Y-88619000D01*
X119459000Y-88576667D01*
X119416666Y-88619000D01*
X119241562Y-88619000D01*
X119241223Y-88616511D01*
X119190889Y-88604889D01*
X119180756Y-88617298D01*
X119006458Y-88617298D01*
X119013399Y-88594630D01*
X119137645Y-88280333D01*
X119162666Y-88280333D01*
X119205000Y-88322667D01*
X119247333Y-88280333D01*
X119205000Y-88238000D01*
X119162666Y-88280333D01*
X119137645Y-88280333D01*
X119164702Y-88211889D01*
X119328372Y-87971167D01*
X119516863Y-87852071D01*
X119546069Y-87842649D01*
X119631257Y-87798582D01*
X119612388Y-87724597D01*
X119483887Y-87573603D01*
X119259965Y-87312797D01*
X119124531Y-87107031D01*
X119054095Y-86904752D01*
X119019836Y-86648502D01*
X119012670Y-86557687D01*
X119003070Y-85849218D01*
X119083804Y-85260310D01*
X119095869Y-85227458D01*
X119281957Y-85227458D01*
X119296288Y-85388004D01*
X119367438Y-85424197D01*
X119532635Y-85369886D01*
X119551570Y-85362327D01*
X119634050Y-85311042D01*
X119615934Y-85231341D01*
X119490301Y-85075027D01*
X119289666Y-84842381D01*
X119283314Y-85143190D01*
X119281957Y-85227458D01*
X119095869Y-85227458D01*
X119252819Y-84800083D01*
X119508064Y-84477662D01*
X119529788Y-84459646D01*
X119721741Y-84334295D01*
X119940764Y-84274150D01*
X120257126Y-84258667D01*
X120274538Y-84258694D01*
X120595869Y-84278163D01*
X120835732Y-84350109D01*
X121076130Y-84498551D01*
X121103570Y-84518552D01*
X121381946Y-84735657D01*
X121529621Y-84891309D01*
X121530268Y-84893667D01*
X121561389Y-85007061D01*
G37*
G36*
X153644424Y-128537630D02*
G01*
X153702812Y-128670067D01*
X153770047Y-128816109D01*
X153847681Y-128979258D01*
X153937264Y-129163020D01*
X154040347Y-129370897D01*
X154075239Y-129441161D01*
X154094679Y-129480990D01*
X154147425Y-129589060D01*
X154158150Y-129611035D01*
X154235230Y-129773073D01*
X154304664Y-129923304D01*
X154364633Y-130057755D01*
X154413319Y-130172456D01*
X154448905Y-130263436D01*
X154461125Y-130295197D01*
X154484942Y-130340873D01*
X154510886Y-130359574D01*
X154544841Y-130353874D01*
X154592690Y-130326346D01*
X154605975Y-130316339D01*
X154652400Y-130264237D01*
X154697348Y-130188730D01*
X154711375Y-130159684D01*
X154728729Y-130117434D01*
X154741985Y-130072594D01*
X154752757Y-130017968D01*
X154762662Y-129946364D01*
X154773316Y-129850588D01*
X154783579Y-129751610D01*
X154793225Y-129660064D01*
X154801093Y-129595461D01*
X154808320Y-129555472D01*
X154816044Y-129537770D01*
X154825402Y-129540029D01*
X154837533Y-129559920D01*
X154853575Y-129595117D01*
X154874665Y-129643293D01*
X154939547Y-129775078D01*
X155018584Y-129900355D01*
X155102369Y-129996157D01*
X155191999Y-130063485D01*
X155288574Y-130103343D01*
X155393189Y-130116731D01*
X155444919Y-130112428D01*
X155540953Y-130085449D01*
X155651728Y-130033252D01*
X155778514Y-129955305D01*
X155785130Y-129950887D01*
X155830243Y-129922763D01*
X155863104Y-129905682D01*
X155876996Y-129903201D01*
X155876691Y-129907682D01*
X155866984Y-129936477D01*
X155846338Y-129986581D01*
X155817035Y-130053153D01*
X155781357Y-130131352D01*
X155741584Y-130216335D01*
X155699998Y-130303261D01*
X155658879Y-130387288D01*
X155646464Y-130411973D01*
X155620510Y-130463575D01*
X155587170Y-130527281D01*
X155571673Y-130554838D01*
X155561143Y-130573563D01*
X155556316Y-130581649D01*
X155522781Y-130642636D01*
X155505976Y-130683673D01*
X155506993Y-130702169D01*
X155512114Y-130704035D01*
X155544194Y-130708701D01*
X155596238Y-130712275D01*
X155659848Y-130714102D01*
X155704004Y-130714286D01*
X155760882Y-130711744D01*
X155806711Y-130703118D01*
X155854281Y-130685513D01*
X155916380Y-130656033D01*
X155952208Y-130637189D01*
X155999625Y-130608046D01*
X156049337Y-130571851D01*
X156104432Y-130525852D01*
X156168000Y-130467294D01*
X156243128Y-130393424D01*
X156332904Y-130301487D01*
X156440417Y-130188730D01*
X156521549Y-130102824D01*
X156618687Y-129999162D01*
X156698608Y-129912376D01*
X156764038Y-129839125D01*
X156817703Y-129776066D01*
X156862328Y-129719859D01*
X156900640Y-129667162D01*
X156935365Y-129614634D01*
X156969228Y-129558933D01*
X157001717Y-129502356D01*
X157361770Y-129502356D01*
X157371513Y-129532860D01*
X157374922Y-129537948D01*
X157390157Y-129570392D01*
X157405940Y-129614674D01*
X157406696Y-129617043D01*
X157420334Y-129653533D01*
X157444334Y-129712503D01*
X157476349Y-129788378D01*
X157514030Y-129875584D01*
X157555027Y-129968544D01*
X157555385Y-129969346D01*
X157598546Y-130066486D01*
X157640621Y-130161657D01*
X157678669Y-130248173D01*
X157709749Y-130319348D01*
X157730922Y-130368497D01*
X157760875Y-130432629D01*
X157787801Y-130473908D01*
X157808832Y-130485082D01*
X157824299Y-130466499D01*
X157826014Y-130460073D01*
X157823961Y-130432160D01*
X157812959Y-130404601D01*
X157798260Y-130387515D01*
X157785118Y-130391019D01*
X157782676Y-130392328D01*
X157770269Y-130378766D01*
X157752246Y-130345225D01*
X157731596Y-130299107D01*
X157711307Y-130247811D01*
X157694369Y-130198741D01*
X157683770Y-130159296D01*
X157682498Y-130136880D01*
X157679886Y-130114508D01*
X157666310Y-130069949D01*
X157644389Y-130009607D01*
X157616775Y-129939798D01*
X157586121Y-129866834D01*
X157555083Y-129797031D01*
X157526311Y-129736701D01*
X157502461Y-129692160D01*
X157486185Y-129669721D01*
X157467396Y-129647806D01*
X157440216Y-129604551D01*
X157413045Y-129551764D01*
X157389670Y-129505158D01*
X157371855Y-129480630D01*
X157362966Y-129485678D01*
X157361770Y-129502356D01*
X157001717Y-129502356D01*
X157004955Y-129496718D01*
X157019717Y-129470722D01*
X157071687Y-129381984D01*
X157118208Y-129306777D01*
X157156941Y-129248656D01*
X157185546Y-129211177D01*
X157201682Y-129197894D01*
X157211562Y-129205914D01*
X157223136Y-129233594D01*
X157237164Y-129265928D01*
X157264159Y-129303711D01*
X157286111Y-129334074D01*
X157296223Y-129363065D01*
X157299990Y-129376015D01*
X157322470Y-129383382D01*
X157337713Y-129387351D01*
X157370149Y-129416698D01*
X157412650Y-129473126D01*
X157422474Y-129486925D01*
X157463575Y-129538471D01*
X157519205Y-129602566D01*
X157583311Y-129672373D01*
X157649840Y-129741054D01*
X157773096Y-129858126D01*
X157907286Y-129970656D01*
X158049472Y-130073934D01*
X158204262Y-130170834D01*
X158376265Y-130264227D01*
X158570088Y-130356985D01*
X158790341Y-130451983D01*
X158810088Y-130460073D01*
X158855007Y-130478476D01*
X158996584Y-130534222D01*
X159120045Y-130578485D01*
X159232496Y-130613112D01*
X159341044Y-130639950D01*
X159452795Y-130660848D01*
X159574857Y-130677652D01*
X159714335Y-130692212D01*
X159733392Y-130694013D01*
X159807597Y-130701502D01*
X159867723Y-130708315D01*
X159908016Y-130713764D01*
X159922725Y-130717161D01*
X159914843Y-130726804D01*
X159878380Y-130745010D01*
X159813609Y-130768377D01*
X159722032Y-130796451D01*
X159605152Y-130828781D01*
X159464469Y-130864912D01*
X159301486Y-130904394D01*
X159213173Y-130925757D01*
X159058327Y-130966726D01*
X158928065Y-131007214D01*
X158817942Y-131049240D01*
X158776029Y-131069473D01*
X158723515Y-131094823D01*
X158640338Y-131145982D01*
X158563966Y-131204738D01*
X158489956Y-131273109D01*
X158470722Y-131292507D01*
X158416706Y-131351802D01*
X158371786Y-131411416D01*
X158331346Y-131478776D01*
X158290770Y-131561310D01*
X158245439Y-131666443D01*
X158243012Y-131672196D01*
X158234054Y-131687565D01*
X158224418Y-131685221D01*
X158210103Y-131661474D01*
X158187109Y-131612633D01*
X158132146Y-131509666D01*
X158044110Y-131394627D01*
X157939180Y-131305893D01*
X157816694Y-131243049D01*
X157675991Y-131205681D01*
X157516409Y-131193375D01*
X157424127Y-131197005D01*
X157257832Y-131222631D01*
X157091367Y-131273877D01*
X156921057Y-131352001D01*
X156743228Y-131458263D01*
X156720639Y-131473567D01*
X156620528Y-131549640D01*
X156521543Y-131636814D01*
X156430303Y-131728540D01*
X156353424Y-131818268D01*
X156297523Y-131899448D01*
X156275333Y-131936073D01*
X156253044Y-131968679D01*
X156240684Y-131981359D01*
X156234511Y-131977416D01*
X156213880Y-131954314D01*
X156186460Y-131917361D01*
X156133223Y-131850528D01*
X156047838Y-131773553D01*
X155955026Y-131719602D01*
X155859542Y-131691234D01*
X155766139Y-131691010D01*
X155749517Y-131694048D01*
X155661039Y-131719810D01*
X155556503Y-131764825D01*
X155433834Y-131830078D01*
X155290960Y-131916551D01*
X155278241Y-131924592D01*
X155113664Y-132024223D01*
X154970231Y-132102280D01*
X154848333Y-132158564D01*
X154748359Y-132192877D01*
X154716507Y-132200240D01*
X154648191Y-132211613D01*
X154588809Y-132216550D01*
X154556412Y-132215346D01*
X154473835Y-132201815D01*
X154388002Y-132176409D01*
X154310482Y-132142959D01*
X154252845Y-132105297D01*
X154230325Y-132083687D01*
X154204025Y-132050068D01*
X154183622Y-132009333D01*
X154168292Y-131957429D01*
X154157207Y-131890300D01*
X154149543Y-131803893D01*
X154144473Y-131694154D01*
X154141172Y-131557027D01*
X154139394Y-131474967D01*
X154133789Y-131330267D01*
X154124580Y-131211068D01*
X154110659Y-131113425D01*
X154096677Y-131056741D01*
X154168393Y-131056741D01*
X154182608Y-131070078D01*
X154195213Y-131077382D01*
X154213623Y-131084719D01*
X154220653Y-131082754D01*
X154240556Y-131072235D01*
X154452149Y-131072235D01*
X154477033Y-131081171D01*
X154526733Y-131084960D01*
X154580340Y-131085201D01*
X154569733Y-131439071D01*
X154567555Y-131515302D01*
X154565291Y-131614559D01*
X154564647Y-131688007D01*
X154565726Y-131739107D01*
X154568634Y-131771322D01*
X154573473Y-131788113D01*
X154580347Y-131792941D01*
X154591630Y-131792058D01*
X154615382Y-131775876D01*
X154622539Y-131735767D01*
X154622531Y-131734135D01*
X154616605Y-131709364D01*
X154596368Y-131709605D01*
X154580449Y-131713043D01*
X154581909Y-131700697D01*
X154587004Y-131682623D01*
X154591580Y-131640286D01*
X154593165Y-131586220D01*
X154594702Y-131544515D01*
X154602359Y-131481717D01*
X154614353Y-131433427D01*
X154620988Y-131410598D01*
X154631802Y-131352049D01*
X154641472Y-131274905D01*
X154649061Y-131187207D01*
X154653629Y-131096996D01*
X154663841Y-131091691D01*
X154697861Y-131087005D01*
X154747431Y-131085201D01*
X154759673Y-131085085D01*
X154812886Y-131081056D01*
X154845291Y-131072418D01*
X154847318Y-131069473D01*
X154921362Y-131069473D01*
X154924024Y-131076708D01*
X154944954Y-131085201D01*
X154955807Y-131083426D01*
X154968545Y-131069473D01*
X155023592Y-131069473D01*
X155026811Y-131073768D01*
X155048111Y-131085201D01*
X155051622Y-131084751D01*
X155062910Y-131069473D01*
X155059910Y-131061957D01*
X155038391Y-131053746D01*
X155027157Y-131056009D01*
X155023592Y-131069473D01*
X154968545Y-131069473D01*
X154965884Y-131062238D01*
X154944954Y-131053746D01*
X154934101Y-131055520D01*
X154929349Y-131060725D01*
X154921362Y-131069473D01*
X154847318Y-131069473D01*
X154853341Y-131060725D01*
X154833484Y-131047530D01*
X154822863Y-131044738D01*
X154783268Y-131039923D01*
X154732982Y-131038018D01*
X154657268Y-131038018D01*
X154645299Y-130908266D01*
X154644112Y-130894981D01*
X154639134Y-130827217D01*
X154636334Y-130767482D01*
X154636291Y-130727399D01*
X154636483Y-130723352D01*
X154634077Y-130689978D01*
X154625584Y-130676284D01*
X154619045Y-130689301D01*
X154610304Y-130727762D01*
X154600847Y-130785540D01*
X154591833Y-130856458D01*
X154571752Y-131036631D01*
X154501194Y-131047212D01*
X154484460Y-131050192D01*
X154453990Y-131060969D01*
X154453215Y-131065713D01*
X154452149Y-131072235D01*
X154240556Y-131072235D01*
X154244637Y-131070078D01*
X154247476Y-131068251D01*
X154253387Y-131061609D01*
X154276533Y-131061609D01*
X154284397Y-131069473D01*
X154292260Y-131061609D01*
X154290622Y-131059971D01*
X154375158Y-131059971D01*
X154375232Y-131061609D01*
X154375401Y-131065340D01*
X154395800Y-131068232D01*
X154411259Y-131065713D01*
X154405302Y-131058729D01*
X154396207Y-131056217D01*
X154375158Y-131059971D01*
X154290622Y-131059971D01*
X154284397Y-131053746D01*
X154282483Y-131055660D01*
X154276533Y-131061609D01*
X154253387Y-131061609D01*
X154258682Y-131055660D01*
X154240705Y-131045045D01*
X154224582Y-131041366D01*
X154186540Y-131045045D01*
X154183209Y-131046351D01*
X154168393Y-131056741D01*
X154096677Y-131056741D01*
X154090918Y-131033394D01*
X154064252Y-130967029D01*
X154029551Y-130910385D01*
X153985710Y-130859517D01*
X153931619Y-130810480D01*
X153867464Y-130762463D01*
X153742454Y-130696011D01*
X153608357Y-130658384D01*
X153464445Y-130649571D01*
X153309994Y-130669560D01*
X153144277Y-130718341D01*
X152966569Y-130795903D01*
X152928536Y-130814747D01*
X152874960Y-130840637D01*
X152836434Y-130858411D01*
X152819460Y-130865015D01*
X152819735Y-130861063D01*
X152834194Y-130839966D01*
X152861765Y-130806754D01*
X152924553Y-130718504D01*
X152970521Y-130612865D01*
X152983393Y-130547318D01*
X154606811Y-130547318D01*
X154607841Y-130566621D01*
X154615693Y-130580963D01*
X154631250Y-130564821D01*
X154634144Y-130554838D01*
X154624314Y-130530220D01*
X154623949Y-130529858D01*
X154610665Y-130524501D01*
X154606811Y-130547318D01*
X152983393Y-130547318D01*
X152992051Y-130503233D01*
X152989490Y-130435511D01*
X154591384Y-130435511D01*
X154600630Y-130478404D01*
X154610242Y-130494857D01*
X154630342Y-130501402D01*
X154646624Y-130479690D01*
X154649853Y-130469363D01*
X154661603Y-130431885D01*
X154662481Y-130411973D01*
X154650455Y-130377639D01*
X154645579Y-130370693D01*
X154624707Y-130358034D01*
X154606599Y-130368901D01*
X154594432Y-130396868D01*
X154591384Y-130435511D01*
X152989490Y-130435511D01*
X152987987Y-130395782D01*
X152957177Y-130296682D01*
X152951939Y-130286091D01*
X152881290Y-130179419D01*
X152783541Y-130080739D01*
X152662287Y-129992702D01*
X152521123Y-129917958D01*
X152363644Y-129859156D01*
X152346582Y-129853930D01*
X152296187Y-129837027D01*
X152268792Y-129823183D01*
X152258488Y-129808405D01*
X152259361Y-129788699D01*
X152259925Y-129763344D01*
X152249159Y-129741410D01*
X152237375Y-129742737D01*
X152231951Y-129769325D01*
X152231951Y-129807875D01*
X152039288Y-129805640D01*
X151957575Y-129806548D01*
X151833313Y-129818198D01*
X151732561Y-129844020D01*
X151651691Y-129885573D01*
X151587073Y-129944414D01*
X151535080Y-130022102D01*
X151500619Y-130086501D01*
X151497055Y-129944953D01*
X151492595Y-129823458D01*
X151484388Y-129683167D01*
X151477529Y-129597455D01*
X152471287Y-129597455D01*
X152488838Y-129634525D01*
X152498898Y-129644202D01*
X152513739Y-129651176D01*
X152523576Y-129634338D01*
X152525493Y-129628684D01*
X152529400Y-129589060D01*
X152521279Y-129552249D01*
X152503831Y-129532219D01*
X152487820Y-129539414D01*
X152474269Y-129567706D01*
X152471287Y-129597455D01*
X151477529Y-129597455D01*
X151473442Y-129546392D01*
X151460402Y-129420118D01*
X151452916Y-129363902D01*
X152233287Y-129363902D01*
X152234234Y-129442211D01*
X152234670Y-129452772D01*
X152238405Y-129507000D01*
X152243550Y-129545187D01*
X152249128Y-129559628D01*
X152255012Y-129548300D01*
X152261227Y-129512458D01*
X152265231Y-129472810D01*
X152502679Y-129472810D01*
X152504562Y-129491475D01*
X152509292Y-129493936D01*
X152515047Y-129480990D01*
X152513912Y-129472664D01*
X152504562Y-129470505D01*
X152502679Y-129472810D01*
X152265231Y-129472810D01*
X152266576Y-129459498D01*
X152270677Y-129397045D01*
X152273148Y-129332723D01*
X152273605Y-129274155D01*
X152271666Y-129228967D01*
X152266947Y-129204781D01*
X152260672Y-129198085D01*
X152250443Y-129208040D01*
X152242037Y-129242123D01*
X152236103Y-129295641D01*
X152233287Y-129363902D01*
X151452916Y-129363902D01*
X151445915Y-129311329D01*
X151430628Y-129227010D01*
X151425434Y-129204598D01*
X151391667Y-129094790D01*
X151387098Y-129085227D01*
X152253514Y-129085227D01*
X152256584Y-129123863D01*
X152264898Y-129143770D01*
X152270549Y-129140470D01*
X152275636Y-129119054D01*
X152475699Y-129119054D01*
X152476804Y-129165186D01*
X152481319Y-129187292D01*
X152488835Y-129204783D01*
X152497620Y-129246907D01*
X152500511Y-129274155D01*
X152503323Y-129300667D01*
X152503519Y-129303807D01*
X152507844Y-129355404D01*
X152512474Y-129375775D01*
X152517600Y-129365139D01*
X152523412Y-129323715D01*
X152525867Y-129293711D01*
X152529193Y-129236665D01*
X152532815Y-129161050D01*
X152536567Y-129071865D01*
X152540285Y-128974111D01*
X152543804Y-128872787D01*
X152546960Y-128772892D01*
X152549588Y-128679426D01*
X152551524Y-128597387D01*
X152552602Y-128531777D01*
X152552659Y-128487594D01*
X152551529Y-128469837D01*
X152545430Y-128465668D01*
X152525003Y-128472690D01*
X152517139Y-128486132D01*
X152512464Y-128526963D01*
X152515932Y-128595342D01*
X152519043Y-128651447D01*
X152518199Y-128703821D01*
X152513256Y-128736737D01*
X152512149Y-128740038D01*
X152503491Y-128779456D01*
X152495188Y-128837954D01*
X152487748Y-128908347D01*
X152481681Y-128983450D01*
X152477494Y-129056081D01*
X152477086Y-129070381D01*
X152475699Y-129119054D01*
X152275636Y-129119054D01*
X152276731Y-129114446D01*
X152279133Y-129070381D01*
X152278812Y-129051086D01*
X152274441Y-129011030D01*
X152267040Y-129001423D01*
X152259290Y-129022030D01*
X152253867Y-129072613D01*
X152253514Y-129085227D01*
X151387098Y-129085227D01*
X151344350Y-128995753D01*
X151278737Y-128898984D01*
X151190084Y-128795978D01*
X151185994Y-128791620D01*
X151097230Y-128706495D01*
X150993322Y-128624287D01*
X150870412Y-128542414D01*
X150724644Y-128458299D01*
X150552161Y-128369362D01*
X150488288Y-128337629D01*
X150418486Y-128302263D01*
X150363566Y-128273639D01*
X150327997Y-128254092D01*
X150316247Y-128245962D01*
X150321407Y-128245864D01*
X150351896Y-128249810D01*
X150404940Y-128258390D01*
X150475107Y-128270705D01*
X150556966Y-128285854D01*
X150564824Y-128287341D01*
X150798505Y-128330807D01*
X151005320Y-128367524D01*
X151188911Y-128397915D01*
X151352920Y-128422407D01*
X151500990Y-128441424D01*
X151636763Y-128455390D01*
X151763880Y-128464730D01*
X151885984Y-128469869D01*
X152006718Y-128471231D01*
X152129722Y-128469241D01*
X152195116Y-128466962D01*
X152406356Y-128452192D01*
X152592500Y-128425907D01*
X152757253Y-128386841D01*
X152904323Y-128333726D01*
X153037415Y-128265298D01*
X153160237Y-128180289D01*
X153276493Y-128077433D01*
X153282207Y-128071822D01*
X153334960Y-128020302D01*
X153378449Y-127978312D01*
X153408303Y-127950044D01*
X153420151Y-127939690D01*
X153423671Y-127947087D01*
X153435431Y-127978685D01*
X153453173Y-128029415D01*
X153474676Y-128093034D01*
X153506829Y-128186901D01*
X153547983Y-128299551D01*
X153593331Y-128415292D01*
X153623527Y-128487594D01*
X153644424Y-128537630D01*
G37*
%TD*%
M02*
