%TF.GenerationSoftware,KiCad,Pcbnew,8.0.3-8.0.3-0~ubuntu22.04.1*%
%TF.CreationDate,2024-07-31T00:50:21+02:00*%
%TF.ProjectId,defcon32_badge,64656663-6f6e-4333-925f-62616467652e,rev?*%
%TF.SameCoordinates,Original*%
%TF.FileFunction,Drillmap*%
%TF.FilePolarity,Positive*%
%FSLAX45Y45*%
G04 Gerber Fmt 4.5, Leading zero omitted, Abs format (unit mm)*
G04 Created by KiCad (PCBNEW 8.0.3-8.0.3-0~ubuntu22.04.1) date 2024-07-31 00:50:21*
%MOMM*%
%LPD*%
G01*
G04 APERTURE LIST*
%ADD10C,0.050000*%
%ADD11C,0.200000*%
%ADD12C,0.100000*%
G04 APERTURE END LIST*
D10*
X11000000Y-16000000D02*
X15700000Y-16000000D01*
X16000000Y-6300000D02*
X16000000Y-15700000D01*
X10300000Y-6000000D02*
X15700000Y-6000000D01*
X10000000Y-6300000D02*
G75*
G02*
X10300000Y-6000000I300000J0D01*
G01*
X10000000Y-6300000D02*
X10000000Y-15000000D01*
X16000000Y-15700000D02*
G75*
G02*
X15700000Y-16000000I-300000J0D01*
G01*
X11000000Y-16000000D02*
G75*
G02*
X10000000Y-15000000I0J1000000D01*
G01*
X15700000Y-6000000D02*
G75*
G02*
X16000000Y-6300000I0J-300000D01*
G01*
D11*
D12*
X14129000Y-14800000D02*
X14149000Y-14820000D01*
X14149000Y-14800000D02*
X14129000Y-14820000D01*
X14129000Y-14910000D02*
X14149000Y-14930000D01*
X14149000Y-14910000D02*
X14129000Y-14930000D01*
X14184000Y-14745000D02*
X14204000Y-14765000D01*
X14204000Y-14745000D02*
X14184000Y-14765000D01*
X14184000Y-14855000D02*
X14204000Y-14875000D01*
X14204000Y-14855000D02*
X14184000Y-14875000D01*
X14184000Y-14965000D02*
X14204000Y-14985000D01*
X14204000Y-14965000D02*
X14184000Y-14985000D01*
X14239000Y-14800000D02*
X14259000Y-14820000D01*
X14259000Y-14800000D02*
X14239000Y-14820000D01*
X14239000Y-14910000D02*
X14259000Y-14930000D01*
X14259000Y-14910000D02*
X14239000Y-14930000D01*
X14294000Y-14745000D02*
X14314000Y-14765000D01*
X14314000Y-14745000D02*
X14294000Y-14765000D01*
X14294000Y-14855000D02*
X14314000Y-14875000D01*
X14314000Y-14855000D02*
X14294000Y-14875000D01*
X14294000Y-14965000D02*
X14314000Y-14985000D01*
X14314000Y-14965000D02*
X14294000Y-14985000D01*
X14349000Y-14800000D02*
X14369000Y-14820000D01*
X14369000Y-14800000D02*
X14349000Y-14820000D01*
X14349000Y-14910000D02*
X14369000Y-14930000D01*
X14369000Y-14910000D02*
X14349000Y-14930000D01*
X10345000Y-14270000D02*
G75*
G02*
X10315000Y-14270000I-15000J0D01*
G01*
X10315000Y-14270000D02*
G75*
G02*
X10345000Y-14270000I15000J0D01*
G01*
X10545000Y-13750000D02*
G75*
G02*
X10515000Y-13750000I-15000J0D01*
G01*
X10515000Y-13750000D02*
G75*
G02*
X10545000Y-13750000I15000J0D01*
G01*
X11070000Y-11535000D02*
G75*
G02*
X11040000Y-11535000I-15000J0D01*
G01*
X11040000Y-11535000D02*
G75*
G02*
X11070000Y-11535000I15000J0D01*
G01*
X11465000Y-13770000D02*
G75*
G02*
X11435000Y-13770000I-15000J0D01*
G01*
X11435000Y-13770000D02*
G75*
G02*
X11465000Y-13770000I15000J0D01*
G01*
X11610000Y-13045000D02*
G75*
G02*
X11580000Y-13045000I-15000J0D01*
G01*
X11580000Y-13045000D02*
G75*
G02*
X11610000Y-13045000I15000J0D01*
G01*
X11685000Y-14780000D02*
G75*
G02*
X11655000Y-14780000I-15000J0D01*
G01*
X11655000Y-14780000D02*
G75*
G02*
X11685000Y-14780000I15000J0D01*
G01*
X11965000Y-12480000D02*
G75*
G02*
X11935000Y-12480000I-15000J0D01*
G01*
X11935000Y-12480000D02*
G75*
G02*
X11965000Y-12480000I15000J0D01*
G01*
X12240000Y-12475000D02*
G75*
G02*
X12210000Y-12475000I-15000J0D01*
G01*
X12210000Y-12475000D02*
G75*
G02*
X12240000Y-12475000I15000J0D01*
G01*
X12455000Y-12295000D02*
G75*
G02*
X12425000Y-12295000I-15000J0D01*
G01*
X12425000Y-12295000D02*
G75*
G02*
X12455000Y-12295000I15000J0D01*
G01*
X12515000Y-13000000D02*
G75*
G02*
X12485000Y-13000000I-15000J0D01*
G01*
X12485000Y-13000000D02*
G75*
G02*
X12515000Y-13000000I15000J0D01*
G01*
X12620000Y-13000000D02*
G75*
G02*
X12590000Y-13000000I-15000J0D01*
G01*
X12590000Y-13000000D02*
G75*
G02*
X12620000Y-13000000I15000J0D01*
G01*
X14505000Y-12410000D02*
G75*
G02*
X14475000Y-12410000I-15000J0D01*
G01*
X14475000Y-12410000D02*
G75*
G02*
X14505000Y-12410000I15000J0D01*
G01*
X14742500Y-11902500D02*
G75*
G02*
X14712500Y-11902500I-15000J0D01*
G01*
X14712500Y-11902500D02*
G75*
G02*
X14742500Y-11902500I15000J0D01*
G01*
X14890000Y-14860000D02*
G75*
G02*
X14860000Y-14860000I-15000J0D01*
G01*
X14860000Y-14860000D02*
G75*
G02*
X14890000Y-14860000I15000J0D01*
G01*
X15040000Y-12160000D02*
G75*
G02*
X15010000Y-12160000I-15000J0D01*
G01*
X15010000Y-12160000D02*
G75*
G02*
X15040000Y-12160000I15000J0D01*
G01*
X15120000Y-12755000D02*
G75*
G02*
X15090000Y-12755000I-15000J0D01*
G01*
X15090000Y-12755000D02*
G75*
G02*
X15120000Y-12755000I15000J0D01*
G01*
X15120000Y-13180000D02*
G75*
G02*
X15090000Y-13180000I-15000J0D01*
G01*
X15090000Y-13180000D02*
G75*
G02*
X15120000Y-13180000I15000J0D01*
G01*
X15165000Y-8160000D02*
G75*
G02*
X15135000Y-8160000I-15000J0D01*
G01*
X15135000Y-8160000D02*
G75*
G02*
X15165000Y-8160000I15000J0D01*
G01*
X15215000Y-12755000D02*
G75*
G02*
X15185000Y-12755000I-15000J0D01*
G01*
X15185000Y-12755000D02*
G75*
G02*
X15215000Y-12755000I15000J0D01*
G01*
X15215000Y-13180000D02*
G75*
G02*
X15185000Y-13180000I-15000J0D01*
G01*
X15185000Y-13180000D02*
G75*
G02*
X15215000Y-13180000I15000J0D01*
G01*
X15310000Y-12755000D02*
G75*
G02*
X15280000Y-12755000I-15000J0D01*
G01*
X15280000Y-12755000D02*
G75*
G02*
X15310000Y-12755000I15000J0D01*
G01*
X15310000Y-13180000D02*
G75*
G02*
X15280000Y-13180000I-15000J0D01*
G01*
X15280000Y-13180000D02*
G75*
G02*
X15310000Y-13180000I15000J0D01*
G01*
X15400000Y-12755000D02*
G75*
G02*
X15370000Y-12755000I-15000J0D01*
G01*
X15370000Y-12755000D02*
G75*
G02*
X15400000Y-12755000I15000J0D01*
G01*
X15400000Y-13180000D02*
G75*
G02*
X15370000Y-13180000I-15000J0D01*
G01*
X15370000Y-13180000D02*
G75*
G02*
X15400000Y-13180000I15000J0D01*
G01*
X15580000Y-11755000D02*
G75*
G02*
X15550000Y-11755000I-15000J0D01*
G01*
X15550000Y-11755000D02*
G75*
G02*
X15580000Y-11755000I15000J0D01*
G01*
X15600000Y-15085000D02*
G75*
G02*
X15570000Y-15085000I-15000J0D01*
G01*
X15570000Y-15085000D02*
G75*
G02*
X15600000Y-15085000I15000J0D01*
G01*
X15697500Y-12170000D02*
G75*
G02*
X15667500Y-12170000I-15000J0D01*
G01*
X15667500Y-12170000D02*
G75*
G02*
X15697500Y-12170000I15000J0D01*
G01*
X15715000Y-15085000D02*
G75*
G02*
X15685000Y-15085000I-15000J0D01*
G01*
X15685000Y-15085000D02*
G75*
G02*
X15715000Y-15085000I15000J0D01*
G01*
X15825000Y-15155000D02*
G75*
G02*
X15795000Y-15155000I-15000J0D01*
G01*
X15795000Y-15155000D02*
G75*
G02*
X15825000Y-15155000I15000J0D01*
G01*
X15850000Y-14765000D02*
G75*
G02*
X15820000Y-14765000I-15000J0D01*
G01*
X15820000Y-14765000D02*
G75*
G02*
X15850000Y-14765000I15000J0D01*
G01*
X11355000Y-15855000D02*
X11355000Y-15905000D01*
X11330000Y-15880000D02*
X11380000Y-15880000D01*
X11380000Y-15915000D02*
X11380000Y-15845000D01*
X11330000Y-15845000D02*
G75*
G02*
X11380000Y-15845000I25000J0D01*
G01*
X11330000Y-15845000D02*
X11330000Y-15915000D01*
X11330000Y-15915000D02*
G75*
G03*
X11380000Y-15915000I25000J0D01*
G01*
X12015000Y-15855000D02*
X12015000Y-15905000D01*
X11990000Y-15880000D02*
X12040000Y-15880000D01*
X12040000Y-15915000D02*
X12040000Y-15845000D01*
X11990000Y-15845000D02*
G75*
G02*
X12040000Y-15845000I25000J0D01*
G01*
X11990000Y-15845000D02*
X11990000Y-15915000D01*
X11990000Y-15915000D02*
G75*
G03*
X12040000Y-15915000I25000J0D01*
G01*
X12645356Y-7682856D02*
X12645356Y-7612144D01*
X12574644Y-7612144D01*
X12574644Y-7682856D01*
X12645356Y-7682856D01*
X12899356Y-7682856D02*
X12899356Y-7612144D01*
X12828644Y-7612144D01*
X12828644Y-7682856D01*
X12899356Y-7682856D01*
X13153356Y-7682856D02*
X13153356Y-7612144D01*
X13082644Y-7612144D01*
X13082644Y-7682856D01*
X13153356Y-7682856D01*
X13407356Y-7682856D02*
X13407356Y-7612144D01*
X13336644Y-7612144D01*
X13336644Y-7682856D01*
X13407356Y-7682856D01*
D11*
X10258277Y-16313984D02*
X10258277Y-16113984D01*
X10258277Y-16113984D02*
X10305896Y-16113984D01*
X10305896Y-16113984D02*
X10334467Y-16123508D01*
X10334467Y-16123508D02*
X10353515Y-16142555D01*
X10353515Y-16142555D02*
X10363039Y-16161603D01*
X10363039Y-16161603D02*
X10372563Y-16199698D01*
X10372563Y-16199698D02*
X10372563Y-16228269D01*
X10372563Y-16228269D02*
X10363039Y-16266365D01*
X10363039Y-16266365D02*
X10353515Y-16285412D01*
X10353515Y-16285412D02*
X10334467Y-16304460D01*
X10334467Y-16304460D02*
X10305896Y-16313984D01*
X10305896Y-16313984D02*
X10258277Y-16313984D01*
X10458277Y-16313984D02*
X10458277Y-16180650D01*
X10458277Y-16218746D02*
X10467801Y-16199698D01*
X10467801Y-16199698D02*
X10477324Y-16190174D01*
X10477324Y-16190174D02*
X10496372Y-16180650D01*
X10496372Y-16180650D02*
X10515420Y-16180650D01*
X10582086Y-16313984D02*
X10582086Y-16180650D01*
X10582086Y-16113984D02*
X10572563Y-16123508D01*
X10572563Y-16123508D02*
X10582086Y-16133031D01*
X10582086Y-16133031D02*
X10591610Y-16123508D01*
X10591610Y-16123508D02*
X10582086Y-16113984D01*
X10582086Y-16113984D02*
X10582086Y-16133031D01*
X10705896Y-16313984D02*
X10686848Y-16304460D01*
X10686848Y-16304460D02*
X10677324Y-16285412D01*
X10677324Y-16285412D02*
X10677324Y-16113984D01*
X10810658Y-16313984D02*
X10791610Y-16304460D01*
X10791610Y-16304460D02*
X10782086Y-16285412D01*
X10782086Y-16285412D02*
X10782086Y-16113984D01*
X11039229Y-16313984D02*
X11039229Y-16113984D01*
X11039229Y-16113984D02*
X11105896Y-16256841D01*
X11105896Y-16256841D02*
X11172563Y-16113984D01*
X11172563Y-16113984D02*
X11172563Y-16313984D01*
X11353515Y-16313984D02*
X11353515Y-16209222D01*
X11353515Y-16209222D02*
X11343991Y-16190174D01*
X11343991Y-16190174D02*
X11324943Y-16180650D01*
X11324943Y-16180650D02*
X11286848Y-16180650D01*
X11286848Y-16180650D02*
X11267801Y-16190174D01*
X11353515Y-16304460D02*
X11334467Y-16313984D01*
X11334467Y-16313984D02*
X11286848Y-16313984D01*
X11286848Y-16313984D02*
X11267801Y-16304460D01*
X11267801Y-16304460D02*
X11258277Y-16285412D01*
X11258277Y-16285412D02*
X11258277Y-16266365D01*
X11258277Y-16266365D02*
X11267801Y-16247317D01*
X11267801Y-16247317D02*
X11286848Y-16237793D01*
X11286848Y-16237793D02*
X11334467Y-16237793D01*
X11334467Y-16237793D02*
X11353515Y-16228269D01*
X11448753Y-16180650D02*
X11448753Y-16380650D01*
X11448753Y-16190174D02*
X11467801Y-16180650D01*
X11467801Y-16180650D02*
X11505896Y-16180650D01*
X11505896Y-16180650D02*
X11524943Y-16190174D01*
X11524943Y-16190174D02*
X11534467Y-16199698D01*
X11534467Y-16199698D02*
X11543991Y-16218746D01*
X11543991Y-16218746D02*
X11543991Y-16275888D01*
X11543991Y-16275888D02*
X11534467Y-16294936D01*
X11534467Y-16294936D02*
X11524943Y-16304460D01*
X11524943Y-16304460D02*
X11505896Y-16313984D01*
X11505896Y-16313984D02*
X11467801Y-16313984D01*
X11467801Y-16313984D02*
X11448753Y-16304460D01*
X11629705Y-16294936D02*
X11639229Y-16304460D01*
X11639229Y-16304460D02*
X11629705Y-16313984D01*
X11629705Y-16313984D02*
X11620182Y-16304460D01*
X11620182Y-16304460D02*
X11629705Y-16294936D01*
X11629705Y-16294936D02*
X11629705Y-16313984D01*
X11629705Y-16190174D02*
X11639229Y-16199698D01*
X11639229Y-16199698D02*
X11629705Y-16209222D01*
X11629705Y-16209222D02*
X11620182Y-16199698D01*
X11620182Y-16199698D02*
X11629705Y-16190174D01*
X11629705Y-16190174D02*
X11629705Y-16209222D01*
D12*
X9977500Y-16632500D02*
X9997500Y-16652500D01*
X9997500Y-16632500D02*
X9977500Y-16652500D01*
D11*
X10296372Y-16533984D02*
X10315420Y-16533984D01*
X10315420Y-16533984D02*
X10334467Y-16543508D01*
X10334467Y-16543508D02*
X10343991Y-16553031D01*
X10343991Y-16553031D02*
X10353515Y-16572079D01*
X10353515Y-16572079D02*
X10363039Y-16610174D01*
X10363039Y-16610174D02*
X10363039Y-16657793D01*
X10363039Y-16657793D02*
X10353515Y-16695888D01*
X10353515Y-16695888D02*
X10343991Y-16714936D01*
X10343991Y-16714936D02*
X10334467Y-16724460D01*
X10334467Y-16724460D02*
X10315420Y-16733984D01*
X10315420Y-16733984D02*
X10296372Y-16733984D01*
X10296372Y-16733984D02*
X10277324Y-16724460D01*
X10277324Y-16724460D02*
X10267801Y-16714936D01*
X10267801Y-16714936D02*
X10258277Y-16695888D01*
X10258277Y-16695888D02*
X10248753Y-16657793D01*
X10248753Y-16657793D02*
X10248753Y-16610174D01*
X10248753Y-16610174D02*
X10258277Y-16572079D01*
X10258277Y-16572079D02*
X10267801Y-16553031D01*
X10267801Y-16553031D02*
X10277324Y-16543508D01*
X10277324Y-16543508D02*
X10296372Y-16533984D01*
X10448753Y-16714936D02*
X10458277Y-16724460D01*
X10458277Y-16724460D02*
X10448753Y-16733984D01*
X10448753Y-16733984D02*
X10439229Y-16724460D01*
X10439229Y-16724460D02*
X10448753Y-16714936D01*
X10448753Y-16714936D02*
X10448753Y-16733984D01*
X10534467Y-16553031D02*
X10543991Y-16543508D01*
X10543991Y-16543508D02*
X10563039Y-16533984D01*
X10563039Y-16533984D02*
X10610658Y-16533984D01*
X10610658Y-16533984D02*
X10629705Y-16543508D01*
X10629705Y-16543508D02*
X10639229Y-16553031D01*
X10639229Y-16553031D02*
X10648753Y-16572079D01*
X10648753Y-16572079D02*
X10648753Y-16591127D01*
X10648753Y-16591127D02*
X10639229Y-16619698D01*
X10639229Y-16619698D02*
X10524944Y-16733984D01*
X10524944Y-16733984D02*
X10648753Y-16733984D01*
X10772563Y-16533984D02*
X10791610Y-16533984D01*
X10791610Y-16533984D02*
X10810658Y-16543508D01*
X10810658Y-16543508D02*
X10820182Y-16553031D01*
X10820182Y-16553031D02*
X10829705Y-16572079D01*
X10829705Y-16572079D02*
X10839229Y-16610174D01*
X10839229Y-16610174D02*
X10839229Y-16657793D01*
X10839229Y-16657793D02*
X10829705Y-16695888D01*
X10829705Y-16695888D02*
X10820182Y-16714936D01*
X10820182Y-16714936D02*
X10810658Y-16724460D01*
X10810658Y-16724460D02*
X10791610Y-16733984D01*
X10791610Y-16733984D02*
X10772563Y-16733984D01*
X10772563Y-16733984D02*
X10753515Y-16724460D01*
X10753515Y-16724460D02*
X10743991Y-16714936D01*
X10743991Y-16714936D02*
X10734467Y-16695888D01*
X10734467Y-16695888D02*
X10724944Y-16657793D01*
X10724944Y-16657793D02*
X10724944Y-16610174D01*
X10724944Y-16610174D02*
X10734467Y-16572079D01*
X10734467Y-16572079D02*
X10743991Y-16553031D01*
X10743991Y-16553031D02*
X10753515Y-16543508D01*
X10753515Y-16543508D02*
X10772563Y-16533984D01*
X10963039Y-16533984D02*
X10982086Y-16533984D01*
X10982086Y-16533984D02*
X11001134Y-16543508D01*
X11001134Y-16543508D02*
X11010658Y-16553031D01*
X11010658Y-16553031D02*
X11020182Y-16572079D01*
X11020182Y-16572079D02*
X11029705Y-16610174D01*
X11029705Y-16610174D02*
X11029705Y-16657793D01*
X11029705Y-16657793D02*
X11020182Y-16695888D01*
X11020182Y-16695888D02*
X11010658Y-16714936D01*
X11010658Y-16714936D02*
X11001134Y-16724460D01*
X11001134Y-16724460D02*
X10982086Y-16733984D01*
X10982086Y-16733984D02*
X10963039Y-16733984D01*
X10963039Y-16733984D02*
X10943991Y-16724460D01*
X10943991Y-16724460D02*
X10934467Y-16714936D01*
X10934467Y-16714936D02*
X10924944Y-16695888D01*
X10924944Y-16695888D02*
X10915420Y-16657793D01*
X10915420Y-16657793D02*
X10915420Y-16610174D01*
X10915420Y-16610174D02*
X10924944Y-16572079D01*
X10924944Y-16572079D02*
X10934467Y-16553031D01*
X10934467Y-16553031D02*
X10943991Y-16543508D01*
X10943991Y-16543508D02*
X10963039Y-16533984D01*
X11115420Y-16733984D02*
X11115420Y-16600650D01*
X11115420Y-16619698D02*
X11124944Y-16610174D01*
X11124944Y-16610174D02*
X11143991Y-16600650D01*
X11143991Y-16600650D02*
X11172563Y-16600650D01*
X11172563Y-16600650D02*
X11191610Y-16610174D01*
X11191610Y-16610174D02*
X11201134Y-16629222D01*
X11201134Y-16629222D02*
X11201134Y-16733984D01*
X11201134Y-16629222D02*
X11210658Y-16610174D01*
X11210658Y-16610174D02*
X11229705Y-16600650D01*
X11229705Y-16600650D02*
X11258277Y-16600650D01*
X11258277Y-16600650D02*
X11277324Y-16610174D01*
X11277324Y-16610174D02*
X11286848Y-16629222D01*
X11286848Y-16629222D02*
X11286848Y-16733984D01*
X11382086Y-16733984D02*
X11382086Y-16600650D01*
X11382086Y-16619698D02*
X11391610Y-16610174D01*
X11391610Y-16610174D02*
X11410658Y-16600650D01*
X11410658Y-16600650D02*
X11439229Y-16600650D01*
X11439229Y-16600650D02*
X11458277Y-16610174D01*
X11458277Y-16610174D02*
X11467801Y-16629222D01*
X11467801Y-16629222D02*
X11467801Y-16733984D01*
X11467801Y-16629222D02*
X11477324Y-16610174D01*
X11477324Y-16610174D02*
X11496372Y-16600650D01*
X11496372Y-16600650D02*
X11524943Y-16600650D01*
X11524943Y-16600650D02*
X11543991Y-16610174D01*
X11543991Y-16610174D02*
X11553515Y-16629222D01*
X11553515Y-16629222D02*
X11553515Y-16733984D01*
X11943991Y-16524460D02*
X11772563Y-16781603D01*
X12201134Y-16533984D02*
X12220182Y-16533984D01*
X12220182Y-16533984D02*
X12239229Y-16543508D01*
X12239229Y-16543508D02*
X12248753Y-16553031D01*
X12248753Y-16553031D02*
X12258277Y-16572079D01*
X12258277Y-16572079D02*
X12267801Y-16610174D01*
X12267801Y-16610174D02*
X12267801Y-16657793D01*
X12267801Y-16657793D02*
X12258277Y-16695888D01*
X12258277Y-16695888D02*
X12248753Y-16714936D01*
X12248753Y-16714936D02*
X12239229Y-16724460D01*
X12239229Y-16724460D02*
X12220182Y-16733984D01*
X12220182Y-16733984D02*
X12201134Y-16733984D01*
X12201134Y-16733984D02*
X12182086Y-16724460D01*
X12182086Y-16724460D02*
X12172563Y-16714936D01*
X12172563Y-16714936D02*
X12163039Y-16695888D01*
X12163039Y-16695888D02*
X12153515Y-16657793D01*
X12153515Y-16657793D02*
X12153515Y-16610174D01*
X12153515Y-16610174D02*
X12163039Y-16572079D01*
X12163039Y-16572079D02*
X12172563Y-16553031D01*
X12172563Y-16553031D02*
X12182086Y-16543508D01*
X12182086Y-16543508D02*
X12201134Y-16533984D01*
X12353515Y-16714936D02*
X12363039Y-16724460D01*
X12363039Y-16724460D02*
X12353515Y-16733984D01*
X12353515Y-16733984D02*
X12343991Y-16724460D01*
X12343991Y-16724460D02*
X12353515Y-16714936D01*
X12353515Y-16714936D02*
X12353515Y-16733984D01*
X12486848Y-16533984D02*
X12505896Y-16533984D01*
X12505896Y-16533984D02*
X12524944Y-16543508D01*
X12524944Y-16543508D02*
X12534467Y-16553031D01*
X12534467Y-16553031D02*
X12543991Y-16572079D01*
X12543991Y-16572079D02*
X12553515Y-16610174D01*
X12553515Y-16610174D02*
X12553515Y-16657793D01*
X12553515Y-16657793D02*
X12543991Y-16695888D01*
X12543991Y-16695888D02*
X12534467Y-16714936D01*
X12534467Y-16714936D02*
X12524944Y-16724460D01*
X12524944Y-16724460D02*
X12505896Y-16733984D01*
X12505896Y-16733984D02*
X12486848Y-16733984D01*
X12486848Y-16733984D02*
X12467801Y-16724460D01*
X12467801Y-16724460D02*
X12458277Y-16714936D01*
X12458277Y-16714936D02*
X12448753Y-16695888D01*
X12448753Y-16695888D02*
X12439229Y-16657793D01*
X12439229Y-16657793D02*
X12439229Y-16610174D01*
X12439229Y-16610174D02*
X12448753Y-16572079D01*
X12448753Y-16572079D02*
X12458277Y-16553031D01*
X12458277Y-16553031D02*
X12467801Y-16543508D01*
X12467801Y-16543508D02*
X12486848Y-16533984D01*
X12677325Y-16533984D02*
X12696372Y-16533984D01*
X12696372Y-16533984D02*
X12715420Y-16543508D01*
X12715420Y-16543508D02*
X12724944Y-16553031D01*
X12724944Y-16553031D02*
X12734467Y-16572079D01*
X12734467Y-16572079D02*
X12743991Y-16610174D01*
X12743991Y-16610174D02*
X12743991Y-16657793D01*
X12743991Y-16657793D02*
X12734467Y-16695888D01*
X12734467Y-16695888D02*
X12724944Y-16714936D01*
X12724944Y-16714936D02*
X12715420Y-16724460D01*
X12715420Y-16724460D02*
X12696372Y-16733984D01*
X12696372Y-16733984D02*
X12677325Y-16733984D01*
X12677325Y-16733984D02*
X12658277Y-16724460D01*
X12658277Y-16724460D02*
X12648753Y-16714936D01*
X12648753Y-16714936D02*
X12639229Y-16695888D01*
X12639229Y-16695888D02*
X12629706Y-16657793D01*
X12629706Y-16657793D02*
X12629706Y-16610174D01*
X12629706Y-16610174D02*
X12639229Y-16572079D01*
X12639229Y-16572079D02*
X12648753Y-16553031D01*
X12648753Y-16553031D02*
X12658277Y-16543508D01*
X12658277Y-16543508D02*
X12677325Y-16533984D01*
X12810658Y-16533984D02*
X12943991Y-16533984D01*
X12943991Y-16533984D02*
X12858277Y-16733984D01*
X13029706Y-16733984D02*
X13067801Y-16733984D01*
X13067801Y-16733984D02*
X13086848Y-16724460D01*
X13086848Y-16724460D02*
X13096372Y-16714936D01*
X13096372Y-16714936D02*
X13115420Y-16686365D01*
X13115420Y-16686365D02*
X13124944Y-16648269D01*
X13124944Y-16648269D02*
X13124944Y-16572079D01*
X13124944Y-16572079D02*
X13115420Y-16553031D01*
X13115420Y-16553031D02*
X13105896Y-16543508D01*
X13105896Y-16543508D02*
X13086848Y-16533984D01*
X13086848Y-16533984D02*
X13048753Y-16533984D01*
X13048753Y-16533984D02*
X13029706Y-16543508D01*
X13029706Y-16543508D02*
X13020182Y-16553031D01*
X13020182Y-16553031D02*
X13010658Y-16572079D01*
X13010658Y-16572079D02*
X13010658Y-16619698D01*
X13010658Y-16619698D02*
X13020182Y-16638746D01*
X13020182Y-16638746D02*
X13029706Y-16648269D01*
X13029706Y-16648269D02*
X13048753Y-16657793D01*
X13048753Y-16657793D02*
X13086848Y-16657793D01*
X13086848Y-16657793D02*
X13105896Y-16648269D01*
X13105896Y-16648269D02*
X13115420Y-16638746D01*
X13115420Y-16638746D02*
X13124944Y-16619698D01*
X13201134Y-16533984D02*
X13201134Y-16572079D01*
X13277325Y-16533984D02*
X13277325Y-16572079D01*
X13572563Y-16810174D02*
X13563039Y-16800650D01*
X13563039Y-16800650D02*
X13543991Y-16772079D01*
X13543991Y-16772079D02*
X13534468Y-16753031D01*
X13534468Y-16753031D02*
X13524944Y-16724460D01*
X13524944Y-16724460D02*
X13515420Y-16676841D01*
X13515420Y-16676841D02*
X13515420Y-16638746D01*
X13515420Y-16638746D02*
X13524944Y-16591127D01*
X13524944Y-16591127D02*
X13534468Y-16562555D01*
X13534468Y-16562555D02*
X13543991Y-16543508D01*
X13543991Y-16543508D02*
X13563039Y-16514936D01*
X13563039Y-16514936D02*
X13572563Y-16505412D01*
X13753515Y-16733984D02*
X13639229Y-16733984D01*
X13696372Y-16733984D02*
X13696372Y-16533984D01*
X13696372Y-16533984D02*
X13677325Y-16562555D01*
X13677325Y-16562555D02*
X13658277Y-16581603D01*
X13658277Y-16581603D02*
X13639229Y-16591127D01*
X13829706Y-16553031D02*
X13839229Y-16543508D01*
X13839229Y-16543508D02*
X13858277Y-16533984D01*
X13858277Y-16533984D02*
X13905896Y-16533984D01*
X13905896Y-16533984D02*
X13924944Y-16543508D01*
X13924944Y-16543508D02*
X13934468Y-16553031D01*
X13934468Y-16553031D02*
X13943991Y-16572079D01*
X13943991Y-16572079D02*
X13943991Y-16591127D01*
X13943991Y-16591127D02*
X13934468Y-16619698D01*
X13934468Y-16619698D02*
X13820182Y-16733984D01*
X13820182Y-16733984D02*
X13943991Y-16733984D01*
X14182087Y-16733984D02*
X14182087Y-16533984D01*
X14267801Y-16733984D02*
X14267801Y-16629222D01*
X14267801Y-16629222D02*
X14258277Y-16610174D01*
X14258277Y-16610174D02*
X14239230Y-16600650D01*
X14239230Y-16600650D02*
X14210658Y-16600650D01*
X14210658Y-16600650D02*
X14191610Y-16610174D01*
X14191610Y-16610174D02*
X14182087Y-16619698D01*
X14391610Y-16733984D02*
X14372563Y-16724460D01*
X14372563Y-16724460D02*
X14363039Y-16714936D01*
X14363039Y-16714936D02*
X14353515Y-16695888D01*
X14353515Y-16695888D02*
X14353515Y-16638746D01*
X14353515Y-16638746D02*
X14363039Y-16619698D01*
X14363039Y-16619698D02*
X14372563Y-16610174D01*
X14372563Y-16610174D02*
X14391610Y-16600650D01*
X14391610Y-16600650D02*
X14420182Y-16600650D01*
X14420182Y-16600650D02*
X14439230Y-16610174D01*
X14439230Y-16610174D02*
X14448753Y-16619698D01*
X14448753Y-16619698D02*
X14458277Y-16638746D01*
X14458277Y-16638746D02*
X14458277Y-16695888D01*
X14458277Y-16695888D02*
X14448753Y-16714936D01*
X14448753Y-16714936D02*
X14439230Y-16724460D01*
X14439230Y-16724460D02*
X14420182Y-16733984D01*
X14420182Y-16733984D02*
X14391610Y-16733984D01*
X14572563Y-16733984D02*
X14553515Y-16724460D01*
X14553515Y-16724460D02*
X14543991Y-16705412D01*
X14543991Y-16705412D02*
X14543991Y-16533984D01*
X14724944Y-16724460D02*
X14705896Y-16733984D01*
X14705896Y-16733984D02*
X14667801Y-16733984D01*
X14667801Y-16733984D02*
X14648753Y-16724460D01*
X14648753Y-16724460D02*
X14639230Y-16705412D01*
X14639230Y-16705412D02*
X14639230Y-16629222D01*
X14639230Y-16629222D02*
X14648753Y-16610174D01*
X14648753Y-16610174D02*
X14667801Y-16600650D01*
X14667801Y-16600650D02*
X14705896Y-16600650D01*
X14705896Y-16600650D02*
X14724944Y-16610174D01*
X14724944Y-16610174D02*
X14734468Y-16629222D01*
X14734468Y-16629222D02*
X14734468Y-16648269D01*
X14734468Y-16648269D02*
X14639230Y-16667317D01*
X14810658Y-16724460D02*
X14829706Y-16733984D01*
X14829706Y-16733984D02*
X14867801Y-16733984D01*
X14867801Y-16733984D02*
X14886849Y-16724460D01*
X14886849Y-16724460D02*
X14896372Y-16705412D01*
X14896372Y-16705412D02*
X14896372Y-16695888D01*
X14896372Y-16695888D02*
X14886849Y-16676841D01*
X14886849Y-16676841D02*
X14867801Y-16667317D01*
X14867801Y-16667317D02*
X14839230Y-16667317D01*
X14839230Y-16667317D02*
X14820182Y-16657793D01*
X14820182Y-16657793D02*
X14810658Y-16638746D01*
X14810658Y-16638746D02*
X14810658Y-16629222D01*
X14810658Y-16629222D02*
X14820182Y-16610174D01*
X14820182Y-16610174D02*
X14839230Y-16600650D01*
X14839230Y-16600650D02*
X14867801Y-16600650D01*
X14867801Y-16600650D02*
X14886849Y-16610174D01*
X14963039Y-16810174D02*
X14972563Y-16800650D01*
X14972563Y-16800650D02*
X14991611Y-16772079D01*
X14991611Y-16772079D02*
X15001134Y-16753031D01*
X15001134Y-16753031D02*
X15010658Y-16724460D01*
X15010658Y-16724460D02*
X15020182Y-16676841D01*
X15020182Y-16676841D02*
X15020182Y-16638746D01*
X15020182Y-16638746D02*
X15010658Y-16591127D01*
X15010658Y-16591127D02*
X15001134Y-16562555D01*
X15001134Y-16562555D02*
X14991611Y-16543508D01*
X14991611Y-16543508D02*
X14972563Y-16514936D01*
X14972563Y-16514936D02*
X14963039Y-16505412D01*
D12*
X9997500Y-16906500D02*
G75*
G02*
X9967500Y-16906500I-15000J0D01*
G01*
X9967500Y-16906500D02*
G75*
G02*
X9997500Y-16906500I15000J0D01*
G01*
D11*
X10296372Y-16797984D02*
X10315420Y-16797984D01*
X10315420Y-16797984D02*
X10334467Y-16807508D01*
X10334467Y-16807508D02*
X10343991Y-16817031D01*
X10343991Y-16817031D02*
X10353515Y-16836079D01*
X10353515Y-16836079D02*
X10363039Y-16874174D01*
X10363039Y-16874174D02*
X10363039Y-16921793D01*
X10363039Y-16921793D02*
X10353515Y-16959889D01*
X10353515Y-16959889D02*
X10343991Y-16978936D01*
X10343991Y-16978936D02*
X10334467Y-16988460D01*
X10334467Y-16988460D02*
X10315420Y-16997984D01*
X10315420Y-16997984D02*
X10296372Y-16997984D01*
X10296372Y-16997984D02*
X10277324Y-16988460D01*
X10277324Y-16988460D02*
X10267801Y-16978936D01*
X10267801Y-16978936D02*
X10258277Y-16959889D01*
X10258277Y-16959889D02*
X10248753Y-16921793D01*
X10248753Y-16921793D02*
X10248753Y-16874174D01*
X10248753Y-16874174D02*
X10258277Y-16836079D01*
X10258277Y-16836079D02*
X10267801Y-16817031D01*
X10267801Y-16817031D02*
X10277324Y-16807508D01*
X10277324Y-16807508D02*
X10296372Y-16797984D01*
X10448753Y-16978936D02*
X10458277Y-16988460D01*
X10458277Y-16988460D02*
X10448753Y-16997984D01*
X10448753Y-16997984D02*
X10439229Y-16988460D01*
X10439229Y-16988460D02*
X10448753Y-16978936D01*
X10448753Y-16978936D02*
X10448753Y-16997984D01*
X10524944Y-16797984D02*
X10648753Y-16797984D01*
X10648753Y-16797984D02*
X10582086Y-16874174D01*
X10582086Y-16874174D02*
X10610658Y-16874174D01*
X10610658Y-16874174D02*
X10629705Y-16883698D01*
X10629705Y-16883698D02*
X10639229Y-16893222D01*
X10639229Y-16893222D02*
X10648753Y-16912270D01*
X10648753Y-16912270D02*
X10648753Y-16959889D01*
X10648753Y-16959889D02*
X10639229Y-16978936D01*
X10639229Y-16978936D02*
X10629705Y-16988460D01*
X10629705Y-16988460D02*
X10610658Y-16997984D01*
X10610658Y-16997984D02*
X10553515Y-16997984D01*
X10553515Y-16997984D02*
X10534467Y-16988460D01*
X10534467Y-16988460D02*
X10524944Y-16978936D01*
X10772563Y-16797984D02*
X10791610Y-16797984D01*
X10791610Y-16797984D02*
X10810658Y-16807508D01*
X10810658Y-16807508D02*
X10820182Y-16817031D01*
X10820182Y-16817031D02*
X10829705Y-16836079D01*
X10829705Y-16836079D02*
X10839229Y-16874174D01*
X10839229Y-16874174D02*
X10839229Y-16921793D01*
X10839229Y-16921793D02*
X10829705Y-16959889D01*
X10829705Y-16959889D02*
X10820182Y-16978936D01*
X10820182Y-16978936D02*
X10810658Y-16988460D01*
X10810658Y-16988460D02*
X10791610Y-16997984D01*
X10791610Y-16997984D02*
X10772563Y-16997984D01*
X10772563Y-16997984D02*
X10753515Y-16988460D01*
X10753515Y-16988460D02*
X10743991Y-16978936D01*
X10743991Y-16978936D02*
X10734467Y-16959889D01*
X10734467Y-16959889D02*
X10724944Y-16921793D01*
X10724944Y-16921793D02*
X10724944Y-16874174D01*
X10724944Y-16874174D02*
X10734467Y-16836079D01*
X10734467Y-16836079D02*
X10743991Y-16817031D01*
X10743991Y-16817031D02*
X10753515Y-16807508D01*
X10753515Y-16807508D02*
X10772563Y-16797984D01*
X10963039Y-16797984D02*
X10982086Y-16797984D01*
X10982086Y-16797984D02*
X11001134Y-16807508D01*
X11001134Y-16807508D02*
X11010658Y-16817031D01*
X11010658Y-16817031D02*
X11020182Y-16836079D01*
X11020182Y-16836079D02*
X11029705Y-16874174D01*
X11029705Y-16874174D02*
X11029705Y-16921793D01*
X11029705Y-16921793D02*
X11020182Y-16959889D01*
X11020182Y-16959889D02*
X11010658Y-16978936D01*
X11010658Y-16978936D02*
X11001134Y-16988460D01*
X11001134Y-16988460D02*
X10982086Y-16997984D01*
X10982086Y-16997984D02*
X10963039Y-16997984D01*
X10963039Y-16997984D02*
X10943991Y-16988460D01*
X10943991Y-16988460D02*
X10934467Y-16978936D01*
X10934467Y-16978936D02*
X10924944Y-16959889D01*
X10924944Y-16959889D02*
X10915420Y-16921793D01*
X10915420Y-16921793D02*
X10915420Y-16874174D01*
X10915420Y-16874174D02*
X10924944Y-16836079D01*
X10924944Y-16836079D02*
X10934467Y-16817031D01*
X10934467Y-16817031D02*
X10943991Y-16807508D01*
X10943991Y-16807508D02*
X10963039Y-16797984D01*
X11115420Y-16997984D02*
X11115420Y-16864650D01*
X11115420Y-16883698D02*
X11124944Y-16874174D01*
X11124944Y-16874174D02*
X11143991Y-16864650D01*
X11143991Y-16864650D02*
X11172563Y-16864650D01*
X11172563Y-16864650D02*
X11191610Y-16874174D01*
X11191610Y-16874174D02*
X11201134Y-16893222D01*
X11201134Y-16893222D02*
X11201134Y-16997984D01*
X11201134Y-16893222D02*
X11210658Y-16874174D01*
X11210658Y-16874174D02*
X11229705Y-16864650D01*
X11229705Y-16864650D02*
X11258277Y-16864650D01*
X11258277Y-16864650D02*
X11277324Y-16874174D01*
X11277324Y-16874174D02*
X11286848Y-16893222D01*
X11286848Y-16893222D02*
X11286848Y-16997984D01*
X11382086Y-16997984D02*
X11382086Y-16864650D01*
X11382086Y-16883698D02*
X11391610Y-16874174D01*
X11391610Y-16874174D02*
X11410658Y-16864650D01*
X11410658Y-16864650D02*
X11439229Y-16864650D01*
X11439229Y-16864650D02*
X11458277Y-16874174D01*
X11458277Y-16874174D02*
X11467801Y-16893222D01*
X11467801Y-16893222D02*
X11467801Y-16997984D01*
X11467801Y-16893222D02*
X11477324Y-16874174D01*
X11477324Y-16874174D02*
X11496372Y-16864650D01*
X11496372Y-16864650D02*
X11524943Y-16864650D01*
X11524943Y-16864650D02*
X11543991Y-16874174D01*
X11543991Y-16874174D02*
X11553515Y-16893222D01*
X11553515Y-16893222D02*
X11553515Y-16997984D01*
X11943991Y-16788460D02*
X11772563Y-17045603D01*
X12201134Y-16797984D02*
X12220182Y-16797984D01*
X12220182Y-16797984D02*
X12239229Y-16807508D01*
X12239229Y-16807508D02*
X12248753Y-16817031D01*
X12248753Y-16817031D02*
X12258277Y-16836079D01*
X12258277Y-16836079D02*
X12267801Y-16874174D01*
X12267801Y-16874174D02*
X12267801Y-16921793D01*
X12267801Y-16921793D02*
X12258277Y-16959889D01*
X12258277Y-16959889D02*
X12248753Y-16978936D01*
X12248753Y-16978936D02*
X12239229Y-16988460D01*
X12239229Y-16988460D02*
X12220182Y-16997984D01*
X12220182Y-16997984D02*
X12201134Y-16997984D01*
X12201134Y-16997984D02*
X12182086Y-16988460D01*
X12182086Y-16988460D02*
X12172563Y-16978936D01*
X12172563Y-16978936D02*
X12163039Y-16959889D01*
X12163039Y-16959889D02*
X12153515Y-16921793D01*
X12153515Y-16921793D02*
X12153515Y-16874174D01*
X12153515Y-16874174D02*
X12163039Y-16836079D01*
X12163039Y-16836079D02*
X12172563Y-16817031D01*
X12172563Y-16817031D02*
X12182086Y-16807508D01*
X12182086Y-16807508D02*
X12201134Y-16797984D01*
X12353515Y-16978936D02*
X12363039Y-16988460D01*
X12363039Y-16988460D02*
X12353515Y-16997984D01*
X12353515Y-16997984D02*
X12343991Y-16988460D01*
X12343991Y-16988460D02*
X12353515Y-16978936D01*
X12353515Y-16978936D02*
X12353515Y-16997984D01*
X12486848Y-16797984D02*
X12505896Y-16797984D01*
X12505896Y-16797984D02*
X12524944Y-16807508D01*
X12524944Y-16807508D02*
X12534467Y-16817031D01*
X12534467Y-16817031D02*
X12543991Y-16836079D01*
X12543991Y-16836079D02*
X12553515Y-16874174D01*
X12553515Y-16874174D02*
X12553515Y-16921793D01*
X12553515Y-16921793D02*
X12543991Y-16959889D01*
X12543991Y-16959889D02*
X12534467Y-16978936D01*
X12534467Y-16978936D02*
X12524944Y-16988460D01*
X12524944Y-16988460D02*
X12505896Y-16997984D01*
X12505896Y-16997984D02*
X12486848Y-16997984D01*
X12486848Y-16997984D02*
X12467801Y-16988460D01*
X12467801Y-16988460D02*
X12458277Y-16978936D01*
X12458277Y-16978936D02*
X12448753Y-16959889D01*
X12448753Y-16959889D02*
X12439229Y-16921793D01*
X12439229Y-16921793D02*
X12439229Y-16874174D01*
X12439229Y-16874174D02*
X12448753Y-16836079D01*
X12448753Y-16836079D02*
X12458277Y-16817031D01*
X12458277Y-16817031D02*
X12467801Y-16807508D01*
X12467801Y-16807508D02*
X12486848Y-16797984D01*
X12743991Y-16997984D02*
X12629706Y-16997984D01*
X12686848Y-16997984D02*
X12686848Y-16797984D01*
X12686848Y-16797984D02*
X12667801Y-16826555D01*
X12667801Y-16826555D02*
X12648753Y-16845603D01*
X12648753Y-16845603D02*
X12629706Y-16855127D01*
X12934467Y-16997984D02*
X12820182Y-16997984D01*
X12877325Y-16997984D02*
X12877325Y-16797984D01*
X12877325Y-16797984D02*
X12858277Y-16826555D01*
X12858277Y-16826555D02*
X12839229Y-16845603D01*
X12839229Y-16845603D02*
X12820182Y-16855127D01*
X13048753Y-16883698D02*
X13029706Y-16874174D01*
X13029706Y-16874174D02*
X13020182Y-16864650D01*
X13020182Y-16864650D02*
X13010658Y-16845603D01*
X13010658Y-16845603D02*
X13010658Y-16836079D01*
X13010658Y-16836079D02*
X13020182Y-16817031D01*
X13020182Y-16817031D02*
X13029706Y-16807508D01*
X13029706Y-16807508D02*
X13048753Y-16797984D01*
X13048753Y-16797984D02*
X13086848Y-16797984D01*
X13086848Y-16797984D02*
X13105896Y-16807508D01*
X13105896Y-16807508D02*
X13115420Y-16817031D01*
X13115420Y-16817031D02*
X13124944Y-16836079D01*
X13124944Y-16836079D02*
X13124944Y-16845603D01*
X13124944Y-16845603D02*
X13115420Y-16864650D01*
X13115420Y-16864650D02*
X13105896Y-16874174D01*
X13105896Y-16874174D02*
X13086848Y-16883698D01*
X13086848Y-16883698D02*
X13048753Y-16883698D01*
X13048753Y-16883698D02*
X13029706Y-16893222D01*
X13029706Y-16893222D02*
X13020182Y-16902746D01*
X13020182Y-16902746D02*
X13010658Y-16921793D01*
X13010658Y-16921793D02*
X13010658Y-16959889D01*
X13010658Y-16959889D02*
X13020182Y-16978936D01*
X13020182Y-16978936D02*
X13029706Y-16988460D01*
X13029706Y-16988460D02*
X13048753Y-16997984D01*
X13048753Y-16997984D02*
X13086848Y-16997984D01*
X13086848Y-16997984D02*
X13105896Y-16988460D01*
X13105896Y-16988460D02*
X13115420Y-16978936D01*
X13115420Y-16978936D02*
X13124944Y-16959889D01*
X13124944Y-16959889D02*
X13124944Y-16921793D01*
X13124944Y-16921793D02*
X13115420Y-16902746D01*
X13115420Y-16902746D02*
X13105896Y-16893222D01*
X13105896Y-16893222D02*
X13086848Y-16883698D01*
X13201134Y-16797984D02*
X13201134Y-16836079D01*
X13277325Y-16797984D02*
X13277325Y-16836079D01*
X13572563Y-17074174D02*
X13563039Y-17064650D01*
X13563039Y-17064650D02*
X13543991Y-17036079D01*
X13543991Y-17036079D02*
X13534468Y-17017031D01*
X13534468Y-17017031D02*
X13524944Y-16988460D01*
X13524944Y-16988460D02*
X13515420Y-16940841D01*
X13515420Y-16940841D02*
X13515420Y-16902746D01*
X13515420Y-16902746D02*
X13524944Y-16855127D01*
X13524944Y-16855127D02*
X13534468Y-16826555D01*
X13534468Y-16826555D02*
X13543991Y-16807508D01*
X13543991Y-16807508D02*
X13563039Y-16778936D01*
X13563039Y-16778936D02*
X13572563Y-16769412D01*
X13629706Y-16797984D02*
X13753515Y-16797984D01*
X13753515Y-16797984D02*
X13686848Y-16874174D01*
X13686848Y-16874174D02*
X13715420Y-16874174D01*
X13715420Y-16874174D02*
X13734468Y-16883698D01*
X13734468Y-16883698D02*
X13743991Y-16893222D01*
X13743991Y-16893222D02*
X13753515Y-16912270D01*
X13753515Y-16912270D02*
X13753515Y-16959889D01*
X13753515Y-16959889D02*
X13743991Y-16978936D01*
X13743991Y-16978936D02*
X13734468Y-16988460D01*
X13734468Y-16988460D02*
X13715420Y-16997984D01*
X13715420Y-16997984D02*
X13658277Y-16997984D01*
X13658277Y-16997984D02*
X13639229Y-16988460D01*
X13639229Y-16988460D02*
X13629706Y-16978936D01*
X13877325Y-16797984D02*
X13896372Y-16797984D01*
X13896372Y-16797984D02*
X13915420Y-16807508D01*
X13915420Y-16807508D02*
X13924944Y-16817031D01*
X13924944Y-16817031D02*
X13934468Y-16836079D01*
X13934468Y-16836079D02*
X13943991Y-16874174D01*
X13943991Y-16874174D02*
X13943991Y-16921793D01*
X13943991Y-16921793D02*
X13934468Y-16959889D01*
X13934468Y-16959889D02*
X13924944Y-16978936D01*
X13924944Y-16978936D02*
X13915420Y-16988460D01*
X13915420Y-16988460D02*
X13896372Y-16997984D01*
X13896372Y-16997984D02*
X13877325Y-16997984D01*
X13877325Y-16997984D02*
X13858277Y-16988460D01*
X13858277Y-16988460D02*
X13848753Y-16978936D01*
X13848753Y-16978936D02*
X13839229Y-16959889D01*
X13839229Y-16959889D02*
X13829706Y-16921793D01*
X13829706Y-16921793D02*
X13829706Y-16874174D01*
X13829706Y-16874174D02*
X13839229Y-16836079D01*
X13839229Y-16836079D02*
X13848753Y-16817031D01*
X13848753Y-16817031D02*
X13858277Y-16807508D01*
X13858277Y-16807508D02*
X13877325Y-16797984D01*
X14182087Y-16997984D02*
X14182087Y-16797984D01*
X14267801Y-16997984D02*
X14267801Y-16893222D01*
X14267801Y-16893222D02*
X14258277Y-16874174D01*
X14258277Y-16874174D02*
X14239230Y-16864650D01*
X14239230Y-16864650D02*
X14210658Y-16864650D01*
X14210658Y-16864650D02*
X14191610Y-16874174D01*
X14191610Y-16874174D02*
X14182087Y-16883698D01*
X14391610Y-16997984D02*
X14372563Y-16988460D01*
X14372563Y-16988460D02*
X14363039Y-16978936D01*
X14363039Y-16978936D02*
X14353515Y-16959889D01*
X14353515Y-16959889D02*
X14353515Y-16902746D01*
X14353515Y-16902746D02*
X14363039Y-16883698D01*
X14363039Y-16883698D02*
X14372563Y-16874174D01*
X14372563Y-16874174D02*
X14391610Y-16864650D01*
X14391610Y-16864650D02*
X14420182Y-16864650D01*
X14420182Y-16864650D02*
X14439230Y-16874174D01*
X14439230Y-16874174D02*
X14448753Y-16883698D01*
X14448753Y-16883698D02*
X14458277Y-16902746D01*
X14458277Y-16902746D02*
X14458277Y-16959889D01*
X14458277Y-16959889D02*
X14448753Y-16978936D01*
X14448753Y-16978936D02*
X14439230Y-16988460D01*
X14439230Y-16988460D02*
X14420182Y-16997984D01*
X14420182Y-16997984D02*
X14391610Y-16997984D01*
X14572563Y-16997984D02*
X14553515Y-16988460D01*
X14553515Y-16988460D02*
X14543991Y-16969412D01*
X14543991Y-16969412D02*
X14543991Y-16797984D01*
X14724944Y-16988460D02*
X14705896Y-16997984D01*
X14705896Y-16997984D02*
X14667801Y-16997984D01*
X14667801Y-16997984D02*
X14648753Y-16988460D01*
X14648753Y-16988460D02*
X14639230Y-16969412D01*
X14639230Y-16969412D02*
X14639230Y-16893222D01*
X14639230Y-16893222D02*
X14648753Y-16874174D01*
X14648753Y-16874174D02*
X14667801Y-16864650D01*
X14667801Y-16864650D02*
X14705896Y-16864650D01*
X14705896Y-16864650D02*
X14724944Y-16874174D01*
X14724944Y-16874174D02*
X14734468Y-16893222D01*
X14734468Y-16893222D02*
X14734468Y-16912270D01*
X14734468Y-16912270D02*
X14639230Y-16931317D01*
X14810658Y-16988460D02*
X14829706Y-16997984D01*
X14829706Y-16997984D02*
X14867801Y-16997984D01*
X14867801Y-16997984D02*
X14886849Y-16988460D01*
X14886849Y-16988460D02*
X14896372Y-16969412D01*
X14896372Y-16969412D02*
X14896372Y-16959889D01*
X14896372Y-16959889D02*
X14886849Y-16940841D01*
X14886849Y-16940841D02*
X14867801Y-16931317D01*
X14867801Y-16931317D02*
X14839230Y-16931317D01*
X14839230Y-16931317D02*
X14820182Y-16921793D01*
X14820182Y-16921793D02*
X14810658Y-16902746D01*
X14810658Y-16902746D02*
X14810658Y-16893222D01*
X14810658Y-16893222D02*
X14820182Y-16874174D01*
X14820182Y-16874174D02*
X14839230Y-16864650D01*
X14839230Y-16864650D02*
X14867801Y-16864650D01*
X14867801Y-16864650D02*
X14886849Y-16874174D01*
X14963039Y-17074174D02*
X14972563Y-17064650D01*
X14972563Y-17064650D02*
X14991611Y-17036079D01*
X14991611Y-17036079D02*
X15001134Y-17017031D01*
X15001134Y-17017031D02*
X15010658Y-16988460D01*
X15010658Y-16988460D02*
X15020182Y-16940841D01*
X15020182Y-16940841D02*
X15020182Y-16902746D01*
X15020182Y-16902746D02*
X15010658Y-16855127D01*
X15010658Y-16855127D02*
X15001134Y-16826555D01*
X15001134Y-16826555D02*
X14991611Y-16807508D01*
X14991611Y-16807508D02*
X14972563Y-16778936D01*
X14972563Y-16778936D02*
X14963039Y-16769412D01*
D12*
X9972500Y-17145500D02*
X9972500Y-17195500D01*
X9947500Y-17170500D02*
X9997500Y-17170500D01*
D11*
X10296372Y-17061984D02*
X10315420Y-17061984D01*
X10315420Y-17061984D02*
X10334467Y-17071508D01*
X10334467Y-17071508D02*
X10343991Y-17081031D01*
X10343991Y-17081031D02*
X10353515Y-17100079D01*
X10353515Y-17100079D02*
X10363039Y-17138174D01*
X10363039Y-17138174D02*
X10363039Y-17185793D01*
X10363039Y-17185793D02*
X10353515Y-17223889D01*
X10353515Y-17223889D02*
X10343991Y-17242936D01*
X10343991Y-17242936D02*
X10334467Y-17252460D01*
X10334467Y-17252460D02*
X10315420Y-17261984D01*
X10315420Y-17261984D02*
X10296372Y-17261984D01*
X10296372Y-17261984D02*
X10277324Y-17252460D01*
X10277324Y-17252460D02*
X10267801Y-17242936D01*
X10267801Y-17242936D02*
X10258277Y-17223889D01*
X10258277Y-17223889D02*
X10248753Y-17185793D01*
X10248753Y-17185793D02*
X10248753Y-17138174D01*
X10248753Y-17138174D02*
X10258277Y-17100079D01*
X10258277Y-17100079D02*
X10267801Y-17081031D01*
X10267801Y-17081031D02*
X10277324Y-17071508D01*
X10277324Y-17071508D02*
X10296372Y-17061984D01*
X10448753Y-17242936D02*
X10458277Y-17252460D01*
X10458277Y-17252460D02*
X10448753Y-17261984D01*
X10448753Y-17261984D02*
X10439229Y-17252460D01*
X10439229Y-17252460D02*
X10448753Y-17242936D01*
X10448753Y-17242936D02*
X10448753Y-17261984D01*
X10639229Y-17061984D02*
X10543991Y-17061984D01*
X10543991Y-17061984D02*
X10534467Y-17157222D01*
X10534467Y-17157222D02*
X10543991Y-17147698D01*
X10543991Y-17147698D02*
X10563039Y-17138174D01*
X10563039Y-17138174D02*
X10610658Y-17138174D01*
X10610658Y-17138174D02*
X10629705Y-17147698D01*
X10629705Y-17147698D02*
X10639229Y-17157222D01*
X10639229Y-17157222D02*
X10648753Y-17176270D01*
X10648753Y-17176270D02*
X10648753Y-17223889D01*
X10648753Y-17223889D02*
X10639229Y-17242936D01*
X10639229Y-17242936D02*
X10629705Y-17252460D01*
X10629705Y-17252460D02*
X10610658Y-17261984D01*
X10610658Y-17261984D02*
X10563039Y-17261984D01*
X10563039Y-17261984D02*
X10543991Y-17252460D01*
X10543991Y-17252460D02*
X10534467Y-17242936D01*
X10772563Y-17061984D02*
X10791610Y-17061984D01*
X10791610Y-17061984D02*
X10810658Y-17071508D01*
X10810658Y-17071508D02*
X10820182Y-17081031D01*
X10820182Y-17081031D02*
X10829705Y-17100079D01*
X10829705Y-17100079D02*
X10839229Y-17138174D01*
X10839229Y-17138174D02*
X10839229Y-17185793D01*
X10839229Y-17185793D02*
X10829705Y-17223889D01*
X10829705Y-17223889D02*
X10820182Y-17242936D01*
X10820182Y-17242936D02*
X10810658Y-17252460D01*
X10810658Y-17252460D02*
X10791610Y-17261984D01*
X10791610Y-17261984D02*
X10772563Y-17261984D01*
X10772563Y-17261984D02*
X10753515Y-17252460D01*
X10753515Y-17252460D02*
X10743991Y-17242936D01*
X10743991Y-17242936D02*
X10734467Y-17223889D01*
X10734467Y-17223889D02*
X10724944Y-17185793D01*
X10724944Y-17185793D02*
X10724944Y-17138174D01*
X10724944Y-17138174D02*
X10734467Y-17100079D01*
X10734467Y-17100079D02*
X10743991Y-17081031D01*
X10743991Y-17081031D02*
X10753515Y-17071508D01*
X10753515Y-17071508D02*
X10772563Y-17061984D01*
X10963039Y-17061984D02*
X10982086Y-17061984D01*
X10982086Y-17061984D02*
X11001134Y-17071508D01*
X11001134Y-17071508D02*
X11010658Y-17081031D01*
X11010658Y-17081031D02*
X11020182Y-17100079D01*
X11020182Y-17100079D02*
X11029705Y-17138174D01*
X11029705Y-17138174D02*
X11029705Y-17185793D01*
X11029705Y-17185793D02*
X11020182Y-17223889D01*
X11020182Y-17223889D02*
X11010658Y-17242936D01*
X11010658Y-17242936D02*
X11001134Y-17252460D01*
X11001134Y-17252460D02*
X10982086Y-17261984D01*
X10982086Y-17261984D02*
X10963039Y-17261984D01*
X10963039Y-17261984D02*
X10943991Y-17252460D01*
X10943991Y-17252460D02*
X10934467Y-17242936D01*
X10934467Y-17242936D02*
X10924944Y-17223889D01*
X10924944Y-17223889D02*
X10915420Y-17185793D01*
X10915420Y-17185793D02*
X10915420Y-17138174D01*
X10915420Y-17138174D02*
X10924944Y-17100079D01*
X10924944Y-17100079D02*
X10934467Y-17081031D01*
X10934467Y-17081031D02*
X10943991Y-17071508D01*
X10943991Y-17071508D02*
X10963039Y-17061984D01*
X11115420Y-17261984D02*
X11115420Y-17128650D01*
X11115420Y-17147698D02*
X11124944Y-17138174D01*
X11124944Y-17138174D02*
X11143991Y-17128650D01*
X11143991Y-17128650D02*
X11172563Y-17128650D01*
X11172563Y-17128650D02*
X11191610Y-17138174D01*
X11191610Y-17138174D02*
X11201134Y-17157222D01*
X11201134Y-17157222D02*
X11201134Y-17261984D01*
X11201134Y-17157222D02*
X11210658Y-17138174D01*
X11210658Y-17138174D02*
X11229705Y-17128650D01*
X11229705Y-17128650D02*
X11258277Y-17128650D01*
X11258277Y-17128650D02*
X11277324Y-17138174D01*
X11277324Y-17138174D02*
X11286848Y-17157222D01*
X11286848Y-17157222D02*
X11286848Y-17261984D01*
X11382086Y-17261984D02*
X11382086Y-17128650D01*
X11382086Y-17147698D02*
X11391610Y-17138174D01*
X11391610Y-17138174D02*
X11410658Y-17128650D01*
X11410658Y-17128650D02*
X11439229Y-17128650D01*
X11439229Y-17128650D02*
X11458277Y-17138174D01*
X11458277Y-17138174D02*
X11467801Y-17157222D01*
X11467801Y-17157222D02*
X11467801Y-17261984D01*
X11467801Y-17157222D02*
X11477324Y-17138174D01*
X11477324Y-17138174D02*
X11496372Y-17128650D01*
X11496372Y-17128650D02*
X11524943Y-17128650D01*
X11524943Y-17128650D02*
X11543991Y-17138174D01*
X11543991Y-17138174D02*
X11553515Y-17157222D01*
X11553515Y-17157222D02*
X11553515Y-17261984D01*
X11943991Y-17052460D02*
X11772563Y-17309603D01*
X12201134Y-17061984D02*
X12220182Y-17061984D01*
X12220182Y-17061984D02*
X12239229Y-17071508D01*
X12239229Y-17071508D02*
X12248753Y-17081031D01*
X12248753Y-17081031D02*
X12258277Y-17100079D01*
X12258277Y-17100079D02*
X12267801Y-17138174D01*
X12267801Y-17138174D02*
X12267801Y-17185793D01*
X12267801Y-17185793D02*
X12258277Y-17223889D01*
X12258277Y-17223889D02*
X12248753Y-17242936D01*
X12248753Y-17242936D02*
X12239229Y-17252460D01*
X12239229Y-17252460D02*
X12220182Y-17261984D01*
X12220182Y-17261984D02*
X12201134Y-17261984D01*
X12201134Y-17261984D02*
X12182086Y-17252460D01*
X12182086Y-17252460D02*
X12172563Y-17242936D01*
X12172563Y-17242936D02*
X12163039Y-17223889D01*
X12163039Y-17223889D02*
X12153515Y-17185793D01*
X12153515Y-17185793D02*
X12153515Y-17138174D01*
X12153515Y-17138174D02*
X12163039Y-17100079D01*
X12163039Y-17100079D02*
X12172563Y-17081031D01*
X12172563Y-17081031D02*
X12182086Y-17071508D01*
X12182086Y-17071508D02*
X12201134Y-17061984D01*
X12353515Y-17242936D02*
X12363039Y-17252460D01*
X12363039Y-17252460D02*
X12353515Y-17261984D01*
X12353515Y-17261984D02*
X12343991Y-17252460D01*
X12343991Y-17252460D02*
X12353515Y-17242936D01*
X12353515Y-17242936D02*
X12353515Y-17261984D01*
X12486848Y-17061984D02*
X12505896Y-17061984D01*
X12505896Y-17061984D02*
X12524944Y-17071508D01*
X12524944Y-17071508D02*
X12534467Y-17081031D01*
X12534467Y-17081031D02*
X12543991Y-17100079D01*
X12543991Y-17100079D02*
X12553515Y-17138174D01*
X12553515Y-17138174D02*
X12553515Y-17185793D01*
X12553515Y-17185793D02*
X12543991Y-17223889D01*
X12543991Y-17223889D02*
X12534467Y-17242936D01*
X12534467Y-17242936D02*
X12524944Y-17252460D01*
X12524944Y-17252460D02*
X12505896Y-17261984D01*
X12505896Y-17261984D02*
X12486848Y-17261984D01*
X12486848Y-17261984D02*
X12467801Y-17252460D01*
X12467801Y-17252460D02*
X12458277Y-17242936D01*
X12458277Y-17242936D02*
X12448753Y-17223889D01*
X12448753Y-17223889D02*
X12439229Y-17185793D01*
X12439229Y-17185793D02*
X12439229Y-17138174D01*
X12439229Y-17138174D02*
X12448753Y-17100079D01*
X12448753Y-17100079D02*
X12458277Y-17081031D01*
X12458277Y-17081031D02*
X12467801Y-17071508D01*
X12467801Y-17071508D02*
X12486848Y-17061984D01*
X12743991Y-17261984D02*
X12629706Y-17261984D01*
X12686848Y-17261984D02*
X12686848Y-17061984D01*
X12686848Y-17061984D02*
X12667801Y-17090555D01*
X12667801Y-17090555D02*
X12648753Y-17109603D01*
X12648753Y-17109603D02*
X12629706Y-17119127D01*
X12839229Y-17261984D02*
X12877325Y-17261984D01*
X12877325Y-17261984D02*
X12896372Y-17252460D01*
X12896372Y-17252460D02*
X12905896Y-17242936D01*
X12905896Y-17242936D02*
X12924944Y-17214365D01*
X12924944Y-17214365D02*
X12934467Y-17176270D01*
X12934467Y-17176270D02*
X12934467Y-17100079D01*
X12934467Y-17100079D02*
X12924944Y-17081031D01*
X12924944Y-17081031D02*
X12915420Y-17071508D01*
X12915420Y-17071508D02*
X12896372Y-17061984D01*
X12896372Y-17061984D02*
X12858277Y-17061984D01*
X12858277Y-17061984D02*
X12839229Y-17071508D01*
X12839229Y-17071508D02*
X12829706Y-17081031D01*
X12829706Y-17081031D02*
X12820182Y-17100079D01*
X12820182Y-17100079D02*
X12820182Y-17147698D01*
X12820182Y-17147698D02*
X12829706Y-17166746D01*
X12829706Y-17166746D02*
X12839229Y-17176270D01*
X12839229Y-17176270D02*
X12858277Y-17185793D01*
X12858277Y-17185793D02*
X12896372Y-17185793D01*
X12896372Y-17185793D02*
X12915420Y-17176270D01*
X12915420Y-17176270D02*
X12924944Y-17166746D01*
X12924944Y-17166746D02*
X12934467Y-17147698D01*
X13001134Y-17061984D02*
X13134467Y-17061984D01*
X13134467Y-17061984D02*
X13048753Y-17261984D01*
X13201134Y-17061984D02*
X13201134Y-17100079D01*
X13277325Y-17061984D02*
X13277325Y-17100079D01*
X13572563Y-17338174D02*
X13563039Y-17328650D01*
X13563039Y-17328650D02*
X13543991Y-17300079D01*
X13543991Y-17300079D02*
X13534468Y-17281031D01*
X13534468Y-17281031D02*
X13524944Y-17252460D01*
X13524944Y-17252460D02*
X13515420Y-17204841D01*
X13515420Y-17204841D02*
X13515420Y-17166746D01*
X13515420Y-17166746D02*
X13524944Y-17119127D01*
X13524944Y-17119127D02*
X13534468Y-17090555D01*
X13534468Y-17090555D02*
X13543991Y-17071508D01*
X13543991Y-17071508D02*
X13563039Y-17042936D01*
X13563039Y-17042936D02*
X13572563Y-17033412D01*
X13686848Y-17061984D02*
X13705896Y-17061984D01*
X13705896Y-17061984D02*
X13724944Y-17071508D01*
X13724944Y-17071508D02*
X13734468Y-17081031D01*
X13734468Y-17081031D02*
X13743991Y-17100079D01*
X13743991Y-17100079D02*
X13753515Y-17138174D01*
X13753515Y-17138174D02*
X13753515Y-17185793D01*
X13753515Y-17185793D02*
X13743991Y-17223889D01*
X13743991Y-17223889D02*
X13734468Y-17242936D01*
X13734468Y-17242936D02*
X13724944Y-17252460D01*
X13724944Y-17252460D02*
X13705896Y-17261984D01*
X13705896Y-17261984D02*
X13686848Y-17261984D01*
X13686848Y-17261984D02*
X13667801Y-17252460D01*
X13667801Y-17252460D02*
X13658277Y-17242936D01*
X13658277Y-17242936D02*
X13648753Y-17223889D01*
X13648753Y-17223889D02*
X13639229Y-17185793D01*
X13639229Y-17185793D02*
X13639229Y-17138174D01*
X13639229Y-17138174D02*
X13648753Y-17100079D01*
X13648753Y-17100079D02*
X13658277Y-17081031D01*
X13658277Y-17081031D02*
X13667801Y-17071508D01*
X13667801Y-17071508D02*
X13686848Y-17061984D01*
X13991610Y-17261984D02*
X13991610Y-17061984D01*
X14077325Y-17261984D02*
X14077325Y-17157222D01*
X14077325Y-17157222D02*
X14067801Y-17138174D01*
X14067801Y-17138174D02*
X14048753Y-17128650D01*
X14048753Y-17128650D02*
X14020182Y-17128650D01*
X14020182Y-17128650D02*
X14001134Y-17138174D01*
X14001134Y-17138174D02*
X13991610Y-17147698D01*
X14201134Y-17261984D02*
X14182087Y-17252460D01*
X14182087Y-17252460D02*
X14172563Y-17242936D01*
X14172563Y-17242936D02*
X14163039Y-17223889D01*
X14163039Y-17223889D02*
X14163039Y-17166746D01*
X14163039Y-17166746D02*
X14172563Y-17147698D01*
X14172563Y-17147698D02*
X14182087Y-17138174D01*
X14182087Y-17138174D02*
X14201134Y-17128650D01*
X14201134Y-17128650D02*
X14229706Y-17128650D01*
X14229706Y-17128650D02*
X14248753Y-17138174D01*
X14248753Y-17138174D02*
X14258277Y-17147698D01*
X14258277Y-17147698D02*
X14267801Y-17166746D01*
X14267801Y-17166746D02*
X14267801Y-17223889D01*
X14267801Y-17223889D02*
X14258277Y-17242936D01*
X14258277Y-17242936D02*
X14248753Y-17252460D01*
X14248753Y-17252460D02*
X14229706Y-17261984D01*
X14229706Y-17261984D02*
X14201134Y-17261984D01*
X14382087Y-17261984D02*
X14363039Y-17252460D01*
X14363039Y-17252460D02*
X14353515Y-17233412D01*
X14353515Y-17233412D02*
X14353515Y-17061984D01*
X14534468Y-17252460D02*
X14515420Y-17261984D01*
X14515420Y-17261984D02*
X14477325Y-17261984D01*
X14477325Y-17261984D02*
X14458277Y-17252460D01*
X14458277Y-17252460D02*
X14448753Y-17233412D01*
X14448753Y-17233412D02*
X14448753Y-17157222D01*
X14448753Y-17157222D02*
X14458277Y-17138174D01*
X14458277Y-17138174D02*
X14477325Y-17128650D01*
X14477325Y-17128650D02*
X14515420Y-17128650D01*
X14515420Y-17128650D02*
X14534468Y-17138174D01*
X14534468Y-17138174D02*
X14543991Y-17157222D01*
X14543991Y-17157222D02*
X14543991Y-17176270D01*
X14543991Y-17176270D02*
X14448753Y-17195317D01*
X14620182Y-17252460D02*
X14639230Y-17261984D01*
X14639230Y-17261984D02*
X14677325Y-17261984D01*
X14677325Y-17261984D02*
X14696372Y-17252460D01*
X14696372Y-17252460D02*
X14705896Y-17233412D01*
X14705896Y-17233412D02*
X14705896Y-17223889D01*
X14705896Y-17223889D02*
X14696372Y-17204841D01*
X14696372Y-17204841D02*
X14677325Y-17195317D01*
X14677325Y-17195317D02*
X14648753Y-17195317D01*
X14648753Y-17195317D02*
X14629706Y-17185793D01*
X14629706Y-17185793D02*
X14620182Y-17166746D01*
X14620182Y-17166746D02*
X14620182Y-17157222D01*
X14620182Y-17157222D02*
X14629706Y-17138174D01*
X14629706Y-17138174D02*
X14648753Y-17128650D01*
X14648753Y-17128650D02*
X14677325Y-17128650D01*
X14677325Y-17128650D02*
X14696372Y-17138174D01*
X14943992Y-17185793D02*
X15096373Y-17185793D01*
X15020182Y-17261984D02*
X15020182Y-17109603D01*
X15334468Y-17081031D02*
X15343992Y-17071508D01*
X15343992Y-17071508D02*
X15363039Y-17061984D01*
X15363039Y-17061984D02*
X15410658Y-17061984D01*
X15410658Y-17061984D02*
X15429706Y-17071508D01*
X15429706Y-17071508D02*
X15439230Y-17081031D01*
X15439230Y-17081031D02*
X15448753Y-17100079D01*
X15448753Y-17100079D02*
X15448753Y-17119127D01*
X15448753Y-17119127D02*
X15439230Y-17147698D01*
X15439230Y-17147698D02*
X15324944Y-17261984D01*
X15324944Y-17261984D02*
X15448753Y-17261984D01*
X15677325Y-17252460D02*
X15696373Y-17261984D01*
X15696373Y-17261984D02*
X15734468Y-17261984D01*
X15734468Y-17261984D02*
X15753515Y-17252460D01*
X15753515Y-17252460D02*
X15763039Y-17233412D01*
X15763039Y-17233412D02*
X15763039Y-17223889D01*
X15763039Y-17223889D02*
X15753515Y-17204841D01*
X15753515Y-17204841D02*
X15734468Y-17195317D01*
X15734468Y-17195317D02*
X15705896Y-17195317D01*
X15705896Y-17195317D02*
X15686849Y-17185793D01*
X15686849Y-17185793D02*
X15677325Y-17166746D01*
X15677325Y-17166746D02*
X15677325Y-17157222D01*
X15677325Y-17157222D02*
X15686849Y-17138174D01*
X15686849Y-17138174D02*
X15705896Y-17128650D01*
X15705896Y-17128650D02*
X15734468Y-17128650D01*
X15734468Y-17128650D02*
X15753515Y-17138174D01*
X15877325Y-17261984D02*
X15858277Y-17252460D01*
X15858277Y-17252460D02*
X15848754Y-17233412D01*
X15848754Y-17233412D02*
X15848754Y-17061984D01*
X15982087Y-17261984D02*
X15963039Y-17252460D01*
X15963039Y-17252460D02*
X15953515Y-17242936D01*
X15953515Y-17242936D02*
X15943992Y-17223889D01*
X15943992Y-17223889D02*
X15943992Y-17166746D01*
X15943992Y-17166746D02*
X15953515Y-17147698D01*
X15953515Y-17147698D02*
X15963039Y-17138174D01*
X15963039Y-17138174D02*
X15982087Y-17128650D01*
X15982087Y-17128650D02*
X16010658Y-17128650D01*
X16010658Y-17128650D02*
X16029706Y-17138174D01*
X16029706Y-17138174D02*
X16039230Y-17147698D01*
X16039230Y-17147698D02*
X16048754Y-17166746D01*
X16048754Y-17166746D02*
X16048754Y-17223889D01*
X16048754Y-17223889D02*
X16039230Y-17242936D01*
X16039230Y-17242936D02*
X16029706Y-17252460D01*
X16029706Y-17252460D02*
X16010658Y-17261984D01*
X16010658Y-17261984D02*
X15982087Y-17261984D01*
X16105896Y-17128650D02*
X16182087Y-17128650D01*
X16134468Y-17061984D02*
X16134468Y-17233412D01*
X16134468Y-17233412D02*
X16143992Y-17252460D01*
X16143992Y-17252460D02*
X16163039Y-17261984D01*
X16163039Y-17261984D02*
X16182087Y-17261984D01*
X16239230Y-17252460D02*
X16258277Y-17261984D01*
X16258277Y-17261984D02*
X16296373Y-17261984D01*
X16296373Y-17261984D02*
X16315420Y-17252460D01*
X16315420Y-17252460D02*
X16324944Y-17233412D01*
X16324944Y-17233412D02*
X16324944Y-17223889D01*
X16324944Y-17223889D02*
X16315420Y-17204841D01*
X16315420Y-17204841D02*
X16296373Y-17195317D01*
X16296373Y-17195317D02*
X16267801Y-17195317D01*
X16267801Y-17195317D02*
X16248754Y-17185793D01*
X16248754Y-17185793D02*
X16239230Y-17166746D01*
X16239230Y-17166746D02*
X16239230Y-17157222D01*
X16239230Y-17157222D02*
X16248754Y-17138174D01*
X16248754Y-17138174D02*
X16267801Y-17128650D01*
X16267801Y-17128650D02*
X16296373Y-17128650D01*
X16296373Y-17128650D02*
X16315420Y-17138174D01*
X16391611Y-17338174D02*
X16401135Y-17328650D01*
X16401135Y-17328650D02*
X16420182Y-17300079D01*
X16420182Y-17300079D02*
X16429706Y-17281031D01*
X16429706Y-17281031D02*
X16439230Y-17252460D01*
X16439230Y-17252460D02*
X16448754Y-17204841D01*
X16448754Y-17204841D02*
X16448754Y-17166746D01*
X16448754Y-17166746D02*
X16439230Y-17119127D01*
X16439230Y-17119127D02*
X16429706Y-17090555D01*
X16429706Y-17090555D02*
X16420182Y-17071508D01*
X16420182Y-17071508D02*
X16401135Y-17042936D01*
X16401135Y-17042936D02*
X16391611Y-17033412D01*
D12*
X9982856Y-17469856D02*
X9982856Y-17399144D01*
X9912144Y-17399144D01*
X9912144Y-17469856D01*
X9982856Y-17469856D01*
D11*
X10363039Y-17525984D02*
X10248753Y-17525984D01*
X10305896Y-17525984D02*
X10305896Y-17325984D01*
X10305896Y-17325984D02*
X10286848Y-17354555D01*
X10286848Y-17354555D02*
X10267801Y-17373603D01*
X10267801Y-17373603D02*
X10248753Y-17383127D01*
X10448753Y-17506936D02*
X10458277Y-17516460D01*
X10458277Y-17516460D02*
X10448753Y-17525984D01*
X10448753Y-17525984D02*
X10439229Y-17516460D01*
X10439229Y-17516460D02*
X10448753Y-17506936D01*
X10448753Y-17506936D02*
X10448753Y-17525984D01*
X10582086Y-17325984D02*
X10601134Y-17325984D01*
X10601134Y-17325984D02*
X10620182Y-17335508D01*
X10620182Y-17335508D02*
X10629705Y-17345031D01*
X10629705Y-17345031D02*
X10639229Y-17364079D01*
X10639229Y-17364079D02*
X10648753Y-17402174D01*
X10648753Y-17402174D02*
X10648753Y-17449793D01*
X10648753Y-17449793D02*
X10639229Y-17487889D01*
X10639229Y-17487889D02*
X10629705Y-17506936D01*
X10629705Y-17506936D02*
X10620182Y-17516460D01*
X10620182Y-17516460D02*
X10601134Y-17525984D01*
X10601134Y-17525984D02*
X10582086Y-17525984D01*
X10582086Y-17525984D02*
X10563039Y-17516460D01*
X10563039Y-17516460D02*
X10553515Y-17506936D01*
X10553515Y-17506936D02*
X10543991Y-17487889D01*
X10543991Y-17487889D02*
X10534467Y-17449793D01*
X10534467Y-17449793D02*
X10534467Y-17402174D01*
X10534467Y-17402174D02*
X10543991Y-17364079D01*
X10543991Y-17364079D02*
X10553515Y-17345031D01*
X10553515Y-17345031D02*
X10563039Y-17335508D01*
X10563039Y-17335508D02*
X10582086Y-17325984D01*
X10772563Y-17325984D02*
X10791610Y-17325984D01*
X10791610Y-17325984D02*
X10810658Y-17335508D01*
X10810658Y-17335508D02*
X10820182Y-17345031D01*
X10820182Y-17345031D02*
X10829705Y-17364079D01*
X10829705Y-17364079D02*
X10839229Y-17402174D01*
X10839229Y-17402174D02*
X10839229Y-17449793D01*
X10839229Y-17449793D02*
X10829705Y-17487889D01*
X10829705Y-17487889D02*
X10820182Y-17506936D01*
X10820182Y-17506936D02*
X10810658Y-17516460D01*
X10810658Y-17516460D02*
X10791610Y-17525984D01*
X10791610Y-17525984D02*
X10772563Y-17525984D01*
X10772563Y-17525984D02*
X10753515Y-17516460D01*
X10753515Y-17516460D02*
X10743991Y-17506936D01*
X10743991Y-17506936D02*
X10734467Y-17487889D01*
X10734467Y-17487889D02*
X10724944Y-17449793D01*
X10724944Y-17449793D02*
X10724944Y-17402174D01*
X10724944Y-17402174D02*
X10734467Y-17364079D01*
X10734467Y-17364079D02*
X10743991Y-17345031D01*
X10743991Y-17345031D02*
X10753515Y-17335508D01*
X10753515Y-17335508D02*
X10772563Y-17325984D01*
X10963039Y-17325984D02*
X10982086Y-17325984D01*
X10982086Y-17325984D02*
X11001134Y-17335508D01*
X11001134Y-17335508D02*
X11010658Y-17345031D01*
X11010658Y-17345031D02*
X11020182Y-17364079D01*
X11020182Y-17364079D02*
X11029705Y-17402174D01*
X11029705Y-17402174D02*
X11029705Y-17449793D01*
X11029705Y-17449793D02*
X11020182Y-17487889D01*
X11020182Y-17487889D02*
X11010658Y-17506936D01*
X11010658Y-17506936D02*
X11001134Y-17516460D01*
X11001134Y-17516460D02*
X10982086Y-17525984D01*
X10982086Y-17525984D02*
X10963039Y-17525984D01*
X10963039Y-17525984D02*
X10943991Y-17516460D01*
X10943991Y-17516460D02*
X10934467Y-17506936D01*
X10934467Y-17506936D02*
X10924944Y-17487889D01*
X10924944Y-17487889D02*
X10915420Y-17449793D01*
X10915420Y-17449793D02*
X10915420Y-17402174D01*
X10915420Y-17402174D02*
X10924944Y-17364079D01*
X10924944Y-17364079D02*
X10934467Y-17345031D01*
X10934467Y-17345031D02*
X10943991Y-17335508D01*
X10943991Y-17335508D02*
X10963039Y-17325984D01*
X11115420Y-17525984D02*
X11115420Y-17392650D01*
X11115420Y-17411698D02*
X11124944Y-17402174D01*
X11124944Y-17402174D02*
X11143991Y-17392650D01*
X11143991Y-17392650D02*
X11172563Y-17392650D01*
X11172563Y-17392650D02*
X11191610Y-17402174D01*
X11191610Y-17402174D02*
X11201134Y-17421222D01*
X11201134Y-17421222D02*
X11201134Y-17525984D01*
X11201134Y-17421222D02*
X11210658Y-17402174D01*
X11210658Y-17402174D02*
X11229705Y-17392650D01*
X11229705Y-17392650D02*
X11258277Y-17392650D01*
X11258277Y-17392650D02*
X11277324Y-17402174D01*
X11277324Y-17402174D02*
X11286848Y-17421222D01*
X11286848Y-17421222D02*
X11286848Y-17525984D01*
X11382086Y-17525984D02*
X11382086Y-17392650D01*
X11382086Y-17411698D02*
X11391610Y-17402174D01*
X11391610Y-17402174D02*
X11410658Y-17392650D01*
X11410658Y-17392650D02*
X11439229Y-17392650D01*
X11439229Y-17392650D02*
X11458277Y-17402174D01*
X11458277Y-17402174D02*
X11467801Y-17421222D01*
X11467801Y-17421222D02*
X11467801Y-17525984D01*
X11467801Y-17421222D02*
X11477324Y-17402174D01*
X11477324Y-17402174D02*
X11496372Y-17392650D01*
X11496372Y-17392650D02*
X11524943Y-17392650D01*
X11524943Y-17392650D02*
X11543991Y-17402174D01*
X11543991Y-17402174D02*
X11553515Y-17421222D01*
X11553515Y-17421222D02*
X11553515Y-17525984D01*
X11943991Y-17316460D02*
X11772563Y-17573603D01*
X12201134Y-17325984D02*
X12220182Y-17325984D01*
X12220182Y-17325984D02*
X12239229Y-17335508D01*
X12239229Y-17335508D02*
X12248753Y-17345031D01*
X12248753Y-17345031D02*
X12258277Y-17364079D01*
X12258277Y-17364079D02*
X12267801Y-17402174D01*
X12267801Y-17402174D02*
X12267801Y-17449793D01*
X12267801Y-17449793D02*
X12258277Y-17487889D01*
X12258277Y-17487889D02*
X12248753Y-17506936D01*
X12248753Y-17506936D02*
X12239229Y-17516460D01*
X12239229Y-17516460D02*
X12220182Y-17525984D01*
X12220182Y-17525984D02*
X12201134Y-17525984D01*
X12201134Y-17525984D02*
X12182086Y-17516460D01*
X12182086Y-17516460D02*
X12172563Y-17506936D01*
X12172563Y-17506936D02*
X12163039Y-17487889D01*
X12163039Y-17487889D02*
X12153515Y-17449793D01*
X12153515Y-17449793D02*
X12153515Y-17402174D01*
X12153515Y-17402174D02*
X12163039Y-17364079D01*
X12163039Y-17364079D02*
X12172563Y-17345031D01*
X12172563Y-17345031D02*
X12182086Y-17335508D01*
X12182086Y-17335508D02*
X12201134Y-17325984D01*
X12353515Y-17506936D02*
X12363039Y-17516460D01*
X12363039Y-17516460D02*
X12353515Y-17525984D01*
X12353515Y-17525984D02*
X12343991Y-17516460D01*
X12343991Y-17516460D02*
X12353515Y-17506936D01*
X12353515Y-17506936D02*
X12353515Y-17525984D01*
X12486848Y-17325984D02*
X12505896Y-17325984D01*
X12505896Y-17325984D02*
X12524944Y-17335508D01*
X12524944Y-17335508D02*
X12534467Y-17345031D01*
X12534467Y-17345031D02*
X12543991Y-17364079D01*
X12543991Y-17364079D02*
X12553515Y-17402174D01*
X12553515Y-17402174D02*
X12553515Y-17449793D01*
X12553515Y-17449793D02*
X12543991Y-17487889D01*
X12543991Y-17487889D02*
X12534467Y-17506936D01*
X12534467Y-17506936D02*
X12524944Y-17516460D01*
X12524944Y-17516460D02*
X12505896Y-17525984D01*
X12505896Y-17525984D02*
X12486848Y-17525984D01*
X12486848Y-17525984D02*
X12467801Y-17516460D01*
X12467801Y-17516460D02*
X12458277Y-17506936D01*
X12458277Y-17506936D02*
X12448753Y-17487889D01*
X12448753Y-17487889D02*
X12439229Y-17449793D01*
X12439229Y-17449793D02*
X12439229Y-17402174D01*
X12439229Y-17402174D02*
X12448753Y-17364079D01*
X12448753Y-17364079D02*
X12458277Y-17345031D01*
X12458277Y-17345031D02*
X12467801Y-17335508D01*
X12467801Y-17335508D02*
X12486848Y-17325984D01*
X12620182Y-17325984D02*
X12743991Y-17325984D01*
X12743991Y-17325984D02*
X12677325Y-17402174D01*
X12677325Y-17402174D02*
X12705896Y-17402174D01*
X12705896Y-17402174D02*
X12724944Y-17411698D01*
X12724944Y-17411698D02*
X12734467Y-17421222D01*
X12734467Y-17421222D02*
X12743991Y-17440270D01*
X12743991Y-17440270D02*
X12743991Y-17487889D01*
X12743991Y-17487889D02*
X12734467Y-17506936D01*
X12734467Y-17506936D02*
X12724944Y-17516460D01*
X12724944Y-17516460D02*
X12705896Y-17525984D01*
X12705896Y-17525984D02*
X12648753Y-17525984D01*
X12648753Y-17525984D02*
X12629706Y-17516460D01*
X12629706Y-17516460D02*
X12620182Y-17506936D01*
X12839229Y-17525984D02*
X12877325Y-17525984D01*
X12877325Y-17525984D02*
X12896372Y-17516460D01*
X12896372Y-17516460D02*
X12905896Y-17506936D01*
X12905896Y-17506936D02*
X12924944Y-17478365D01*
X12924944Y-17478365D02*
X12934467Y-17440270D01*
X12934467Y-17440270D02*
X12934467Y-17364079D01*
X12934467Y-17364079D02*
X12924944Y-17345031D01*
X12924944Y-17345031D02*
X12915420Y-17335508D01*
X12915420Y-17335508D02*
X12896372Y-17325984D01*
X12896372Y-17325984D02*
X12858277Y-17325984D01*
X12858277Y-17325984D02*
X12839229Y-17335508D01*
X12839229Y-17335508D02*
X12829706Y-17345031D01*
X12829706Y-17345031D02*
X12820182Y-17364079D01*
X12820182Y-17364079D02*
X12820182Y-17411698D01*
X12820182Y-17411698D02*
X12829706Y-17430746D01*
X12829706Y-17430746D02*
X12839229Y-17440270D01*
X12839229Y-17440270D02*
X12858277Y-17449793D01*
X12858277Y-17449793D02*
X12896372Y-17449793D01*
X12896372Y-17449793D02*
X12915420Y-17440270D01*
X12915420Y-17440270D02*
X12924944Y-17430746D01*
X12924944Y-17430746D02*
X12934467Y-17411698D01*
X13105896Y-17392650D02*
X13105896Y-17525984D01*
X13058277Y-17316460D02*
X13010658Y-17459317D01*
X13010658Y-17459317D02*
X13134467Y-17459317D01*
X13201134Y-17325984D02*
X13201134Y-17364079D01*
X13277325Y-17325984D02*
X13277325Y-17364079D01*
X13572563Y-17602174D02*
X13563039Y-17592650D01*
X13563039Y-17592650D02*
X13543991Y-17564079D01*
X13543991Y-17564079D02*
X13534468Y-17545031D01*
X13534468Y-17545031D02*
X13524944Y-17516460D01*
X13524944Y-17516460D02*
X13515420Y-17468841D01*
X13515420Y-17468841D02*
X13515420Y-17430746D01*
X13515420Y-17430746D02*
X13524944Y-17383127D01*
X13524944Y-17383127D02*
X13534468Y-17354555D01*
X13534468Y-17354555D02*
X13543991Y-17335508D01*
X13543991Y-17335508D02*
X13563039Y-17306936D01*
X13563039Y-17306936D02*
X13572563Y-17297412D01*
X13734468Y-17392650D02*
X13734468Y-17525984D01*
X13686848Y-17316460D02*
X13639229Y-17459317D01*
X13639229Y-17459317D02*
X13763039Y-17459317D01*
X13991610Y-17525984D02*
X13991610Y-17325984D01*
X14077325Y-17525984D02*
X14077325Y-17421222D01*
X14077325Y-17421222D02*
X14067801Y-17402174D01*
X14067801Y-17402174D02*
X14048753Y-17392650D01*
X14048753Y-17392650D02*
X14020182Y-17392650D01*
X14020182Y-17392650D02*
X14001134Y-17402174D01*
X14001134Y-17402174D02*
X13991610Y-17411698D01*
X14201134Y-17525984D02*
X14182087Y-17516460D01*
X14182087Y-17516460D02*
X14172563Y-17506936D01*
X14172563Y-17506936D02*
X14163039Y-17487889D01*
X14163039Y-17487889D02*
X14163039Y-17430746D01*
X14163039Y-17430746D02*
X14172563Y-17411698D01*
X14172563Y-17411698D02*
X14182087Y-17402174D01*
X14182087Y-17402174D02*
X14201134Y-17392650D01*
X14201134Y-17392650D02*
X14229706Y-17392650D01*
X14229706Y-17392650D02*
X14248753Y-17402174D01*
X14248753Y-17402174D02*
X14258277Y-17411698D01*
X14258277Y-17411698D02*
X14267801Y-17430746D01*
X14267801Y-17430746D02*
X14267801Y-17487889D01*
X14267801Y-17487889D02*
X14258277Y-17506936D01*
X14258277Y-17506936D02*
X14248753Y-17516460D01*
X14248753Y-17516460D02*
X14229706Y-17525984D01*
X14229706Y-17525984D02*
X14201134Y-17525984D01*
X14382087Y-17525984D02*
X14363039Y-17516460D01*
X14363039Y-17516460D02*
X14353515Y-17497412D01*
X14353515Y-17497412D02*
X14353515Y-17325984D01*
X14534468Y-17516460D02*
X14515420Y-17525984D01*
X14515420Y-17525984D02*
X14477325Y-17525984D01*
X14477325Y-17525984D02*
X14458277Y-17516460D01*
X14458277Y-17516460D02*
X14448753Y-17497412D01*
X14448753Y-17497412D02*
X14448753Y-17421222D01*
X14448753Y-17421222D02*
X14458277Y-17402174D01*
X14458277Y-17402174D02*
X14477325Y-17392650D01*
X14477325Y-17392650D02*
X14515420Y-17392650D01*
X14515420Y-17392650D02*
X14534468Y-17402174D01*
X14534468Y-17402174D02*
X14543991Y-17421222D01*
X14543991Y-17421222D02*
X14543991Y-17440270D01*
X14543991Y-17440270D02*
X14448753Y-17459317D01*
X14620182Y-17516460D02*
X14639230Y-17525984D01*
X14639230Y-17525984D02*
X14677325Y-17525984D01*
X14677325Y-17525984D02*
X14696372Y-17516460D01*
X14696372Y-17516460D02*
X14705896Y-17497412D01*
X14705896Y-17497412D02*
X14705896Y-17487889D01*
X14705896Y-17487889D02*
X14696372Y-17468841D01*
X14696372Y-17468841D02*
X14677325Y-17459317D01*
X14677325Y-17459317D02*
X14648753Y-17459317D01*
X14648753Y-17459317D02*
X14629706Y-17449793D01*
X14629706Y-17449793D02*
X14620182Y-17430746D01*
X14620182Y-17430746D02*
X14620182Y-17421222D01*
X14620182Y-17421222D02*
X14629706Y-17402174D01*
X14629706Y-17402174D02*
X14648753Y-17392650D01*
X14648753Y-17392650D02*
X14677325Y-17392650D01*
X14677325Y-17392650D02*
X14696372Y-17402174D01*
X14772563Y-17602174D02*
X14782087Y-17592650D01*
X14782087Y-17592650D02*
X14801134Y-17564079D01*
X14801134Y-17564079D02*
X14810658Y-17545031D01*
X14810658Y-17545031D02*
X14820182Y-17516460D01*
X14820182Y-17516460D02*
X14829706Y-17468841D01*
X14829706Y-17468841D02*
X14829706Y-17430746D01*
X14829706Y-17430746D02*
X14820182Y-17383127D01*
X14820182Y-17383127D02*
X14810658Y-17354555D01*
X14810658Y-17354555D02*
X14801134Y-17335508D01*
X14801134Y-17335508D02*
X14782087Y-17306936D01*
X14782087Y-17306936D02*
X14772563Y-17297412D01*
M02*
