M48
; DRILL file {KiCad 8.0.3-8.0.3-0~ubuntu22.04.1} date 2024-07-31T00:50:18+0200
; FORMAT={-:-/ absolute / inch / decimal}
; #@! TF.CreationDate,2024-07-31T00:50:18+02:00
; #@! TF.GenerationSoftware,Kicad,Pcbnew,8.0.3-8.0.3-0~ubuntu22.04.1
; #@! TF.FileFunction,Plated,1,2,PTH
FMAT,2
INCH
; #@! TA.AperFunction,Plated,PTH,ComponentDrill
T1C0.0079
; #@! TA.AperFunction,Plated,PTH,ViaDrill
T2C0.0118
; #@! TA.AperFunction,Plated,PTH,ComponentDrill
T3C0.0197
; #@! TA.AperFunction,Plated,PTH,ComponentDrill
T4C0.0394
%
G90
G05
T1
X5.5665Y-5.8307
X5.5665Y-5.874
X5.5882Y-5.8091
X5.5882Y-5.8524
X5.5882Y-5.8957
X5.6098Y-5.8307
X5.6098Y-5.874
X5.6315Y-5.8091
X5.6315Y-5.8524
X5.6315Y-5.8957
X5.6531Y-5.8307
X5.6531Y-5.874
T2
X4.0669Y-5.6181
X4.1457Y-5.4134
X4.3524Y-4.5413
X4.5079Y-5.4213
X4.565Y-5.1358
X4.5945Y-5.8189
X4.7047Y-4.9134
X4.813Y-4.9114
X4.8976Y-4.8406
X4.9213Y-5.1181
X4.9626Y-5.1181
X5.7047Y-4.8858
X5.7982Y-4.686
X5.8563Y-5.8504
X5.9154Y-4.7874
X5.9469Y-5.0217
X5.9469Y-5.189
X5.9646Y-3.2126
X5.9843Y-5.0217
X5.9843Y-5.189
X6.0217Y-5.0217
X6.0217Y-5.189
X6.0571Y-5.0217
X6.0571Y-5.189
X6.128Y-4.628
X6.1358Y-5.939
X6.1742Y-4.7913
X6.1811Y-5.939
X6.2244Y-5.9665
X6.2343Y-5.813
T4
X4.9646Y-3.0108
X5.0646Y-3.0108
X5.1646Y-3.0108
X5.2646Y-3.0108
T3
G00X4.4705Y-6.2657
M15
G01X4.4705Y-6.2382
M16
G05
G00X4.7303Y-6.2657
M15
G01X4.7303Y-6.2382
M16
G05
M30
