%TF.GenerationSoftware,KiCad,Pcbnew,8.0.4-8.0.4-0~ubuntu22.04.1*%
%TF.CreationDate,2024-08-28T20:52:20+02:00*%
%TF.ProjectId,defcon32_badge,64656663-6f6e-4333-925f-62616467652e,rev?*%
%TF.SameCoordinates,Original*%
%TF.FileFunction,Copper,L2,Bot*%
%TF.FilePolarity,Positive*%
%FSLAX46Y46*%
G04 Gerber Fmt 4.6, Leading zero omitted, Abs format (unit mm)*
G04 Created by KiCad (PCBNEW 8.0.4-8.0.4-0~ubuntu22.04.1) date 2024-08-28 20:52:20*
%MOMM*%
%LPD*%
G01*
G04 APERTURE LIST*
G04 Aperture macros list*
%AMRoundRect*
0 Rectangle with rounded corners*
0 $1 Rounding radius*
0 $2 $3 $4 $5 $6 $7 $8 $9 X,Y pos of 4 corners*
0 Add a 4 corners polygon primitive as box body*
4,1,4,$2,$3,$4,$5,$6,$7,$8,$9,$2,$3,0*
0 Add four circle primitives for the rounded corners*
1,1,$1+$1,$2,$3*
1,1,$1+$1,$4,$5*
1,1,$1+$1,$6,$7*
1,1,$1+$1,$8,$9*
0 Add four rect primitives between the rounded corners*
20,1,$1+$1,$2,$3,$4,$5,0*
20,1,$1+$1,$4,$5,$6,$7,0*
20,1,$1+$1,$6,$7,$8,$9,0*
20,1,$1+$1,$8,$9,$2,$3,0*%
G04 Aperture macros list end*
%TA.AperFunction,ComponentPad*%
%ADD10O,0.900000X1.600000*%
%TD*%
%TA.AperFunction,HeatsinkPad*%
%ADD11C,0.600000*%
%TD*%
%TA.AperFunction,ComponentPad*%
%ADD12R,1.700000X1.700000*%
%TD*%
%TA.AperFunction,ComponentPad*%
%ADD13O,1.700000X1.700000*%
%TD*%
%TA.AperFunction,SMDPad,CuDef*%
%ADD14R,1.900000X1.000000*%
%TD*%
%TA.AperFunction,SMDPad,CuDef*%
%ADD15RoundRect,0.243750X-0.456250X0.243750X-0.456250X-0.243750X0.456250X-0.243750X0.456250X0.243750X0*%
%TD*%
%TA.AperFunction,ViaPad*%
%ADD16C,1.000000*%
%TD*%
%TA.AperFunction,ViaPad*%
%ADD17C,0.600000*%
%TD*%
%TA.AperFunction,Conductor*%
%ADD18C,0.500000*%
%TD*%
G04 APERTURE END LIST*
D10*
%TO.P,J2,6,Shield*%
%TO.N,GND*%
X113550000Y-158800000D03*
X120150000Y-158800000D03*
%TD*%
D11*
%TO.P,U1,19,GND*%
%TO.N,GND*%
X143590000Y-149200000D03*
X143590000Y-148100000D03*
X143040000Y-149750000D03*
X143040000Y-148650000D03*
X143040000Y-147550000D03*
X142490000Y-149200000D03*
X142490000Y-148100000D03*
X141940000Y-149750000D03*
X141940000Y-148650000D03*
X141940000Y-147550000D03*
X141390000Y-149200000D03*
X141390000Y-148100000D03*
%TD*%
D12*
%TO.P,J1,1,Pin_1*%
%TO.N,+3V3*%
X126100000Y-76475000D03*
D13*
%TO.P,J1,2,Pin_2*%
%TO.N,GND*%
X128640000Y-76475000D03*
%TO.P,J1,3,Pin_3*%
%TO.N,/I2C_SCL*%
X131180000Y-76475000D03*
%TO.P,J1,4,Pin_4*%
%TO.N,/I2C_SDA*%
X133720000Y-76475000D03*
%TD*%
D14*
%TO.P,J3,1,Pin_1*%
%TO.N,Net-(J3-Pin_1)*%
X155600000Y-99005000D03*
%TO.P,J3,2,Pin_2*%
%TO.N,GND*%
X152300000Y-101545000D03*
%TD*%
D15*
%TO.P,D5,1,K*%
%TO.N,Net-(D5-K)*%
X151800000Y-82725000D03*
%TO.P,D5,2,A*%
%TO.N,Net-(D5-A)*%
X151800000Y-84600000D03*
%TD*%
D16*
%TO.N,+3V3*%
X110550000Y-115350000D03*
X116700000Y-147800000D03*
X114500000Y-137700000D03*
X148750000Y-148600000D03*
X115950000Y-130450000D03*
X147275000Y-119025000D03*
X158350000Y-147650000D03*
X144900000Y-124100000D03*
X155650000Y-117550000D03*
X124400000Y-122950000D03*
D17*
%TO.N,GND*%
X158100000Y-151550000D03*
X157000000Y-150850000D03*
X152000000Y-127550000D03*
X155850000Y-150850000D03*
X153850000Y-127550000D03*
X122250000Y-124750000D03*
X152950000Y-127550000D03*
X152950000Y-131800000D03*
X125000000Y-130000000D03*
X152000000Y-131800000D03*
X153850000Y-131800000D03*
X126050000Y-130000000D03*
X119500000Y-124800000D03*
X151050000Y-131800000D03*
X151050000Y-127550000D03*
%TO.N,Net-(J3-Pin_1)*%
X105300000Y-137500000D03*
%TO.N,/BTN_A*%
X150250000Y-121600000D03*
X156825000Y-121700000D03*
D16*
%TO.N,Net-(D5-A)*%
X103300000Y-142700000D03*
D17*
%TO.N,Net-(D5-K)*%
X151500000Y-81600000D03*
%TD*%
D18*
%TO.N,+3V3*%
X121650000Y-115800000D02*
X111000000Y-115800000D01*
X111000000Y-115800000D02*
X110550000Y-115350000D01*
X144900000Y-124100000D02*
X123700000Y-124100000D01*
X147275000Y-119025000D02*
X144900000Y-121400000D01*
X148600000Y-151650000D02*
X144850000Y-151650000D01*
X119550000Y-151650000D02*
X117100000Y-149200000D01*
X155350000Y-117850000D02*
X148450000Y-117850000D01*
X155650000Y-117550000D02*
X155350000Y-117850000D01*
X152600000Y-147650000D02*
X149600000Y-150650000D01*
X123700000Y-124100000D02*
X122500000Y-122900000D01*
X115950000Y-130450000D02*
X114500000Y-129000000D01*
X158350000Y-147650000D02*
X152600000Y-147650000D01*
X144900000Y-121400000D02*
X144900000Y-124100000D01*
X148450000Y-117850000D02*
X147275000Y-119025000D01*
X149600000Y-150650000D02*
X148600000Y-151650000D01*
X116700000Y-148800000D02*
X116700000Y-147800000D01*
X144850000Y-151650000D02*
X128200000Y-151650000D01*
X128200000Y-151650000D02*
X119550000Y-151650000D01*
X148750000Y-148600000D02*
X148750000Y-151500000D01*
X119150000Y-122950000D02*
X123000000Y-122950000D01*
X122550000Y-122950000D02*
X122500000Y-122900000D01*
X114500000Y-137700000D02*
X114500000Y-127600000D01*
X114500000Y-129000000D02*
X114500000Y-127600000D01*
X123000000Y-122950000D02*
X122550000Y-122950000D01*
X122500000Y-122900000D02*
X122500000Y-116650000D01*
X114500000Y-127600000D02*
X119150000Y-122950000D01*
X124400000Y-122950000D02*
X123000000Y-122950000D01*
X117100000Y-149200000D02*
X116700000Y-148800000D01*
X122500000Y-116650000D02*
X121650000Y-115800000D01*
X148750000Y-151500000D02*
X148600000Y-151650000D01*
%TO.N,Net-(J3-Pin_1)*%
X102700000Y-134900000D02*
X102700000Y-108750000D01*
X112445000Y-99005000D02*
X155600000Y-99005000D01*
X105300000Y-137500000D02*
X102700000Y-134900000D01*
X102700000Y-108750000D02*
X112445000Y-99005000D01*
%TO.N,/BTN_A*%
X155150000Y-121650000D02*
X156775000Y-121650000D01*
X155100000Y-121600000D02*
X155150000Y-121650000D01*
X150250000Y-121600000D02*
X155100000Y-121600000D01*
X156775000Y-121650000D02*
X156825000Y-121700000D01*
%TO.N,Net-(D5-A)*%
X156900000Y-61500000D02*
X103200000Y-61500000D01*
X157100000Y-84600000D02*
X159000000Y-82700000D01*
X103200000Y-61500000D02*
X101600000Y-63100000D01*
X101600000Y-63100000D02*
X101600000Y-140600000D01*
X159000000Y-82700000D02*
X159000000Y-63600000D01*
X101600000Y-140600000D02*
X103300000Y-142300000D01*
X103300000Y-142300000D02*
X103300000Y-142700000D01*
X159000000Y-63600000D02*
X156900000Y-61500000D01*
X151800000Y-84600000D02*
X157100000Y-84600000D01*
%TO.N,Net-(D5-K)*%
X151800000Y-81900000D02*
X151500000Y-81600000D01*
X151800000Y-82725000D02*
X151800000Y-81900000D01*
%TD*%
%TA.AperFunction,Conductor*%
%TO.N,GND*%
G36*
X157003736Y-60500726D02*
G01*
X157293796Y-60518271D01*
X157308657Y-60520075D01*
X157590798Y-60571780D01*
X157605335Y-60575363D01*
X157879172Y-60660695D01*
X157893163Y-60666000D01*
X158154743Y-60783727D01*
X158167989Y-60790680D01*
X158413465Y-60939075D01*
X158425776Y-60947573D01*
X158595202Y-61080309D01*
X158651573Y-61124473D01*
X158662781Y-61134403D01*
X158865596Y-61337218D01*
X158875526Y-61348426D01*
X158995481Y-61501538D01*
X159052422Y-61574217D01*
X159060926Y-61586537D01*
X159201633Y-61819295D01*
X159209316Y-61832004D01*
X159216275Y-61845263D01*
X159333997Y-62106831D01*
X159339306Y-62120832D01*
X159424635Y-62394663D01*
X159428219Y-62409201D01*
X159479923Y-62691340D01*
X159481728Y-62706205D01*
X159482213Y-62714223D01*
X159466612Y-62782329D01*
X159416667Y-62831188D01*
X159348235Y-62845289D01*
X159283043Y-62820155D01*
X159270758Y-62809391D01*
X157378421Y-60917052D01*
X157378414Y-60917046D01*
X157304729Y-60867812D01*
X157304729Y-60867813D01*
X157255491Y-60834913D01*
X157118917Y-60778343D01*
X157118907Y-60778340D01*
X156973920Y-60749500D01*
X156973918Y-60749500D01*
X103126082Y-60749500D01*
X103126076Y-60749500D01*
X103097242Y-60755234D01*
X103097243Y-60755235D01*
X102981093Y-60778339D01*
X102981083Y-60778342D01*
X102901081Y-60811479D01*
X102901082Y-60811480D01*
X102844502Y-60834917D01*
X102795269Y-60867813D01*
X102721588Y-60917044D01*
X102721580Y-60917050D01*
X101017049Y-62621581D01*
X100969539Y-62692685D01*
X100969540Y-62692686D01*
X100934914Y-62744508D01*
X100878343Y-62881082D01*
X100878340Y-62881092D01*
X100849500Y-63026079D01*
X100849500Y-63026082D01*
X100849500Y-140673918D01*
X100849500Y-140673920D01*
X100849499Y-140673920D01*
X100878340Y-140818907D01*
X100878343Y-140818917D01*
X100934914Y-140955492D01*
X100967812Y-141004727D01*
X100967813Y-141004730D01*
X101017046Y-141078414D01*
X101017052Y-141078421D01*
X102291334Y-142352702D01*
X102324819Y-142414025D01*
X102322315Y-142476374D01*
X102313976Y-142503867D01*
X102294659Y-142700000D01*
X102313975Y-142896129D01*
X102371188Y-143084733D01*
X102464086Y-143258532D01*
X102464090Y-143258539D01*
X102589116Y-143410883D01*
X102741460Y-143535909D01*
X102741467Y-143535913D01*
X102915266Y-143628811D01*
X102915269Y-143628811D01*
X102915273Y-143628814D01*
X103103868Y-143686024D01*
X103300000Y-143705341D01*
X103496132Y-143686024D01*
X103684727Y-143628814D01*
X103858538Y-143535910D01*
X104010883Y-143410883D01*
X104135910Y-143258538D01*
X104228814Y-143084727D01*
X104286024Y-142896132D01*
X104305341Y-142700000D01*
X104286024Y-142503868D01*
X104228814Y-142315273D01*
X104228811Y-142315269D01*
X104228811Y-142315266D01*
X104135913Y-142141467D01*
X104135909Y-142141460D01*
X104010883Y-141989117D01*
X103989697Y-141971730D01*
X103965258Y-141944766D01*
X103911353Y-141864090D01*
X103911353Y-141864089D01*
X103882950Y-141821581D01*
X103882947Y-141821578D01*
X102396840Y-140335472D01*
X102363355Y-140274149D01*
X102368339Y-140204457D01*
X102410211Y-140148524D01*
X102475675Y-140124107D01*
X102508713Y-140126174D01*
X102631004Y-140150500D01*
X102631007Y-140150500D01*
X102768995Y-140150500D01*
X102860041Y-140132389D01*
X102904328Y-140123580D01*
X103031811Y-140070775D01*
X103146542Y-139994114D01*
X103244114Y-139896542D01*
X103320775Y-139781811D01*
X103373580Y-139654328D01*
X103400500Y-139518993D01*
X103400500Y-139381007D01*
X103400500Y-139381004D01*
X103373581Y-139245677D01*
X103373580Y-139245676D01*
X103373580Y-139245672D01*
X103373578Y-139245667D01*
X103320778Y-139118195D01*
X103320771Y-139118182D01*
X103244114Y-139003458D01*
X103244111Y-139003454D01*
X103146545Y-138905888D01*
X103146541Y-138905885D01*
X103031817Y-138829228D01*
X103031804Y-138829221D01*
X102904332Y-138776421D01*
X102904322Y-138776418D01*
X102768995Y-138749500D01*
X102768993Y-138749500D01*
X102631007Y-138749500D01*
X102631002Y-138749500D01*
X102498691Y-138775818D01*
X102429099Y-138769591D01*
X102373922Y-138726727D01*
X102350678Y-138660838D01*
X102350500Y-138654201D01*
X102350500Y-135911229D01*
X102370185Y-135844190D01*
X102422989Y-135798435D01*
X102492147Y-135788491D01*
X102555703Y-135817516D01*
X102562181Y-135823548D01*
X104546692Y-137808059D01*
X104569358Y-137844125D01*
X104571188Y-137843244D01*
X104574209Y-137849518D01*
X104574211Y-137849522D01*
X104670184Y-138002262D01*
X104797738Y-138129816D01*
X104950478Y-138225789D01*
X105120745Y-138285368D01*
X105120750Y-138285369D01*
X105299996Y-138305565D01*
X105300000Y-138305565D01*
X105300004Y-138305565D01*
X105479249Y-138285369D01*
X105479252Y-138285368D01*
X105479255Y-138285368D01*
X105649522Y-138225789D01*
X105802262Y-138129816D01*
X105929816Y-138002262D01*
X106025789Y-137849522D01*
X106085368Y-137679255D01*
X106105129Y-137503870D01*
X106105565Y-137500003D01*
X106105565Y-137499996D01*
X106085369Y-137320750D01*
X106085368Y-137320745D01*
X106025788Y-137150476D01*
X105976281Y-137071686D01*
X105929816Y-136997738D01*
X105802262Y-136870184D01*
X105649522Y-136774211D01*
X105649518Y-136774209D01*
X105643244Y-136771188D01*
X105644125Y-136769358D01*
X105608059Y-136746692D01*
X103486819Y-134625451D01*
X103453334Y-134564128D01*
X103450500Y-134537770D01*
X103450500Y-115350000D01*
X109544659Y-115350000D01*
X109563975Y-115546129D01*
X109621188Y-115734733D01*
X109714086Y-115908532D01*
X109714090Y-115908539D01*
X109839116Y-116060883D01*
X109991460Y-116185909D01*
X109991467Y-116185913D01*
X110165266Y-116278811D01*
X110165269Y-116278811D01*
X110165273Y-116278814D01*
X110353868Y-116336024D01*
X110443697Y-116344871D01*
X110508485Y-116371031D01*
X110519225Y-116380593D01*
X110521580Y-116382948D01*
X110521584Y-116382951D01*
X110644498Y-116465080D01*
X110644511Y-116465087D01*
X110781082Y-116521656D01*
X110781087Y-116521658D01*
X110781091Y-116521658D01*
X110781092Y-116521659D01*
X110926079Y-116550500D01*
X110926082Y-116550500D01*
X110926083Y-116550500D01*
X111073917Y-116550500D01*
X121287770Y-116550500D01*
X121354809Y-116570185D01*
X121375451Y-116586819D01*
X121713181Y-116924548D01*
X121746666Y-116985871D01*
X121749500Y-117012229D01*
X121749500Y-122075500D01*
X121729815Y-122142539D01*
X121677011Y-122188294D01*
X121625500Y-122199500D01*
X119076080Y-122199500D01*
X118931092Y-122228340D01*
X118931082Y-122228343D01*
X118794508Y-122284914D01*
X118794505Y-122284915D01*
X118794505Y-122284916D01*
X118752929Y-122312696D01*
X118752928Y-122312695D01*
X118671585Y-122367046D01*
X118671578Y-122367052D01*
X113917050Y-127121580D01*
X113917044Y-127121588D01*
X113867812Y-127195268D01*
X113867813Y-127195269D01*
X113834921Y-127244496D01*
X113834914Y-127244508D01*
X113778342Y-127381086D01*
X113778340Y-127381092D01*
X113749500Y-127526079D01*
X113749500Y-136993021D01*
X113729815Y-137060060D01*
X113721353Y-137071686D01*
X113664091Y-137141460D01*
X113664086Y-137141467D01*
X113571188Y-137315266D01*
X113513975Y-137503870D01*
X113494659Y-137700000D01*
X113513975Y-137896129D01*
X113571188Y-138084733D01*
X113664086Y-138258532D01*
X113664090Y-138258539D01*
X113789116Y-138410883D01*
X113941460Y-138535909D01*
X113941467Y-138535913D01*
X114115266Y-138628811D01*
X114115269Y-138628811D01*
X114115273Y-138628814D01*
X114303868Y-138686024D01*
X114500000Y-138705341D01*
X114696132Y-138686024D01*
X114884727Y-138628814D01*
X115058538Y-138535910D01*
X115210883Y-138410883D01*
X115335910Y-138258538D01*
X115382362Y-138171632D01*
X115428811Y-138084733D01*
X115428811Y-138084732D01*
X115428814Y-138084727D01*
X115486024Y-137896132D01*
X115505341Y-137700000D01*
X115486024Y-137503868D01*
X115428814Y-137315273D01*
X115428811Y-137315269D01*
X115428811Y-137315266D01*
X115335913Y-137141467D01*
X115335911Y-137141465D01*
X115335910Y-137141462D01*
X115319536Y-137121511D01*
X115278647Y-137071686D01*
X115251334Y-137007376D01*
X115250500Y-136993021D01*
X115250500Y-131417446D01*
X115270185Y-131350407D01*
X115322989Y-131304652D01*
X115392147Y-131294708D01*
X115432953Y-131308088D01*
X115512127Y-131350407D01*
X115565273Y-131378814D01*
X115753868Y-131436024D01*
X115950000Y-131455341D01*
X116146132Y-131436024D01*
X116334727Y-131378814D01*
X116508538Y-131285910D01*
X116660883Y-131160883D01*
X116785910Y-131008538D01*
X116878814Y-130834727D01*
X116936024Y-130646132D01*
X116955341Y-130450000D01*
X116936024Y-130253868D01*
X116878814Y-130065273D01*
X116878811Y-130065269D01*
X116878811Y-130065266D01*
X116785913Y-129891467D01*
X116785909Y-129891460D01*
X116660883Y-129739116D01*
X116508539Y-129614090D01*
X116508532Y-129614086D01*
X116334733Y-129521188D01*
X116334727Y-129521186D01*
X116146132Y-129463976D01*
X116146129Y-129463975D01*
X116056298Y-129455127D01*
X115991511Y-129428965D01*
X115980773Y-129419405D01*
X115286819Y-128725451D01*
X115253334Y-128664128D01*
X115250500Y-128637770D01*
X115250500Y-127962230D01*
X115270185Y-127895191D01*
X115286819Y-127874549D01*
X119424549Y-123736819D01*
X119485872Y-123703334D01*
X119512230Y-123700500D01*
X122187770Y-123700500D01*
X122254809Y-123720185D01*
X122275451Y-123736819D01*
X123221580Y-124682948D01*
X123221584Y-124682951D01*
X123344498Y-124765080D01*
X123344511Y-124765087D01*
X123481082Y-124821656D01*
X123481087Y-124821658D01*
X123481091Y-124821658D01*
X123481092Y-124821659D01*
X123626079Y-124850500D01*
X123626082Y-124850500D01*
X123773917Y-124850500D01*
X144193022Y-124850500D01*
X144260061Y-124870185D01*
X144271687Y-124878647D01*
X144341460Y-124935909D01*
X144341467Y-124935913D01*
X144515266Y-125028811D01*
X144515269Y-125028811D01*
X144515273Y-125028814D01*
X144703868Y-125086024D01*
X144900000Y-125105341D01*
X145096132Y-125086024D01*
X145284727Y-125028814D01*
X145458538Y-124935910D01*
X145610883Y-124810883D01*
X145735910Y-124658538D01*
X145828814Y-124484727D01*
X145886024Y-124296132D01*
X145905341Y-124100000D01*
X145886024Y-123903868D01*
X145828814Y-123715273D01*
X145828811Y-123715269D01*
X145828811Y-123715266D01*
X145735913Y-123541467D01*
X145735911Y-123541465D01*
X145735910Y-123541462D01*
X145719536Y-123521511D01*
X145678647Y-123471686D01*
X145651334Y-123407376D01*
X145650500Y-123393021D01*
X145650500Y-121762229D01*
X145670185Y-121695190D01*
X145686819Y-121674548D01*
X145761371Y-121599996D01*
X149444435Y-121599996D01*
X149444435Y-121600003D01*
X149464630Y-121779249D01*
X149464631Y-121779254D01*
X149524211Y-121949523D01*
X149587045Y-122049522D01*
X149620184Y-122102262D01*
X149747738Y-122229816D01*
X149835426Y-122284914D01*
X149879640Y-122312696D01*
X149900478Y-122325789D01*
X150018401Y-122367052D01*
X150070745Y-122385368D01*
X150070750Y-122385369D01*
X150249996Y-122405565D01*
X150250000Y-122405565D01*
X150250004Y-122405565D01*
X150429249Y-122385369D01*
X150429252Y-122385368D01*
X150429255Y-122385368D01*
X150509017Y-122357457D01*
X150549972Y-122350500D01*
X154855341Y-122350500D01*
X154902793Y-122359938D01*
X154931088Y-122371659D01*
X155047241Y-122394763D01*
X155066468Y-122398587D01*
X155076081Y-122400500D01*
X155076082Y-122400500D01*
X155076083Y-122400500D01*
X155223918Y-122400500D01*
X156399506Y-122400500D01*
X156465477Y-122419506D01*
X156475474Y-122425787D01*
X156475475Y-122425787D01*
X156475478Y-122425789D01*
X156645745Y-122485368D01*
X156645750Y-122485369D01*
X156824996Y-122505565D01*
X156825000Y-122505565D01*
X156825004Y-122505565D01*
X157004249Y-122485369D01*
X157004252Y-122485368D01*
X157004255Y-122485368D01*
X157174522Y-122425789D01*
X157327262Y-122329816D01*
X157454816Y-122202262D01*
X157550789Y-122049522D01*
X157610368Y-121879255D01*
X157610369Y-121879249D01*
X157630565Y-121700003D01*
X157630565Y-121699996D01*
X157610369Y-121520750D01*
X157610368Y-121520745D01*
X157550788Y-121350476D01*
X157487955Y-121250478D01*
X157454816Y-121197738D01*
X157327262Y-121070184D01*
X157286385Y-121044499D01*
X157174523Y-120974211D01*
X157004254Y-120914631D01*
X157004249Y-120914630D01*
X156825004Y-120894435D01*
X156824998Y-120894435D01*
X156786969Y-120898720D01*
X156773085Y-120899500D01*
X155394658Y-120899500D01*
X155347206Y-120890061D01*
X155318917Y-120878343D01*
X155318907Y-120878340D01*
X155173920Y-120849500D01*
X155173918Y-120849500D01*
X150549972Y-120849500D01*
X150509017Y-120842542D01*
X150429254Y-120814631D01*
X150429249Y-120814630D01*
X150250004Y-120794435D01*
X150249996Y-120794435D01*
X150070750Y-120814630D01*
X150070745Y-120814631D01*
X149900476Y-120874211D01*
X149747737Y-120970184D01*
X149620184Y-121097737D01*
X149524211Y-121250476D01*
X149464631Y-121420745D01*
X149464630Y-121420750D01*
X149444435Y-121599996D01*
X145761371Y-121599996D01*
X146487156Y-120874211D01*
X147305775Y-120055591D01*
X147367096Y-120022108D01*
X147381295Y-120019871D01*
X147471132Y-120011024D01*
X147659727Y-119953814D01*
X147833538Y-119860910D01*
X147985883Y-119735883D01*
X148110910Y-119583538D01*
X148203814Y-119409727D01*
X148261024Y-119221132D01*
X148269871Y-119131299D01*
X148296031Y-119066513D01*
X148305584Y-119055782D01*
X148724549Y-118636819D01*
X148785872Y-118603334D01*
X148812230Y-118600500D01*
X155423920Y-118600500D01*
X155568908Y-118571659D01*
X155568908Y-118571658D01*
X155568913Y-118571658D01*
X155587615Y-118563910D01*
X155643907Y-118555562D01*
X155643907Y-118555341D01*
X155645397Y-118555341D01*
X155647234Y-118555068D01*
X155650000Y-118555341D01*
X155846132Y-118536024D01*
X156034727Y-118478814D01*
X156208538Y-118385910D01*
X156360883Y-118260883D01*
X156485910Y-118108538D01*
X156578814Y-117934727D01*
X156636024Y-117746132D01*
X156655341Y-117550000D01*
X156636024Y-117353868D01*
X156578814Y-117165273D01*
X156578811Y-117165269D01*
X156578811Y-117165266D01*
X156485913Y-116991467D01*
X156485909Y-116991460D01*
X156360883Y-116839116D01*
X156208539Y-116714090D01*
X156208532Y-116714086D01*
X156034733Y-116621188D01*
X156034727Y-116621186D01*
X155846132Y-116563976D01*
X155846129Y-116563975D01*
X155650000Y-116544659D01*
X155453870Y-116563975D01*
X155265266Y-116621188D01*
X155091467Y-116714086D01*
X155091460Y-116714090D01*
X154939116Y-116839116D01*
X154814090Y-116991460D01*
X154791378Y-117033953D01*
X154742416Y-117083798D01*
X154682020Y-117099500D01*
X148376080Y-117099500D01*
X148231092Y-117128340D01*
X148231082Y-117128343D01*
X148094509Y-117184913D01*
X148094500Y-117184918D01*
X148080155Y-117194504D01*
X148080153Y-117194506D01*
X147971582Y-117267049D01*
X147971581Y-117267050D01*
X147244225Y-117994405D01*
X147182902Y-118027890D01*
X147168700Y-118030127D01*
X147078870Y-118038975D01*
X146890266Y-118096188D01*
X146716467Y-118189086D01*
X146716460Y-118189090D01*
X146564116Y-118314116D01*
X146439090Y-118466460D01*
X146439086Y-118466467D01*
X146346188Y-118640266D01*
X146288975Y-118828870D01*
X146280127Y-118918700D01*
X146253965Y-118983487D01*
X146244405Y-118994225D01*
X144317047Y-120921584D01*
X144317045Y-120921586D01*
X144281887Y-120974208D01*
X144281885Y-120974211D01*
X144234919Y-121044499D01*
X144234912Y-121044511D01*
X144178343Y-121181082D01*
X144178340Y-121181092D01*
X144149500Y-121326079D01*
X144149500Y-123225500D01*
X144129815Y-123292539D01*
X144077011Y-123338294D01*
X144025500Y-123349500D01*
X125491528Y-123349500D01*
X125424489Y-123329815D01*
X125378734Y-123277011D01*
X125368790Y-123207853D01*
X125372867Y-123189505D01*
X125375219Y-123181748D01*
X125386024Y-123146132D01*
X125405341Y-122950000D01*
X125386024Y-122753868D01*
X125328814Y-122565273D01*
X125328811Y-122565269D01*
X125328811Y-122565266D01*
X125235913Y-122391467D01*
X125235909Y-122391460D01*
X125110883Y-122239116D01*
X124958539Y-122114090D01*
X124958532Y-122114086D01*
X124784733Y-122021188D01*
X124784727Y-122021186D01*
X124596132Y-121963976D01*
X124596129Y-121963975D01*
X124400000Y-121944659D01*
X124203870Y-121963975D01*
X124015266Y-122021188D01*
X123841467Y-122114086D01*
X123841460Y-122114090D01*
X123771687Y-122171353D01*
X123707377Y-122198666D01*
X123693022Y-122199500D01*
X123374500Y-122199500D01*
X123307461Y-122179815D01*
X123261706Y-122127011D01*
X123250500Y-122075500D01*
X123250500Y-116576079D01*
X123237252Y-116509483D01*
X123228421Y-116465084D01*
X123228420Y-116465080D01*
X123221660Y-116431094D01*
X123221659Y-116431088D01*
X123167408Y-116300117D01*
X123165765Y-116295525D01*
X123165084Y-116294505D01*
X123110205Y-116212373D01*
X123082952Y-116171585D01*
X122972250Y-116060883D01*
X122128421Y-115217052D01*
X122128414Y-115217046D01*
X122054729Y-115167812D01*
X122054729Y-115167813D01*
X122005491Y-115134913D01*
X121868917Y-115078343D01*
X121868907Y-115078340D01*
X121723920Y-115049500D01*
X121723918Y-115049500D01*
X111596328Y-115049500D01*
X111529289Y-115029815D01*
X111483534Y-114977011D01*
X111481212Y-114970868D01*
X111481144Y-114970897D01*
X111478814Y-114965273D01*
X111385913Y-114791467D01*
X111385909Y-114791460D01*
X111260883Y-114639116D01*
X111108539Y-114514090D01*
X111108532Y-114514086D01*
X110934733Y-114421188D01*
X110934727Y-114421186D01*
X110746132Y-114363976D01*
X110746129Y-114363975D01*
X110550000Y-114344659D01*
X110353870Y-114363975D01*
X110165266Y-114421188D01*
X109991467Y-114514086D01*
X109991460Y-114514090D01*
X109839116Y-114639116D01*
X109714090Y-114791460D01*
X109714086Y-114791467D01*
X109621188Y-114965266D01*
X109563975Y-115153870D01*
X109544659Y-115350000D01*
X103450500Y-115350000D01*
X103450500Y-109112229D01*
X103470185Y-109045190D01*
X103486819Y-109024548D01*
X110418523Y-102092844D01*
X150850000Y-102092844D01*
X150856401Y-102152372D01*
X150856403Y-102152379D01*
X150906645Y-102287086D01*
X150906649Y-102287093D01*
X150992809Y-102402187D01*
X150992812Y-102402190D01*
X151107906Y-102488350D01*
X151107913Y-102488354D01*
X151242620Y-102538596D01*
X151242627Y-102538598D01*
X151302155Y-102544999D01*
X151302172Y-102545000D01*
X152050000Y-102545000D01*
X152550000Y-102545000D01*
X153297828Y-102545000D01*
X153297844Y-102544999D01*
X153357372Y-102538598D01*
X153357379Y-102538596D01*
X153492086Y-102488354D01*
X153492093Y-102488350D01*
X153607187Y-102402190D01*
X153607190Y-102402187D01*
X153693350Y-102287093D01*
X153693354Y-102287086D01*
X153743596Y-102152379D01*
X153743598Y-102152372D01*
X153749999Y-102092844D01*
X153750000Y-102092827D01*
X153750000Y-101795000D01*
X152550000Y-101795000D01*
X152550000Y-102545000D01*
X152050000Y-102545000D01*
X152050000Y-101795000D01*
X150850000Y-101795000D01*
X150850000Y-102092844D01*
X110418523Y-102092844D01*
X111514212Y-100997155D01*
X150850000Y-100997155D01*
X150850000Y-101295000D01*
X152050000Y-101295000D01*
X152550000Y-101295000D01*
X153750000Y-101295000D01*
X153750000Y-100997172D01*
X153749999Y-100997155D01*
X153743598Y-100937627D01*
X153743596Y-100937620D01*
X153693354Y-100802913D01*
X153693350Y-100802906D01*
X153607190Y-100687812D01*
X153607187Y-100687809D01*
X153492093Y-100601649D01*
X153492086Y-100601645D01*
X153357379Y-100551403D01*
X153357372Y-100551401D01*
X153297844Y-100545000D01*
X152550000Y-100545000D01*
X152550000Y-101295000D01*
X152050000Y-101295000D01*
X152050000Y-100545000D01*
X151302155Y-100545000D01*
X151242627Y-100551401D01*
X151242620Y-100551403D01*
X151107913Y-100601645D01*
X151107906Y-100601649D01*
X150992812Y-100687809D01*
X150992809Y-100687812D01*
X150906649Y-100802906D01*
X150906645Y-100802913D01*
X150856403Y-100937620D01*
X150856401Y-100937627D01*
X150850000Y-100997155D01*
X111514212Y-100997155D01*
X112719548Y-99791819D01*
X112780871Y-99758334D01*
X112807229Y-99755500D01*
X154150249Y-99755500D01*
X154217288Y-99775185D01*
X154249515Y-99805188D01*
X154292451Y-99862542D01*
X154292454Y-99862546D01*
X154292457Y-99862548D01*
X154407664Y-99948793D01*
X154407671Y-99948797D01*
X154542517Y-99999091D01*
X154542516Y-99999091D01*
X154549444Y-99999835D01*
X154602127Y-100005500D01*
X156597872Y-100005499D01*
X156657483Y-99999091D01*
X156792331Y-99948796D01*
X156907546Y-99862546D01*
X156993796Y-99747331D01*
X157044091Y-99612483D01*
X157050500Y-99552873D01*
X157050499Y-98457128D01*
X157044091Y-98397517D01*
X157022608Y-98339919D01*
X156993797Y-98262671D01*
X156993793Y-98262664D01*
X156907547Y-98147455D01*
X156907544Y-98147452D01*
X156792335Y-98061206D01*
X156792328Y-98061202D01*
X156657482Y-98010908D01*
X156657483Y-98010908D01*
X156597883Y-98004501D01*
X156597881Y-98004500D01*
X156597873Y-98004500D01*
X156597864Y-98004500D01*
X154602129Y-98004500D01*
X154602123Y-98004501D01*
X154542516Y-98010908D01*
X154407671Y-98061202D01*
X154407664Y-98061206D01*
X154292457Y-98147451D01*
X154292451Y-98147457D01*
X154249515Y-98204812D01*
X154193581Y-98246682D01*
X154150249Y-98254500D01*
X112371080Y-98254500D01*
X112226092Y-98283340D01*
X112226082Y-98283343D01*
X112089511Y-98339912D01*
X112089498Y-98339919D01*
X111966584Y-98422048D01*
X111966580Y-98422051D01*
X102562181Y-107826451D01*
X102500858Y-107859936D01*
X102431166Y-107854952D01*
X102375233Y-107813080D01*
X102350816Y-107747616D01*
X102350500Y-107738770D01*
X102350500Y-75577135D01*
X124749500Y-75577135D01*
X124749500Y-77372870D01*
X124749501Y-77372876D01*
X124755908Y-77432483D01*
X124806202Y-77567328D01*
X124806206Y-77567335D01*
X124892452Y-77682544D01*
X124892455Y-77682547D01*
X125007664Y-77768793D01*
X125007671Y-77768797D01*
X125142517Y-77819091D01*
X125142516Y-77819091D01*
X125149444Y-77819835D01*
X125202127Y-77825500D01*
X126997872Y-77825499D01*
X127057483Y-77819091D01*
X127192331Y-77768796D01*
X127307546Y-77682546D01*
X127393796Y-77567331D01*
X127443002Y-77435401D01*
X127484872Y-77379468D01*
X127550337Y-77355050D01*
X127618610Y-77369901D01*
X127646865Y-77391053D01*
X127768917Y-77513105D01*
X127962421Y-77648600D01*
X128176507Y-77748429D01*
X128176516Y-77748433D01*
X128390000Y-77805634D01*
X128390000Y-76908012D01*
X128447007Y-76940925D01*
X128574174Y-76975000D01*
X128705826Y-76975000D01*
X128832993Y-76940925D01*
X128890000Y-76908012D01*
X128890000Y-77805633D01*
X129103483Y-77748433D01*
X129103492Y-77748429D01*
X129317578Y-77648600D01*
X129511082Y-77513105D01*
X129678105Y-77346082D01*
X129808119Y-77160405D01*
X129862696Y-77116781D01*
X129932195Y-77109588D01*
X129994549Y-77141110D01*
X130011269Y-77160405D01*
X130141505Y-77346401D01*
X130308599Y-77513495D01*
X130405384Y-77581265D01*
X130502165Y-77649032D01*
X130502167Y-77649033D01*
X130502170Y-77649035D01*
X130716337Y-77748903D01*
X130944592Y-77810063D01*
X131121034Y-77825500D01*
X131179999Y-77830659D01*
X131180000Y-77830659D01*
X131180001Y-77830659D01*
X131238966Y-77825500D01*
X131415408Y-77810063D01*
X131643663Y-77748903D01*
X131857830Y-77649035D01*
X132051401Y-77513495D01*
X132218495Y-77346401D01*
X132348425Y-77160842D01*
X132403002Y-77117217D01*
X132472500Y-77110023D01*
X132534855Y-77141546D01*
X132551575Y-77160842D01*
X132681500Y-77346395D01*
X132681505Y-77346401D01*
X132848599Y-77513495D01*
X132945384Y-77581265D01*
X133042165Y-77649032D01*
X133042167Y-77649033D01*
X133042170Y-77649035D01*
X133256337Y-77748903D01*
X133484592Y-77810063D01*
X133661034Y-77825500D01*
X133719999Y-77830659D01*
X133720000Y-77830659D01*
X133720001Y-77830659D01*
X133778966Y-77825500D01*
X133955408Y-77810063D01*
X134183663Y-77748903D01*
X134397830Y-77649035D01*
X134591401Y-77513495D01*
X134758495Y-77346401D01*
X134894035Y-77152830D01*
X134993903Y-76938663D01*
X135055063Y-76710408D01*
X135075659Y-76475000D01*
X135055063Y-76239592D01*
X134993903Y-76011337D01*
X134894035Y-75797171D01*
X134888731Y-75789595D01*
X134758494Y-75603597D01*
X134591402Y-75436506D01*
X134591395Y-75436501D01*
X134397834Y-75300967D01*
X134397830Y-75300965D01*
X134397828Y-75300964D01*
X134183663Y-75201097D01*
X134183659Y-75201096D01*
X134183655Y-75201094D01*
X133955413Y-75139938D01*
X133955403Y-75139936D01*
X133720001Y-75119341D01*
X133719999Y-75119341D01*
X133484596Y-75139936D01*
X133484586Y-75139938D01*
X133256344Y-75201094D01*
X133256335Y-75201098D01*
X133042171Y-75300964D01*
X133042169Y-75300965D01*
X132848597Y-75436505D01*
X132681505Y-75603597D01*
X132551575Y-75789158D01*
X132496998Y-75832783D01*
X132427500Y-75839977D01*
X132365145Y-75808454D01*
X132348425Y-75789158D01*
X132218494Y-75603597D01*
X132051402Y-75436506D01*
X132051395Y-75436501D01*
X131857834Y-75300967D01*
X131857830Y-75300965D01*
X131857828Y-75300964D01*
X131643663Y-75201097D01*
X131643659Y-75201096D01*
X131643655Y-75201094D01*
X131415413Y-75139938D01*
X131415403Y-75139936D01*
X131180001Y-75119341D01*
X131179999Y-75119341D01*
X130944596Y-75139936D01*
X130944586Y-75139938D01*
X130716344Y-75201094D01*
X130716335Y-75201098D01*
X130502171Y-75300964D01*
X130502169Y-75300965D01*
X130308597Y-75436505D01*
X130141508Y-75603594D01*
X130011269Y-75789595D01*
X129956692Y-75833219D01*
X129887193Y-75840412D01*
X129824839Y-75808890D01*
X129808119Y-75789594D01*
X129678113Y-75603926D01*
X129678108Y-75603920D01*
X129511082Y-75436894D01*
X129317578Y-75301399D01*
X129103492Y-75201570D01*
X129103486Y-75201567D01*
X128890000Y-75144364D01*
X128890000Y-76041988D01*
X128832993Y-76009075D01*
X128705826Y-75975000D01*
X128574174Y-75975000D01*
X128447007Y-76009075D01*
X128390000Y-76041988D01*
X128390000Y-75144364D01*
X128389999Y-75144364D01*
X128176513Y-75201567D01*
X128176507Y-75201570D01*
X127962422Y-75301399D01*
X127962420Y-75301400D01*
X127768926Y-75436886D01*
X127646865Y-75558947D01*
X127585542Y-75592431D01*
X127515850Y-75587447D01*
X127459917Y-75545575D01*
X127443002Y-75514598D01*
X127393797Y-75382671D01*
X127393793Y-75382664D01*
X127307547Y-75267455D01*
X127307544Y-75267452D01*
X127192335Y-75181206D01*
X127192328Y-75181202D01*
X127057482Y-75130908D01*
X127057483Y-75130908D01*
X126997883Y-75124501D01*
X126997881Y-75124500D01*
X126997873Y-75124500D01*
X126997864Y-75124500D01*
X125202129Y-75124500D01*
X125202123Y-75124501D01*
X125142516Y-75130908D01*
X125007671Y-75181202D01*
X125007664Y-75181206D01*
X124892455Y-75267452D01*
X124892452Y-75267455D01*
X124806206Y-75382664D01*
X124806202Y-75382671D01*
X124755908Y-75517517D01*
X124749501Y-75577116D01*
X124749500Y-75577135D01*
X102350500Y-75577135D01*
X102350500Y-63462230D01*
X102370185Y-63395191D01*
X102386819Y-63374549D01*
X103474549Y-62286819D01*
X103535872Y-62253334D01*
X103562230Y-62250500D01*
X128533134Y-62250500D01*
X128600173Y-62270185D01*
X128645928Y-62322989D01*
X128655872Y-62392147D01*
X128626847Y-62455703D01*
X128620815Y-62462181D01*
X128455739Y-62627256D01*
X128455733Y-62627263D01*
X128308067Y-62819706D01*
X128308064Y-62819710D01*
X128308064Y-62819711D01*
X128301438Y-62831188D01*
X128186777Y-63029785D01*
X128186773Y-63029794D01*
X128093947Y-63253895D01*
X128031161Y-63488214D01*
X127999500Y-63728711D01*
X127999500Y-63971288D01*
X128031161Y-64211785D01*
X128093947Y-64446104D01*
X128186773Y-64670205D01*
X128186776Y-64670212D01*
X128308064Y-64880289D01*
X128308066Y-64880292D01*
X128308067Y-64880293D01*
X128455733Y-65072736D01*
X128455739Y-65072743D01*
X128627256Y-65244260D01*
X128627262Y-65244265D01*
X128819711Y-65391936D01*
X129029788Y-65513224D01*
X129253900Y-65606054D01*
X129488211Y-65668838D01*
X129668586Y-65692584D01*
X129728711Y-65700500D01*
X129728712Y-65700500D01*
X129971289Y-65700500D01*
X130019388Y-65694167D01*
X130211789Y-65668838D01*
X130446100Y-65606054D01*
X130670212Y-65513224D01*
X130880289Y-65391936D01*
X131072738Y-65244265D01*
X131244265Y-65072738D01*
X131391936Y-64880289D01*
X131513224Y-64670212D01*
X131606054Y-64446100D01*
X131668838Y-64211789D01*
X131700500Y-63971288D01*
X131700500Y-63728712D01*
X131668838Y-63488211D01*
X131606054Y-63253900D01*
X131513224Y-63029788D01*
X131391936Y-62819711D01*
X131299096Y-62698719D01*
X131244266Y-62627263D01*
X131244260Y-62627256D01*
X131079185Y-62462181D01*
X131045700Y-62400858D01*
X131050684Y-62331166D01*
X131092556Y-62275233D01*
X131158020Y-62250816D01*
X131166866Y-62250500D01*
X156537770Y-62250500D01*
X156604809Y-62270185D01*
X156625451Y-62286819D01*
X158213181Y-63874548D01*
X158246666Y-63935871D01*
X158249500Y-63962229D01*
X158249500Y-82337770D01*
X158229815Y-82404809D01*
X158213181Y-82425451D01*
X156825451Y-83813181D01*
X156764128Y-83846666D01*
X156737770Y-83849500D01*
X152853391Y-83849500D01*
X152786352Y-83829815D01*
X152765710Y-83813181D01*
X152721004Y-83768475D01*
X152721003Y-83768474D01*
X152720301Y-83768041D01*
X152719921Y-83767618D01*
X152715336Y-83763993D01*
X152715955Y-83763209D01*
X152673575Y-83716098D01*
X152662349Y-83647136D01*
X152690188Y-83583052D01*
X152715455Y-83561157D01*
X152715336Y-83561007D01*
X152718687Y-83558356D01*
X152720299Y-83556959D01*
X152721003Y-83556526D01*
X152844026Y-83433503D01*
X152935362Y-83285425D01*
X152990087Y-83120275D01*
X153000500Y-83018348D01*
X153000500Y-82431652D01*
X152990087Y-82329725D01*
X152935362Y-82164575D01*
X152935358Y-82164569D01*
X152935357Y-82164566D01*
X152844028Y-82016500D01*
X152844025Y-82016496D01*
X152721003Y-81893474D01*
X152720999Y-81893471D01*
X152587914Y-81811383D01*
X152541189Y-81759435D01*
X152531395Y-81730042D01*
X152521658Y-81681087D01*
X152465084Y-81544505D01*
X152432186Y-81495270D01*
X152432185Y-81495268D01*
X152382956Y-81421589D01*
X152382952Y-81421584D01*
X152253307Y-81291939D01*
X152230653Y-81255869D01*
X152228813Y-81256756D01*
X152225792Y-81250484D01*
X152225789Y-81250480D01*
X152225789Y-81250478D01*
X152129816Y-81097738D01*
X152002262Y-80970184D01*
X151849523Y-80874211D01*
X151679254Y-80814631D01*
X151679249Y-80814630D01*
X151500004Y-80794435D01*
X151499996Y-80794435D01*
X151320750Y-80814630D01*
X151320745Y-80814631D01*
X151150476Y-80874211D01*
X150997737Y-80970184D01*
X150870184Y-81097737D01*
X150774211Y-81250476D01*
X150714631Y-81420745D01*
X150714630Y-81420750D01*
X150694435Y-81599996D01*
X150694435Y-81600003D01*
X150714630Y-81779249D01*
X150714631Y-81779254D01*
X150763049Y-81917623D01*
X150766610Y-81987402D01*
X150751546Y-82023675D01*
X150664639Y-82164572D01*
X150664637Y-82164577D01*
X150609913Y-82329723D01*
X150599500Y-82431644D01*
X150599500Y-83018355D01*
X150609913Y-83120276D01*
X150664637Y-83285422D01*
X150664642Y-83285433D01*
X150755971Y-83433499D01*
X150755974Y-83433503D01*
X150878996Y-83556525D01*
X150879000Y-83556528D01*
X150879703Y-83556962D01*
X150880083Y-83557385D01*
X150884664Y-83561007D01*
X150884045Y-83561789D01*
X150926428Y-83608910D01*
X150937649Y-83677872D01*
X150909806Y-83741954D01*
X150884544Y-83763842D01*
X150884664Y-83763993D01*
X150881315Y-83766640D01*
X150879703Y-83768038D01*
X150879000Y-83768471D01*
X150878996Y-83768474D01*
X150755974Y-83891496D01*
X150755971Y-83891500D01*
X150664642Y-84039566D01*
X150664637Y-84039577D01*
X150609913Y-84204723D01*
X150599500Y-84306644D01*
X150599500Y-84893355D01*
X150609913Y-84995276D01*
X150664637Y-85160422D01*
X150664642Y-85160433D01*
X150755971Y-85308499D01*
X150755974Y-85308503D01*
X150878996Y-85431525D01*
X150879000Y-85431528D01*
X151027066Y-85522857D01*
X151027069Y-85522858D01*
X151027075Y-85522862D01*
X151192225Y-85577587D01*
X151294152Y-85588000D01*
X151294157Y-85588000D01*
X152305843Y-85588000D01*
X152305848Y-85588000D01*
X152407775Y-85577587D01*
X152572925Y-85522862D01*
X152721003Y-85431526D01*
X152765710Y-85386819D01*
X152827033Y-85353334D01*
X152853391Y-85350500D01*
X157173920Y-85350500D01*
X157271462Y-85331096D01*
X157318913Y-85321658D01*
X157455495Y-85265084D01*
X157504729Y-85232186D01*
X157578416Y-85182952D01*
X159287819Y-83473549D01*
X159349142Y-83440064D01*
X159418834Y-83445048D01*
X159474767Y-83486920D01*
X159499184Y-83552384D01*
X159499500Y-83561230D01*
X159499500Y-147183111D01*
X159479815Y-147250150D01*
X159427011Y-147295905D01*
X159357853Y-147305849D01*
X159294297Y-147276824D01*
X159266142Y-147241564D01*
X159185913Y-147091467D01*
X159185909Y-147091460D01*
X159060883Y-146939116D01*
X158908539Y-146814090D01*
X158908532Y-146814086D01*
X158734733Y-146721188D01*
X158734727Y-146721186D01*
X158546132Y-146663976D01*
X158546129Y-146663975D01*
X158350000Y-146644659D01*
X158153870Y-146663975D01*
X157965266Y-146721188D01*
X157791467Y-146814086D01*
X157791460Y-146814090D01*
X157721687Y-146871353D01*
X157657377Y-146898666D01*
X157643022Y-146899500D01*
X152526076Y-146899500D01*
X152497242Y-146905234D01*
X152497243Y-146905235D01*
X152381093Y-146928339D01*
X152381083Y-146928342D01*
X152301081Y-146961479D01*
X152301082Y-146961480D01*
X152294782Y-146964090D01*
X152244505Y-146984916D01*
X152166101Y-147037304D01*
X152121582Y-147067049D01*
X152121579Y-147067052D01*
X149712181Y-149476451D01*
X149650858Y-149509936D01*
X149581166Y-149504952D01*
X149525233Y-149463080D01*
X149500816Y-149397616D01*
X149500500Y-149388770D01*
X149500500Y-149306976D01*
X149520185Y-149239937D01*
X149528632Y-149228329D01*
X149585910Y-149158538D01*
X149587538Y-149155492D01*
X149678811Y-148984733D01*
X149678811Y-148984732D01*
X149678814Y-148984727D01*
X149736024Y-148796132D01*
X149755341Y-148600000D01*
X149736024Y-148403868D01*
X149678814Y-148215273D01*
X149678811Y-148215269D01*
X149678811Y-148215266D01*
X149585913Y-148041467D01*
X149585909Y-148041460D01*
X149460883Y-147889116D01*
X149308539Y-147764090D01*
X149308532Y-147764086D01*
X149134733Y-147671188D01*
X149134727Y-147671186D01*
X148946132Y-147613976D01*
X148946129Y-147613975D01*
X148750000Y-147594659D01*
X148553870Y-147613975D01*
X148365266Y-147671188D01*
X148191467Y-147764086D01*
X148191460Y-147764090D01*
X148039116Y-147889116D01*
X147914090Y-148041460D01*
X147914086Y-148041467D01*
X147821188Y-148215266D01*
X147763975Y-148403870D01*
X147744659Y-148600000D01*
X147763975Y-148796129D01*
X147821188Y-148984733D01*
X147914084Y-149158529D01*
X147914087Y-149158533D01*
X147914090Y-149158538D01*
X147971354Y-149228314D01*
X147998666Y-149292620D01*
X147999500Y-149306976D01*
X147999500Y-150775500D01*
X147979815Y-150842539D01*
X147927011Y-150888294D01*
X147875500Y-150899500D01*
X119912229Y-150899500D01*
X119845190Y-150879815D01*
X119824548Y-150863181D01*
X119428027Y-150466660D01*
X141576892Y-150466660D01*
X141576892Y-150466661D01*
X141590692Y-150475333D01*
X141590691Y-150475333D01*
X141760861Y-150534878D01*
X141939997Y-150555062D01*
X141940003Y-150555062D01*
X142119138Y-150534878D01*
X142119141Y-150534877D01*
X142289305Y-150475334D01*
X142289306Y-150475334D01*
X142303106Y-150466661D01*
X142303106Y-150466660D01*
X142676892Y-150466660D01*
X142676892Y-150466661D01*
X142690692Y-150475333D01*
X142690691Y-150475333D01*
X142860861Y-150534878D01*
X143039997Y-150555062D01*
X143040003Y-150555062D01*
X143219138Y-150534878D01*
X143219141Y-150534877D01*
X143389305Y-150475334D01*
X143389306Y-150475334D01*
X143403106Y-150466661D01*
X143403106Y-150466660D01*
X143040001Y-150103553D01*
X143040000Y-150103553D01*
X142676892Y-150466660D01*
X142303106Y-150466660D01*
X141940001Y-150103553D01*
X141940000Y-150103553D01*
X141576892Y-150466660D01*
X119428027Y-150466660D01*
X118878028Y-149916660D01*
X141026892Y-149916660D01*
X141026892Y-149916661D01*
X141040692Y-149925333D01*
X141040699Y-149925336D01*
X141113205Y-149950708D01*
X141169981Y-149991430D01*
X141189291Y-150026793D01*
X141214664Y-150099302D01*
X141223338Y-150113107D01*
X141586446Y-149750000D01*
X141566555Y-149730109D01*
X141840000Y-149730109D01*
X141840000Y-149769891D01*
X141855224Y-149806645D01*
X141883355Y-149834776D01*
X141920109Y-149850000D01*
X141959891Y-149850000D01*
X141996645Y-149834776D01*
X142024776Y-149806645D01*
X142040000Y-149769891D01*
X142040000Y-149749999D01*
X142293553Y-149749999D01*
X142490000Y-149946446D01*
X142686446Y-149750000D01*
X142666555Y-149730109D01*
X142940000Y-149730109D01*
X142940000Y-149769891D01*
X142955224Y-149806645D01*
X142983355Y-149834776D01*
X143020109Y-149850000D01*
X143059891Y-149850000D01*
X143096645Y-149834776D01*
X143124776Y-149806645D01*
X143140000Y-149769891D01*
X143140000Y-149750000D01*
X143393553Y-149750000D01*
X143756660Y-150113106D01*
X143756661Y-150113106D01*
X143765334Y-150099306D01*
X143765334Y-150099305D01*
X143790707Y-150026795D01*
X143831429Y-149970019D01*
X143866795Y-149950707D01*
X143939305Y-149925334D01*
X143939306Y-149925334D01*
X143953106Y-149916661D01*
X143953106Y-149916660D01*
X143590000Y-149553553D01*
X143524241Y-149619313D01*
X143524240Y-149619314D01*
X143393553Y-149750000D01*
X143140000Y-149750000D01*
X143140000Y-149730109D01*
X143124776Y-149693355D01*
X143096645Y-149665224D01*
X143059891Y-149650000D01*
X143020109Y-149650000D01*
X142983355Y-149665224D01*
X142955224Y-149693355D01*
X142940000Y-149730109D01*
X142666555Y-149730109D01*
X142555760Y-149619314D01*
X142490000Y-149553553D01*
X142424241Y-149619313D01*
X142424240Y-149619314D01*
X142293553Y-149749999D01*
X142040000Y-149749999D01*
X142040000Y-149730109D01*
X142024776Y-149693355D01*
X141996645Y-149665224D01*
X141959891Y-149650000D01*
X141920109Y-149650000D01*
X141883355Y-149665224D01*
X141855224Y-149693355D01*
X141840000Y-149730109D01*
X141566555Y-149730109D01*
X141389999Y-149553553D01*
X141389998Y-149553553D01*
X141026892Y-149916660D01*
X118878028Y-149916660D01*
X118161365Y-149199997D01*
X140584938Y-149199997D01*
X140584938Y-149200002D01*
X140605121Y-149379138D01*
X140664665Y-149549304D01*
X140673338Y-149563107D01*
X141036446Y-149200000D01*
X141036446Y-149199999D01*
X141016556Y-149180109D01*
X141290000Y-149180109D01*
X141290000Y-149219891D01*
X141305224Y-149256645D01*
X141333355Y-149284776D01*
X141370109Y-149300000D01*
X141409891Y-149300000D01*
X141446645Y-149284776D01*
X141474776Y-149256645D01*
X141490000Y-149219891D01*
X141490000Y-149200000D01*
X141743553Y-149200000D01*
X141789645Y-149246091D01*
X141940000Y-149396446D01*
X142136446Y-149200000D01*
X142116555Y-149180109D01*
X142390000Y-149180109D01*
X142390000Y-149219891D01*
X142405224Y-149256645D01*
X142433355Y-149284776D01*
X142470109Y-149300000D01*
X142509891Y-149300000D01*
X142546645Y-149284776D01*
X142574776Y-149256645D01*
X142590000Y-149219891D01*
X142590000Y-149200000D01*
X142843553Y-149200000D01*
X142889645Y-149246091D01*
X143040000Y-149396446D01*
X143236446Y-149200000D01*
X143216555Y-149180109D01*
X143490000Y-149180109D01*
X143490000Y-149219891D01*
X143505224Y-149256645D01*
X143533355Y-149284776D01*
X143570109Y-149300000D01*
X143609891Y-149300000D01*
X143646645Y-149284776D01*
X143674776Y-149256645D01*
X143690000Y-149219891D01*
X143690000Y-149200000D01*
X143943552Y-149200000D01*
X144306660Y-149563106D01*
X144306661Y-149563106D01*
X144315334Y-149549306D01*
X144315334Y-149549305D01*
X144374877Y-149379141D01*
X144374878Y-149379138D01*
X144395062Y-149200002D01*
X144395062Y-149199997D01*
X144374878Y-149020861D01*
X144315333Y-148850692D01*
X144306661Y-148836892D01*
X144306660Y-148836892D01*
X143943552Y-149200000D01*
X143690000Y-149200000D01*
X143690000Y-149180109D01*
X143674776Y-149143355D01*
X143646645Y-149115224D01*
X143609891Y-149100000D01*
X143570109Y-149100000D01*
X143533355Y-149115224D01*
X143505224Y-149143355D01*
X143490000Y-149180109D01*
X143216555Y-149180109D01*
X143105760Y-149069314D01*
X143040000Y-149003553D01*
X142974241Y-149069313D01*
X142974240Y-149069314D01*
X142843553Y-149200000D01*
X142590000Y-149200000D01*
X142590000Y-149180109D01*
X142574776Y-149143355D01*
X142546645Y-149115224D01*
X142509891Y-149100000D01*
X142470109Y-149100000D01*
X142433355Y-149115224D01*
X142405224Y-149143355D01*
X142390000Y-149180109D01*
X142116555Y-149180109D01*
X142005760Y-149069314D01*
X141940000Y-149003553D01*
X141874241Y-149069313D01*
X141874240Y-149069314D01*
X141743553Y-149200000D01*
X141490000Y-149200000D01*
X141490000Y-149180109D01*
X141474776Y-149143355D01*
X141446645Y-149115224D01*
X141409891Y-149100000D01*
X141370109Y-149100000D01*
X141333355Y-149115224D01*
X141305224Y-149143355D01*
X141290000Y-149180109D01*
X141016556Y-149180109D01*
X140673338Y-148836891D01*
X140673337Y-148836891D01*
X140664667Y-148850691D01*
X140664662Y-148850701D01*
X140605122Y-149020858D01*
X140605121Y-149020861D01*
X140584938Y-149199997D01*
X118161365Y-149199997D01*
X117611369Y-148650000D01*
X141193553Y-148650000D01*
X141193553Y-148650001D01*
X141389998Y-148846446D01*
X141389999Y-148846446D01*
X141540355Y-148696091D01*
X141586446Y-148650000D01*
X141566555Y-148630109D01*
X141840000Y-148630109D01*
X141840000Y-148669891D01*
X141855224Y-148706645D01*
X141883355Y-148734776D01*
X141920109Y-148750000D01*
X141959891Y-148750000D01*
X141996645Y-148734776D01*
X142024776Y-148706645D01*
X142040000Y-148669891D01*
X142040000Y-148649999D01*
X142293553Y-148649999D01*
X142293553Y-148650000D01*
X142339645Y-148696091D01*
X142490000Y-148846446D01*
X142686446Y-148650000D01*
X142666555Y-148630109D01*
X142940000Y-148630109D01*
X142940000Y-148669891D01*
X142955224Y-148706645D01*
X142983355Y-148734776D01*
X143020109Y-148750000D01*
X143059891Y-148750000D01*
X143096645Y-148734776D01*
X143124776Y-148706645D01*
X143140000Y-148669891D01*
X143140000Y-148649999D01*
X143393553Y-148649999D01*
X143393553Y-148650000D01*
X143439645Y-148696091D01*
X143590000Y-148846446D01*
X143786446Y-148650000D01*
X143786446Y-148649999D01*
X143590000Y-148453553D01*
X143589999Y-148453553D01*
X143554423Y-148489130D01*
X143554422Y-148489131D01*
X143393553Y-148649999D01*
X143140000Y-148649999D01*
X143140000Y-148630109D01*
X143124776Y-148593355D01*
X143096645Y-148565224D01*
X143059891Y-148550000D01*
X143020109Y-148550000D01*
X142983355Y-148565224D01*
X142955224Y-148593355D01*
X142940000Y-148630109D01*
X142666555Y-148630109D01*
X142525576Y-148489130D01*
X142490000Y-148453553D01*
X142489999Y-148453553D01*
X142454423Y-148489130D01*
X142454422Y-148489131D01*
X142293553Y-148649999D01*
X142040000Y-148649999D01*
X142040000Y-148630109D01*
X142024776Y-148593355D01*
X141996645Y-148565224D01*
X141959891Y-148550000D01*
X141920109Y-148550000D01*
X141883355Y-148565224D01*
X141855224Y-148593355D01*
X141840000Y-148630109D01*
X141566555Y-148630109D01*
X141389999Y-148453553D01*
X141193553Y-148650000D01*
X117611369Y-148650000D01*
X117574091Y-148612722D01*
X117574080Y-148612712D01*
X117518014Y-148556646D01*
X117484529Y-148495323D01*
X117489513Y-148425631D01*
X117509840Y-148390303D01*
X117535910Y-148358538D01*
X117620651Y-148200000D01*
X117628811Y-148184733D01*
X117628811Y-148184732D01*
X117628814Y-148184727D01*
X117654517Y-148099997D01*
X140584938Y-148099997D01*
X140584938Y-148100002D01*
X140605121Y-148279138D01*
X140664665Y-148449304D01*
X140673338Y-148463107D01*
X141036446Y-148100000D01*
X141036446Y-148099999D01*
X141016556Y-148080109D01*
X141290000Y-148080109D01*
X141290000Y-148119891D01*
X141305224Y-148156645D01*
X141333355Y-148184776D01*
X141370109Y-148200000D01*
X141409891Y-148200000D01*
X141446645Y-148184776D01*
X141474776Y-148156645D01*
X141490000Y-148119891D01*
X141490000Y-148100000D01*
X141743553Y-148100000D01*
X141789645Y-148146091D01*
X141940000Y-148296446D01*
X142136446Y-148100000D01*
X142116555Y-148080109D01*
X142390000Y-148080109D01*
X142390000Y-148119891D01*
X142405224Y-148156645D01*
X142433355Y-148184776D01*
X142470109Y-148200000D01*
X142509891Y-148200000D01*
X142546645Y-148184776D01*
X142574776Y-148156645D01*
X142590000Y-148119891D01*
X142590000Y-148100000D01*
X142843553Y-148100000D01*
X142889645Y-148146091D01*
X143040000Y-148296446D01*
X143236446Y-148100000D01*
X143216555Y-148080109D01*
X143490000Y-148080109D01*
X143490000Y-148119891D01*
X143505224Y-148156645D01*
X143533355Y-148184776D01*
X143570109Y-148200000D01*
X143609891Y-148200000D01*
X143646645Y-148184776D01*
X143674776Y-148156645D01*
X143690000Y-148119891D01*
X143690000Y-148100000D01*
X143943552Y-148100000D01*
X144306660Y-148463106D01*
X144306661Y-148463106D01*
X144315334Y-148449306D01*
X144315334Y-148449305D01*
X144374877Y-148279141D01*
X144374878Y-148279138D01*
X144395062Y-148100002D01*
X144395062Y-148099997D01*
X144374878Y-147920861D01*
X144315333Y-147750692D01*
X144306661Y-147736892D01*
X144306660Y-147736892D01*
X143943552Y-148100000D01*
X143690000Y-148100000D01*
X143690000Y-148080109D01*
X143674776Y-148043355D01*
X143646645Y-148015224D01*
X143609891Y-148000000D01*
X143570109Y-148000000D01*
X143533355Y-148015224D01*
X143505224Y-148043355D01*
X143490000Y-148080109D01*
X143216555Y-148080109D01*
X143105760Y-147969314D01*
X143040000Y-147903553D01*
X142974241Y-147969313D01*
X142974240Y-147969314D01*
X142843553Y-148100000D01*
X142590000Y-148100000D01*
X142590000Y-148080109D01*
X142574776Y-148043355D01*
X142546645Y-148015224D01*
X142509891Y-148000000D01*
X142470109Y-148000000D01*
X142433355Y-148015224D01*
X142405224Y-148043355D01*
X142390000Y-148080109D01*
X142116555Y-148080109D01*
X142005760Y-147969314D01*
X141940000Y-147903553D01*
X141874241Y-147969313D01*
X141874240Y-147969314D01*
X141743553Y-148100000D01*
X141490000Y-148100000D01*
X141490000Y-148080109D01*
X141474776Y-148043355D01*
X141446645Y-148015224D01*
X141409891Y-148000000D01*
X141370109Y-148000000D01*
X141333355Y-148015224D01*
X141305224Y-148043355D01*
X141290000Y-148080109D01*
X141016556Y-148080109D01*
X140673338Y-147736891D01*
X140673337Y-147736891D01*
X140664667Y-147750691D01*
X140664662Y-147750701D01*
X140605122Y-147920858D01*
X140605121Y-147920861D01*
X140584938Y-148099997D01*
X117654517Y-148099997D01*
X117686024Y-147996132D01*
X117705341Y-147800000D01*
X117686024Y-147603868D01*
X117628814Y-147415273D01*
X117628811Y-147415269D01*
X117628811Y-147415266D01*
X117611745Y-147383338D01*
X141026891Y-147383338D01*
X141389998Y-147746446D01*
X141541788Y-147594658D01*
X141586446Y-147549998D01*
X141566557Y-147530109D01*
X141840000Y-147530109D01*
X141840000Y-147569891D01*
X141855224Y-147606645D01*
X141883355Y-147634776D01*
X141920109Y-147650000D01*
X141959891Y-147650000D01*
X141996645Y-147634776D01*
X142024776Y-147606645D01*
X142040000Y-147569891D01*
X142040000Y-147549999D01*
X142293553Y-147549999D01*
X142490000Y-147746446D01*
X142641786Y-147594660D01*
X142686446Y-147549998D01*
X142666557Y-147530109D01*
X142940000Y-147530109D01*
X142940000Y-147569891D01*
X142955224Y-147606645D01*
X142983355Y-147634776D01*
X143020109Y-147650000D01*
X143059891Y-147650000D01*
X143096645Y-147634776D01*
X143124776Y-147606645D01*
X143140000Y-147569891D01*
X143140000Y-147549998D01*
X143393553Y-147549998D01*
X143393553Y-147549999D01*
X143590000Y-147746446D01*
X143590001Y-147746446D01*
X143953107Y-147383338D01*
X143939302Y-147374664D01*
X143866793Y-147349291D01*
X143810017Y-147308569D01*
X143790708Y-147273205D01*
X143765336Y-147200699D01*
X143765333Y-147200692D01*
X143756661Y-147186892D01*
X143756660Y-147186892D01*
X143393553Y-147549998D01*
X143140000Y-147549998D01*
X143140000Y-147530109D01*
X143124776Y-147493355D01*
X143096645Y-147465224D01*
X143059891Y-147450000D01*
X143020109Y-147450000D01*
X142983355Y-147465224D01*
X142955224Y-147493355D01*
X142940000Y-147530109D01*
X142666557Y-147530109D01*
X142490001Y-147353553D01*
X142293553Y-147549999D01*
X142040000Y-147549999D01*
X142040000Y-147530109D01*
X142024776Y-147493355D01*
X141996645Y-147465224D01*
X141959891Y-147450000D01*
X141920109Y-147450000D01*
X141883355Y-147465224D01*
X141855224Y-147493355D01*
X141840000Y-147530109D01*
X141566557Y-147530109D01*
X141223338Y-147186891D01*
X141214664Y-147200695D01*
X141214659Y-147200705D01*
X141189291Y-147273205D01*
X141148569Y-147329981D01*
X141113205Y-147349291D01*
X141040705Y-147374659D01*
X141040695Y-147374664D01*
X141026891Y-147383338D01*
X117611745Y-147383338D01*
X117535913Y-147241467D01*
X117535909Y-147241460D01*
X117410883Y-147089116D01*
X117258539Y-146964090D01*
X117258532Y-146964086D01*
X117084733Y-146871188D01*
X117084727Y-146871186D01*
X116959956Y-146833337D01*
X141576891Y-146833337D01*
X141576891Y-146833338D01*
X141940000Y-147196446D01*
X141940001Y-147196446D01*
X142303107Y-146833338D01*
X142303105Y-146833337D01*
X142676891Y-146833337D01*
X142676891Y-146833338D01*
X143040000Y-147196446D01*
X143040001Y-147196446D01*
X143403107Y-146833338D01*
X143389304Y-146824665D01*
X143219138Y-146765121D01*
X143040003Y-146744938D01*
X143039997Y-146744938D01*
X142860861Y-146765121D01*
X142860858Y-146765122D01*
X142690701Y-146824662D01*
X142690691Y-146824667D01*
X142676891Y-146833337D01*
X142303105Y-146833337D01*
X142289304Y-146824665D01*
X142119138Y-146765121D01*
X141940003Y-146744938D01*
X141939997Y-146744938D01*
X141760861Y-146765121D01*
X141760858Y-146765122D01*
X141590701Y-146824662D01*
X141590691Y-146824667D01*
X141576891Y-146833337D01*
X116959956Y-146833337D01*
X116896132Y-146813976D01*
X116896129Y-146813975D01*
X116700000Y-146794659D01*
X116503870Y-146813975D01*
X116315266Y-146871188D01*
X116141467Y-146964086D01*
X116141460Y-146964090D01*
X115989116Y-147089116D01*
X115864090Y-147241460D01*
X115864086Y-147241467D01*
X115771188Y-147415266D01*
X115713975Y-147603870D01*
X115694659Y-147800000D01*
X115713975Y-147996129D01*
X115720294Y-148016961D01*
X115762667Y-148156645D01*
X115771188Y-148184733D01*
X115864084Y-148358529D01*
X115864086Y-148358531D01*
X115864090Y-148358538D01*
X115921354Y-148428314D01*
X115948666Y-148492620D01*
X115949500Y-148506976D01*
X115949500Y-148873918D01*
X115949500Y-148873920D01*
X115949499Y-148873920D01*
X115978340Y-149018907D01*
X115978343Y-149018917D01*
X116034914Y-149155492D01*
X116034915Y-149155494D01*
X116034916Y-149155495D01*
X116051362Y-149180109D01*
X116067812Y-149204727D01*
X116067813Y-149204730D01*
X116117046Y-149278414D01*
X116117052Y-149278421D01*
X116512707Y-149674075D01*
X116512717Y-149674086D01*
X118967049Y-152128416D01*
X119043495Y-152204862D01*
X119071585Y-152232952D01*
X119194498Y-152315080D01*
X119194511Y-152315087D01*
X119317869Y-152366183D01*
X119331087Y-152371658D01*
X119331091Y-152371658D01*
X119331092Y-152371659D01*
X119476079Y-152400500D01*
X119476082Y-152400500D01*
X148673920Y-152400500D01*
X148771462Y-152381096D01*
X148818913Y-152371658D01*
X148955495Y-152315084D01*
X149004729Y-152282186D01*
X149078416Y-152232952D01*
X149332952Y-151978416D01*
X149332952Y-151978415D01*
X150068206Y-151243159D01*
X150068211Y-151243156D01*
X150078414Y-151232952D01*
X150078416Y-151232952D01*
X152874548Y-148436818D01*
X152935871Y-148403334D01*
X152962229Y-148400500D01*
X157643022Y-148400500D01*
X157710061Y-148420185D01*
X157721687Y-148428647D01*
X157791460Y-148485909D01*
X157791467Y-148485913D01*
X157965266Y-148578811D01*
X157965269Y-148578811D01*
X157965273Y-148578814D01*
X158153868Y-148636024D01*
X158350000Y-148655341D01*
X158546132Y-148636024D01*
X158734727Y-148578814D01*
X158776201Y-148556646D01*
X158869126Y-148506976D01*
X158908538Y-148485910D01*
X159060883Y-148360883D01*
X159185910Y-148208538D01*
X159243925Y-148099999D01*
X159266142Y-148058435D01*
X159315104Y-148008591D01*
X159383241Y-147993130D01*
X159448921Y-148016961D01*
X159491290Y-148072519D01*
X159499500Y-148116888D01*
X159499500Y-156996249D01*
X159499274Y-157003736D01*
X159481728Y-157293794D01*
X159479923Y-157308659D01*
X159428219Y-157590798D01*
X159424635Y-157605336D01*
X159339306Y-157879167D01*
X159333997Y-157893168D01*
X159216275Y-158154736D01*
X159209316Y-158167995D01*
X159060928Y-158413459D01*
X159052422Y-158425782D01*
X158875526Y-158651573D01*
X158865596Y-158662781D01*
X158662781Y-158865596D01*
X158651573Y-158875526D01*
X158425782Y-159052422D01*
X158413459Y-159060928D01*
X158167995Y-159209316D01*
X158154736Y-159216275D01*
X157893168Y-159333997D01*
X157879168Y-159339306D01*
X157610891Y-159422905D01*
X157541030Y-159424057D01*
X157481638Y-159387256D01*
X157451570Y-159324187D01*
X157450000Y-159304520D01*
X157450000Y-155950000D01*
X129450000Y-155950000D01*
X129450000Y-159375500D01*
X129430315Y-159442539D01*
X129377511Y-159488294D01*
X129326000Y-159499500D01*
X121200186Y-159499500D01*
X121133147Y-159479815D01*
X121087392Y-159427011D01*
X121077448Y-159357853D01*
X121078569Y-159351308D01*
X121100000Y-159243569D01*
X121100000Y-159050000D01*
X120400000Y-159050000D01*
X120400000Y-158550000D01*
X121100000Y-158550000D01*
X121100000Y-158356430D01*
X121099999Y-158356428D01*
X121063493Y-158172902D01*
X121063491Y-158172894D01*
X120991880Y-158000008D01*
X120991875Y-157999999D01*
X120887913Y-157844410D01*
X120887910Y-157844406D01*
X120755593Y-157712089D01*
X120755589Y-157712086D01*
X120600000Y-157608124D01*
X120599991Y-157608119D01*
X120427103Y-157536507D01*
X120427100Y-157536506D01*
X120400000Y-157531115D01*
X120400000Y-158400272D01*
X120361940Y-158308386D01*
X120291614Y-158238060D01*
X120199728Y-158200000D01*
X120100272Y-158200000D01*
X120008386Y-158238060D01*
X119938060Y-158308386D01*
X119900000Y-158400272D01*
X119900000Y-157531116D01*
X119899999Y-157531115D01*
X119872899Y-157536506D01*
X119872896Y-157536507D01*
X119700008Y-157608119D01*
X119699999Y-157608124D01*
X119544410Y-157712086D01*
X119544406Y-157712089D01*
X119412089Y-157844406D01*
X119412086Y-157844410D01*
X119308124Y-157999999D01*
X119308119Y-158000008D01*
X119236508Y-158172894D01*
X119236506Y-158172902D01*
X119200000Y-158356428D01*
X119200000Y-158550000D01*
X119900000Y-158550000D01*
X119900000Y-159050000D01*
X119200000Y-159050000D01*
X119200000Y-159243569D01*
X119199999Y-159243569D01*
X119221431Y-159351308D01*
X119215204Y-159420900D01*
X119172341Y-159476077D01*
X119106452Y-159499322D01*
X119099814Y-159499500D01*
X114600186Y-159499500D01*
X114533147Y-159479815D01*
X114487392Y-159427011D01*
X114477448Y-159357853D01*
X114478569Y-159351308D01*
X114500000Y-159243569D01*
X114500000Y-159050000D01*
X113800000Y-159050000D01*
X113800000Y-158550000D01*
X114500000Y-158550000D01*
X114500000Y-158356430D01*
X114499999Y-158356428D01*
X114463493Y-158172902D01*
X114463491Y-158172894D01*
X114391880Y-158000008D01*
X114391875Y-157999999D01*
X114287913Y-157844410D01*
X114287910Y-157844406D01*
X114155593Y-157712089D01*
X114155589Y-157712086D01*
X114000000Y-157608124D01*
X113999991Y-157608119D01*
X113827103Y-157536507D01*
X113827100Y-157536506D01*
X113800000Y-157531115D01*
X113800000Y-158400272D01*
X113761940Y-158308386D01*
X113691614Y-158238060D01*
X113599728Y-158200000D01*
X113500272Y-158200000D01*
X113408386Y-158238060D01*
X113338060Y-158308386D01*
X113300000Y-158400272D01*
X113300000Y-157531116D01*
X113299999Y-157531115D01*
X113272899Y-157536506D01*
X113272896Y-157536507D01*
X113100008Y-157608119D01*
X113099999Y-157608124D01*
X112944410Y-157712086D01*
X112944406Y-157712089D01*
X112812089Y-157844406D01*
X112812086Y-157844410D01*
X112708124Y-157999999D01*
X112708119Y-158000008D01*
X112636508Y-158172894D01*
X112636506Y-158172902D01*
X112600000Y-158356428D01*
X112600000Y-158550000D01*
X113300000Y-158550000D01*
X113300000Y-159050000D01*
X112600000Y-159050000D01*
X112600000Y-159243569D01*
X112599999Y-159243569D01*
X112621431Y-159351308D01*
X112615204Y-159420900D01*
X112572341Y-159476077D01*
X112506452Y-159499322D01*
X112499814Y-159499500D01*
X110001954Y-159499500D01*
X109998059Y-159499439D01*
X109407417Y-159480877D01*
X109399643Y-159480388D01*
X108813267Y-159424959D01*
X108805538Y-159423982D01*
X108223830Y-159331849D01*
X108216178Y-159330390D01*
X107641361Y-159201903D01*
X107633816Y-159199965D01*
X107141893Y-159057048D01*
X107068230Y-159035646D01*
X107060840Y-159033246D01*
X106506676Y-158833735D01*
X106499434Y-158830868D01*
X105958886Y-158596952D01*
X105951837Y-158593635D01*
X105427048Y-158326241D01*
X105420222Y-158322488D01*
X104913265Y-158022675D01*
X104906688Y-158018501D01*
X104419553Y-157687444D01*
X104413251Y-157682865D01*
X103947881Y-157321887D01*
X103941878Y-157316922D01*
X103500059Y-156927406D01*
X103494381Y-156922073D01*
X103077926Y-156505618D01*
X103072593Y-156499940D01*
X102683077Y-156058121D01*
X102678112Y-156052118D01*
X102317134Y-155586748D01*
X102312555Y-155580446D01*
X101981498Y-155093311D01*
X101977324Y-155086734D01*
X101677511Y-154579777D01*
X101673758Y-154572951D01*
X101406364Y-154048162D01*
X101403047Y-154041113D01*
X101169131Y-153500565D01*
X101166270Y-153493338D01*
X100966746Y-152939139D01*
X100964358Y-152931789D01*
X100800031Y-152366172D01*
X100798096Y-152358638D01*
X100669605Y-151783802D01*
X100668153Y-151776188D01*
X100576016Y-151194459D01*
X100575040Y-151186732D01*
X100547889Y-150899500D01*
X100519610Y-150600340D01*
X100519123Y-150592598D01*
X100500561Y-150001941D01*
X100500500Y-149998046D01*
X100500500Y-146318995D01*
X101999499Y-146318995D01*
X102026418Y-146454322D01*
X102026421Y-146454332D01*
X102079221Y-146581804D01*
X102079228Y-146581817D01*
X102155885Y-146696541D01*
X102155888Y-146696545D01*
X102253454Y-146794111D01*
X102253458Y-146794114D01*
X102368182Y-146870771D01*
X102368195Y-146870778D01*
X102495667Y-146923578D01*
X102495672Y-146923580D01*
X102495676Y-146923580D01*
X102495677Y-146923581D01*
X102631004Y-146950500D01*
X102631007Y-146950500D01*
X102768995Y-146950500D01*
X102880403Y-146928339D01*
X102904328Y-146923580D01*
X103031811Y-146870775D01*
X103146542Y-146794114D01*
X103244114Y-146696542D01*
X103320775Y-146581811D01*
X103373580Y-146454328D01*
X103400500Y-146318993D01*
X103400500Y-146181007D01*
X103400500Y-146181004D01*
X103373581Y-146045677D01*
X103373580Y-146045676D01*
X103373580Y-146045672D01*
X103373578Y-146045667D01*
X103320778Y-145918195D01*
X103320771Y-145918182D01*
X103244114Y-145803458D01*
X103244111Y-145803454D01*
X103146545Y-145705888D01*
X103146541Y-145705885D01*
X103031817Y-145629228D01*
X103031804Y-145629221D01*
X102904332Y-145576421D01*
X102904322Y-145576418D01*
X102768995Y-145549500D01*
X102768993Y-145549500D01*
X102631007Y-145549500D01*
X102631005Y-145549500D01*
X102495677Y-145576418D01*
X102495667Y-145576421D01*
X102368195Y-145629221D01*
X102368182Y-145629228D01*
X102253458Y-145705885D01*
X102253454Y-145705888D01*
X102155888Y-145803454D01*
X102155885Y-145803458D01*
X102079228Y-145918182D01*
X102079221Y-145918195D01*
X102026421Y-146045667D01*
X102026418Y-146045677D01*
X101999500Y-146181004D01*
X101999500Y-146181007D01*
X101999500Y-146318993D01*
X101999500Y-146318995D01*
X101999499Y-146318995D01*
X100500500Y-146318995D01*
X100500500Y-63003750D01*
X100500726Y-62996263D01*
X100504486Y-62934108D01*
X100518271Y-62706201D01*
X100520076Y-62691340D01*
X100532860Y-62621584D01*
X100571780Y-62409197D01*
X100575364Y-62394663D01*
X100576148Y-62392147D01*
X100660696Y-62120822D01*
X100665998Y-62106841D01*
X100783731Y-61845249D01*
X100790676Y-61832016D01*
X100939080Y-61586526D01*
X100947567Y-61574230D01*
X101124480Y-61348417D01*
X101134395Y-61337226D01*
X101337226Y-61134395D01*
X101348417Y-61124480D01*
X101574230Y-60947567D01*
X101586526Y-60939080D01*
X101832016Y-60790676D01*
X101845249Y-60783731D01*
X102106841Y-60665998D01*
X102120822Y-60660696D01*
X102394668Y-60575362D01*
X102409197Y-60571780D01*
X102691344Y-60520075D01*
X102706201Y-60518271D01*
X102996264Y-60500726D01*
X103003751Y-60500500D01*
X103065892Y-60500500D01*
X156934108Y-60500500D01*
X156996249Y-60500500D01*
X157003736Y-60500726D01*
G37*
%TD.AperFunction*%
%TD*%
M02*
