%TF.GenerationSoftware,KiCad,Pcbnew,8.0.4-8.0.4-0~ubuntu22.04.1*%
%TF.CreationDate,2024-08-28T20:52:19+02:00*%
%TF.ProjectId,defcon32_badge,64656663-6f6e-4333-925f-62616467652e,rev?*%
%TF.SameCoordinates,Original*%
%TF.FileFunction,Copper,L1,Top*%
%TF.FilePolarity,Positive*%
%FSLAX46Y46*%
G04 Gerber Fmt 4.6, Leading zero omitted, Abs format (unit mm)*
G04 Created by KiCad (PCBNEW 8.0.4-8.0.4-0~ubuntu22.04.1) date 2024-08-28 20:52:19*
%MOMM*%
%LPD*%
G01*
G04 APERTURE LIST*
G04 Aperture macros list*
%AMRoundRect*
0 Rectangle with rounded corners*
0 $1 Rounding radius*
0 $2 $3 $4 $5 $6 $7 $8 $9 X,Y pos of 4 corners*
0 Add a 4 corners polygon primitive as box body*
4,1,4,$2,$3,$4,$5,$6,$7,$8,$9,$2,$3,0*
0 Add four circle primitives for the rounded corners*
1,1,$1+$1,$2,$3*
1,1,$1+$1,$4,$5*
1,1,$1+$1,$6,$7*
1,1,$1+$1,$8,$9*
0 Add four rect primitives between the rounded corners*
20,1,$1+$1,$2,$3,$4,$5,0*
20,1,$1+$1,$4,$5,$6,$7,0*
20,1,$1+$1,$6,$7,$8,$9,0*
20,1,$1+$1,$8,$9,$2,$3,0*%
G04 Aperture macros list end*
%TA.AperFunction,SMDPad,CuDef*%
%ADD10RoundRect,0.135000X-0.135000X-0.185000X0.135000X-0.185000X0.135000X0.185000X-0.135000X0.185000X0*%
%TD*%
%TA.AperFunction,SMDPad,CuDef*%
%ADD11C,1.000000*%
%TD*%
%TA.AperFunction,SMDPad,CuDef*%
%ADD12RoundRect,0.135000X0.185000X-0.135000X0.185000X0.135000X-0.185000X0.135000X-0.185000X-0.135000X0*%
%TD*%
%TA.AperFunction,SMDPad,CuDef*%
%ADD13RoundRect,0.135000X0.135000X0.185000X-0.135000X0.185000X-0.135000X-0.185000X0.135000X-0.185000X0*%
%TD*%
%TA.AperFunction,SMDPad,CuDef*%
%ADD14R,1.500000X0.900000*%
%TD*%
%TA.AperFunction,SMDPad,CuDef*%
%ADD15RoundRect,0.200000X-0.200000X-0.800000X0.200000X-0.800000X0.200000X0.800000X-0.200000X0.800000X0*%
%TD*%
%TA.AperFunction,SMDPad,CuDef*%
%ADD16RoundRect,0.140000X0.140000X0.170000X-0.140000X0.170000X-0.140000X-0.170000X0.140000X-0.170000X0*%
%TD*%
%TA.AperFunction,SMDPad,CuDef*%
%ADD17RoundRect,0.135000X-0.185000X0.135000X-0.185000X-0.135000X0.185000X-0.135000X0.185000X0.135000X0*%
%TD*%
%TA.AperFunction,SMDPad,CuDef*%
%ADD18RoundRect,0.140000X-0.140000X-0.170000X0.140000X-0.170000X0.140000X0.170000X-0.140000X0.170000X0*%
%TD*%
%TA.AperFunction,SMDPad,CuDef*%
%ADD19RoundRect,0.100000X-0.100000X-0.575000X0.100000X-0.575000X0.100000X0.575000X-0.100000X0.575000X0*%
%TD*%
%TA.AperFunction,ComponentPad*%
%ADD20O,0.900000X1.600000*%
%TD*%
%TA.AperFunction,SMDPad,CuDef*%
%ADD21RoundRect,0.250000X-0.550000X-0.450000X0.550000X-0.450000X0.550000X0.450000X-0.550000X0.450000X0*%
%TD*%
%TA.AperFunction,SMDPad,CuDef*%
%ADD22RoundRect,0.250000X-0.700000X-0.700000X0.700000X-0.700000X0.700000X0.700000X-0.700000X0.700000X0*%
%TD*%
%TA.AperFunction,SMDPad,CuDef*%
%ADD23R,1.550000X1.300000*%
%TD*%
%TA.AperFunction,SMDPad,CuDef*%
%ADD24RoundRect,0.375000X0.375000X-0.625000X0.375000X0.625000X-0.375000X0.625000X-0.375000X-0.625000X0*%
%TD*%
%TA.AperFunction,SMDPad,CuDef*%
%ADD25RoundRect,0.500000X1.400000X-0.500000X1.400000X0.500000X-1.400000X0.500000X-1.400000X-0.500000X0*%
%TD*%
%TA.AperFunction,SMDPad,CuDef*%
%ADD26R,1.200000X1.200000*%
%TD*%
%TA.AperFunction,SMDPad,CuDef*%
%ADD27RoundRect,0.250000X-1.000000X0.375000X-1.000000X-0.375000X1.000000X-0.375000X1.000000X0.375000X0*%
%TD*%
%TA.AperFunction,SMDPad,CuDef*%
%ADD28RoundRect,0.140000X-0.170000X0.140000X-0.170000X-0.140000X0.170000X-0.140000X0.170000X0.140000X0*%
%TD*%
%TA.AperFunction,HeatsinkPad*%
%ADD29C,0.600000*%
%TD*%
%TA.AperFunction,SMDPad,CuDef*%
%ADD30R,2.900000X2.900000*%
%TD*%
%TA.AperFunction,SMDPad,CuDef*%
%ADD31RoundRect,0.250000X-0.475000X0.250000X-0.475000X-0.250000X0.475000X-0.250000X0.475000X0.250000X0*%
%TD*%
%TA.AperFunction,ComponentPad*%
%ADD32R,1.700000X1.700000*%
%TD*%
%TA.AperFunction,ComponentPad*%
%ADD33O,1.700000X1.700000*%
%TD*%
%TA.AperFunction,SMDPad,CuDef*%
%ADD34RoundRect,0.250000X-0.250000X-0.475000X0.250000X-0.475000X0.250000X0.475000X-0.250000X0.475000X0*%
%TD*%
%TA.AperFunction,ViaPad*%
%ADD35C,1.000000*%
%TD*%
%TA.AperFunction,ViaPad*%
%ADD36C,0.600000*%
%TD*%
%TA.AperFunction,Conductor*%
%ADD37C,0.500000*%
%TD*%
%TA.AperFunction,Conductor*%
%ADD38C,0.300000*%
%TD*%
%TA.AperFunction,Conductor*%
%ADD39C,0.200000*%
%TD*%
G04 APERTURE END LIST*
D10*
%TO.P,R9,1*%
%TO.N,/USB+*%
X131190000Y-148900000D03*
%TO.P,R9,2*%
%TO.N,/USB_D+*%
X132210000Y-148900000D03*
%TD*%
D11*
%TO.P,TP3,1,1*%
%TO.N,+3V3*%
X121100000Y-137700000D03*
%TD*%
%TO.P,TP2,1,1*%
%TO.N,/UART_TXD*%
X128100000Y-145900000D03*
%TD*%
D12*
%TO.P,R11,1*%
%TO.N,GND*%
X149800000Y-84310000D03*
%TO.P,R11,2*%
%TO.N,Net-(D5-K)*%
X149800000Y-83290000D03*
%TD*%
D13*
%TO.P,R7,1*%
%TO.N,/BTN_A*%
X149760000Y-123800000D03*
%TO.P,R7,2*%
%TO.N,GND*%
X148740000Y-123800000D03*
%TD*%
D14*
%TO.P,D3,1,VDD*%
%TO.N,+3V3*%
X119683333Y-65975000D03*
%TO.P,D3,2,DOUT*%
%TO.N,Net-(D3-DOUT)*%
X119683333Y-69275000D03*
%TO.P,D3,3,VSS*%
%TO.N,GND*%
X124583333Y-69275000D03*
%TO.P,D3,4,DIN*%
%TO.N,Net-(D2-DOUT)*%
X124583333Y-65975000D03*
%TD*%
D15*
%TO.P,SW1,1,1*%
%TO.N,GND*%
X146400000Y-139700000D03*
%TO.P,SW1,2,2*%
%TO.N,/I2C_SCL*%
X150600000Y-139700000D03*
%TD*%
D16*
%TO.P,C2,1*%
%TO.N,GND*%
X127830000Y-79400000D03*
%TO.P,C2,2*%
%TO.N,+3V3*%
X126870000Y-79400000D03*
%TD*%
D17*
%TO.P,R1,1*%
%TO.N,+3V3*%
X154300000Y-151340000D03*
%TO.P,R1,2*%
%TO.N,Net-(U1-EN)*%
X154300000Y-152360000D03*
%TD*%
D13*
%TO.P,R4,1*%
%TO.N,/BTN_RIGHT*%
X125360000Y-128600000D03*
%TO.P,R4,2*%
%TO.N,GND*%
X124340000Y-128600000D03*
%TD*%
D14*
%TO.P,D4,1,VDD*%
%TO.N,+3V3*%
X104100000Y-65975000D03*
%TO.P,D4,2,DOUT*%
%TO.N,unconnected-(D4-DOUT-Pad2)*%
X104100000Y-69275000D03*
%TO.P,D4,3,VSS*%
%TO.N,GND*%
X109000000Y-69275000D03*
%TO.P,D4,4,DIN*%
%TO.N,Net-(D3-DOUT)*%
X109000000Y-65975000D03*
%TD*%
D18*
%TO.P,C3,1*%
%TO.N,GND*%
X149370000Y-63950000D03*
%TO.P,C3,2*%
%TO.N,+3V3*%
X150330000Y-63950000D03*
%TD*%
D14*
%TO.P,D1,1,VDD*%
%TO.N,+3V3*%
X150850000Y-65975000D03*
%TO.P,D1,2,DOUT*%
%TO.N,Net-(D1-DOUT)*%
X150850000Y-69275000D03*
%TO.P,D1,3,VSS*%
%TO.N,GND*%
X155750000Y-69275000D03*
%TO.P,D1,4,DIN*%
%TO.N,/NEOPIXEL*%
X155750000Y-65975000D03*
%TD*%
D19*
%TO.P,J2,1,VBUS*%
%TO.N,+5V*%
X115550000Y-156125000D03*
%TO.P,J2,2,D-*%
%TO.N,/USB-*%
X116200000Y-156125000D03*
%TO.P,J2,3,D+*%
%TO.N,/USB+*%
X116850000Y-156125000D03*
%TO.P,J2,4,ID*%
%TO.N,/USB_NC*%
X117500000Y-156125000D03*
%TO.P,J2,5,GND*%
%TO.N,GND*%
X118150000Y-156125000D03*
D20*
%TO.P,J2,6,Shield*%
X113550000Y-158800000D03*
D21*
X113650000Y-156350000D03*
D22*
X115650000Y-158800000D03*
X118050000Y-158800000D03*
D21*
X120050000Y-156350000D03*
D20*
X120150000Y-158800000D03*
%TD*%
D17*
%TO.P,R5,1*%
%TO.N,/BTN_DOWN*%
X119400000Y-134090000D03*
%TO.P,R5,2*%
%TO.N,GND*%
X119400000Y-135110000D03*
%TD*%
D10*
%TO.P,R2,1*%
%TO.N,/I2C_SCL*%
X150590000Y-137200000D03*
%TO.P,R2,2*%
%TO.N,+3V3*%
X151610000Y-137200000D03*
%TD*%
D23*
%TO.P,SW7,1,1*%
%TO.N,+3V3*%
X136925000Y-125100000D03*
X144875000Y-125100000D03*
%TO.P,SW7,2,2*%
%TO.N,/BTN_B*%
X136925000Y-129600000D03*
X144875000Y-129600000D03*
%TD*%
D17*
%TO.P,R3,1*%
%TO.N,/BTN_UP*%
X119950000Y-117490000D03*
%TO.P,R3,2*%
%TO.N,GND*%
X119950000Y-118510000D03*
%TD*%
D23*
%TO.P,SW6,1,1*%
%TO.N,+3V3*%
X148875000Y-117200000D03*
X156825000Y-117200000D03*
%TO.P,SW6,2,2*%
%TO.N,/BTN_A*%
X148875000Y-121700000D03*
X156825000Y-121700000D03*
%TD*%
D24*
%TO.P,U2,1,GND*%
%TO.N,GND*%
X113750000Y-145700000D03*
%TO.P,U2,2,VO*%
%TO.N,+3V3*%
X116050000Y-145700000D03*
D25*
X116050000Y-139400000D03*
D24*
%TO.P,U2,3,VI*%
%TO.N,+5V*%
X118350000Y-145700000D03*
%TD*%
D11*
%TO.P,TP4,1,1*%
%TO.N,GND*%
X122100000Y-146300000D03*
%TD*%
D14*
%TO.P,D2,1,VDD*%
%TO.N,+3V3*%
X135266666Y-65975000D03*
%TO.P,D2,2,DOUT*%
%TO.N,Net-(D2-DOUT)*%
X135266666Y-69275000D03*
%TO.P,D2,3,VSS*%
%TO.N,GND*%
X140166666Y-69275000D03*
%TO.P,D2,4,DIN*%
%TO.N,Net-(D1-DOUT)*%
X140166666Y-65975000D03*
%TD*%
D26*
%TO.P,D9,1,K*%
%TO.N,+5V*%
X111900000Y-150900000D03*
%TO.P,D9,2,A*%
%TO.N,Net-(D5-A)*%
X109100000Y-150900000D03*
%TD*%
D27*
%TO.P,SW8,1,A*%
%TO.N,Net-(J3-Pin_1)*%
X105450000Y-140350000D03*
%TO.P,SW8,2,B*%
%TO.N,Net-(D5-A)*%
X105450000Y-142850000D03*
%TO.P,SW8,3*%
%TO.N,N/C*%
X105450000Y-145350000D03*
%TD*%
D23*
%TO.P,SW4,1,1*%
%TO.N,+3V3*%
X109150000Y-130350000D03*
X117100000Y-130350000D03*
%TO.P,SW4,2,2*%
%TO.N,/BTN_DOWN*%
X109150000Y-134850000D03*
X117100000Y-134850000D03*
%TD*%
%TO.P,SW3,1,1*%
%TO.N,+3V3*%
X117475000Y-122100000D03*
X125425000Y-122100000D03*
%TO.P,SW3,2,2*%
%TO.N,/BTN_RIGHT*%
X117475000Y-126600000D03*
X125425000Y-126600000D03*
%TD*%
D10*
%TO.P,R6,1*%
%TO.N,/BTN_LEFT*%
X101990000Y-128650000D03*
%TO.P,R6,2*%
%TO.N,GND*%
X103010000Y-128650000D03*
%TD*%
D11*
%TO.P,TP1,1,1*%
%TO.N,/UART_RXD*%
X129800000Y-143300000D03*
%TD*%
D28*
%TO.P,C1,1*%
%TO.N,GND*%
X154300000Y-153620000D03*
%TO.P,C1,2*%
%TO.N,+3V3*%
X154300000Y-154580000D03*
%TD*%
D14*
%TO.P,U1,1,3V3*%
%TO.N,+3V3*%
X152200000Y-154850000D03*
%TO.P,U1,2,EN*%
%TO.N,Net-(U1-EN)*%
X152200000Y-153350000D03*
%TO.P,U1,3,IO4*%
%TO.N,/BTN_B*%
X152200000Y-151850000D03*
%TO.P,U1,4,IO5*%
%TO.N,/BTN_A*%
X152200000Y-150350000D03*
%TO.P,U1,5,IO6*%
%TO.N,unconnected-(U1-IO6-Pad5)*%
X152200000Y-148850000D03*
%TO.P,U1,6,IO7*%
%TO.N,/NEOPIXEL*%
X152200000Y-147350000D03*
%TO.P,U1,7,IO8*%
%TO.N,/I2C_SDA*%
X152200000Y-145850000D03*
%TO.P,U1,8,IO9*%
%TO.N,/I2C_SCL*%
X152200000Y-144350000D03*
%TO.P,U1,9,GND*%
%TO.N,GND*%
X152200000Y-142850000D03*
%TO.P,U1,10,IO10*%
%TO.N,/BTN_DOWN*%
X134700000Y-142850000D03*
%TO.P,U1,11,IO20/RXD*%
%TO.N,/UART_RXD*%
X134700000Y-144350000D03*
%TO.P,U1,12,IO21/TXD*%
%TO.N,/UART_TXD*%
X134700000Y-145850000D03*
%TO.P,U1,13,IO18*%
%TO.N,/USB_D-*%
X134700000Y-147350000D03*
%TO.P,U1,14,IO19*%
%TO.N,/USB_D+*%
X134700000Y-148850000D03*
%TO.P,U1,15,IO3*%
%TO.N,/BTN_LEFT*%
X134700000Y-150350000D03*
%TO.P,U1,16,IO2*%
%TO.N,/BTN_RIGHT*%
X134700000Y-151850000D03*
%TO.P,U1,17,IO1*%
%TO.N,/BTN_UP*%
X134700000Y-153350000D03*
%TO.P,U1,18,IO0*%
%TO.N,unconnected-(U1-IO0-Pad18)*%
X134700000Y-154850000D03*
D29*
%TO.P,U1,19,GND*%
%TO.N,GND*%
X143590000Y-149200000D03*
X143590000Y-148100000D03*
X143040000Y-149750000D03*
X143040000Y-148650000D03*
X143040000Y-147550000D03*
X142490000Y-149200000D03*
D30*
X142490000Y-148650000D03*
D29*
X142490000Y-148100000D03*
X141940000Y-149750000D03*
X141940000Y-148650000D03*
X141940000Y-147550000D03*
X141390000Y-149200000D03*
X141390000Y-148100000D03*
%TD*%
D31*
%TO.P,C8,1*%
%TO.N,GND*%
X156500000Y-152350000D03*
%TO.P,C8,2*%
%TO.N,+3V3*%
X156500000Y-154250000D03*
%TD*%
D32*
%TO.P,J1,1,Pin_1*%
%TO.N,+3V3*%
X126100000Y-76475000D03*
D33*
%TO.P,J1,2,Pin_2*%
%TO.N,GND*%
X128640000Y-76475000D03*
%TO.P,J1,3,Pin_3*%
%TO.N,/I2C_SCL*%
X131180000Y-76475000D03*
%TO.P,J1,4,Pin_4*%
%TO.N,/I2C_SDA*%
X133720000Y-76475000D03*
%TD*%
D23*
%TO.P,SW5,1,1*%
%TO.N,+3V3*%
X101775000Y-122050000D03*
X109725000Y-122050000D03*
%TO.P,SW5,2,2*%
%TO.N,/BTN_LEFT*%
X101775000Y-126550000D03*
X109725000Y-126550000D03*
%TD*%
D18*
%TO.P,C5,1*%
%TO.N,GND*%
X118170000Y-63900000D03*
%TO.P,C5,2*%
%TO.N,+3V3*%
X119130000Y-63900000D03*
%TD*%
D10*
%TO.P,R10,1*%
%TO.N,/USB-*%
X131240000Y-147550000D03*
%TO.P,R10,2*%
%TO.N,/USB_D-*%
X132260000Y-147550000D03*
%TD*%
D23*
%TO.P,SW2,1,1*%
%TO.N,+3V3*%
X109750000Y-113750000D03*
X117700000Y-113750000D03*
%TO.P,SW2,2,2*%
%TO.N,/BTN_UP*%
X109750000Y-118250000D03*
X117700000Y-118250000D03*
%TD*%
D13*
%TO.P,R8,1*%
%TO.N,/BTN_B*%
X144910000Y-131750000D03*
%TO.P,R8,2*%
%TO.N,GND*%
X143890000Y-131750000D03*
%TD*%
D34*
%TO.P,C7,1*%
%TO.N,GND*%
X113650000Y-148700000D03*
%TO.P,C7,2*%
%TO.N,+3V3*%
X115550000Y-148700000D03*
%TD*%
D35*
%TO.N,+3V3*%
X110550000Y-115350000D03*
X116700000Y-147800000D03*
X114500000Y-137700000D03*
X148750000Y-148600000D03*
X115950000Y-130450000D03*
X147275000Y-119025000D03*
X158350000Y-147650000D03*
X144900000Y-124100000D03*
X155650000Y-117550000D03*
X124400000Y-122950000D03*
D36*
%TO.N,GND*%
X158100000Y-151550000D03*
X157000000Y-150850000D03*
X152000000Y-127550000D03*
X155850000Y-150850000D03*
X153850000Y-127550000D03*
X122250000Y-124750000D03*
X152950000Y-127550000D03*
X152950000Y-131800000D03*
X125000000Y-130000000D03*
X152000000Y-131800000D03*
X153850000Y-131800000D03*
X126050000Y-130000000D03*
X119500000Y-124800000D03*
X151050000Y-131800000D03*
X151050000Y-127550000D03*
%TO.N,Net-(J3-Pin_1)*%
X105300000Y-137500000D03*
%TO.N,/BTN_A*%
X150250000Y-121600000D03*
X156825000Y-121700000D03*
D35*
%TO.N,Net-(D5-A)*%
X103300000Y-142700000D03*
D36*
%TO.N,Net-(D5-K)*%
X151500000Y-81600000D03*
%TD*%
D37*
%TO.N,+3V3*%
X117700000Y-113750000D02*
X109750000Y-113750000D01*
X117700000Y-91850000D02*
X126800000Y-82750000D01*
X118592530Y-62750000D02*
X119200000Y-63357470D01*
X117475000Y-122100000D02*
X125425000Y-122100000D01*
X110550000Y-115350000D02*
X109725000Y-115350000D01*
X155500000Y-149400000D02*
X158550000Y-149400000D01*
X156000000Y-117200000D02*
X155650000Y-117550000D01*
X151610000Y-137200000D02*
X151610000Y-136644678D01*
X109750000Y-114550000D02*
X110550000Y-115350000D01*
X128200000Y-66400000D02*
X134841666Y-66400000D01*
X116050000Y-145700000D02*
X116050000Y-139400000D01*
X159150000Y-153300000D02*
X159150000Y-149350000D01*
X148875000Y-117425000D02*
X147275000Y-119025000D01*
X118050000Y-62750000D02*
X124550000Y-62750000D01*
X148875000Y-117200000D02*
X148875000Y-117425000D01*
X117700000Y-113750000D02*
X117700000Y-91850000D01*
X125250000Y-122100000D02*
X124400000Y-122950000D01*
X150850000Y-65975000D02*
X150850000Y-64400000D01*
X152200000Y-154850000D02*
X154100000Y-154850000D01*
X119683333Y-65975000D02*
X119683333Y-64383333D01*
X119400000Y-139400000D02*
X121100000Y-137700000D01*
X150084678Y-136130000D02*
X148750000Y-137464678D01*
X135425000Y-65975000D02*
X138500000Y-62900000D01*
X124550000Y-62750000D02*
X128200000Y-66400000D01*
X154300000Y-150600000D02*
X155500000Y-149400000D01*
X154300000Y-151340000D02*
X154300000Y-150600000D01*
X156825000Y-117200000D02*
X156000000Y-117200000D01*
X159150000Y-149350000D02*
X159150000Y-148800000D01*
X109150000Y-130350000D02*
X115850000Y-130350000D01*
X104100000Y-65975000D02*
X107325000Y-62750000D01*
X108200000Y-120525000D02*
X109725000Y-122050000D01*
X144875000Y-124125000D02*
X144900000Y-124100000D01*
X116050000Y-130350000D02*
X115950000Y-130450000D01*
X109750000Y-113750000D02*
X109750000Y-114550000D01*
X148750000Y-137464678D02*
X148750000Y-148600000D01*
X156100000Y-154650000D02*
X154300000Y-154650000D01*
X117100000Y-130350000D02*
X116050000Y-130350000D01*
X124350000Y-71150000D02*
X126100000Y-72900000D01*
X146360000Y-62890000D02*
X149882530Y-62890000D01*
X116700000Y-147800000D02*
X115850000Y-146950000D01*
X138500000Y-62900000D02*
X146350000Y-62900000D01*
X150400000Y-63407470D02*
X150400000Y-63950000D01*
X126100000Y-72900000D02*
X126100000Y-76475000D01*
X156500000Y-154250000D02*
X156746142Y-154250000D01*
X135266666Y-65975000D02*
X135425000Y-65975000D01*
X119683333Y-64383333D02*
X119200000Y-63900000D01*
X156500000Y-154250000D02*
X156100000Y-154650000D01*
X116050000Y-139400000D02*
X119400000Y-139400000D01*
X146350000Y-62900000D02*
X146360000Y-62890000D01*
X115550000Y-146200000D02*
X116050000Y-145700000D01*
X118050000Y-62750000D02*
X118592530Y-62750000D01*
X126800000Y-77300000D02*
X126100000Y-76600000D01*
X156500000Y-154250000D02*
X158200000Y-154250000D01*
X116050000Y-139400000D02*
X116050000Y-139250000D01*
X107325000Y-62750000D02*
X118050000Y-62750000D01*
X149882530Y-62890000D02*
X150400000Y-63407470D01*
X119200000Y-63357470D02*
X119200000Y-63900000D01*
X108325000Y-71150000D02*
X124350000Y-71150000D01*
X134841666Y-66400000D02*
X135266666Y-65975000D01*
X159150000Y-148450000D02*
X158350000Y-147650000D01*
X136925000Y-125100000D02*
X144875000Y-125100000D01*
X158550000Y-149400000D02*
X159150000Y-148800000D01*
X115850000Y-146950000D02*
X115550000Y-146950000D01*
X144875000Y-125100000D02*
X144875000Y-124125000D01*
X115850000Y-130350000D02*
X115950000Y-130450000D01*
X158200000Y-154250000D02*
X159150000Y-153300000D01*
X109725000Y-115350000D02*
X108200000Y-116875000D01*
X150850000Y-64400000D02*
X150400000Y-63950000D01*
X125425000Y-122100000D02*
X125250000Y-122100000D01*
X116050000Y-139250000D02*
X114500000Y-137700000D01*
X159150000Y-148800000D02*
X159150000Y-148450000D01*
X115550000Y-146950000D02*
X115550000Y-146200000D01*
X126800000Y-82750000D02*
X126800000Y-77300000D01*
X104100000Y-65975000D02*
X104100000Y-66925000D01*
X104100000Y-66925000D02*
X108325000Y-71150000D01*
X151610000Y-136644678D02*
X151095322Y-136130000D01*
X101775000Y-122050000D02*
X109725000Y-122050000D01*
X126100000Y-76600000D02*
X126100000Y-76475000D01*
X154100000Y-154850000D02*
X154300000Y-154650000D01*
X115550000Y-148700000D02*
X115550000Y-146950000D01*
X108200000Y-116875000D02*
X108200000Y-120525000D01*
X151095322Y-136130000D02*
X150084678Y-136130000D01*
D38*
%TO.N,GND*%
X154300000Y-153620000D02*
X155125280Y-153620000D01*
X156395280Y-152350000D02*
X156500000Y-152350000D01*
X118150000Y-155750000D02*
X119100000Y-154800000D01*
X118150000Y-156125000D02*
X118150000Y-155750000D01*
X155125280Y-153620000D02*
X156395280Y-152350000D01*
D37*
%TO.N,/NEOPIXEL*%
X153700000Y-121785786D02*
X153700000Y-68025000D01*
X153728427Y-146850001D02*
X157150001Y-143428427D01*
X153700000Y-68025000D02*
X155750000Y-65975000D01*
X157150001Y-125235787D02*
X153700000Y-121785786D01*
X153700000Y-146850001D02*
X153728427Y-146850001D01*
X153200001Y-147350000D02*
X153700000Y-146850001D01*
X152200000Y-147350000D02*
X153200001Y-147350000D01*
X157150001Y-143428427D02*
X157150001Y-125235787D01*
%TO.N,Net-(D1-DOUT)*%
X140875000Y-65975000D02*
X144175000Y-69275000D01*
X140166666Y-65975000D02*
X140875000Y-65975000D01*
X144175000Y-69275000D02*
X150850000Y-69275000D01*
%TO.N,Net-(D2-DOUT)*%
X124583333Y-65975000D02*
X127883333Y-69275000D01*
X127883333Y-69275000D02*
X135266666Y-69275000D01*
%TO.N,Net-(D3-DOUT)*%
X109075000Y-65975000D02*
X112375000Y-69275000D01*
X112375000Y-69275000D02*
X119683333Y-69275000D01*
X109000000Y-65975000D02*
X109075000Y-65975000D01*
D38*
%TO.N,+5V*%
X115550000Y-152000000D02*
X116700000Y-150850000D01*
D37*
X116700000Y-150850000D02*
X118350000Y-149200000D01*
X116700000Y-150850000D02*
X111950000Y-150850000D01*
X118350000Y-149200000D02*
X118350000Y-145700000D01*
X111950000Y-150850000D02*
X111900000Y-150900000D01*
D38*
X115550000Y-156125000D02*
X115550000Y-152000000D01*
D37*
%TO.N,Net-(J3-Pin_1)*%
X105450000Y-140350000D02*
X105450000Y-137650000D01*
X105450000Y-137650000D02*
X105300000Y-137500000D01*
%TO.N,Net-(U1-EN)*%
X152997470Y-153350000D02*
X153987470Y-152360000D01*
X153987470Y-152360000D02*
X154300000Y-152360000D01*
X152200000Y-153350000D02*
X152997470Y-153350000D01*
%TO.N,/I2C_SCL*%
X151700000Y-92500000D02*
X145000000Y-85800000D01*
X132450000Y-77745000D02*
X131180000Y-76475000D01*
X150600000Y-144000000D02*
X150600000Y-139700000D01*
X150950000Y-144350000D02*
X150600000Y-144000000D01*
X155150000Y-126400000D02*
X151700000Y-122950000D01*
X155150000Y-142600000D02*
X155150000Y-126400000D01*
X152200000Y-144350000D02*
X153400000Y-144350000D01*
X152200000Y-144350000D02*
X150950000Y-144350000D01*
X132450000Y-81600000D02*
X132450000Y-77745000D01*
X150590000Y-137200000D02*
X150590000Y-139690000D01*
X151700000Y-122950000D02*
X151700000Y-92500000D01*
X145000000Y-85800000D02*
X136650000Y-85800000D01*
X153400000Y-144350000D02*
X155150000Y-142600000D01*
X136650000Y-85800000D02*
X132450000Y-81600000D01*
X150590000Y-139690000D02*
X150600000Y-139700000D01*
%TO.N,/BTN_UP*%
X123740000Y-117490000D02*
X119950000Y-117490000D01*
X128050000Y-128900000D02*
X128050000Y-121800000D01*
X139450000Y-140300000D02*
X128050000Y-128900000D01*
X128050000Y-121800000D02*
X123740000Y-117490000D01*
X109750000Y-118250000D02*
X117700000Y-118250000D01*
X138200000Y-153350000D02*
X139450000Y-152100000D01*
X119950000Y-117490000D02*
X118460000Y-117490000D01*
X118460000Y-117490000D02*
X117700000Y-118250000D01*
X139450000Y-152100000D02*
X139450000Y-140300000D01*
X134700000Y-153350000D02*
X138200000Y-153350000D01*
%TO.N,/BTN_RIGHT*%
X126100000Y-126600000D02*
X125425000Y-126600000D01*
X135950000Y-151850000D02*
X138450000Y-149350000D01*
X125360000Y-128600000D02*
X125360000Y-126665000D01*
X127050000Y-129314214D02*
X127050000Y-127550000D01*
X138450000Y-140714214D02*
X127050000Y-129314214D01*
X117475000Y-126600000D02*
X125425000Y-126600000D01*
X125360000Y-126665000D02*
X125425000Y-126600000D01*
X138450000Y-149350000D02*
X138450000Y-140714214D01*
X127050000Y-127550000D02*
X126100000Y-126600000D01*
X134700000Y-151850000D02*
X135950000Y-151850000D01*
%TO.N,/BTN_DOWN*%
X134700000Y-142850000D02*
X134700000Y-139900000D01*
X119400000Y-134090000D02*
X119100000Y-134090000D01*
X128890000Y-134090000D02*
X119100000Y-134090000D01*
X134700000Y-139900000D02*
X128890000Y-134090000D01*
X119100000Y-134090000D02*
X117860000Y-134090000D01*
X117860000Y-134090000D02*
X117100000Y-134850000D01*
X109150000Y-134850000D02*
X117100000Y-134850000D01*
%TO.N,/BTN_LEFT*%
X124450000Y-131450000D02*
X121400000Y-128400000D01*
X121400000Y-128400000D02*
X111575000Y-128400000D01*
X111575000Y-128400000D02*
X109725000Y-126550000D01*
X134700000Y-150350000D02*
X135950000Y-150350000D01*
X137450000Y-141128428D02*
X127771572Y-131450000D01*
X101775000Y-126550000D02*
X109725000Y-126550000D01*
X101990000Y-128650000D02*
X101990000Y-126765000D01*
X135950000Y-150350000D02*
X137450000Y-148850000D01*
X137450000Y-148850000D02*
X137450000Y-141128428D01*
X101990000Y-126765000D02*
X101775000Y-126550000D01*
X127771572Y-131450000D02*
X124450000Y-131450000D01*
%TO.N,/BTN_A*%
X149760000Y-123800000D02*
X149760000Y-122585000D01*
X146450000Y-144650000D02*
X144600000Y-142800000D01*
X144600000Y-142800000D02*
X144600000Y-138400000D01*
X148732233Y-150350000D02*
X146450000Y-148067767D01*
X149760000Y-122585000D02*
X148875000Y-121700000D01*
X146450000Y-148067767D02*
X146450000Y-144650000D01*
X152200000Y-150350000D02*
X148732233Y-150350000D01*
X144600000Y-138400000D02*
X149760000Y-133240000D01*
X148875000Y-121700000D02*
X150150000Y-121700000D01*
X149760000Y-133240000D02*
X149760000Y-123800000D01*
X150150000Y-121700000D02*
X150250000Y-121600000D01*
%TO.N,/BTN_B*%
X152050000Y-152000000D02*
X148968019Y-152000000D01*
X143599999Y-143549999D02*
X143599999Y-137850001D01*
X152200000Y-151850000D02*
X152050000Y-152000000D01*
X144910000Y-129635000D02*
X144875000Y-129600000D01*
X143599999Y-137850001D02*
X144910000Y-136540000D01*
X136925000Y-129600000D02*
X144875000Y-129600000D01*
X144910000Y-131750000D02*
X144910000Y-129635000D01*
X144910000Y-136540000D02*
X144910000Y-131750000D01*
X145449999Y-148481980D02*
X145449999Y-145399999D01*
X145449999Y-145399999D02*
X143599999Y-143549999D01*
X148968019Y-152000000D02*
X145449999Y-148481980D01*
D39*
%TO.N,/USB_D+*%
X132260000Y-148850000D02*
X132210000Y-148900000D01*
X134700000Y-148850000D02*
X132260000Y-148850000D01*
%TO.N,/USB_D-*%
X132260000Y-147550000D02*
X134500000Y-147550000D01*
X134500000Y-147550000D02*
X134700000Y-147350000D01*
D37*
%TO.N,/I2C_SDA*%
X156150000Y-143014214D02*
X156150000Y-125650000D01*
X152700000Y-92085786D02*
X145414214Y-84800000D01*
X137064214Y-84800000D02*
X133720000Y-81455786D01*
X152200000Y-145850000D02*
X153314214Y-145850000D01*
X156150000Y-125650000D02*
X152700000Y-122200000D01*
X153314214Y-145850000D02*
X156150000Y-143014214D01*
X133720000Y-81455786D02*
X133720000Y-76475000D01*
X152700000Y-122200000D02*
X152700000Y-92085786D01*
X145414214Y-84800000D02*
X137064214Y-84800000D01*
%TO.N,/UART_TXD*%
X127700000Y-145900000D02*
X128100000Y-145900000D01*
X134700000Y-145850000D02*
X127750000Y-145850000D01*
X127750000Y-145850000D02*
X127700000Y-145900000D01*
%TO.N,/UART_RXD*%
X130850000Y-144350000D02*
X129800000Y-143300000D01*
X134700000Y-144350000D02*
X130850000Y-144350000D01*
D39*
%TO.N,/USB+*%
X124600000Y-148450000D02*
X130740000Y-148450000D01*
X130740000Y-148450000D02*
X131190000Y-148900000D01*
X116850000Y-155313604D02*
X118213604Y-153950000D01*
X119100000Y-153950000D02*
X124600000Y-148450000D01*
X118213604Y-153950000D02*
X119100000Y-153950000D01*
X116850000Y-156125000D02*
X116850000Y-155313604D01*
%TO.N,/USB-*%
X124434314Y-148050000D02*
X130740000Y-148050000D01*
X118934314Y-153550000D02*
X124434314Y-148050000D01*
X116200000Y-156125000D02*
X116200000Y-155397918D01*
X130740000Y-148050000D02*
X131240000Y-147550000D01*
X116200000Y-155397918D02*
X118047918Y-153550000D01*
X118047918Y-153550000D02*
X118934314Y-153550000D01*
D37*
%TO.N,Net-(D5-A)*%
X105300000Y-142700000D02*
X105450000Y-142850000D01*
X105400000Y-142800000D02*
X105450000Y-142850000D01*
X105450000Y-142850000D02*
X108050000Y-142850000D01*
X104000000Y-142800000D02*
X105400000Y-142800000D01*
X109100000Y-143900000D02*
X109100000Y-150900000D01*
X108050000Y-142850000D02*
X109100000Y-143900000D01*
X103300000Y-142700000D02*
X105300000Y-142700000D01*
%TO.N,Net-(D5-K)*%
X149810000Y-83290000D02*
X151500000Y-81600000D01*
X149800000Y-83290000D02*
X149810000Y-83290000D01*
%TD*%
%TA.AperFunction,Conductor*%
%TO.N,GND*%
G36*
X108434248Y-127320185D02*
G01*
X108480003Y-127372989D01*
X108483391Y-127381167D01*
X108506202Y-127442328D01*
X108506206Y-127442335D01*
X108592452Y-127557544D01*
X108592455Y-127557547D01*
X108707664Y-127643793D01*
X108707671Y-127643797D01*
X108842517Y-127694091D01*
X108842516Y-127694091D01*
X108849444Y-127694835D01*
X108902127Y-127700500D01*
X109762769Y-127700499D01*
X109829808Y-127720183D01*
X109850450Y-127736818D01*
X110428429Y-128314796D01*
X110992049Y-128878416D01*
X111048755Y-128935122D01*
X111096585Y-128982952D01*
X111219498Y-129065080D01*
X111219511Y-129065087D01*
X111356082Y-129121656D01*
X111356087Y-129121658D01*
X111356091Y-129121658D01*
X111356092Y-129121659D01*
X111501079Y-129150500D01*
X111501082Y-129150500D01*
X111501083Y-129150500D01*
X111648917Y-129150500D01*
X115863428Y-129150500D01*
X115930467Y-129170185D01*
X115976222Y-129222989D01*
X115986166Y-129292147D01*
X115962694Y-129348812D01*
X115918982Y-129407202D01*
X115863047Y-129449073D01*
X115831871Y-129456293D01*
X115753870Y-129463975D01*
X115565269Y-129521187D01*
X115478090Y-129567786D01*
X115446150Y-129584858D01*
X115387698Y-129599500D01*
X110507791Y-129599500D01*
X110440752Y-129579815D01*
X110394997Y-129527011D01*
X110391609Y-129518833D01*
X110368797Y-129457671D01*
X110368793Y-129457664D01*
X110282547Y-129342455D01*
X110282544Y-129342452D01*
X110167335Y-129256206D01*
X110167328Y-129256202D01*
X110032482Y-129205908D01*
X110032483Y-129205908D01*
X109972883Y-129199501D01*
X109972881Y-129199500D01*
X109972873Y-129199500D01*
X109972864Y-129199500D01*
X108327129Y-129199500D01*
X108327123Y-129199501D01*
X108267516Y-129205908D01*
X108132671Y-129256202D01*
X108132664Y-129256206D01*
X108017455Y-129342452D01*
X108017452Y-129342455D01*
X107931206Y-129457664D01*
X107931202Y-129457671D01*
X107880908Y-129592517D01*
X107874501Y-129652116D01*
X107874501Y-129652123D01*
X107874500Y-129652135D01*
X107874500Y-131047870D01*
X107874501Y-131047876D01*
X107880908Y-131107483D01*
X107931202Y-131242328D01*
X107931206Y-131242335D01*
X108017452Y-131357544D01*
X108017455Y-131357547D01*
X108132664Y-131443793D01*
X108132671Y-131443797D01*
X108267517Y-131494091D01*
X108267516Y-131494091D01*
X108274444Y-131494835D01*
X108327127Y-131500500D01*
X109972872Y-131500499D01*
X110032483Y-131494091D01*
X110167331Y-131443796D01*
X110282546Y-131357546D01*
X110368796Y-131242331D01*
X110391609Y-131181167D01*
X110433480Y-131125233D01*
X110498944Y-131100816D01*
X110507791Y-131100500D01*
X115130914Y-131100500D01*
X115197953Y-131120185D01*
X115226768Y-131145836D01*
X115239117Y-131160883D01*
X115391460Y-131285909D01*
X115391467Y-131285913D01*
X115565266Y-131378811D01*
X115565269Y-131378811D01*
X115565273Y-131378814D01*
X115753868Y-131436024D01*
X115950000Y-131455341D01*
X116050863Y-131445406D01*
X116106345Y-131452626D01*
X116217517Y-131494091D01*
X116217516Y-131494091D01*
X116224444Y-131494835D01*
X116277127Y-131500500D01*
X117922872Y-131500499D01*
X117982483Y-131494091D01*
X118117331Y-131443796D01*
X118232546Y-131357546D01*
X118318796Y-131242331D01*
X118369091Y-131107483D01*
X118375500Y-131047873D01*
X118375499Y-129652128D01*
X118369091Y-129592517D01*
X118366234Y-129584858D01*
X118318797Y-129457671D01*
X118318793Y-129457664D01*
X118237305Y-129348811D01*
X118212887Y-129283347D01*
X118227738Y-129215074D01*
X118277143Y-129165668D01*
X118336571Y-129150500D01*
X121037770Y-129150500D01*
X121104809Y-129170185D01*
X121125451Y-129186819D01*
X122546177Y-130607544D01*
X123867048Y-131928415D01*
X123867049Y-131928416D01*
X123937803Y-131999170D01*
X123971585Y-132032952D01*
X124094498Y-132115080D01*
X124094511Y-132115087D01*
X124231082Y-132171656D01*
X124231087Y-132171658D01*
X124231091Y-132171658D01*
X124231092Y-132171659D01*
X124376079Y-132200500D01*
X124376082Y-132200500D01*
X127409342Y-132200500D01*
X127476381Y-132220185D01*
X127497023Y-132236819D01*
X128388023Y-133127819D01*
X128421508Y-133189142D01*
X128416524Y-133258834D01*
X128374652Y-133314767D01*
X128309188Y-133339184D01*
X128300342Y-133339500D01*
X119761933Y-133339500D01*
X119727338Y-133334576D01*
X119712007Y-133330122D01*
X119685205Y-133322335D01*
X119685202Y-133322334D01*
X119649181Y-133319500D01*
X119150830Y-133319500D01*
X119150808Y-133319501D01*
X119114794Y-133322335D01*
X119072662Y-133334576D01*
X119038067Y-133339500D01*
X117786080Y-133339500D01*
X117641092Y-133368340D01*
X117641082Y-133368343D01*
X117504511Y-133424912D01*
X117504498Y-133424919D01*
X117381584Y-133507048D01*
X117225450Y-133663182D01*
X117164127Y-133696666D01*
X117137769Y-133699500D01*
X116277129Y-133699500D01*
X116277123Y-133699501D01*
X116217516Y-133705908D01*
X116082671Y-133756202D01*
X116082664Y-133756206D01*
X115967455Y-133842452D01*
X115967452Y-133842455D01*
X115881206Y-133957664D01*
X115881202Y-133957671D01*
X115858391Y-134018833D01*
X115816520Y-134074767D01*
X115751056Y-134099184D01*
X115742209Y-134099500D01*
X110507791Y-134099500D01*
X110440752Y-134079815D01*
X110394997Y-134027011D01*
X110391609Y-134018833D01*
X110368797Y-133957671D01*
X110368793Y-133957664D01*
X110282547Y-133842455D01*
X110282544Y-133842452D01*
X110167335Y-133756206D01*
X110167328Y-133756202D01*
X110032482Y-133705908D01*
X110032483Y-133705908D01*
X109972883Y-133699501D01*
X109972881Y-133699500D01*
X109972873Y-133699500D01*
X109972864Y-133699500D01*
X108327129Y-133699500D01*
X108327123Y-133699501D01*
X108267516Y-133705908D01*
X108132671Y-133756202D01*
X108132664Y-133756206D01*
X108017455Y-133842452D01*
X108017452Y-133842455D01*
X107931206Y-133957664D01*
X107931202Y-133957671D01*
X107880908Y-134092517D01*
X107874501Y-134152116D01*
X107874500Y-134152135D01*
X107874500Y-135547870D01*
X107874501Y-135547876D01*
X107880908Y-135607483D01*
X107931202Y-135742328D01*
X107931206Y-135742335D01*
X108017452Y-135857544D01*
X108017455Y-135857547D01*
X108132664Y-135943793D01*
X108132671Y-135943797D01*
X108267517Y-135994091D01*
X108267516Y-135994091D01*
X108274444Y-135994835D01*
X108327127Y-136000500D01*
X109972872Y-136000499D01*
X110032483Y-135994091D01*
X110167331Y-135943796D01*
X110282546Y-135857546D01*
X110368796Y-135742331D01*
X110391609Y-135681167D01*
X110433480Y-135625233D01*
X110498944Y-135600816D01*
X110507791Y-135600500D01*
X115742209Y-135600500D01*
X115809248Y-135620185D01*
X115855003Y-135672989D01*
X115858391Y-135681167D01*
X115881202Y-135742328D01*
X115881206Y-135742335D01*
X115967452Y-135857544D01*
X115967455Y-135857547D01*
X116082664Y-135943793D01*
X116082671Y-135943797D01*
X116217517Y-135994091D01*
X116217516Y-135994091D01*
X116224444Y-135994835D01*
X116277127Y-136000500D01*
X117922872Y-136000499D01*
X117982483Y-135994091D01*
X118117331Y-135943796D01*
X118232546Y-135857546D01*
X118318796Y-135742331D01*
X118369091Y-135607483D01*
X118375500Y-135547873D01*
X118375499Y-135502748D01*
X118395182Y-135435712D01*
X118447985Y-135389956D01*
X118517144Y-135380011D01*
X118580700Y-135409034D01*
X118618475Y-135467812D01*
X118618575Y-135468152D01*
X118627593Y-135499191D01*
X118709261Y-135637285D01*
X118709268Y-135637294D01*
X118822705Y-135750731D01*
X118822714Y-135750738D01*
X118960808Y-135832406D01*
X118960811Y-135832407D01*
X119114871Y-135877166D01*
X119114877Y-135877167D01*
X119150000Y-135879931D01*
X119150000Y-135879930D01*
X119650000Y-135879930D01*
X119685122Y-135877167D01*
X119685128Y-135877166D01*
X119839188Y-135832407D01*
X119839191Y-135832406D01*
X119977285Y-135750738D01*
X119977294Y-135750731D01*
X120090731Y-135637294D01*
X120090738Y-135637285D01*
X120172404Y-135499194D01*
X120212844Y-135360000D01*
X119650000Y-135360000D01*
X119650000Y-135879930D01*
X119150000Y-135879930D01*
X119150000Y-134984499D01*
X119169685Y-134917460D01*
X119222489Y-134871705D01*
X119273996Y-134860499D01*
X119649180Y-134860499D01*
X119649193Y-134860498D01*
X119650668Y-134860382D01*
X119660393Y-134860000D01*
X120230542Y-134860000D01*
X120246277Y-134848256D01*
X120289445Y-134840500D01*
X128527770Y-134840500D01*
X128594809Y-134860185D01*
X128615451Y-134876819D01*
X133913181Y-140174549D01*
X133946666Y-140235872D01*
X133949500Y-140262230D01*
X133949500Y-141783023D01*
X133929815Y-141850062D01*
X133877011Y-141895817D01*
X133849865Y-141903266D01*
X133850068Y-141904124D01*
X133842520Y-141905907D01*
X133707671Y-141956202D01*
X133707664Y-141956206D01*
X133592455Y-142042452D01*
X133592452Y-142042455D01*
X133506206Y-142157664D01*
X133506202Y-142157671D01*
X133455908Y-142292517D01*
X133453462Y-142315273D01*
X133449501Y-142352123D01*
X133449500Y-142352135D01*
X133449500Y-143347870D01*
X133449501Y-143347876D01*
X133455909Y-143407485D01*
X133465115Y-143432168D01*
X133470099Y-143501860D01*
X133436613Y-143563182D01*
X133375289Y-143596667D01*
X133348933Y-143599500D01*
X131212229Y-143599500D01*
X131145190Y-143579815D01*
X131124548Y-143563181D01*
X130830593Y-143269225D01*
X130797108Y-143207902D01*
X130794871Y-143193697D01*
X130786024Y-143103871D01*
X130786024Y-143103870D01*
X130786024Y-143103868D01*
X130728814Y-142915273D01*
X130728811Y-142915269D01*
X130728811Y-142915266D01*
X130635913Y-142741467D01*
X130635909Y-142741460D01*
X130510883Y-142589116D01*
X130358539Y-142464090D01*
X130358532Y-142464086D01*
X130184733Y-142371188D01*
X130184727Y-142371186D01*
X130058997Y-142333046D01*
X129996129Y-142313975D01*
X129800000Y-142294659D01*
X129603870Y-142313975D01*
X129415266Y-142371188D01*
X129241467Y-142464086D01*
X129241460Y-142464090D01*
X129089116Y-142589116D01*
X128964090Y-142741460D01*
X128964086Y-142741467D01*
X128871188Y-142915266D01*
X128813975Y-143103870D01*
X128794659Y-143300000D01*
X128813975Y-143496129D01*
X128827990Y-143542331D01*
X128870083Y-143681092D01*
X128871188Y-143684733D01*
X128964086Y-143858532D01*
X128964090Y-143858539D01*
X129089116Y-144010883D01*
X129241460Y-144135909D01*
X129241467Y-144135913D01*
X129415266Y-144228811D01*
X129415269Y-144228811D01*
X129415273Y-144228814D01*
X129603868Y-144286024D01*
X129693697Y-144294871D01*
X129758485Y-144321031D01*
X129769225Y-144330593D01*
X130039337Y-144600704D01*
X130267049Y-144828416D01*
X130326452Y-144887819D01*
X130359936Y-144949143D01*
X130354951Y-145018835D01*
X130313080Y-145074768D01*
X130247615Y-145099184D01*
X130238770Y-145099500D01*
X128746053Y-145099500D01*
X128679014Y-145079815D01*
X128667392Y-145071356D01*
X128658538Y-145064090D01*
X128658537Y-145064089D01*
X128658534Y-145064087D01*
X128658532Y-145064086D01*
X128484733Y-144971188D01*
X128484727Y-144971186D01*
X128358684Y-144932951D01*
X128296129Y-144913975D01*
X128100000Y-144894659D01*
X127903870Y-144913975D01*
X127715266Y-144971188D01*
X127541467Y-145064086D01*
X127541461Y-145064090D01*
X127397755Y-145182025D01*
X127387983Y-145189272D01*
X127319677Y-145234914D01*
X127319676Y-145234915D01*
X127271586Y-145267047D01*
X127117048Y-145421583D01*
X127077289Y-145481086D01*
X127077290Y-145481087D01*
X127034914Y-145544508D01*
X126978343Y-145681082D01*
X126978340Y-145681092D01*
X126949500Y-145826079D01*
X126949500Y-145826082D01*
X126949500Y-145973918D01*
X126949500Y-145973920D01*
X126949499Y-145973920D01*
X126978340Y-146118907D01*
X126978343Y-146118917D01*
X127034914Y-146255492D01*
X127067812Y-146304727D01*
X127067813Y-146304730D01*
X127117046Y-146378414D01*
X127117047Y-146378415D01*
X127117048Y-146378416D01*
X127221584Y-146482952D01*
X127295270Y-146532186D01*
X127344765Y-146565258D01*
X127371726Y-146589692D01*
X127387451Y-146608853D01*
X127389119Y-146610885D01*
X127541460Y-146735909D01*
X127541467Y-146735913D01*
X127715266Y-146828811D01*
X127715269Y-146828811D01*
X127715273Y-146828814D01*
X127903868Y-146886024D01*
X128100000Y-146905341D01*
X128296132Y-146886024D01*
X128484727Y-146828814D01*
X128658538Y-146735910D01*
X128789238Y-146628646D01*
X128853546Y-146601334D01*
X128867902Y-146600500D01*
X133487680Y-146600500D01*
X133554719Y-146620185D01*
X133586948Y-146650191D01*
X133592454Y-146657546D01*
X133615785Y-146675011D01*
X133657655Y-146730944D01*
X133662639Y-146800635D01*
X133654909Y-146824359D01*
X133652416Y-146830004D01*
X133652415Y-146830009D01*
X133649500Y-146855131D01*
X133649500Y-147025500D01*
X133629815Y-147092539D01*
X133577011Y-147138294D01*
X133525500Y-147149500D01*
X132839816Y-147149500D01*
X132772777Y-147129815D01*
X132740046Y-147099134D01*
X132716040Y-147066607D01*
X132706423Y-147053577D01*
X132600794Y-146975619D01*
X132600792Y-146975618D01*
X132476880Y-146932258D01*
X132447461Y-146929500D01*
X132072546Y-146929500D01*
X132043125Y-146932258D01*
X132043115Y-146932260D01*
X131919205Y-146975619D01*
X131919204Y-146975619D01*
X131823633Y-147046154D01*
X131758004Y-147070125D01*
X131689834Y-147054809D01*
X131676367Y-147046154D01*
X131580794Y-146975619D01*
X131456880Y-146932258D01*
X131427461Y-146929500D01*
X131052546Y-146929500D01*
X131023125Y-146932258D01*
X131023115Y-146932260D01*
X130899207Y-146975618D01*
X130793576Y-147053576D01*
X130715618Y-147159207D01*
X130672258Y-147283118D01*
X130672258Y-147283120D01*
X130669500Y-147312538D01*
X130669500Y-147502743D01*
X130649815Y-147569782D01*
X130633183Y-147590422D01*
X130610427Y-147613179D01*
X130549105Y-147646666D01*
X130522744Y-147649500D01*
X124494653Y-147649500D01*
X124494637Y-147649499D01*
X124487041Y-147649499D01*
X124381587Y-147649499D01*
X124298891Y-147671658D01*
X124298890Y-147671657D01*
X124279729Y-147676792D01*
X124279724Y-147676794D01*
X124188399Y-147729521D01*
X118804740Y-153113181D01*
X118743417Y-153146666D01*
X118717059Y-153149500D01*
X118108257Y-153149500D01*
X118108241Y-153149499D01*
X118100645Y-153149499D01*
X117995191Y-153149499D01*
X117927284Y-153167695D01*
X117893330Y-153176793D01*
X117858681Y-153196798D01*
X117811906Y-153223804D01*
X117802002Y-153229522D01*
X116412181Y-154619344D01*
X116350858Y-154652829D01*
X116281166Y-154647845D01*
X116225233Y-154605973D01*
X116200816Y-154540509D01*
X116200500Y-154531663D01*
X116200500Y-152320807D01*
X116220185Y-152253768D01*
X116236815Y-152233130D01*
X116867344Y-151602600D01*
X116913642Y-151574852D01*
X116913285Y-151573989D01*
X116976338Y-151547872D01*
X117055495Y-151515084D01*
X117104729Y-151482186D01*
X117178416Y-151432952D01*
X118932951Y-149678416D01*
X119015084Y-149555495D01*
X119071658Y-149418913D01*
X119085787Y-149347883D01*
X119100500Y-149273920D01*
X119100500Y-147192942D01*
X119109564Y-147162075D01*
X121591476Y-147162075D01*
X121715462Y-147228348D01*
X121903969Y-147285531D01*
X121903965Y-147285531D01*
X122100000Y-147304838D01*
X122296032Y-147285531D01*
X122484537Y-147228348D01*
X122608523Y-147162076D01*
X122608523Y-147162075D01*
X122100001Y-146653553D01*
X122100000Y-146653553D01*
X121591476Y-147162075D01*
X119109564Y-147162075D01*
X119120185Y-147125903D01*
X119169406Y-147081854D01*
X119193055Y-147070125D01*
X119199296Y-147067030D01*
X119347722Y-146947722D01*
X119467030Y-146799296D01*
X119551641Y-146628693D01*
X119597600Y-146443889D01*
X119600500Y-146401123D01*
X119600500Y-146300000D01*
X121095161Y-146300000D01*
X121114468Y-146496032D01*
X121171651Y-146684537D01*
X121237923Y-146808522D01*
X121746447Y-146300000D01*
X121746446Y-146299999D01*
X122453553Y-146299999D01*
X122453553Y-146300000D01*
X122962076Y-146808523D01*
X123028348Y-146684537D01*
X123085531Y-146496032D01*
X123104838Y-146300000D01*
X123085531Y-146103967D01*
X123028348Y-145915462D01*
X122962075Y-145791476D01*
X122453553Y-146299999D01*
X121746446Y-146299999D01*
X121237923Y-145791476D01*
X121171649Y-145915466D01*
X121114468Y-146103967D01*
X121095161Y-146300000D01*
X119600500Y-146300000D01*
X119600499Y-145437923D01*
X121591476Y-145437923D01*
X122100000Y-145946447D01*
X122100001Y-145946447D01*
X122608522Y-145437923D01*
X122484537Y-145371651D01*
X122296030Y-145314468D01*
X122296034Y-145314468D01*
X122100000Y-145295161D01*
X121903967Y-145314468D01*
X121715466Y-145371649D01*
X121591476Y-145437923D01*
X119600499Y-145437923D01*
X119600499Y-144998878D01*
X119597600Y-144956111D01*
X119551641Y-144771307D01*
X119494287Y-144655663D01*
X119467032Y-144600707D01*
X119467030Y-144600704D01*
X119347722Y-144452278D01*
X119347721Y-144452277D01*
X119199295Y-144332969D01*
X119199292Y-144332967D01*
X119028697Y-144248360D01*
X118843892Y-144202400D01*
X118822506Y-144200950D01*
X118801123Y-144199500D01*
X118801120Y-144199500D01*
X117898877Y-144199500D01*
X117898874Y-144199501D01*
X117856113Y-144202399D01*
X117856112Y-144202399D01*
X117671303Y-144248360D01*
X117500707Y-144332967D01*
X117500704Y-144332969D01*
X117352278Y-144452277D01*
X117352277Y-144452278D01*
X117296647Y-144521486D01*
X117239304Y-144561405D01*
X117169482Y-144563985D01*
X117109349Y-144528406D01*
X117103353Y-144521486D01*
X117047722Y-144452278D01*
X117047721Y-144452277D01*
X116899295Y-144332969D01*
X116869405Y-144318145D01*
X116818092Y-144270723D01*
X116800500Y-144207057D01*
X116800500Y-141024499D01*
X116820185Y-140957460D01*
X116872989Y-140911705D01*
X116924500Y-140900499D01*
X117508028Y-140900499D01*
X117508036Y-140900499D01*
X117627418Y-140889886D01*
X117823049Y-140833909D01*
X118003407Y-140739698D01*
X118161109Y-140611109D01*
X118289698Y-140453407D01*
X118383909Y-140273049D01*
X118387005Y-140262230D01*
X118393256Y-140240387D01*
X118430624Y-140181349D01*
X118493978Y-140151887D01*
X118512471Y-140150500D01*
X119473920Y-140150500D01*
X119571462Y-140131096D01*
X119618913Y-140121658D01*
X119755495Y-140065084D01*
X119804729Y-140032186D01*
X119878416Y-139982952D01*
X121130775Y-138730591D01*
X121192096Y-138697108D01*
X121206295Y-138694871D01*
X121296132Y-138686024D01*
X121484727Y-138628814D01*
X121513975Y-138613181D01*
X121571632Y-138582362D01*
X121658538Y-138535910D01*
X121810883Y-138410883D01*
X121935910Y-138258538D01*
X121996865Y-138144499D01*
X122028811Y-138084733D01*
X122028811Y-138084732D01*
X122028814Y-138084727D01*
X122086024Y-137896132D01*
X122105341Y-137700000D01*
X122086024Y-137503868D01*
X122028814Y-137315273D01*
X122028811Y-137315269D01*
X122028811Y-137315266D01*
X121935913Y-137141467D01*
X121935909Y-137141460D01*
X121810883Y-136989116D01*
X121658539Y-136864090D01*
X121658532Y-136864086D01*
X121484733Y-136771188D01*
X121484727Y-136771186D01*
X121298295Y-136714632D01*
X121296129Y-136713975D01*
X121100000Y-136694659D01*
X120903870Y-136713975D01*
X120715266Y-136771188D01*
X120541467Y-136864086D01*
X120541460Y-136864090D01*
X120389116Y-136989116D01*
X120264090Y-137141460D01*
X120264086Y-137141467D01*
X120171188Y-137315266D01*
X120113975Y-137503870D01*
X120105127Y-137593700D01*
X120078965Y-137658487D01*
X120069405Y-137669225D01*
X119125451Y-138613181D01*
X119064128Y-138646666D01*
X119037770Y-138649500D01*
X118512471Y-138649500D01*
X118445432Y-138629815D01*
X118399677Y-138577011D01*
X118393256Y-138559613D01*
X118383911Y-138526956D01*
X118383909Y-138526953D01*
X118383909Y-138526951D01*
X118289698Y-138346593D01*
X118237684Y-138282803D01*
X118161109Y-138188890D01*
X118030523Y-138082412D01*
X118003407Y-138060302D01*
X117823049Y-137966091D01*
X117823048Y-137966090D01*
X117823045Y-137966089D01*
X117705829Y-137932550D01*
X117627418Y-137910114D01*
X117627415Y-137910113D01*
X117627413Y-137910113D01*
X117554631Y-137903642D01*
X117508037Y-137899500D01*
X117508033Y-137899500D01*
X115812230Y-137899500D01*
X115745191Y-137879815D01*
X115724549Y-137863181D01*
X115530593Y-137669225D01*
X115497108Y-137607902D01*
X115494871Y-137593697D01*
X115493136Y-137576079D01*
X115486024Y-137503868D01*
X115428814Y-137315273D01*
X115428811Y-137315269D01*
X115428811Y-137315266D01*
X115335913Y-137141467D01*
X115335909Y-137141460D01*
X115210883Y-136989116D01*
X115058539Y-136864090D01*
X115058532Y-136864086D01*
X114884733Y-136771188D01*
X114884727Y-136771186D01*
X114698295Y-136714632D01*
X114696129Y-136713975D01*
X114500000Y-136694659D01*
X114303870Y-136713975D01*
X114115266Y-136771188D01*
X113941467Y-136864086D01*
X113941460Y-136864090D01*
X113789116Y-136989116D01*
X113664090Y-137141460D01*
X113664086Y-137141467D01*
X113571188Y-137315266D01*
X113513975Y-137503870D01*
X113494659Y-137700000D01*
X113513975Y-137896129D01*
X113571188Y-138084733D01*
X113664086Y-138258532D01*
X113664090Y-138258539D01*
X113729517Y-138338261D01*
X113756830Y-138402571D01*
X113745039Y-138471438D01*
X113743574Y-138474335D01*
X113716089Y-138526953D01*
X113660114Y-138722583D01*
X113660113Y-138722586D01*
X113649500Y-138841966D01*
X113649500Y-139958028D01*
X113649501Y-139958034D01*
X113660113Y-140077415D01*
X113716089Y-140273045D01*
X113716090Y-140273048D01*
X113716091Y-140273049D01*
X113810302Y-140453407D01*
X113810304Y-140453409D01*
X113938890Y-140611109D01*
X113998845Y-140659995D01*
X114096593Y-140739698D01*
X114276951Y-140833909D01*
X114472582Y-140889886D01*
X114591963Y-140900500D01*
X115175500Y-140900499D01*
X115242539Y-140920183D01*
X115288294Y-140972987D01*
X115299500Y-141024499D01*
X115299500Y-144207057D01*
X115279815Y-144274096D01*
X115230595Y-144318145D01*
X115200704Y-144332969D01*
X115052280Y-144452276D01*
X115052278Y-144452278D01*
X115051993Y-144452633D01*
X114996326Y-144521885D01*
X114938982Y-144561803D01*
X114869160Y-144564383D01*
X114809027Y-144528804D01*
X114803031Y-144521884D01*
X114747364Y-144452630D01*
X114599025Y-144333392D01*
X114599022Y-144333390D01*
X114428523Y-144248831D01*
X114243824Y-144202897D01*
X114201097Y-144200000D01*
X114000000Y-144200000D01*
X114000000Y-147200000D01*
X114201097Y-147200000D01*
X114243824Y-147197102D01*
X114428523Y-147151168D01*
X114599022Y-147066609D01*
X114604686Y-147062989D01*
X114605574Y-147064378D01*
X114662397Y-147040923D01*
X114731141Y-147053413D01*
X114782220Y-147101087D01*
X114799500Y-147164229D01*
X114799500Y-147612770D01*
X114779815Y-147679809D01*
X114763181Y-147700451D01*
X114707288Y-147756343D01*
X114707283Y-147756349D01*
X114705241Y-147759661D01*
X114703247Y-147761453D01*
X114702807Y-147762011D01*
X114702711Y-147761935D01*
X114653291Y-147806383D01*
X114584328Y-147817602D01*
X114520247Y-147789755D01*
X114494168Y-147759656D01*
X114492319Y-147756659D01*
X114492316Y-147756655D01*
X114368345Y-147632684D01*
X114219124Y-147540643D01*
X114219119Y-147540641D01*
X114052697Y-147485494D01*
X114052690Y-147485493D01*
X113949986Y-147475000D01*
X113900000Y-147475000D01*
X113900000Y-148826000D01*
X113880315Y-148893039D01*
X113827511Y-148938794D01*
X113776000Y-148950000D01*
X112650001Y-148950000D01*
X112650001Y-149224986D01*
X112660494Y-149327697D01*
X112715641Y-149494119D01*
X112715643Y-149494124D01*
X112808027Y-149643902D01*
X112826467Y-149711295D01*
X112805544Y-149777958D01*
X112751902Y-149822728D01*
X112682571Y-149831389D01*
X112659155Y-149825181D01*
X112607482Y-149805908D01*
X112607483Y-149805908D01*
X112547883Y-149799501D01*
X112547881Y-149799500D01*
X112547873Y-149799500D01*
X112547864Y-149799500D01*
X111252129Y-149799500D01*
X111252123Y-149799501D01*
X111192516Y-149805908D01*
X111057671Y-149856202D01*
X111057664Y-149856206D01*
X110942455Y-149942452D01*
X110942452Y-149942455D01*
X110856206Y-150057664D01*
X110856202Y-150057671D01*
X110805908Y-150192517D01*
X110801434Y-150234135D01*
X110799501Y-150252123D01*
X110799500Y-150252135D01*
X110799500Y-151547870D01*
X110799501Y-151547876D01*
X110805908Y-151607483D01*
X110856202Y-151742328D01*
X110856206Y-151742335D01*
X110942452Y-151857544D01*
X110942455Y-151857547D01*
X111057664Y-151943793D01*
X111057671Y-151943797D01*
X111192517Y-151994091D01*
X111192516Y-151994091D01*
X111199444Y-151994835D01*
X111252127Y-152000500D01*
X112547872Y-152000499D01*
X112607483Y-151994091D01*
X112742331Y-151943796D01*
X112857546Y-151857546D01*
X112943796Y-151742331D01*
X112966609Y-151681167D01*
X113008480Y-151625233D01*
X113073944Y-151600816D01*
X113082791Y-151600500D01*
X114825804Y-151600500D01*
X114892843Y-151620185D01*
X114938598Y-151672989D01*
X114948542Y-151742147D01*
X114940365Y-151771950D01*
X114936669Y-151780875D01*
X114924499Y-151810255D01*
X114924497Y-151810261D01*
X114899500Y-151935928D01*
X114899500Y-155239477D01*
X114879815Y-155306516D01*
X114827011Y-155352271D01*
X114757853Y-155362215D01*
X114694297Y-155333190D01*
X114687819Y-155327158D01*
X114668345Y-155307684D01*
X114519124Y-155215643D01*
X114519119Y-155215641D01*
X114352697Y-155160494D01*
X114352690Y-155160493D01*
X114249986Y-155150000D01*
X113900000Y-155150000D01*
X113900000Y-157469000D01*
X113880315Y-157536039D01*
X113827511Y-157581794D01*
X113806672Y-157586327D01*
X113800000Y-157593000D01*
X113800000Y-158400272D01*
X113761940Y-158308386D01*
X113691614Y-158238060D01*
X113599728Y-158200000D01*
X113500272Y-158200000D01*
X113408386Y-158238060D01*
X113338060Y-158308386D01*
X113300000Y-158400272D01*
X113300000Y-157581000D01*
X113319685Y-157513961D01*
X113372489Y-157468206D01*
X113393327Y-157463672D01*
X113400000Y-157457000D01*
X113400000Y-156600000D01*
X112350001Y-156600000D01*
X112350001Y-156849986D01*
X112360494Y-156952697D01*
X112415641Y-157119119D01*
X112415643Y-157119124D01*
X112507684Y-157268345D01*
X112631654Y-157392315D01*
X112780875Y-157484356D01*
X112780882Y-157484359D01*
X112883926Y-157518504D01*
X112941371Y-157558276D01*
X112968195Y-157622792D01*
X112955880Y-157691568D01*
X112932605Y-157723891D01*
X112812086Y-157844410D01*
X112708124Y-157999999D01*
X112708119Y-158000008D01*
X112636508Y-158172894D01*
X112636506Y-158172902D01*
X112600000Y-158356428D01*
X112600000Y-158550000D01*
X113300000Y-158550000D01*
X113300000Y-159050000D01*
X112600000Y-159050000D01*
X112600000Y-159243569D01*
X112599999Y-159243569D01*
X112621431Y-159351308D01*
X112615204Y-159420900D01*
X112572341Y-159476077D01*
X112506452Y-159499322D01*
X112499814Y-159499500D01*
X110001954Y-159499500D01*
X109998059Y-159499439D01*
X109407417Y-159480877D01*
X109399643Y-159480388D01*
X108813267Y-159424959D01*
X108805538Y-159423982D01*
X108223830Y-159331849D01*
X108216178Y-159330390D01*
X107641361Y-159201903D01*
X107633816Y-159199965D01*
X107141893Y-159057048D01*
X107068230Y-159035646D01*
X107060840Y-159033246D01*
X106506676Y-158833735D01*
X106499434Y-158830868D01*
X105958886Y-158596952D01*
X105951837Y-158593635D01*
X105427048Y-158326241D01*
X105420222Y-158322488D01*
X104913265Y-158022675D01*
X104906688Y-158018501D01*
X104419553Y-157687444D01*
X104413251Y-157682865D01*
X103947881Y-157321887D01*
X103941878Y-157316922D01*
X103500059Y-156927406D01*
X103494381Y-156922073D01*
X103077926Y-156505618D01*
X103072593Y-156499940D01*
X102683077Y-156058121D01*
X102678112Y-156052118D01*
X102521343Y-155850013D01*
X112350000Y-155850013D01*
X112350000Y-156100000D01*
X113400000Y-156100000D01*
X113400000Y-155150000D01*
X113050028Y-155150000D01*
X113050012Y-155150001D01*
X112947302Y-155160494D01*
X112780880Y-155215641D01*
X112780875Y-155215643D01*
X112631654Y-155307684D01*
X112507684Y-155431654D01*
X112415643Y-155580875D01*
X112415641Y-155580880D01*
X112360494Y-155747302D01*
X112360493Y-155747309D01*
X112350000Y-155850013D01*
X102521343Y-155850013D01*
X102317134Y-155586748D01*
X102312555Y-155580446D01*
X101981498Y-155093311D01*
X101977324Y-155086734D01*
X101677511Y-154579777D01*
X101673758Y-154572951D01*
X101406364Y-154048162D01*
X101403047Y-154041113D01*
X101377548Y-153982189D01*
X101169129Y-153500561D01*
X101166270Y-153493338D01*
X100966746Y-152939139D01*
X100964358Y-152931789D01*
X100800031Y-152366172D01*
X100798096Y-152358638D01*
X100669605Y-151783802D01*
X100668153Y-151776188D01*
X100576016Y-151194459D01*
X100575040Y-151186732D01*
X100566889Y-151100500D01*
X100519610Y-150600340D01*
X100519123Y-150592598D01*
X100500561Y-150001941D01*
X100500500Y-149998046D01*
X100500500Y-146318995D01*
X101999499Y-146318995D01*
X102026418Y-146454322D01*
X102026421Y-146454332D01*
X102079221Y-146581804D01*
X102079228Y-146581817D01*
X102155885Y-146696541D01*
X102155888Y-146696545D01*
X102253454Y-146794111D01*
X102253458Y-146794114D01*
X102368182Y-146870771D01*
X102368195Y-146870778D01*
X102495667Y-146923578D01*
X102495672Y-146923580D01*
X102495676Y-146923580D01*
X102495677Y-146923581D01*
X102631004Y-146950500D01*
X102631007Y-146950500D01*
X102768995Y-146950500D01*
X102874566Y-146929500D01*
X102904328Y-146923580D01*
X103031811Y-146870775D01*
X103146542Y-146794114D01*
X103244114Y-146696542D01*
X103320775Y-146581811D01*
X103373580Y-146454328D01*
X103388680Y-146378414D01*
X103400500Y-146318995D01*
X103400500Y-146181004D01*
X103373581Y-146045677D01*
X103373580Y-146045676D01*
X103373580Y-146045672D01*
X103373025Y-146044331D01*
X103320778Y-145918195D01*
X103320771Y-145918182D01*
X103244114Y-145803458D01*
X103244111Y-145803454D01*
X103146545Y-145705888D01*
X103146541Y-145705885D01*
X103031817Y-145629228D01*
X103031804Y-145629221D01*
X102904332Y-145576421D01*
X102904322Y-145576418D01*
X102768995Y-145549500D01*
X102768993Y-145549500D01*
X102631007Y-145549500D01*
X102631005Y-145549500D01*
X102495677Y-145576418D01*
X102495667Y-145576421D01*
X102368195Y-145629221D01*
X102368182Y-145629228D01*
X102253458Y-145705885D01*
X102253454Y-145705888D01*
X102155888Y-145803454D01*
X102155885Y-145803458D01*
X102079228Y-145918182D01*
X102079221Y-145918195D01*
X102026421Y-146045667D01*
X102026418Y-146045677D01*
X101999500Y-146181004D01*
X101999500Y-146181007D01*
X101999500Y-146318993D01*
X101999500Y-146318995D01*
X101999499Y-146318995D01*
X100500500Y-146318995D01*
X100500500Y-144924983D01*
X103699500Y-144924983D01*
X103699500Y-145775001D01*
X103699501Y-145775019D01*
X103710000Y-145877796D01*
X103710001Y-145877799D01*
X103741852Y-145973918D01*
X103765186Y-146044334D01*
X103857288Y-146193656D01*
X103981344Y-146317712D01*
X104130666Y-146409814D01*
X104297203Y-146464999D01*
X104399991Y-146475500D01*
X106500008Y-146475499D01*
X106602797Y-146464999D01*
X106769334Y-146409814D01*
X106918656Y-146317712D01*
X107042712Y-146193656D01*
X107134814Y-146044334D01*
X107189999Y-145877797D01*
X107200500Y-145775009D01*
X107200499Y-144924992D01*
X107198710Y-144907483D01*
X107189999Y-144822203D01*
X107189998Y-144822200D01*
X107134814Y-144655666D01*
X107042712Y-144506344D01*
X106918656Y-144382288D01*
X106776346Y-144294511D01*
X106769336Y-144290187D01*
X106769331Y-144290185D01*
X106750578Y-144283971D01*
X106602797Y-144235001D01*
X106602795Y-144235000D01*
X106500010Y-144224500D01*
X104399998Y-144224500D01*
X104399981Y-144224501D01*
X104297203Y-144235000D01*
X104297200Y-144235001D01*
X104130668Y-144290185D01*
X104130663Y-144290187D01*
X103981342Y-144382289D01*
X103857289Y-144506342D01*
X103765187Y-144655663D01*
X103765186Y-144655666D01*
X103710001Y-144822203D01*
X103710001Y-144822204D01*
X103710000Y-144822204D01*
X103699500Y-144924983D01*
X100500500Y-144924983D01*
X100500500Y-142700000D01*
X102294659Y-142700000D01*
X102313975Y-142896129D01*
X102371188Y-143084733D01*
X102464086Y-143258532D01*
X102464090Y-143258539D01*
X102589116Y-143410883D01*
X102741460Y-143535909D01*
X102741467Y-143535913D01*
X102915266Y-143628811D01*
X102915269Y-143628811D01*
X102915273Y-143628814D01*
X103103868Y-143686024D01*
X103300000Y-143705341D01*
X103496132Y-143686024D01*
X103684727Y-143628814D01*
X103684732Y-143628810D01*
X103684739Y-143628809D01*
X103690359Y-143626482D01*
X103691189Y-143628486D01*
X103750000Y-143616228D01*
X103815249Y-143641213D01*
X103845617Y-143674734D01*
X103852580Y-143686024D01*
X103857288Y-143693656D01*
X103981344Y-143817712D01*
X104130666Y-143909814D01*
X104297203Y-143964999D01*
X104399991Y-143975500D01*
X106500008Y-143975499D01*
X106602797Y-143964999D01*
X106769334Y-143909814D01*
X106918656Y-143817712D01*
X107042712Y-143693656D01*
X107063839Y-143659402D01*
X107115787Y-143612679D01*
X107169378Y-143600500D01*
X107687770Y-143600500D01*
X107754809Y-143620185D01*
X107775451Y-143636819D01*
X108313181Y-144174548D01*
X108346666Y-144235871D01*
X108349500Y-144262229D01*
X108349500Y-149735858D01*
X108329815Y-149802897D01*
X108277011Y-149848652D01*
X108268847Y-149852034D01*
X108257669Y-149856204D01*
X108257664Y-149856206D01*
X108142455Y-149942452D01*
X108142452Y-149942455D01*
X108056206Y-150057664D01*
X108056202Y-150057671D01*
X108005908Y-150192517D01*
X108001434Y-150234135D01*
X107999501Y-150252123D01*
X107999500Y-150252135D01*
X107999500Y-151547870D01*
X107999501Y-151547876D01*
X108005908Y-151607483D01*
X108056202Y-151742328D01*
X108056206Y-151742335D01*
X108142452Y-151857544D01*
X108142455Y-151857547D01*
X108257664Y-151943793D01*
X108257671Y-151943797D01*
X108392517Y-151994091D01*
X108392516Y-151994091D01*
X108399444Y-151994835D01*
X108452127Y-152000500D01*
X109747872Y-152000499D01*
X109807483Y-151994091D01*
X109942331Y-151943796D01*
X110057546Y-151857546D01*
X110143796Y-151742331D01*
X110194091Y-151607483D01*
X110200500Y-151547873D01*
X110200499Y-150252128D01*
X110194091Y-150192517D01*
X110176196Y-150144539D01*
X110143797Y-150057671D01*
X110143793Y-150057664D01*
X110057547Y-149942455D01*
X110057544Y-149942452D01*
X109942335Y-149856206D01*
X109942332Y-149856205D01*
X109942331Y-149856204D01*
X109931161Y-149852038D01*
X109875231Y-149810166D01*
X109850816Y-149744701D01*
X109850500Y-149735858D01*
X109850500Y-148175013D01*
X112650000Y-148175013D01*
X112650000Y-148450000D01*
X113400000Y-148450000D01*
X113400000Y-147475000D01*
X113399999Y-147474999D01*
X113350029Y-147475000D01*
X113350011Y-147475001D01*
X113247302Y-147485494D01*
X113080880Y-147540641D01*
X113080875Y-147540643D01*
X112931654Y-147632684D01*
X112807684Y-147756654D01*
X112715643Y-147905875D01*
X112715641Y-147905880D01*
X112660494Y-148072302D01*
X112660493Y-148072309D01*
X112650000Y-148175013D01*
X109850500Y-148175013D01*
X109850500Y-146401096D01*
X112500000Y-146401096D01*
X112502897Y-146443824D01*
X112548831Y-146628523D01*
X112633390Y-146799022D01*
X112633392Y-146799025D01*
X112752632Y-146947366D01*
X112752633Y-146947367D01*
X112900974Y-147066607D01*
X112900977Y-147066609D01*
X113071476Y-147151168D01*
X113256175Y-147197102D01*
X113298903Y-147200000D01*
X113500000Y-147200000D01*
X113500000Y-145950000D01*
X112500000Y-145950000D01*
X112500000Y-146401096D01*
X109850500Y-146401096D01*
X109850500Y-144998903D01*
X112500000Y-144998903D01*
X112500000Y-145450000D01*
X113500000Y-145450000D01*
X113500000Y-144200000D01*
X113298903Y-144200000D01*
X113256175Y-144202897D01*
X113071476Y-144248831D01*
X112900977Y-144333390D01*
X112900974Y-144333392D01*
X112752633Y-144452632D01*
X112752632Y-144452633D01*
X112633392Y-144600974D01*
X112633390Y-144600977D01*
X112548831Y-144771476D01*
X112502897Y-144956175D01*
X112500000Y-144998903D01*
X109850500Y-144998903D01*
X109850500Y-143826079D01*
X109821659Y-143681092D01*
X109821658Y-143681091D01*
X109821658Y-143681087D01*
X109799040Y-143626482D01*
X109765087Y-143544511D01*
X109765080Y-143544498D01*
X109682952Y-143421585D01*
X109660867Y-143399500D01*
X109578416Y-143317049D01*
X109341682Y-143080315D01*
X108528421Y-142267052D01*
X108528420Y-142267051D01*
X108453584Y-142217048D01*
X108453583Y-142217047D01*
X108405501Y-142184919D01*
X108405488Y-142184912D01*
X108268917Y-142128343D01*
X108268907Y-142128340D01*
X108123920Y-142099500D01*
X108123918Y-142099500D01*
X107169378Y-142099500D01*
X107102339Y-142079815D01*
X107063839Y-142040597D01*
X107042712Y-142006344D01*
X106918656Y-141882288D01*
X106769334Y-141790186D01*
X106602797Y-141735001D01*
X106602795Y-141735000D01*
X106500010Y-141724500D01*
X104399998Y-141724500D01*
X104399981Y-141724501D01*
X104297203Y-141735000D01*
X104297200Y-141735001D01*
X104130668Y-141790185D01*
X104130659Y-141790189D01*
X103999229Y-141871256D01*
X103931837Y-141889696D01*
X103865173Y-141868773D01*
X103861795Y-141866266D01*
X103858532Y-141864086D01*
X103684733Y-141771188D01*
X103684727Y-141771186D01*
X103496132Y-141713976D01*
X103496129Y-141713975D01*
X103300000Y-141694659D01*
X103103870Y-141713975D01*
X102915266Y-141771188D01*
X102741467Y-141864086D01*
X102741460Y-141864090D01*
X102589116Y-141989116D01*
X102464090Y-142141460D01*
X102464086Y-142141467D01*
X102371188Y-142315266D01*
X102313975Y-142503870D01*
X102294659Y-142700000D01*
X100500500Y-142700000D01*
X100500500Y-139518995D01*
X101999499Y-139518995D01*
X102026418Y-139654322D01*
X102026421Y-139654332D01*
X102079221Y-139781804D01*
X102079228Y-139781817D01*
X102155885Y-139896541D01*
X102155888Y-139896545D01*
X102253454Y-139994111D01*
X102253458Y-139994114D01*
X102368182Y-140070771D01*
X102368195Y-140070778D01*
X102491027Y-140121656D01*
X102495672Y-140123580D01*
X102495676Y-140123580D01*
X102495677Y-140123581D01*
X102631004Y-140150500D01*
X102631007Y-140150500D01*
X102768995Y-140150500D01*
X102860041Y-140132389D01*
X102904328Y-140123580D01*
X103031811Y-140070775D01*
X103146542Y-139994114D01*
X103215673Y-139924983D01*
X103699500Y-139924983D01*
X103699500Y-140775001D01*
X103699501Y-140775019D01*
X103710000Y-140877796D01*
X103710001Y-140877799D01*
X103741544Y-140972987D01*
X103765186Y-141044334D01*
X103857288Y-141193656D01*
X103981344Y-141317712D01*
X104130666Y-141409814D01*
X104297203Y-141464999D01*
X104399991Y-141475500D01*
X106500008Y-141475499D01*
X106602797Y-141464999D01*
X106769334Y-141409814D01*
X106918656Y-141317712D01*
X107042712Y-141193656D01*
X107134814Y-141044334D01*
X107189999Y-140877797D01*
X107200500Y-140775009D01*
X107200499Y-139924992D01*
X107189999Y-139822203D01*
X107134814Y-139655666D01*
X107042712Y-139506344D01*
X106918656Y-139382288D01*
X106769334Y-139290186D01*
X106602797Y-139235001D01*
X106602795Y-139235000D01*
X106500016Y-139224500D01*
X106500009Y-139224500D01*
X106324500Y-139224500D01*
X106257461Y-139204815D01*
X106211706Y-139152011D01*
X106200500Y-139100500D01*
X106200500Y-137576079D01*
X106171658Y-137431087D01*
X106171656Y-137431082D01*
X106115085Y-137294507D01*
X106115084Y-137294505D01*
X106048916Y-137195477D01*
X106042155Y-137185358D01*
X106028221Y-137157429D01*
X106025789Y-137150478D01*
X105929815Y-136997737D01*
X105802262Y-136870184D01*
X105649523Y-136774211D01*
X105479254Y-136714631D01*
X105479249Y-136714630D01*
X105300004Y-136694435D01*
X105299996Y-136694435D01*
X105120750Y-136714630D01*
X105120745Y-136714631D01*
X104950476Y-136774211D01*
X104797737Y-136870184D01*
X104670184Y-136997737D01*
X104574211Y-137150476D01*
X104514631Y-137320745D01*
X104514630Y-137320750D01*
X104494435Y-137499996D01*
X104494435Y-137500003D01*
X104514630Y-137679249D01*
X104514631Y-137679254D01*
X104574211Y-137849523D01*
X104670185Y-138002263D01*
X104672445Y-138005097D01*
X104673334Y-138007275D01*
X104673889Y-138008158D01*
X104673734Y-138008255D01*
X104698855Y-138069783D01*
X104699500Y-138082412D01*
X104699500Y-139100500D01*
X104679815Y-139167539D01*
X104627011Y-139213294D01*
X104575501Y-139224500D01*
X104399999Y-139224500D01*
X104399980Y-139224501D01*
X104297203Y-139235000D01*
X104297200Y-139235001D01*
X104130668Y-139290185D01*
X104130663Y-139290187D01*
X103981342Y-139382289D01*
X103857289Y-139506342D01*
X103765187Y-139655663D01*
X103765186Y-139655666D01*
X103710001Y-139822203D01*
X103710001Y-139822204D01*
X103710000Y-139822204D01*
X103699500Y-139924983D01*
X103215673Y-139924983D01*
X103244114Y-139896542D01*
X103320775Y-139781811D01*
X103373580Y-139654328D01*
X103400500Y-139518993D01*
X103400500Y-139381007D01*
X103400500Y-139381004D01*
X103373581Y-139245677D01*
X103373580Y-139245676D01*
X103373580Y-139245672D01*
X103356657Y-139204815D01*
X103320778Y-139118195D01*
X103320771Y-139118182D01*
X103244114Y-139003458D01*
X103244111Y-139003454D01*
X103146545Y-138905888D01*
X103146541Y-138905885D01*
X103031817Y-138829228D01*
X103031804Y-138829221D01*
X102904332Y-138776421D01*
X102904322Y-138776418D01*
X102768995Y-138749500D01*
X102768993Y-138749500D01*
X102631007Y-138749500D01*
X102631005Y-138749500D01*
X102495677Y-138776418D01*
X102495667Y-138776421D01*
X102368195Y-138829221D01*
X102368182Y-138829228D01*
X102253458Y-138905885D01*
X102253454Y-138905888D01*
X102155888Y-139003454D01*
X102155885Y-139003458D01*
X102079228Y-139118182D01*
X102079221Y-139118195D01*
X102026421Y-139245667D01*
X102026418Y-139245677D01*
X101999500Y-139381004D01*
X101999500Y-139381007D01*
X101999500Y-139518993D01*
X101999500Y-139518995D01*
X101999499Y-139518995D01*
X100500500Y-139518995D01*
X100500500Y-127699001D01*
X100520185Y-127631962D01*
X100572989Y-127586207D01*
X100642147Y-127576263D01*
X100698810Y-127599734D01*
X100738993Y-127629815D01*
X100757668Y-127643795D01*
X100757671Y-127643797D01*
X100772962Y-127649500D01*
X100892517Y-127694091D01*
X100952127Y-127700500D01*
X101115500Y-127700499D01*
X101182539Y-127720183D01*
X101228294Y-127772987D01*
X101239500Y-127824499D01*
X101239500Y-128288064D01*
X101234577Y-128322657D01*
X101222336Y-128364792D01*
X101222334Y-128364802D01*
X101219500Y-128400811D01*
X101219500Y-128899169D01*
X101219501Y-128899191D01*
X101222335Y-128935205D01*
X101267129Y-129089388D01*
X101267131Y-129089393D01*
X101348863Y-129227595D01*
X101348869Y-129227603D01*
X101462396Y-129341130D01*
X101462400Y-129341133D01*
X101462402Y-129341135D01*
X101600607Y-129422869D01*
X101641268Y-129434682D01*
X101754791Y-129467664D01*
X101754794Y-129467664D01*
X101754796Y-129467665D01*
X101790819Y-129470500D01*
X102189180Y-129470499D01*
X102225204Y-129467665D01*
X102379393Y-129422869D01*
X102437369Y-129388581D01*
X102505093Y-129371398D01*
X102563612Y-129388581D01*
X102620805Y-129422404D01*
X102760000Y-129462844D01*
X102760000Y-129462843D01*
X103260000Y-129462843D01*
X103399194Y-129422404D01*
X103537285Y-129340738D01*
X103537294Y-129340731D01*
X103650731Y-129227294D01*
X103650738Y-129227285D01*
X103732406Y-129089191D01*
X103732407Y-129089188D01*
X103777166Y-128935128D01*
X103777167Y-128935122D01*
X103779931Y-128900000D01*
X103260000Y-128900000D01*
X103260000Y-129462843D01*
X102760000Y-129462843D01*
X102760000Y-128910408D01*
X102760382Y-128900679D01*
X102760500Y-128899181D01*
X102760499Y-128400820D01*
X102760434Y-128400000D01*
X102760382Y-128399332D01*
X102760000Y-128389607D01*
X102760000Y-127837154D01*
X103260000Y-127837154D01*
X103260000Y-128400000D01*
X103779931Y-128400000D01*
X103777167Y-128364877D01*
X103777166Y-128364871D01*
X103732407Y-128210811D01*
X103732406Y-128210808D01*
X103650738Y-128072714D01*
X103650731Y-128072705D01*
X103537294Y-127959268D01*
X103537285Y-127959261D01*
X103399191Y-127877593D01*
X103399188Y-127877591D01*
X103260001Y-127837153D01*
X103260000Y-127837154D01*
X102760000Y-127837154D01*
X102760000Y-127819454D01*
X102748255Y-127803717D01*
X102740500Y-127760553D01*
X102740500Y-127744666D01*
X102760185Y-127677627D01*
X102790189Y-127645399D01*
X102792329Y-127643796D01*
X102792331Y-127643796D01*
X102907546Y-127557546D01*
X102993796Y-127442331D01*
X103016609Y-127381167D01*
X103058480Y-127325233D01*
X103123944Y-127300816D01*
X103132791Y-127300500D01*
X108367209Y-127300500D01*
X108434248Y-127320185D01*
G37*
%TD.AperFunction*%
%TA.AperFunction,Conductor*%
G36*
X130562539Y-148870185D02*
G01*
X130608294Y-148922989D01*
X130619500Y-148974499D01*
X130619500Y-149137453D01*
X130622258Y-149166874D01*
X130622260Y-149166884D01*
X130663513Y-149284776D01*
X130665619Y-149290794D01*
X130689380Y-149322989D01*
X130743576Y-149396423D01*
X130774055Y-149418917D01*
X130849206Y-149474381D01*
X130890511Y-149488834D01*
X130973119Y-149517741D01*
X130980796Y-149518460D01*
X131002543Y-149520500D01*
X131377456Y-149520499D01*
X131406879Y-149517741D01*
X131530794Y-149474381D01*
X131626367Y-149403844D01*
X131691995Y-149379874D01*
X131760165Y-149395189D01*
X131773629Y-149403842D01*
X131869206Y-149474381D01*
X131910511Y-149488834D01*
X131993119Y-149517741D01*
X132000796Y-149518460D01*
X132022543Y-149520500D01*
X132397456Y-149520499D01*
X132426879Y-149517741D01*
X132550794Y-149474381D01*
X132656423Y-149396423D01*
X132719555Y-149310883D01*
X132726947Y-149300867D01*
X132782594Y-149258616D01*
X132826717Y-149250500D01*
X133528107Y-149250500D01*
X133595146Y-149270185D01*
X133640901Y-149322989D01*
X133651281Y-149360213D01*
X133652415Y-149369991D01*
X133654908Y-149375637D01*
X133663979Y-149444915D01*
X133634154Y-149508099D01*
X133615786Y-149524986D01*
X133592459Y-149542449D01*
X133592451Y-149542457D01*
X133506206Y-149657664D01*
X133506202Y-149657671D01*
X133455908Y-149792517D01*
X133449509Y-149852039D01*
X133449501Y-149852123D01*
X133449500Y-149852135D01*
X133449500Y-150847870D01*
X133449501Y-150847876D01*
X133455908Y-150907483D01*
X133509303Y-151050641D01*
X133507575Y-151051285D01*
X133520095Y-151108853D01*
X133508310Y-151148988D01*
X133509303Y-151149359D01*
X133455908Y-151292517D01*
X133449501Y-151352116D01*
X133449500Y-151352135D01*
X133449500Y-152347870D01*
X133449501Y-152347876D01*
X133455908Y-152407483D01*
X133509303Y-152550641D01*
X133507575Y-152551285D01*
X133520095Y-152608853D01*
X133508310Y-152648988D01*
X133509303Y-152649359D01*
X133455908Y-152792517D01*
X133449501Y-152852116D01*
X133449500Y-152852135D01*
X133449500Y-153847870D01*
X133449501Y-153847876D01*
X133455908Y-153907483D01*
X133509303Y-154050641D01*
X133507575Y-154051285D01*
X133520095Y-154108853D01*
X133508310Y-154148988D01*
X133509303Y-154149359D01*
X133455908Y-154292517D01*
X133452609Y-154323206D01*
X133449501Y-154352123D01*
X133449500Y-154352135D01*
X133449500Y-155347870D01*
X133449501Y-155347876D01*
X133455908Y-155407483D01*
X133506202Y-155542328D01*
X133506206Y-155542335D01*
X133592452Y-155657544D01*
X133592455Y-155657547D01*
X133684876Y-155726734D01*
X133726747Y-155782668D01*
X133731731Y-155852359D01*
X133698245Y-155913682D01*
X133636922Y-155947166D01*
X133610565Y-155950000D01*
X129450000Y-155950000D01*
X129450000Y-159375500D01*
X129430315Y-159442539D01*
X129377511Y-159488294D01*
X129326000Y-159499500D01*
X121200186Y-159499500D01*
X121133147Y-159479815D01*
X121087392Y-159427011D01*
X121077448Y-159357853D01*
X121078569Y-159351308D01*
X121100000Y-159243569D01*
X121100000Y-159050000D01*
X120400000Y-159050000D01*
X120400000Y-158550000D01*
X121100000Y-158550000D01*
X121100000Y-158356430D01*
X121099999Y-158356428D01*
X121063493Y-158172902D01*
X121063491Y-158172894D01*
X120991880Y-158000008D01*
X120991875Y-157999999D01*
X120887913Y-157844410D01*
X120887910Y-157844406D01*
X120767395Y-157723891D01*
X120733910Y-157662568D01*
X120738894Y-157592876D01*
X120780766Y-157536943D01*
X120816073Y-157518504D01*
X120919117Y-157484359D01*
X120919124Y-157484356D01*
X121068345Y-157392315D01*
X121192315Y-157268345D01*
X121284356Y-157119124D01*
X121284358Y-157119119D01*
X121339505Y-156952697D01*
X121339506Y-156952690D01*
X121349999Y-156849986D01*
X121350000Y-156849973D01*
X121350000Y-156600000D01*
X120300000Y-156600000D01*
X120300000Y-157457000D01*
X120309976Y-157466976D01*
X120343039Y-157476685D01*
X120388794Y-157529489D01*
X120400000Y-157581000D01*
X120400000Y-158400272D01*
X120361940Y-158308386D01*
X120291614Y-158238060D01*
X120199728Y-158200000D01*
X120100272Y-158200000D01*
X120008386Y-158238060D01*
X119938060Y-158308386D01*
X119900000Y-158400272D01*
X119900000Y-157593000D01*
X119890023Y-157583023D01*
X119856961Y-157573315D01*
X119811206Y-157520511D01*
X119800000Y-157469000D01*
X119800000Y-156100000D01*
X120300000Y-156100000D01*
X121349999Y-156100000D01*
X121349999Y-155850028D01*
X121349998Y-155850013D01*
X121339505Y-155747302D01*
X121284358Y-155580880D01*
X121284356Y-155580875D01*
X121192315Y-155431654D01*
X121068345Y-155307684D01*
X120919124Y-155215643D01*
X120919119Y-155215641D01*
X120752697Y-155160494D01*
X120752690Y-155160493D01*
X120649986Y-155150000D01*
X120300000Y-155150000D01*
X120300000Y-156100000D01*
X119800000Y-156100000D01*
X119800000Y-155150000D01*
X119450028Y-155150000D01*
X119450012Y-155150001D01*
X119347302Y-155160494D01*
X119180880Y-155215641D01*
X119180875Y-155215643D01*
X119031654Y-155307684D01*
X118998411Y-155340927D01*
X118937088Y-155374412D01*
X118867396Y-155369426D01*
X118811463Y-155327554D01*
X118796169Y-155300696D01*
X118774099Y-155247412D01*
X118677924Y-155122075D01*
X118552586Y-155025899D01*
X118406631Y-154965444D01*
X118350000Y-154957987D01*
X118350000Y-157248638D01*
X118330315Y-157315677D01*
X118313681Y-157336319D01*
X118300000Y-157350000D01*
X118300000Y-158550000D01*
X119900000Y-158550000D01*
X119900000Y-159050000D01*
X113800000Y-159050000D01*
X113800000Y-158550000D01*
X117800000Y-158550000D01*
X117800000Y-157413658D01*
X117819685Y-157346619D01*
X117872489Y-157300864D01*
X117940184Y-157290719D01*
X117949998Y-157292011D01*
X117950000Y-157292010D01*
X117950000Y-156925031D01*
X117963515Y-156868737D01*
X117985646Y-156825304D01*
X117985646Y-156825302D01*
X117985647Y-156825301D01*
X118000499Y-156731524D01*
X118000500Y-156731519D01*
X118000499Y-155518482D01*
X117985646Y-155424696D01*
X117963515Y-155381261D01*
X117950000Y-155324967D01*
X117950000Y-154954692D01*
X117917285Y-154903115D01*
X117917701Y-154833246D01*
X117948784Y-154781211D01*
X118343178Y-154386819D01*
X118404501Y-154353334D01*
X118430859Y-154350500D01*
X119152725Y-154350500D01*
X119152727Y-154350500D01*
X119254588Y-154323207D01*
X119345913Y-154270480D01*
X124729573Y-148886818D01*
X124790896Y-148853334D01*
X124817254Y-148850500D01*
X130495500Y-148850500D01*
X130562539Y-148870185D01*
G37*
%TD.AperFunction*%
%TA.AperFunction,Conductor*%
G36*
X128890000Y-77805633D02*
G01*
X129103483Y-77748433D01*
X129103492Y-77748429D01*
X129317578Y-77648600D01*
X129511082Y-77513105D01*
X129678105Y-77346082D01*
X129808119Y-77160405D01*
X129862696Y-77116781D01*
X129932195Y-77109588D01*
X129994549Y-77141110D01*
X130011269Y-77160405D01*
X130141505Y-77346401D01*
X130308599Y-77513495D01*
X130405384Y-77581265D01*
X130502165Y-77649032D01*
X130502167Y-77649033D01*
X130502170Y-77649035D01*
X130716337Y-77748903D01*
X130944592Y-77810063D01*
X131132918Y-77826539D01*
X131179999Y-77830659D01*
X131180000Y-77830659D01*
X131180001Y-77830659D01*
X131222289Y-77826959D01*
X131393014Y-77812022D01*
X131461513Y-77825788D01*
X131491502Y-77847869D01*
X131663181Y-78019548D01*
X131696666Y-78080871D01*
X131699500Y-78107229D01*
X131699500Y-81673918D01*
X131699500Y-81673920D01*
X131699499Y-81673920D01*
X131728340Y-81818907D01*
X131728343Y-81818917D01*
X131784914Y-81955492D01*
X131814318Y-81999498D01*
X131814319Y-81999501D01*
X131867046Y-82078414D01*
X131867052Y-82078421D01*
X136171584Y-86382952D01*
X136171586Y-86382954D01*
X136201058Y-86402645D01*
X136245270Y-86432186D01*
X136294505Y-86465084D01*
X136294506Y-86465084D01*
X136294507Y-86465085D01*
X136294509Y-86465086D01*
X136431082Y-86521656D01*
X136431087Y-86521658D01*
X136431091Y-86521658D01*
X136431092Y-86521659D01*
X136576079Y-86550500D01*
X136576082Y-86550500D01*
X136576083Y-86550500D01*
X136723917Y-86550500D01*
X144637770Y-86550500D01*
X144704809Y-86570185D01*
X144725451Y-86586819D01*
X150913181Y-92774549D01*
X150946666Y-92835872D01*
X150949500Y-92862230D01*
X150949500Y-120869987D01*
X150929815Y-120937026D01*
X150877011Y-120982781D01*
X150807853Y-120992725D01*
X150759461Y-120971814D01*
X150758158Y-120973889D01*
X150736730Y-120960425D01*
X150699491Y-120937026D01*
X150599523Y-120874211D01*
X150429254Y-120814631D01*
X150429249Y-120814630D01*
X150250004Y-120794435D01*
X150250001Y-120794435D01*
X150250000Y-120794435D01*
X150199145Y-120800164D01*
X150167391Y-120803742D01*
X150098569Y-120791686D01*
X150054243Y-120754833D01*
X150041506Y-120737819D01*
X150007546Y-120692454D01*
X150007544Y-120692453D01*
X150007544Y-120692452D01*
X149892335Y-120606206D01*
X149892328Y-120606202D01*
X149757482Y-120555908D01*
X149757483Y-120555908D01*
X149697883Y-120549501D01*
X149697881Y-120549500D01*
X149697873Y-120549500D01*
X149697864Y-120549500D01*
X148052129Y-120549500D01*
X148052123Y-120549501D01*
X147992516Y-120555908D01*
X147857671Y-120606202D01*
X147857664Y-120606206D01*
X147742455Y-120692452D01*
X147742452Y-120692455D01*
X147656206Y-120807664D01*
X147656202Y-120807671D01*
X147605908Y-120942517D01*
X147601580Y-120982781D01*
X147599501Y-121002123D01*
X147599500Y-121002135D01*
X147599500Y-122397870D01*
X147599501Y-122397876D01*
X147605908Y-122457483D01*
X147656202Y-122592328D01*
X147656206Y-122592335D01*
X147742452Y-122707544D01*
X147742455Y-122707547D01*
X147857664Y-122793793D01*
X147857671Y-122793797D01*
X147992517Y-122844091D01*
X147992516Y-122844091D01*
X147999444Y-122844835D01*
X148052127Y-122850500D01*
X148196990Y-122850499D01*
X148264028Y-122870183D01*
X148309783Y-122922987D01*
X148319727Y-122992145D01*
X148290702Y-123055701D01*
X148260112Y-123081230D01*
X148212713Y-123109262D01*
X148212705Y-123109268D01*
X148099268Y-123222705D01*
X148099261Y-123222714D01*
X148017593Y-123360808D01*
X148017592Y-123360811D01*
X147972833Y-123514871D01*
X147972832Y-123514877D01*
X147970069Y-123550000D01*
X148865500Y-123550000D01*
X148932539Y-123569685D01*
X148978294Y-123622489D01*
X148989500Y-123674000D01*
X148989500Y-124049170D01*
X148989501Y-124049182D01*
X148989618Y-124050663D01*
X148990000Y-124060393D01*
X148990000Y-124630542D01*
X149001744Y-124646277D01*
X149009500Y-124689445D01*
X149009500Y-132877770D01*
X148989815Y-132944809D01*
X148973181Y-132965451D01*
X145872181Y-136066451D01*
X145810858Y-136099936D01*
X145741166Y-136094952D01*
X145685233Y-136053080D01*
X145660816Y-135987616D01*
X145660500Y-135978770D01*
X145660500Y-132111932D01*
X145665424Y-132077336D01*
X145677665Y-132035204D01*
X145680500Y-131999181D01*
X145680499Y-131500820D01*
X145677665Y-131464796D01*
X145669306Y-131436024D01*
X145665423Y-131422656D01*
X145660500Y-131388064D01*
X145660500Y-130865122D01*
X145680185Y-130798083D01*
X145732989Y-130752328D01*
X145755985Y-130744445D01*
X145757477Y-130744091D01*
X145757483Y-130744091D01*
X145892331Y-130693796D01*
X146007546Y-130607546D01*
X146093796Y-130492331D01*
X146144091Y-130357483D01*
X146150500Y-130297873D01*
X146150499Y-128902128D01*
X146144808Y-128849184D01*
X146144091Y-128842516D01*
X146093797Y-128707671D01*
X146093793Y-128707664D01*
X146007547Y-128592455D01*
X146007544Y-128592452D01*
X145892335Y-128506206D01*
X145892328Y-128506202D01*
X145757482Y-128455908D01*
X145757483Y-128455908D01*
X145697883Y-128449501D01*
X145697881Y-128449500D01*
X145697873Y-128449500D01*
X145697864Y-128449500D01*
X144052129Y-128449500D01*
X144052123Y-128449501D01*
X143992516Y-128455908D01*
X143857671Y-128506202D01*
X143857664Y-128506206D01*
X143742455Y-128592452D01*
X143742452Y-128592455D01*
X143656206Y-128707664D01*
X143656202Y-128707671D01*
X143633391Y-128768833D01*
X143591520Y-128824767D01*
X143526056Y-128849184D01*
X143517209Y-128849500D01*
X138282791Y-128849500D01*
X138215752Y-128829815D01*
X138169997Y-128777011D01*
X138166609Y-128768833D01*
X138143797Y-128707671D01*
X138143793Y-128707664D01*
X138057547Y-128592455D01*
X138057544Y-128592452D01*
X137942335Y-128506206D01*
X137942328Y-128506202D01*
X137807482Y-128455908D01*
X137807483Y-128455908D01*
X137747883Y-128449501D01*
X137747881Y-128449500D01*
X137747873Y-128449500D01*
X137747864Y-128449500D01*
X136102129Y-128449500D01*
X136102123Y-128449501D01*
X136042516Y-128455908D01*
X135907671Y-128506202D01*
X135907664Y-128506206D01*
X135792455Y-128592452D01*
X135792452Y-128592455D01*
X135706206Y-128707664D01*
X135706202Y-128707671D01*
X135655908Y-128842517D01*
X135649501Y-128902116D01*
X135649501Y-128902123D01*
X135649500Y-128902135D01*
X135649500Y-130297870D01*
X135649501Y-130297876D01*
X135655908Y-130357483D01*
X135706202Y-130492328D01*
X135706206Y-130492335D01*
X135792452Y-130607544D01*
X135792455Y-130607547D01*
X135907664Y-130693793D01*
X135907671Y-130693797D01*
X136042517Y-130744091D01*
X136042516Y-130744091D01*
X136049444Y-130744835D01*
X136102127Y-130750500D01*
X137747872Y-130750499D01*
X137807483Y-130744091D01*
X137942331Y-130693796D01*
X138057546Y-130607546D01*
X138143796Y-130492331D01*
X138166609Y-130431167D01*
X138208480Y-130375233D01*
X138273944Y-130350816D01*
X138282791Y-130350500D01*
X143517209Y-130350500D01*
X143584248Y-130370185D01*
X143630003Y-130422989D01*
X143633391Y-130431167D01*
X143656202Y-130492328D01*
X143656206Y-130492335D01*
X143742452Y-130607544D01*
X143742455Y-130607547D01*
X143857664Y-130693793D01*
X143857671Y-130693797D01*
X143872115Y-130699184D01*
X143992517Y-130744091D01*
X144033760Y-130748525D01*
X144098308Y-130775262D01*
X144138156Y-130832655D01*
X144139675Y-130875195D01*
X144140000Y-130875195D01*
X144140000Y-130884281D01*
X144140650Y-130902480D01*
X144140000Y-130903575D01*
X144140000Y-131489591D01*
X144139618Y-131499316D01*
X144139500Y-131500803D01*
X144139500Y-131999170D01*
X144139501Y-131999182D01*
X144139618Y-132000663D01*
X144140000Y-132010393D01*
X144140000Y-132580542D01*
X144151744Y-132596277D01*
X144159500Y-132639445D01*
X144159500Y-136177770D01*
X144139815Y-136244809D01*
X144123181Y-136265451D01*
X143017049Y-137371582D01*
X143017043Y-137371590D01*
X142977289Y-137431086D01*
X142977290Y-137431087D01*
X142934912Y-137494509D01*
X142878342Y-137631083D01*
X142878339Y-137631093D01*
X142849499Y-137776080D01*
X142849499Y-137776083D01*
X142849499Y-143623917D01*
X142849499Y-143623919D01*
X142849498Y-143623919D01*
X142878339Y-143768906D01*
X142878341Y-143768912D01*
X142912810Y-143852129D01*
X142934915Y-143905494D01*
X142937794Y-143909802D01*
X142937798Y-143909816D01*
X142937802Y-143909814D01*
X142981690Y-143975499D01*
X143017050Y-144028419D01*
X143017051Y-144028420D01*
X144663180Y-145674547D01*
X144696665Y-145735870D01*
X144699499Y-145762228D01*
X144699499Y-148555898D01*
X144699499Y-148555900D01*
X144699498Y-148555900D01*
X144728339Y-148700887D01*
X144728342Y-148700897D01*
X144784913Y-148837472D01*
X144817811Y-148886707D01*
X144817812Y-148886710D01*
X144867045Y-148960394D01*
X144867051Y-148960401D01*
X148385068Y-152478416D01*
X148489603Y-152582951D01*
X148489606Y-152582953D01*
X148489607Y-152582954D01*
X148612522Y-152665083D01*
X148612525Y-152665085D01*
X148655658Y-152682951D01*
X148655659Y-152682951D01*
X148749107Y-152721659D01*
X148865260Y-152744763D01*
X148884487Y-152748587D01*
X148894100Y-152750500D01*
X148894101Y-152750500D01*
X148894102Y-152750500D01*
X149041937Y-152750500D01*
X150825500Y-152750500D01*
X150892539Y-152770185D01*
X150938294Y-152822989D01*
X150949500Y-152874500D01*
X150949500Y-153847870D01*
X150949501Y-153847876D01*
X150955908Y-153907483D01*
X151009303Y-154050641D01*
X151007575Y-154051285D01*
X151020095Y-154108853D01*
X151008310Y-154148988D01*
X151009303Y-154149359D01*
X150955908Y-154292517D01*
X150952609Y-154323206D01*
X150949501Y-154352123D01*
X150949500Y-154352135D01*
X150949500Y-155347870D01*
X150949501Y-155347876D01*
X150955908Y-155407483D01*
X151006202Y-155542328D01*
X151006206Y-155542335D01*
X151092452Y-155657544D01*
X151092455Y-155657547D01*
X151184876Y-155726734D01*
X151226747Y-155782668D01*
X151231731Y-155852359D01*
X151198245Y-155913682D01*
X151136922Y-155947166D01*
X151110565Y-155950000D01*
X135789435Y-155950000D01*
X135722396Y-155930315D01*
X135676641Y-155877511D01*
X135666697Y-155808353D01*
X135695722Y-155744797D01*
X135715124Y-155726734D01*
X135807543Y-155657548D01*
X135807546Y-155657546D01*
X135893796Y-155542331D01*
X135944091Y-155407483D01*
X135950500Y-155347873D01*
X135950499Y-154352128D01*
X135944091Y-154292517D01*
X135944090Y-154292514D01*
X135934885Y-154267832D01*
X135929901Y-154198140D01*
X135963387Y-154136818D01*
X136024711Y-154103333D01*
X136051067Y-154100500D01*
X138273920Y-154100500D01*
X138371462Y-154081096D01*
X138418913Y-154071658D01*
X138555495Y-154015084D01*
X138604729Y-153982186D01*
X138678416Y-153932952D01*
X140032952Y-152578416D01*
X140082186Y-152504729D01*
X140115084Y-152455495D01*
X140171658Y-152318913D01*
X140181498Y-152269446D01*
X140200500Y-152173920D01*
X140200500Y-150147844D01*
X140540000Y-150147844D01*
X140546401Y-150207372D01*
X140546403Y-150207379D01*
X140596645Y-150342086D01*
X140596649Y-150342093D01*
X140682809Y-150457187D01*
X140682812Y-150457190D01*
X140797906Y-150543350D01*
X140797913Y-150543354D01*
X140932620Y-150593596D01*
X140932627Y-150593598D01*
X140992155Y-150599999D01*
X140992172Y-150600000D01*
X142240000Y-150600000D01*
X142240000Y-150403553D01*
X142239999Y-150403552D01*
X142740000Y-150403552D01*
X142740000Y-150600000D01*
X143987828Y-150600000D01*
X143987844Y-150599999D01*
X144047372Y-150593598D01*
X144047379Y-150593596D01*
X144182086Y-150543354D01*
X144182093Y-150543350D01*
X144297187Y-150457190D01*
X144297190Y-150457187D01*
X144383350Y-150342093D01*
X144383354Y-150342086D01*
X144433596Y-150207379D01*
X144433598Y-150207372D01*
X144439999Y-150147844D01*
X144440000Y-150147827D01*
X144440000Y-148900000D01*
X144243555Y-148900000D01*
X143776556Y-149366995D01*
X143776548Y-149367006D01*
X143207006Y-149936548D01*
X143207001Y-149936550D01*
X143040000Y-150103553D01*
X143039999Y-150103553D01*
X142740000Y-150403552D01*
X142239999Y-150403552D01*
X141940000Y-150103553D01*
X141750736Y-149914288D01*
X141750726Y-149914280D01*
X141566555Y-149730109D01*
X141840000Y-149730109D01*
X141840000Y-149769891D01*
X141855224Y-149806645D01*
X141883355Y-149834776D01*
X141920109Y-149850000D01*
X141959891Y-149850000D01*
X141996645Y-149834776D01*
X142024776Y-149806645D01*
X142040000Y-149769891D01*
X142040000Y-149730109D01*
X142940000Y-149730109D01*
X142940000Y-149769891D01*
X142955224Y-149806645D01*
X142983355Y-149834776D01*
X143020109Y-149850000D01*
X143059891Y-149850000D01*
X143096645Y-149834776D01*
X143124776Y-149806645D01*
X143140000Y-149769891D01*
X143140000Y-149730109D01*
X143124776Y-149693355D01*
X143096645Y-149665224D01*
X143059891Y-149650000D01*
X143020109Y-149650000D01*
X142983355Y-149665224D01*
X142955224Y-149693355D01*
X142940000Y-149730109D01*
X142040000Y-149730109D01*
X142024776Y-149693355D01*
X141996645Y-149665224D01*
X141959891Y-149650000D01*
X141920109Y-149650000D01*
X141883355Y-149665224D01*
X141855224Y-149693355D01*
X141840000Y-149730109D01*
X141566555Y-149730109D01*
X141184573Y-149348127D01*
X141184571Y-149348124D01*
X141016556Y-149180109D01*
X141290000Y-149180109D01*
X141290000Y-149219891D01*
X141305224Y-149256645D01*
X141333355Y-149284776D01*
X141370109Y-149300000D01*
X141409891Y-149300000D01*
X141446645Y-149284776D01*
X141474776Y-149256645D01*
X141490000Y-149219891D01*
X141490000Y-149200000D01*
X141743553Y-149200000D01*
X141789645Y-149246091D01*
X141940000Y-149396446D01*
X142136446Y-149200000D01*
X142116555Y-149180109D01*
X142390000Y-149180109D01*
X142390000Y-149219891D01*
X142405224Y-149256645D01*
X142433355Y-149284776D01*
X142470109Y-149300000D01*
X142509891Y-149300000D01*
X142546645Y-149284776D01*
X142574776Y-149256645D01*
X142590000Y-149219891D01*
X142590000Y-149200000D01*
X142843553Y-149200000D01*
X142889645Y-149246091D01*
X143040000Y-149396446D01*
X143236446Y-149200000D01*
X143216555Y-149180109D01*
X143490000Y-149180109D01*
X143490000Y-149219891D01*
X143505224Y-149256645D01*
X143533355Y-149284776D01*
X143570109Y-149300000D01*
X143609891Y-149300000D01*
X143646645Y-149284776D01*
X143674776Y-149256645D01*
X143690000Y-149219891D01*
X143690000Y-149180109D01*
X143674776Y-149143355D01*
X143646645Y-149115224D01*
X143609891Y-149100000D01*
X143570109Y-149100000D01*
X143533355Y-149115224D01*
X143505224Y-149143355D01*
X143490000Y-149180109D01*
X143216555Y-149180109D01*
X143105760Y-149069314D01*
X143040000Y-149003553D01*
X142974241Y-149069313D01*
X142974240Y-149069314D01*
X142843553Y-149200000D01*
X142590000Y-149200000D01*
X142590000Y-149180109D01*
X142574776Y-149143355D01*
X142546645Y-149115224D01*
X142509891Y-149100000D01*
X142470109Y-149100000D01*
X142433355Y-149115224D01*
X142405224Y-149143355D01*
X142390000Y-149180109D01*
X142116555Y-149180109D01*
X142005760Y-149069314D01*
X141940000Y-149003553D01*
X141874241Y-149069313D01*
X141874240Y-149069314D01*
X141743553Y-149200000D01*
X141490000Y-149200000D01*
X141490000Y-149180109D01*
X141474776Y-149143355D01*
X141446645Y-149115224D01*
X141409891Y-149100000D01*
X141370109Y-149100000D01*
X141333355Y-149115224D01*
X141305224Y-149143355D01*
X141290000Y-149180109D01*
X141016556Y-149180109D01*
X140736446Y-148900000D01*
X140540000Y-148900000D01*
X140540000Y-150147844D01*
X140200500Y-150147844D01*
X140200500Y-148630109D01*
X141840000Y-148630109D01*
X141840000Y-148669891D01*
X141855224Y-148706645D01*
X141883355Y-148734776D01*
X141920109Y-148750000D01*
X141959891Y-148750000D01*
X141996645Y-148734776D01*
X142024776Y-148706645D01*
X142040000Y-148669891D01*
X142040000Y-148630109D01*
X142940000Y-148630109D01*
X142940000Y-148669891D01*
X142955224Y-148706645D01*
X142983355Y-148734776D01*
X143020109Y-148750000D01*
X143059891Y-148750000D01*
X143096645Y-148734776D01*
X143124776Y-148706645D01*
X143140000Y-148669891D01*
X143140000Y-148630109D01*
X143124776Y-148593355D01*
X143096645Y-148565224D01*
X143059891Y-148550000D01*
X143020109Y-148550000D01*
X142983355Y-148565224D01*
X142955224Y-148593355D01*
X142940000Y-148630109D01*
X142040000Y-148630109D01*
X142024776Y-148593355D01*
X141996645Y-148565224D01*
X141959891Y-148550000D01*
X141920109Y-148550000D01*
X141883355Y-148565224D01*
X141855224Y-148593355D01*
X141840000Y-148630109D01*
X140200500Y-148630109D01*
X140200500Y-147152155D01*
X140540000Y-147152155D01*
X140540000Y-148400000D01*
X140736446Y-148400000D01*
X140736446Y-148399999D01*
X141056336Y-148080109D01*
X141290000Y-148080109D01*
X141290000Y-148119891D01*
X141305224Y-148156645D01*
X141333355Y-148184776D01*
X141370109Y-148200000D01*
X141409891Y-148200000D01*
X141446645Y-148184776D01*
X141474776Y-148156645D01*
X141490000Y-148119891D01*
X141490000Y-148099999D01*
X141743553Y-148099999D01*
X141743553Y-148100000D01*
X141789645Y-148146091D01*
X141940000Y-148296446D01*
X142136446Y-148100000D01*
X142116555Y-148080109D01*
X142390000Y-148080109D01*
X142390000Y-148119891D01*
X142405224Y-148156645D01*
X142433355Y-148184776D01*
X142470109Y-148200000D01*
X142509891Y-148200000D01*
X142546645Y-148184776D01*
X142574776Y-148156645D01*
X142590000Y-148119891D01*
X142590000Y-148099999D01*
X142843553Y-148099999D01*
X142843553Y-148100000D01*
X142889645Y-148146091D01*
X143040000Y-148296446D01*
X143236446Y-148100000D01*
X143216555Y-148080109D01*
X143490000Y-148080109D01*
X143490000Y-148119891D01*
X143505224Y-148156645D01*
X143533355Y-148184776D01*
X143570109Y-148200000D01*
X143609891Y-148200000D01*
X143646645Y-148184776D01*
X143674776Y-148156645D01*
X143690000Y-148119891D01*
X143690000Y-148080109D01*
X143674776Y-148043355D01*
X143646645Y-148015224D01*
X143609891Y-148000000D01*
X143570109Y-148000000D01*
X143533355Y-148015224D01*
X143505224Y-148043355D01*
X143490000Y-148080109D01*
X143216555Y-148080109D01*
X143073837Y-147937391D01*
X143073835Y-147937388D01*
X143040001Y-147903553D01*
X143039999Y-147903553D01*
X143006165Y-147937388D01*
X143006164Y-147937389D01*
X142843553Y-148099999D01*
X142590000Y-148099999D01*
X142590000Y-148080109D01*
X142574776Y-148043355D01*
X142546645Y-148015224D01*
X142509891Y-148000000D01*
X142470109Y-148000000D01*
X142433355Y-148015224D01*
X142405224Y-148043355D01*
X142390000Y-148080109D01*
X142116555Y-148080109D01*
X141973837Y-147937391D01*
X141973835Y-147937388D01*
X141940001Y-147903553D01*
X141939999Y-147903553D01*
X141906165Y-147937388D01*
X141906164Y-147937389D01*
X141743553Y-148099999D01*
X141490000Y-148099999D01*
X141490000Y-148080109D01*
X141474776Y-148043355D01*
X141446645Y-148015224D01*
X141409891Y-148000000D01*
X141370109Y-148000000D01*
X141333355Y-148015224D01*
X141305224Y-148043355D01*
X141290000Y-148080109D01*
X141056336Y-148080109D01*
X141548594Y-147587852D01*
X141606337Y-147530109D01*
X141840000Y-147530109D01*
X141840000Y-147569891D01*
X141855224Y-147606645D01*
X141883355Y-147634776D01*
X141920109Y-147650000D01*
X141959891Y-147650000D01*
X141996645Y-147634776D01*
X142024776Y-147606645D01*
X142040000Y-147569891D01*
X142040000Y-147530109D01*
X142940000Y-147530109D01*
X142940000Y-147569891D01*
X142955224Y-147606645D01*
X142983355Y-147634776D01*
X143020109Y-147650000D01*
X143059891Y-147650000D01*
X143096645Y-147634776D01*
X143124776Y-147606645D01*
X143140000Y-147569891D01*
X143140000Y-147530109D01*
X143124776Y-147493355D01*
X143096645Y-147465224D01*
X143059891Y-147450000D01*
X143020109Y-147450000D01*
X142983355Y-147465224D01*
X142955224Y-147493355D01*
X142940000Y-147530109D01*
X142040000Y-147530109D01*
X142024776Y-147493355D01*
X141996645Y-147465224D01*
X141959891Y-147450000D01*
X141920109Y-147450000D01*
X141883355Y-147465224D01*
X141855224Y-147493355D01*
X141840000Y-147530109D01*
X141606337Y-147530109D01*
X141809313Y-147327132D01*
X141809317Y-147327129D01*
X141940000Y-147196447D01*
X142239999Y-146896446D01*
X142740000Y-146896446D01*
X143040000Y-147196447D01*
X143188121Y-147344568D01*
X143188127Y-147344573D01*
X143754280Y-147910726D01*
X143754282Y-147910730D01*
X144243553Y-148399999D01*
X144243554Y-148400000D01*
X144440000Y-148400000D01*
X144440000Y-147152172D01*
X144439999Y-147152155D01*
X144433598Y-147092627D01*
X144433596Y-147092620D01*
X144383354Y-146957913D01*
X144383350Y-146957906D01*
X144297190Y-146842812D01*
X144297187Y-146842809D01*
X144182093Y-146756649D01*
X144182086Y-146756645D01*
X144047379Y-146706403D01*
X144047372Y-146706401D01*
X143987844Y-146700000D01*
X142740000Y-146700000D01*
X142740000Y-146896446D01*
X142239999Y-146896446D01*
X142240000Y-146896445D01*
X142240000Y-146700000D01*
X140992155Y-146700000D01*
X140932627Y-146706401D01*
X140932620Y-146706403D01*
X140797913Y-146756645D01*
X140797906Y-146756649D01*
X140682812Y-146842809D01*
X140682809Y-146842812D01*
X140596649Y-146957906D01*
X140596645Y-146957913D01*
X140546403Y-147092620D01*
X140546401Y-147092627D01*
X140540000Y-147152155D01*
X140200500Y-147152155D01*
X140200500Y-140226081D01*
X140194763Y-140197242D01*
X140194763Y-140197240D01*
X140171660Y-140081095D01*
X140171659Y-140081088D01*
X140126331Y-139971658D01*
X140115084Y-139944505D01*
X140035957Y-139826083D01*
X140032952Y-139821585D01*
X132211368Y-132000000D01*
X143120069Y-132000000D01*
X143122832Y-132035122D01*
X143122833Y-132035128D01*
X143167592Y-132189188D01*
X143167593Y-132189191D01*
X143249261Y-132327285D01*
X143249268Y-132327294D01*
X143362705Y-132440731D01*
X143362714Y-132440738D01*
X143500805Y-132522404D01*
X143640000Y-132562844D01*
X143640000Y-132000000D01*
X143120069Y-132000000D01*
X132211368Y-132000000D01*
X131711368Y-131500000D01*
X143120069Y-131500000D01*
X143640000Y-131500000D01*
X143640000Y-130937154D01*
X143639998Y-130937153D01*
X143500811Y-130977591D01*
X143500808Y-130977593D01*
X143362714Y-131059261D01*
X143362705Y-131059268D01*
X143249268Y-131172705D01*
X143249261Y-131172714D01*
X143167593Y-131310808D01*
X143167592Y-131310811D01*
X143122833Y-131464871D01*
X143122832Y-131464877D01*
X143120069Y-131500000D01*
X131711368Y-131500000D01*
X128836819Y-128625451D01*
X128803334Y-128564128D01*
X128800500Y-128537770D01*
X128800500Y-124402135D01*
X135649500Y-124402135D01*
X135649500Y-125797870D01*
X135649501Y-125797876D01*
X135655908Y-125857483D01*
X135706202Y-125992328D01*
X135706206Y-125992335D01*
X135792452Y-126107544D01*
X135792455Y-126107547D01*
X135907664Y-126193793D01*
X135907671Y-126193797D01*
X136042517Y-126244091D01*
X136042516Y-126244091D01*
X136049444Y-126244835D01*
X136102127Y-126250500D01*
X137747872Y-126250499D01*
X137807483Y-126244091D01*
X137942331Y-126193796D01*
X138057546Y-126107546D01*
X138143796Y-125992331D01*
X138166609Y-125931167D01*
X138208480Y-125875233D01*
X138273944Y-125850816D01*
X138282791Y-125850500D01*
X143517209Y-125850500D01*
X143584248Y-125870185D01*
X143630003Y-125922989D01*
X143633391Y-125931167D01*
X143656202Y-125992328D01*
X143656206Y-125992335D01*
X143742452Y-126107544D01*
X143742455Y-126107547D01*
X143857664Y-126193793D01*
X143857671Y-126193797D01*
X143992517Y-126244091D01*
X143992516Y-126244091D01*
X143999444Y-126244835D01*
X144052127Y-126250500D01*
X145697872Y-126250499D01*
X145757483Y-126244091D01*
X145892331Y-126193796D01*
X146007546Y-126107546D01*
X146093796Y-125992331D01*
X146144091Y-125857483D01*
X146150500Y-125797873D01*
X146150499Y-124402128D01*
X146144091Y-124342517D01*
X146139353Y-124329815D01*
X146093797Y-124207671D01*
X146093793Y-124207664D01*
X146007548Y-124092457D01*
X146007546Y-124092454D01*
X146007544Y-124092452D01*
X146007542Y-124092450D01*
X145950836Y-124050000D01*
X147970069Y-124050000D01*
X147972832Y-124085122D01*
X147972833Y-124085128D01*
X148017592Y-124239188D01*
X148017593Y-124239191D01*
X148099261Y-124377285D01*
X148099268Y-124377294D01*
X148212705Y-124490731D01*
X148212714Y-124490738D01*
X148350805Y-124572404D01*
X148490000Y-124612844D01*
X148490000Y-124050000D01*
X147970069Y-124050000D01*
X145950836Y-124050000D01*
X145940139Y-124041992D01*
X145898269Y-123986058D01*
X145891048Y-123954879D01*
X145889191Y-123936024D01*
X145886024Y-123903868D01*
X145828814Y-123715273D01*
X145828811Y-123715269D01*
X145828811Y-123715266D01*
X145735913Y-123541467D01*
X145735909Y-123541460D01*
X145610883Y-123389116D01*
X145458539Y-123264090D01*
X145458532Y-123264086D01*
X145284733Y-123171188D01*
X145284727Y-123171186D01*
X145096132Y-123113976D01*
X145096129Y-123113975D01*
X144900000Y-123094659D01*
X144703870Y-123113975D01*
X144515266Y-123171188D01*
X144341467Y-123264086D01*
X144341460Y-123264090D01*
X144189116Y-123389116D01*
X144064090Y-123541460D01*
X144064086Y-123541467D01*
X143971188Y-123715266D01*
X143913975Y-123903870D01*
X143912931Y-123914475D01*
X143886768Y-123979262D01*
X143863839Y-124001584D01*
X143742455Y-124092452D01*
X143742452Y-124092455D01*
X143656206Y-124207664D01*
X143656202Y-124207671D01*
X143633391Y-124268833D01*
X143591520Y-124324767D01*
X143526056Y-124349184D01*
X143517209Y-124349500D01*
X138282791Y-124349500D01*
X138215752Y-124329815D01*
X138169997Y-124277011D01*
X138166609Y-124268833D01*
X138143797Y-124207671D01*
X138143793Y-124207664D01*
X138057547Y-124092455D01*
X138057544Y-124092452D01*
X137942335Y-124006206D01*
X137942328Y-124006202D01*
X137807482Y-123955908D01*
X137807483Y-123955908D01*
X137747883Y-123949501D01*
X137747881Y-123949500D01*
X137747873Y-123949500D01*
X137747864Y-123949500D01*
X136102129Y-123949500D01*
X136102123Y-123949501D01*
X136042516Y-123955908D01*
X135907671Y-124006202D01*
X135907664Y-124006206D01*
X135792455Y-124092452D01*
X135792452Y-124092455D01*
X135706206Y-124207664D01*
X135706202Y-124207671D01*
X135655908Y-124342517D01*
X135649501Y-124402116D01*
X135649501Y-124402123D01*
X135649500Y-124402135D01*
X128800500Y-124402135D01*
X128800500Y-121726079D01*
X128771659Y-121581092D01*
X128771658Y-121581091D01*
X128771658Y-121581087D01*
X128742986Y-121511866D01*
X128715087Y-121444511D01*
X128715080Y-121444498D01*
X128632952Y-121321585D01*
X128586134Y-121274767D01*
X128528416Y-121217049D01*
X127474137Y-120162770D01*
X126336368Y-119025000D01*
X146269659Y-119025000D01*
X146288975Y-119221129D01*
X146300022Y-119257546D01*
X146343386Y-119400498D01*
X146346188Y-119409733D01*
X146439086Y-119583532D01*
X146439090Y-119583539D01*
X146564116Y-119735883D01*
X146716460Y-119860909D01*
X146716467Y-119860913D01*
X146890266Y-119953811D01*
X146890269Y-119953811D01*
X146890273Y-119953814D01*
X147078868Y-120011024D01*
X147275000Y-120030341D01*
X147471132Y-120011024D01*
X147659727Y-119953814D01*
X147833538Y-119860910D01*
X147985883Y-119735883D01*
X148110910Y-119583538D01*
X148203814Y-119409727D01*
X148261024Y-119221132D01*
X148269871Y-119131299D01*
X148296031Y-119066513D01*
X148305584Y-119055782D01*
X148974549Y-118386818D01*
X149035872Y-118353333D01*
X149062230Y-118350499D01*
X149697871Y-118350499D01*
X149697872Y-118350499D01*
X149757483Y-118344091D01*
X149892331Y-118293796D01*
X150007546Y-118207546D01*
X150093796Y-118092331D01*
X150144091Y-117957483D01*
X150150500Y-117897873D01*
X150150499Y-116502128D01*
X150144091Y-116442517D01*
X150111576Y-116355341D01*
X150093797Y-116307671D01*
X150093793Y-116307664D01*
X150007547Y-116192455D01*
X150007544Y-116192452D01*
X149892335Y-116106206D01*
X149892328Y-116106202D01*
X149757482Y-116055908D01*
X149757483Y-116055908D01*
X149697883Y-116049501D01*
X149697881Y-116049500D01*
X149697873Y-116049500D01*
X149697864Y-116049500D01*
X148052129Y-116049500D01*
X148052123Y-116049501D01*
X147992516Y-116055908D01*
X147857671Y-116106202D01*
X147857664Y-116106206D01*
X147742455Y-116192452D01*
X147742452Y-116192455D01*
X147656206Y-116307664D01*
X147656202Y-116307671D01*
X147605908Y-116442517D01*
X147602925Y-116470268D01*
X147599501Y-116502123D01*
X147599500Y-116502135D01*
X147599500Y-117587769D01*
X147579815Y-117654808D01*
X147563181Y-117675450D01*
X147244225Y-117994405D01*
X147182902Y-118027890D01*
X147168700Y-118030127D01*
X147078870Y-118038975D01*
X146890266Y-118096188D01*
X146716467Y-118189086D01*
X146716460Y-118189090D01*
X146564116Y-118314116D01*
X146439090Y-118466460D01*
X146439086Y-118466467D01*
X146346188Y-118640266D01*
X146288975Y-118828870D01*
X146269659Y-119025000D01*
X126336368Y-119025000D01*
X124218421Y-116907052D01*
X124218414Y-116907046D01*
X124124812Y-116844504D01*
X124124811Y-116844504D01*
X124095500Y-116824919D01*
X124095488Y-116824912D01*
X123958917Y-116768343D01*
X123958907Y-116768340D01*
X123813920Y-116739500D01*
X123813918Y-116739500D01*
X120311933Y-116739500D01*
X120277338Y-116734576D01*
X120262007Y-116730122D01*
X120235205Y-116722335D01*
X120235202Y-116722334D01*
X120199181Y-116719500D01*
X119700830Y-116719500D01*
X119700808Y-116719501D01*
X119664794Y-116722335D01*
X119622662Y-116734576D01*
X119588067Y-116739500D01*
X118386080Y-116739500D01*
X118241092Y-116768340D01*
X118241082Y-116768343D01*
X118104511Y-116824912D01*
X118104498Y-116824919D01*
X117981584Y-116907048D01*
X117825450Y-117063182D01*
X117764127Y-117096666D01*
X117737769Y-117099500D01*
X116877129Y-117099500D01*
X116877123Y-117099501D01*
X116817516Y-117105908D01*
X116682671Y-117156202D01*
X116682664Y-117156206D01*
X116567455Y-117242452D01*
X116567452Y-117242455D01*
X116481206Y-117357664D01*
X116481202Y-117357671D01*
X116458391Y-117418833D01*
X116416520Y-117474767D01*
X116351056Y-117499184D01*
X116342209Y-117499500D01*
X111107791Y-117499500D01*
X111040752Y-117479815D01*
X110994997Y-117427011D01*
X110991609Y-117418833D01*
X110968797Y-117357671D01*
X110968793Y-117357664D01*
X110882547Y-117242455D01*
X110882544Y-117242452D01*
X110767335Y-117156206D01*
X110767328Y-117156202D01*
X110632482Y-117105908D01*
X110632483Y-117105908D01*
X110572883Y-117099501D01*
X110572881Y-117099500D01*
X110572873Y-117099500D01*
X110572865Y-117099500D01*
X109336228Y-117099500D01*
X109269189Y-117079815D01*
X109223434Y-117027011D01*
X109213490Y-116957853D01*
X109242515Y-116894297D01*
X109248547Y-116887819D01*
X109572704Y-116563662D01*
X109899712Y-116236653D01*
X109961033Y-116203170D01*
X110030724Y-116208154D01*
X110045840Y-116214976D01*
X110165273Y-116278814D01*
X110353868Y-116336024D01*
X110550000Y-116355341D01*
X110746132Y-116336024D01*
X110934727Y-116278814D01*
X111108538Y-116185910D01*
X111260883Y-116060883D01*
X111385910Y-115908538D01*
X111478814Y-115734727D01*
X111536024Y-115546132D01*
X111555341Y-115350000D01*
X111536024Y-115153868D01*
X111478814Y-114965273D01*
X111478811Y-114965269D01*
X111478811Y-114965266D01*
X111385913Y-114791467D01*
X111385909Y-114791460D01*
X111313447Y-114703165D01*
X111286134Y-114638855D01*
X111297925Y-114569987D01*
X111345077Y-114518427D01*
X111409300Y-114500500D01*
X116342209Y-114500500D01*
X116409248Y-114520185D01*
X116455003Y-114572989D01*
X116458391Y-114581167D01*
X116481202Y-114642328D01*
X116481206Y-114642335D01*
X116567452Y-114757544D01*
X116567455Y-114757547D01*
X116682664Y-114843793D01*
X116682671Y-114843797D01*
X116817517Y-114894091D01*
X116817516Y-114894091D01*
X116824444Y-114894835D01*
X116877127Y-114900500D01*
X118522872Y-114900499D01*
X118582483Y-114894091D01*
X118717331Y-114843796D01*
X118832546Y-114757546D01*
X118918796Y-114642331D01*
X118969091Y-114507483D01*
X118975500Y-114447873D01*
X118975499Y-113052128D01*
X118969091Y-112992517D01*
X118964353Y-112979815D01*
X118918797Y-112857671D01*
X118918793Y-112857664D01*
X118832547Y-112742455D01*
X118832544Y-112742452D01*
X118717335Y-112656206D01*
X118717328Y-112656202D01*
X118582483Y-112605908D01*
X118561243Y-112603625D01*
X118496692Y-112576886D01*
X118456845Y-112519493D01*
X118450500Y-112480336D01*
X118450500Y-92212229D01*
X118470185Y-92145190D01*
X118486819Y-92124548D01*
X127382948Y-83228419D01*
X127382951Y-83228416D01*
X127465084Y-83105495D01*
X127521658Y-82968913D01*
X127531096Y-82921462D01*
X127550500Y-82823920D01*
X127550500Y-80288613D01*
X127570185Y-80221574D01*
X127580000Y-80211016D01*
X127580000Y-80204503D01*
X128080000Y-80204503D01*
X128226195Y-80162031D01*
X128365374Y-80079721D01*
X128365383Y-80079714D01*
X128479714Y-79965383D01*
X128479721Y-79965374D01*
X128562031Y-79826195D01*
X128562033Y-79826190D01*
X128607144Y-79670918D01*
X128607145Y-79670912D01*
X128608790Y-79650000D01*
X128080000Y-79650000D01*
X128080000Y-80204503D01*
X127580000Y-80204503D01*
X127580000Y-79898352D01*
X127597267Y-79835233D01*
X127602494Y-79826395D01*
X127647643Y-79670993D01*
X127650500Y-79634690D01*
X127650500Y-79165310D01*
X127647643Y-79129007D01*
X127602494Y-78973605D01*
X127602493Y-78973604D01*
X127602492Y-78973600D01*
X127597266Y-78964763D01*
X127580000Y-78901645D01*
X127580000Y-78595494D01*
X128080000Y-78595494D01*
X128080000Y-79150000D01*
X128608790Y-79150000D01*
X128607145Y-79129089D01*
X128562031Y-78973804D01*
X128479721Y-78834625D01*
X128479714Y-78834616D01*
X128365383Y-78720285D01*
X128365374Y-78720278D01*
X128226193Y-78637967D01*
X128226190Y-78637965D01*
X128080001Y-78595493D01*
X128080000Y-78595494D01*
X127580000Y-78595494D01*
X127580000Y-78583685D01*
X127558257Y-78554553D01*
X127550500Y-78511385D01*
X127550500Y-77594050D01*
X127570185Y-77527011D01*
X127622989Y-77481256D01*
X127692147Y-77471312D01*
X127755703Y-77500337D01*
X127762181Y-77506369D01*
X127768917Y-77513105D01*
X127962421Y-77648600D01*
X128176507Y-77748429D01*
X128176516Y-77748433D01*
X128390000Y-77805634D01*
X128390000Y-76908012D01*
X128447007Y-76940925D01*
X128574174Y-76975000D01*
X128705826Y-76975000D01*
X128832993Y-76940925D01*
X128890000Y-76908012D01*
X128890000Y-77805633D01*
G37*
%TD.AperFunction*%
%TA.AperFunction,Conductor*%
G36*
X155254118Y-152721178D02*
G01*
X155294048Y-152778513D01*
X155294156Y-152778837D01*
X155340641Y-152919119D01*
X155340643Y-152919124D01*
X155432684Y-153068345D01*
X155556655Y-153192316D01*
X155556659Y-153192319D01*
X155559656Y-153194168D01*
X155561279Y-153195972D01*
X155562323Y-153196798D01*
X155562181Y-153196976D01*
X155606381Y-153246116D01*
X155617602Y-153315079D01*
X155589759Y-153379161D01*
X155559661Y-153405241D01*
X155556349Y-153407283D01*
X155556343Y-153407288D01*
X155432289Y-153531342D01*
X155340187Y-153680663D01*
X155340186Y-153680666D01*
X155299046Y-153804818D01*
X155259273Y-153862262D01*
X155194757Y-153889085D01*
X155125981Y-153876770D01*
X155117858Y-153870000D01*
X154798352Y-153870000D01*
X154735233Y-153852732D01*
X154726395Y-153847506D01*
X154726393Y-153847505D01*
X154726389Y-153847503D01*
X154570997Y-153802357D01*
X154570991Y-153802356D01*
X154534697Y-153799500D01*
X154534690Y-153799500D01*
X154174000Y-153799500D01*
X154106961Y-153779815D01*
X154061206Y-153727011D01*
X154050000Y-153675500D01*
X154050000Y-153494000D01*
X154069685Y-153426961D01*
X154122489Y-153381206D01*
X154174000Y-153370000D01*
X155104504Y-153370000D01*
X155062031Y-153223804D01*
X154979721Y-153084625D01*
X154979714Y-153084616D01*
X154974596Y-153079498D01*
X154941111Y-153018175D01*
X154946095Y-152948483D01*
X154974598Y-152904134D01*
X154991135Y-152887598D01*
X155069719Y-152754718D01*
X155120787Y-152707037D01*
X155189528Y-152694533D01*
X155254118Y-152721178D01*
G37*
%TD.AperFunction*%
%TA.AperFunction,Conductor*%
G36*
X158342539Y-150170185D02*
G01*
X158388294Y-150222989D01*
X158399500Y-150274500D01*
X158399500Y-152937770D01*
X158379815Y-153004809D01*
X158363181Y-153025451D01*
X157925451Y-153463181D01*
X157864128Y-153496666D01*
X157837770Y-153499500D01*
X157587230Y-153499500D01*
X157520191Y-153479815D01*
X157499549Y-153463181D01*
X157443657Y-153407289D01*
X157443656Y-153407288D01*
X157440342Y-153405243D01*
X157438546Y-153403248D01*
X157437989Y-153402807D01*
X157438064Y-153402711D01*
X157393618Y-153353297D01*
X157382397Y-153284334D01*
X157410240Y-153220252D01*
X157440348Y-153194165D01*
X157443342Y-153192318D01*
X157567315Y-153068345D01*
X157659356Y-152919124D01*
X157659358Y-152919119D01*
X157714505Y-152752697D01*
X157714506Y-152752690D01*
X157724999Y-152649986D01*
X157725000Y-152649973D01*
X157725000Y-152600000D01*
X156374000Y-152600000D01*
X156306961Y-152580315D01*
X156261206Y-152527511D01*
X156250000Y-152476000D01*
X156250000Y-152100000D01*
X156750000Y-152100000D01*
X157724999Y-152100000D01*
X157724999Y-152050028D01*
X157724998Y-152050013D01*
X157714505Y-151947302D01*
X157659358Y-151780880D01*
X157659356Y-151780875D01*
X157567315Y-151631654D01*
X157443345Y-151507684D01*
X157294124Y-151415643D01*
X157294119Y-151415641D01*
X157127697Y-151360494D01*
X157127690Y-151360493D01*
X157024986Y-151350000D01*
X156750000Y-151350000D01*
X156750000Y-152100000D01*
X156250000Y-152100000D01*
X156250000Y-151350000D01*
X155975029Y-151350000D01*
X155975012Y-151350001D01*
X155872302Y-151360494D01*
X155705880Y-151415641D01*
X155705875Y-151415643D01*
X155556654Y-151507684D01*
X155432684Y-151631654D01*
X155340643Y-151780875D01*
X155340641Y-151780880D01*
X155289909Y-151933981D01*
X155250136Y-151991426D01*
X155185621Y-152018249D01*
X155116845Y-152005934D01*
X155065645Y-151958391D01*
X155065472Y-151958099D01*
X155038872Y-151913122D01*
X155021688Y-151845399D01*
X155038869Y-151786882D01*
X155072869Y-151729393D01*
X155108288Y-151607482D01*
X155117664Y-151575208D01*
X155117665Y-151575202D01*
X155117693Y-151574852D01*
X155120500Y-151539181D01*
X155120499Y-151140820D01*
X155117665Y-151104796D01*
X155079346Y-150972901D01*
X155079545Y-150903032D01*
X155110739Y-150850627D01*
X155774548Y-150186819D01*
X155835871Y-150153334D01*
X155862229Y-150150500D01*
X158275500Y-150150500D01*
X158342539Y-150170185D01*
G37*
%TD.AperFunction*%
%TA.AperFunction,Conductor*%
G36*
X157003736Y-60500726D02*
G01*
X157293796Y-60518271D01*
X157308657Y-60520075D01*
X157590798Y-60571780D01*
X157605335Y-60575363D01*
X157879172Y-60660695D01*
X157893163Y-60666000D01*
X158154743Y-60783727D01*
X158167989Y-60790680D01*
X158413465Y-60939075D01*
X158425776Y-60947573D01*
X158595202Y-61080309D01*
X158651573Y-61124473D01*
X158662781Y-61134403D01*
X158865596Y-61337218D01*
X158875526Y-61348426D01*
X158995481Y-61501538D01*
X159052422Y-61574217D01*
X159060926Y-61586537D01*
X159201633Y-61819295D01*
X159209316Y-61832004D01*
X159216275Y-61845263D01*
X159333997Y-62106831D01*
X159339306Y-62120832D01*
X159424635Y-62394663D01*
X159428219Y-62409201D01*
X159479923Y-62691340D01*
X159481728Y-62706205D01*
X159499274Y-62996263D01*
X159499500Y-63003750D01*
X159499500Y-147183111D01*
X159479815Y-147250150D01*
X159427011Y-147295905D01*
X159357853Y-147305849D01*
X159294297Y-147276824D01*
X159266142Y-147241564D01*
X159185913Y-147091467D01*
X159185909Y-147091460D01*
X159060883Y-146939116D01*
X158908539Y-146814090D01*
X158908532Y-146814086D01*
X158734733Y-146721188D01*
X158734727Y-146721186D01*
X158546132Y-146663976D01*
X158546129Y-146663975D01*
X158350000Y-146644659D01*
X158153870Y-146663975D01*
X157965266Y-146721188D01*
X157791467Y-146814086D01*
X157791460Y-146814090D01*
X157639116Y-146939116D01*
X157514090Y-147091460D01*
X157514086Y-147091467D01*
X157421188Y-147265266D01*
X157363975Y-147453870D01*
X157344659Y-147650000D01*
X157363975Y-147846129D01*
X157421188Y-148034733D01*
X157514086Y-148208532D01*
X157514090Y-148208539D01*
X157639116Y-148360883D01*
X157722905Y-148429647D01*
X157762239Y-148487393D01*
X157764110Y-148557237D01*
X157727922Y-148617006D01*
X157665166Y-148647721D01*
X157644240Y-148649500D01*
X155426080Y-148649500D01*
X155281092Y-148678340D01*
X155281082Y-148678343D01*
X155144511Y-148734912D01*
X155144498Y-148734919D01*
X155021584Y-148817048D01*
X155021580Y-148817051D01*
X153717049Y-150121581D01*
X153717045Y-150121585D01*
X153677602Y-150180620D01*
X153623991Y-150225426D01*
X153554666Y-150234135D01*
X153491638Y-150203981D01*
X153454918Y-150144539D01*
X153450499Y-150111731D01*
X153450499Y-149852129D01*
X153450498Y-149852123D01*
X153450497Y-149852116D01*
X153444091Y-149792517D01*
X153393796Y-149657669D01*
X153393794Y-149657666D01*
X153390696Y-149649360D01*
X153392426Y-149648714D01*
X153379902Y-149591163D01*
X153391691Y-149551011D01*
X153390696Y-149550640D01*
X153393794Y-149542333D01*
X153393796Y-149542331D01*
X153444091Y-149407483D01*
X153450500Y-149347873D01*
X153450499Y-148352128D01*
X153444091Y-148292517D01*
X153411181Y-148204282D01*
X153406198Y-148134594D01*
X153439682Y-148073271D01*
X153479907Y-148046393D01*
X153555496Y-148015084D01*
X153618831Y-147972765D01*
X153678417Y-147932952D01*
X154112545Y-147498821D01*
X154131363Y-147483384D01*
X154132528Y-147482606D01*
X154133197Y-147482160D01*
X154181329Y-147450000D01*
X154206843Y-147432953D01*
X157732952Y-143906843D01*
X157815085Y-143783922D01*
X157871659Y-143647340D01*
X157885091Y-143579815D01*
X157900501Y-143502347D01*
X157900501Y-125161866D01*
X157871660Y-125016879D01*
X157871659Y-125016878D01*
X157871659Y-125016874D01*
X157871657Y-125016869D01*
X157815088Y-124880298D01*
X157815081Y-124880285D01*
X157732953Y-124757372D01*
X157732952Y-124757371D01*
X157628417Y-124652836D01*
X156854392Y-123878811D01*
X156037762Y-123062180D01*
X156004277Y-123000857D01*
X156009261Y-122931165D01*
X156051133Y-122875232D01*
X156116597Y-122850815D01*
X156125417Y-122850499D01*
X157647872Y-122850499D01*
X157707483Y-122844091D01*
X157842331Y-122793796D01*
X157957546Y-122707546D01*
X158043796Y-122592331D01*
X158094091Y-122457483D01*
X158100500Y-122397873D01*
X158100499Y-121002128D01*
X158094091Y-120942517D01*
X158080437Y-120905910D01*
X158043797Y-120807671D01*
X158043793Y-120807664D01*
X157957547Y-120692455D01*
X157957544Y-120692452D01*
X157842335Y-120606206D01*
X157842328Y-120606202D01*
X157707482Y-120555908D01*
X157707483Y-120555908D01*
X157647883Y-120549501D01*
X157647881Y-120549500D01*
X157647873Y-120549500D01*
X157647864Y-120549500D01*
X156002129Y-120549500D01*
X156002123Y-120549501D01*
X155942516Y-120555908D01*
X155807671Y-120606202D01*
X155807664Y-120606206D01*
X155692455Y-120692452D01*
X155692452Y-120692455D01*
X155606206Y-120807664D01*
X155606202Y-120807671D01*
X155555908Y-120942517D01*
X155551580Y-120982781D01*
X155549501Y-121002123D01*
X155549500Y-121002135D01*
X155549500Y-122274557D01*
X155529815Y-122341596D01*
X155477011Y-122387351D01*
X155407853Y-122397295D01*
X155344297Y-122368270D01*
X155337829Y-122362247D01*
X154486819Y-121511237D01*
X154453334Y-121449914D01*
X154450500Y-121423556D01*
X154450500Y-117878335D01*
X154470185Y-117811296D01*
X154522989Y-117765541D01*
X154592147Y-117755597D01*
X154655703Y-117784622D01*
X154693159Y-117842336D01*
X154721186Y-117934727D01*
X154721188Y-117934733D01*
X154814086Y-118108532D01*
X154814090Y-118108539D01*
X154939116Y-118260883D01*
X155091460Y-118385909D01*
X155091467Y-118385913D01*
X155265266Y-118478811D01*
X155265269Y-118478811D01*
X155265273Y-118478814D01*
X155453868Y-118536024D01*
X155650000Y-118555341D01*
X155846132Y-118536024D01*
X156034727Y-118478814D01*
X156208538Y-118385910D01*
X156217388Y-118378646D01*
X156281697Y-118351333D01*
X156296054Y-118350499D01*
X157647871Y-118350499D01*
X157647872Y-118350499D01*
X157707483Y-118344091D01*
X157842331Y-118293796D01*
X157957546Y-118207546D01*
X158043796Y-118092331D01*
X158094091Y-117957483D01*
X158100500Y-117897873D01*
X158100499Y-116502128D01*
X158094091Y-116442517D01*
X158061576Y-116355341D01*
X158043797Y-116307671D01*
X158043793Y-116307664D01*
X157957547Y-116192455D01*
X157957544Y-116192452D01*
X157842335Y-116106206D01*
X157842328Y-116106202D01*
X157707482Y-116055908D01*
X157707483Y-116055908D01*
X157647883Y-116049501D01*
X157647881Y-116049500D01*
X157647873Y-116049500D01*
X157647864Y-116049500D01*
X156002129Y-116049500D01*
X156002123Y-116049501D01*
X155942516Y-116055908D01*
X155807671Y-116106202D01*
X155807664Y-116106206D01*
X155692455Y-116192452D01*
X155692452Y-116192455D01*
X155606206Y-116307664D01*
X155606202Y-116307671D01*
X155555908Y-116442516D01*
X155554534Y-116455303D01*
X155527795Y-116519854D01*
X155470402Y-116559701D01*
X155455446Y-116563662D01*
X155453872Y-116563975D01*
X155453869Y-116563975D01*
X155453868Y-116563976D01*
X155334384Y-116600221D01*
X155265266Y-116621188D01*
X155091467Y-116714086D01*
X155091460Y-116714090D01*
X154939116Y-116839116D01*
X154814090Y-116991460D01*
X154814086Y-116991467D01*
X154721186Y-117165271D01*
X154693160Y-117257660D01*
X154654863Y-117316098D01*
X154591050Y-117344555D01*
X154521983Y-117333994D01*
X154469590Y-117287769D01*
X154450500Y-117221664D01*
X154450500Y-70185946D01*
X154470185Y-70118907D01*
X154522989Y-70073152D01*
X154592147Y-70063208D01*
X154648812Y-70086680D01*
X154757910Y-70168352D01*
X154757913Y-70168354D01*
X154892620Y-70218596D01*
X154892627Y-70218598D01*
X154952155Y-70224999D01*
X154952172Y-70225000D01*
X155500000Y-70225000D01*
X156000000Y-70225000D01*
X156547828Y-70225000D01*
X156547844Y-70224999D01*
X156607372Y-70218598D01*
X156607379Y-70218596D01*
X156742086Y-70168354D01*
X156742093Y-70168350D01*
X156857187Y-70082190D01*
X156857190Y-70082187D01*
X156943350Y-69967093D01*
X156943354Y-69967086D01*
X156993596Y-69832379D01*
X156993598Y-69832372D01*
X156999999Y-69772844D01*
X157000000Y-69772827D01*
X157000000Y-69525000D01*
X156000000Y-69525000D01*
X156000000Y-70225000D01*
X155500000Y-70225000D01*
X155500000Y-69025000D01*
X156000000Y-69025000D01*
X157000000Y-69025000D01*
X157000000Y-68777172D01*
X156999999Y-68777155D01*
X156993598Y-68717627D01*
X156993596Y-68717620D01*
X156943354Y-68582913D01*
X156943350Y-68582906D01*
X156857190Y-68467812D01*
X156857187Y-68467809D01*
X156742093Y-68381649D01*
X156742086Y-68381645D01*
X156607379Y-68331403D01*
X156607372Y-68331401D01*
X156547844Y-68325000D01*
X156000000Y-68325000D01*
X156000000Y-69025000D01*
X155500000Y-69025000D01*
X155500000Y-68325000D01*
X154952155Y-68325000D01*
X154892627Y-68331401D01*
X154892620Y-68331403D01*
X154757913Y-68381645D01*
X154757907Y-68381648D01*
X154741002Y-68394304D01*
X154675538Y-68418720D01*
X154607265Y-68403868D01*
X154557860Y-68354462D01*
X154543009Y-68286189D01*
X154567427Y-68220724D01*
X154579006Y-68207361D01*
X155824549Y-66961817D01*
X155885872Y-66928333D01*
X155912230Y-66925499D01*
X156547871Y-66925499D01*
X156547872Y-66925499D01*
X156607483Y-66919091D01*
X156742331Y-66868796D01*
X156857546Y-66782546D01*
X156943796Y-66667331D01*
X156994091Y-66532483D01*
X157000500Y-66472873D01*
X157000499Y-65477128D01*
X156994091Y-65417517D01*
X156994090Y-65417515D01*
X156943797Y-65282671D01*
X156943793Y-65282664D01*
X156857547Y-65167455D01*
X156857544Y-65167452D01*
X156742335Y-65081206D01*
X156742328Y-65081202D01*
X156607482Y-65030908D01*
X156607483Y-65030908D01*
X156547883Y-65024501D01*
X156547881Y-65024500D01*
X156547873Y-65024500D01*
X156547864Y-65024500D01*
X154952129Y-65024500D01*
X154952123Y-65024501D01*
X154892516Y-65030908D01*
X154757671Y-65081202D01*
X154757664Y-65081206D01*
X154642455Y-65167452D01*
X154642452Y-65167455D01*
X154556206Y-65282664D01*
X154556202Y-65282671D01*
X154505908Y-65417517D01*
X154500408Y-65468680D01*
X154499501Y-65477123D01*
X154499500Y-65477135D01*
X154499500Y-66112769D01*
X154479815Y-66179808D01*
X154463181Y-66200450D01*
X153117045Y-67546586D01*
X153096271Y-67577678D01*
X153087983Y-67590084D01*
X153061358Y-67629930D01*
X153034914Y-67669507D01*
X152978343Y-67806082D01*
X152978340Y-67806092D01*
X152949500Y-67951079D01*
X152949500Y-90974555D01*
X152929815Y-91041594D01*
X152877011Y-91087349D01*
X152807853Y-91097293D01*
X152744297Y-91068268D01*
X152737819Y-91062236D01*
X146235583Y-84560000D01*
X148987156Y-84560000D01*
X149027595Y-84699194D01*
X149109261Y-84837285D01*
X149109268Y-84837294D01*
X149222705Y-84950731D01*
X149222714Y-84950738D01*
X149360808Y-85032406D01*
X149360811Y-85032407D01*
X149514871Y-85077166D01*
X149514877Y-85077167D01*
X149550000Y-85079931D01*
X149550000Y-85079930D01*
X150050000Y-85079930D01*
X150085122Y-85077167D01*
X150085128Y-85077166D01*
X150239188Y-85032407D01*
X150239191Y-85032406D01*
X150377285Y-84950738D01*
X150377294Y-84950731D01*
X150490731Y-84837294D01*
X150490738Y-84837285D01*
X150572404Y-84699194D01*
X150612844Y-84560000D01*
X150050000Y-84560000D01*
X150050000Y-85079930D01*
X149550000Y-85079930D01*
X149550000Y-84560000D01*
X148987156Y-84560000D01*
X146235583Y-84560000D01*
X145892635Y-84217052D01*
X145892628Y-84217046D01*
X145818943Y-84167812D01*
X145818943Y-84167813D01*
X145769705Y-84134913D01*
X145633131Y-84078343D01*
X145633121Y-84078340D01*
X145488134Y-84049500D01*
X145488132Y-84049500D01*
X137426444Y-84049500D01*
X137359405Y-84029815D01*
X137338763Y-84013181D01*
X136416393Y-83090811D01*
X148979500Y-83090811D01*
X148979500Y-83489169D01*
X148979501Y-83489191D01*
X148982335Y-83525205D01*
X149027129Y-83679388D01*
X149027130Y-83679391D01*
X149061419Y-83737371D01*
X149078601Y-83805095D01*
X149061419Y-83863611D01*
X149027594Y-83920806D01*
X148987156Y-84060000D01*
X149539591Y-84060000D01*
X149549318Y-84060382D01*
X149549516Y-84060397D01*
X149550819Y-84060500D01*
X150049180Y-84060499D01*
X150049193Y-84060498D01*
X150050668Y-84060382D01*
X150060393Y-84060000D01*
X150612844Y-84060000D01*
X150572404Y-83920804D01*
X150538581Y-83863613D01*
X150521397Y-83795889D01*
X150538579Y-83737373D01*
X150572869Y-83679393D01*
X150601207Y-83581847D01*
X150632600Y-83528766D01*
X151808061Y-82353305D01*
X151844134Y-82330655D01*
X151843246Y-82328811D01*
X151849518Y-82325790D01*
X151849522Y-82325789D01*
X152002262Y-82229816D01*
X152129816Y-82102262D01*
X152225789Y-81949522D01*
X152285368Y-81779255D01*
X152285369Y-81779249D01*
X152305565Y-81600003D01*
X152305565Y-81599996D01*
X152285369Y-81420750D01*
X152285368Y-81420745D01*
X152240296Y-81291937D01*
X152225789Y-81250478D01*
X152129816Y-81097738D01*
X152002262Y-80970184D01*
X151849523Y-80874211D01*
X151679254Y-80814631D01*
X151679249Y-80814630D01*
X151500004Y-80794435D01*
X151499996Y-80794435D01*
X151320750Y-80814630D01*
X151320745Y-80814631D01*
X151150476Y-80874211D01*
X150997737Y-80970184D01*
X150870184Y-81097737D01*
X150774211Y-81250478D01*
X150771188Y-81256756D01*
X150769362Y-81255876D01*
X150746693Y-81291937D01*
X149539423Y-82499207D01*
X149486337Y-82530602D01*
X149360612Y-82567129D01*
X149360606Y-82567131D01*
X149222404Y-82648863D01*
X149222396Y-82648869D01*
X149108869Y-82762396D01*
X149108863Y-82762404D01*
X149027131Y-82900606D01*
X149027129Y-82900611D01*
X148982335Y-83054791D01*
X148982334Y-83054797D01*
X148979500Y-83090811D01*
X136416393Y-83090811D01*
X134506819Y-81181237D01*
X134473334Y-81119914D01*
X134470500Y-81093556D01*
X134470500Y-77662700D01*
X134490185Y-77595661D01*
X134523375Y-77561126D01*
X134591401Y-77513495D01*
X134758495Y-77346401D01*
X134894035Y-77152830D01*
X134993903Y-76938663D01*
X135055063Y-76710408D01*
X135075659Y-76475000D01*
X135055063Y-76239592D01*
X134993903Y-76011337D01*
X134894035Y-75797171D01*
X134888731Y-75789595D01*
X134758494Y-75603597D01*
X134591402Y-75436506D01*
X134591395Y-75436501D01*
X134397834Y-75300967D01*
X134397830Y-75300965D01*
X134397828Y-75300964D01*
X134183663Y-75201097D01*
X134183659Y-75201096D01*
X134183655Y-75201094D01*
X133955413Y-75139938D01*
X133955403Y-75139936D01*
X133720001Y-75119341D01*
X133719999Y-75119341D01*
X133484596Y-75139936D01*
X133484586Y-75139938D01*
X133256344Y-75201094D01*
X133256335Y-75201098D01*
X133042171Y-75300964D01*
X133042169Y-75300965D01*
X132848597Y-75436505D01*
X132681505Y-75603597D01*
X132551575Y-75789158D01*
X132496998Y-75832783D01*
X132427500Y-75839977D01*
X132365145Y-75808454D01*
X132348425Y-75789158D01*
X132218494Y-75603597D01*
X132051402Y-75436506D01*
X132051395Y-75436501D01*
X131857834Y-75300967D01*
X131857830Y-75300965D01*
X131857828Y-75300964D01*
X131643663Y-75201097D01*
X131643659Y-75201096D01*
X131643655Y-75201094D01*
X131415413Y-75139938D01*
X131415403Y-75139936D01*
X131180001Y-75119341D01*
X131179999Y-75119341D01*
X130944596Y-75139936D01*
X130944586Y-75139938D01*
X130716344Y-75201094D01*
X130716335Y-75201098D01*
X130502171Y-75300964D01*
X130502169Y-75300965D01*
X130308597Y-75436505D01*
X130141508Y-75603594D01*
X130011269Y-75789595D01*
X129956692Y-75833219D01*
X129887193Y-75840412D01*
X129824839Y-75808890D01*
X129808119Y-75789594D01*
X129678113Y-75603926D01*
X129678108Y-75603920D01*
X129511082Y-75436894D01*
X129317578Y-75301399D01*
X129103492Y-75201570D01*
X129103486Y-75201567D01*
X128890000Y-75144364D01*
X128890000Y-76041988D01*
X128832993Y-76009075D01*
X128705826Y-75975000D01*
X128574174Y-75975000D01*
X128447007Y-76009075D01*
X128390000Y-76041988D01*
X128390000Y-75144364D01*
X128389999Y-75144364D01*
X128176513Y-75201567D01*
X128176507Y-75201570D01*
X127962422Y-75301399D01*
X127962420Y-75301400D01*
X127768926Y-75436886D01*
X127646865Y-75558947D01*
X127585542Y-75592431D01*
X127515850Y-75587447D01*
X127459917Y-75545575D01*
X127443002Y-75514598D01*
X127393797Y-75382671D01*
X127393793Y-75382664D01*
X127307547Y-75267455D01*
X127307544Y-75267452D01*
X127192335Y-75181206D01*
X127192328Y-75181202D01*
X127057482Y-75130908D01*
X127057483Y-75130908D01*
X126997883Y-75124501D01*
X126997881Y-75124500D01*
X126997873Y-75124500D01*
X126997865Y-75124500D01*
X126974500Y-75124500D01*
X126907461Y-75104815D01*
X126861706Y-75052011D01*
X126850500Y-75000500D01*
X126850500Y-72826081D01*
X126844763Y-72797242D01*
X126844763Y-72797240D01*
X126821660Y-72681095D01*
X126821659Y-72681088D01*
X126767408Y-72550117D01*
X126765765Y-72545525D01*
X126765084Y-72544505D01*
X126732186Y-72495270D01*
X126732185Y-72495268D01*
X126682956Y-72421589D01*
X126682952Y-72421584D01*
X124828421Y-70567052D01*
X124828414Y-70567046D01*
X124754729Y-70517812D01*
X124754729Y-70517813D01*
X124705495Y-70484916D01*
X124705492Y-70484914D01*
X124705491Y-70484914D01*
X124653940Y-70463561D01*
X124599536Y-70419721D01*
X124577471Y-70353427D01*
X124594750Y-70285727D01*
X124645887Y-70238116D01*
X124701392Y-70225000D01*
X125381161Y-70225000D01*
X125381177Y-70224999D01*
X125440705Y-70218598D01*
X125440712Y-70218596D01*
X125575419Y-70168354D01*
X125575426Y-70168350D01*
X125690520Y-70082190D01*
X125690523Y-70082187D01*
X125776683Y-69967093D01*
X125776687Y-69967086D01*
X125826929Y-69832379D01*
X125826931Y-69832372D01*
X125833332Y-69772844D01*
X125833333Y-69772827D01*
X125833333Y-69525000D01*
X123333333Y-69525000D01*
X123333333Y-69772844D01*
X123339734Y-69832372D01*
X123339736Y-69832379D01*
X123389978Y-69967086D01*
X123389982Y-69967093D01*
X123476142Y-70082187D01*
X123476145Y-70082190D01*
X123598344Y-70173669D01*
X123596980Y-70175490D01*
X123637565Y-70216077D01*
X123652414Y-70284351D01*
X123627994Y-70349814D01*
X123572059Y-70391683D01*
X123528730Y-70399500D01*
X120738989Y-70399500D01*
X120671950Y-70379815D01*
X120626195Y-70327011D01*
X120616251Y-70257853D01*
X120645276Y-70194297D01*
X120669226Y-70174996D01*
X120668564Y-70174112D01*
X120748469Y-70114293D01*
X120790879Y-70082546D01*
X120877129Y-69967331D01*
X120927424Y-69832483D01*
X120933833Y-69772873D01*
X120933832Y-68777155D01*
X123333333Y-68777155D01*
X123333333Y-69025000D01*
X124333333Y-69025000D01*
X124333333Y-68325000D01*
X123785488Y-68325000D01*
X123725960Y-68331401D01*
X123725953Y-68331403D01*
X123591246Y-68381645D01*
X123591239Y-68381649D01*
X123476145Y-68467809D01*
X123476142Y-68467812D01*
X123389982Y-68582906D01*
X123389978Y-68582913D01*
X123339736Y-68717620D01*
X123339734Y-68717627D01*
X123333333Y-68777155D01*
X120933832Y-68777155D01*
X120933832Y-68777128D01*
X120927424Y-68717517D01*
X120877217Y-68582906D01*
X120877130Y-68582671D01*
X120877126Y-68582664D01*
X120790880Y-68467455D01*
X120790877Y-68467452D01*
X120675668Y-68381206D01*
X120675661Y-68381202D01*
X120540815Y-68330908D01*
X120540816Y-68330908D01*
X120481216Y-68324501D01*
X120481214Y-68324500D01*
X120481206Y-68324500D01*
X120481197Y-68324500D01*
X118885462Y-68324500D01*
X118885456Y-68324501D01*
X118825849Y-68330908D01*
X118691004Y-68381202D01*
X118690997Y-68381206D01*
X118575790Y-68467451D01*
X118575784Y-68467457D01*
X118570281Y-68474809D01*
X118514348Y-68516681D01*
X118471013Y-68524500D01*
X112737230Y-68524500D01*
X112670191Y-68504815D01*
X112649549Y-68488181D01*
X110286818Y-66125450D01*
X110253333Y-66064127D01*
X110250499Y-66037769D01*
X110250499Y-65477129D01*
X110250498Y-65477123D01*
X110250497Y-65477116D01*
X110244091Y-65417517D01*
X110244090Y-65417515D01*
X110193797Y-65282671D01*
X110193793Y-65282664D01*
X110107547Y-65167455D01*
X110107544Y-65167452D01*
X109992335Y-65081206D01*
X109992328Y-65081202D01*
X109857482Y-65030908D01*
X109857483Y-65030908D01*
X109797883Y-65024501D01*
X109797881Y-65024500D01*
X109797873Y-65024500D01*
X109797864Y-65024500D01*
X108202129Y-65024500D01*
X108202123Y-65024501D01*
X108142516Y-65030908D01*
X108007671Y-65081202D01*
X108007664Y-65081206D01*
X107892455Y-65167452D01*
X107892452Y-65167455D01*
X107806206Y-65282664D01*
X107806202Y-65282671D01*
X107755908Y-65417517D01*
X107750408Y-65468680D01*
X107749501Y-65477123D01*
X107749500Y-65477135D01*
X107749500Y-66472870D01*
X107749501Y-66472876D01*
X107755908Y-66532483D01*
X107806202Y-66667328D01*
X107806206Y-66667335D01*
X107892452Y-66782544D01*
X107892455Y-66782547D01*
X108007664Y-66868793D01*
X108007671Y-66868797D01*
X108052618Y-66885561D01*
X108142517Y-66919091D01*
X108202127Y-66925500D01*
X108912769Y-66925499D01*
X108979808Y-66945183D01*
X109000450Y-66961818D01*
X111896586Y-69857954D01*
X111926058Y-69877645D01*
X111970268Y-69907184D01*
X111970270Y-69907187D01*
X111970271Y-69907187D01*
X112019496Y-69940079D01*
X112019511Y-69940087D01*
X112076079Y-69963518D01*
X112076080Y-69963518D01*
X112156088Y-69996659D01*
X112272241Y-70019763D01*
X112291468Y-70023587D01*
X112301081Y-70025500D01*
X112301082Y-70025500D01*
X112301083Y-70025500D01*
X112448918Y-70025500D01*
X118471013Y-70025500D01*
X118538052Y-70045185D01*
X118570281Y-70075191D01*
X118575787Y-70082546D01*
X118601211Y-70101578D01*
X118698102Y-70174112D01*
X118696580Y-70176144D01*
X118736510Y-70216075D01*
X118751361Y-70284348D01*
X118726943Y-70349812D01*
X118671009Y-70391682D01*
X118627677Y-70399500D01*
X110054603Y-70399500D01*
X109987564Y-70379815D01*
X109941809Y-70327011D01*
X109931865Y-70257853D01*
X109960890Y-70194297D01*
X109985552Y-70174421D01*
X109984989Y-70173669D01*
X110107187Y-70082190D01*
X110107190Y-70082187D01*
X110193350Y-69967093D01*
X110193354Y-69967086D01*
X110243596Y-69832379D01*
X110243598Y-69832372D01*
X110249999Y-69772844D01*
X110250000Y-69772827D01*
X110250000Y-69525000D01*
X107812729Y-69525000D01*
X107745690Y-69505315D01*
X107725048Y-69488681D01*
X107013522Y-68777155D01*
X107750000Y-68777155D01*
X107750000Y-69025000D01*
X108750000Y-69025000D01*
X109250000Y-69025000D01*
X110250000Y-69025000D01*
X110250000Y-68777172D01*
X110249999Y-68777155D01*
X110243598Y-68717627D01*
X110243596Y-68717620D01*
X110193354Y-68582913D01*
X110193350Y-68582906D01*
X110107190Y-68467812D01*
X110107187Y-68467809D01*
X109992093Y-68381649D01*
X109992086Y-68381645D01*
X109857379Y-68331403D01*
X109857372Y-68331401D01*
X109797844Y-68325000D01*
X109250000Y-68325000D01*
X109250000Y-69025000D01*
X108750000Y-69025000D01*
X108750000Y-68325000D01*
X108202155Y-68325000D01*
X108142627Y-68331401D01*
X108142620Y-68331403D01*
X108007913Y-68381645D01*
X108007906Y-68381649D01*
X107892812Y-68467809D01*
X107892809Y-68467812D01*
X107806649Y-68582906D01*
X107806645Y-68582913D01*
X107756403Y-68717620D01*
X107756401Y-68717627D01*
X107750000Y-68777155D01*
X107013522Y-68777155D01*
X105200858Y-66964491D01*
X105167373Y-66903168D01*
X105172357Y-66833476D01*
X105203859Y-66791394D01*
X105201278Y-66788813D01*
X105207538Y-66782551D01*
X105207546Y-66782546D01*
X105293796Y-66667331D01*
X105344091Y-66532483D01*
X105350500Y-66472873D01*
X105350499Y-65837228D01*
X105370183Y-65770190D01*
X105386813Y-65749553D01*
X106986367Y-64150000D01*
X117391210Y-64150000D01*
X117392854Y-64170910D01*
X117437968Y-64326195D01*
X117520278Y-64465374D01*
X117520285Y-64465383D01*
X117634616Y-64579714D01*
X117634625Y-64579721D01*
X117773804Y-64662031D01*
X117920000Y-64704504D01*
X117920000Y-64150000D01*
X117391210Y-64150000D01*
X106986367Y-64150000D01*
X107599549Y-63536819D01*
X107660872Y-63503334D01*
X107687230Y-63500500D01*
X117268832Y-63500500D01*
X117335871Y-63520185D01*
X117381626Y-63572989D01*
X117392450Y-63634228D01*
X117391208Y-63649998D01*
X117391210Y-63650000D01*
X118225500Y-63650000D01*
X118292539Y-63669685D01*
X118338294Y-63722489D01*
X118349500Y-63774000D01*
X118349500Y-64134697D01*
X118352356Y-64170991D01*
X118352357Y-64170997D01*
X118397503Y-64326389D01*
X118397505Y-64326393D01*
X118397506Y-64326395D01*
X118402732Y-64335233D01*
X118420000Y-64398352D01*
X118420000Y-64704503D01*
X118566194Y-64662032D01*
X118586384Y-64650091D01*
X118654108Y-64632906D01*
X118712629Y-64650089D01*
X118732822Y-64662031D01*
X118733605Y-64662494D01*
X118733608Y-64662495D01*
X118843428Y-64694401D01*
X118902314Y-64732007D01*
X118931520Y-64795479D01*
X118932833Y-64813477D01*
X118932833Y-64908023D01*
X118913148Y-64975062D01*
X118860344Y-65020817D01*
X118833198Y-65028266D01*
X118833401Y-65029124D01*
X118825853Y-65030907D01*
X118691004Y-65081202D01*
X118690997Y-65081206D01*
X118575788Y-65167452D01*
X118575785Y-65167455D01*
X118489539Y-65282664D01*
X118489535Y-65282671D01*
X118439241Y-65417517D01*
X118433741Y-65468680D01*
X118432834Y-65477123D01*
X118432833Y-65477135D01*
X118432833Y-66472870D01*
X118432834Y-66472876D01*
X118439241Y-66532483D01*
X118489535Y-66667328D01*
X118489539Y-66667335D01*
X118575785Y-66782544D01*
X118575788Y-66782547D01*
X118690997Y-66868793D01*
X118691004Y-66868797D01*
X118825850Y-66919091D01*
X118825849Y-66919091D01*
X118832777Y-66919835D01*
X118885460Y-66925500D01*
X120481205Y-66925499D01*
X120540816Y-66919091D01*
X120675664Y-66868796D01*
X120790879Y-66782546D01*
X120877129Y-66667331D01*
X120927424Y-66532483D01*
X120933833Y-66472873D01*
X120933832Y-65477128D01*
X120927424Y-65417517D01*
X120927423Y-65417515D01*
X120877130Y-65282671D01*
X120877126Y-65282664D01*
X120790880Y-65167455D01*
X120790877Y-65167452D01*
X120675668Y-65081206D01*
X120675661Y-65081202D01*
X120540815Y-65030908D01*
X120533271Y-65029126D01*
X120533807Y-65026853D01*
X120480021Y-65004571D01*
X120440176Y-64947177D01*
X120433833Y-64908024D01*
X120433833Y-64309412D01*
X120404992Y-64164425D01*
X120404991Y-64164424D01*
X120404991Y-64164420D01*
X120399018Y-64150000D01*
X120348420Y-64027844D01*
X120348413Y-64027831D01*
X120266285Y-63904918D01*
X120266284Y-63904917D01*
X120161749Y-63800382D01*
X120073547Y-63712180D01*
X120040063Y-63650858D01*
X120045047Y-63581166D01*
X120086919Y-63525233D01*
X120152383Y-63500816D01*
X120161229Y-63500500D01*
X124187770Y-63500500D01*
X124254809Y-63520185D01*
X124275451Y-63536819D01*
X125562474Y-64823842D01*
X125595959Y-64885164D01*
X125590975Y-64954856D01*
X125549103Y-65010789D01*
X125483639Y-65035206D01*
X125446286Y-65032201D01*
X125440815Y-65030908D01*
X125381216Y-65024501D01*
X125381214Y-65024500D01*
X125381206Y-65024500D01*
X125381197Y-65024500D01*
X123785462Y-65024500D01*
X123785456Y-65024501D01*
X123725849Y-65030908D01*
X123591004Y-65081202D01*
X123590997Y-65081206D01*
X123475788Y-65167452D01*
X123475785Y-65167455D01*
X123389539Y-65282664D01*
X123389535Y-65282671D01*
X123339241Y-65417517D01*
X123333741Y-65468680D01*
X123332834Y-65477123D01*
X123332833Y-65477135D01*
X123332833Y-66472870D01*
X123332834Y-66472876D01*
X123339241Y-66532483D01*
X123389535Y-66667328D01*
X123389539Y-66667335D01*
X123475785Y-66782544D01*
X123475788Y-66782547D01*
X123590997Y-66868793D01*
X123591004Y-66868797D01*
X123635951Y-66885561D01*
X123725850Y-66919091D01*
X123785460Y-66925500D01*
X124421102Y-66925499D01*
X124488141Y-66945183D01*
X124508783Y-66961818D01*
X125754320Y-68207355D01*
X125787805Y-68268678D01*
X125782821Y-68338370D01*
X125740949Y-68394303D01*
X125675485Y-68418720D01*
X125607212Y-68403868D01*
X125592328Y-68394302D01*
X125575426Y-68381649D01*
X125575419Y-68381645D01*
X125440712Y-68331403D01*
X125440705Y-68331401D01*
X125381177Y-68325000D01*
X124833333Y-68325000D01*
X124833333Y-69025000D01*
X125833333Y-69025000D01*
X125833333Y-68777172D01*
X125833332Y-68777155D01*
X125826931Y-68717627D01*
X125826929Y-68717620D01*
X125776687Y-68582913D01*
X125776685Y-68582910D01*
X125764030Y-68566005D01*
X125739612Y-68500541D01*
X125754463Y-68432268D01*
X125803867Y-68382862D01*
X125872140Y-68368009D01*
X125937605Y-68392425D01*
X125950977Y-68404012D01*
X127404919Y-69857954D01*
X127434391Y-69877645D01*
X127478601Y-69907184D01*
X127478603Y-69907187D01*
X127478604Y-69907187D01*
X127527829Y-69940079D01*
X127527844Y-69940087D01*
X127584412Y-69963518D01*
X127584413Y-69963518D01*
X127664421Y-69996659D01*
X127780574Y-70019763D01*
X127799801Y-70023587D01*
X127809414Y-70025500D01*
X127809415Y-70025500D01*
X127809416Y-70025500D01*
X127957251Y-70025500D01*
X134054346Y-70025500D01*
X134121385Y-70045185D01*
X134153614Y-70075191D01*
X134159120Y-70082546D01*
X134187761Y-70103987D01*
X134274330Y-70168793D01*
X134274337Y-70168797D01*
X134409183Y-70219091D01*
X134409182Y-70219091D01*
X134416110Y-70219835D01*
X134468793Y-70225500D01*
X136064538Y-70225499D01*
X136124149Y-70219091D01*
X136258997Y-70168796D01*
X136374212Y-70082546D01*
X136460462Y-69967331D01*
X136510757Y-69832483D01*
X136517166Y-69772873D01*
X136517166Y-69772844D01*
X138916666Y-69772844D01*
X138923067Y-69832372D01*
X138923069Y-69832379D01*
X138973311Y-69967086D01*
X138973315Y-69967093D01*
X139059475Y-70082187D01*
X139059478Y-70082190D01*
X139174572Y-70168350D01*
X139174579Y-70168354D01*
X139309286Y-70218596D01*
X139309293Y-70218598D01*
X139368821Y-70224999D01*
X139368838Y-70225000D01*
X139916666Y-70225000D01*
X140416666Y-70225000D01*
X140964494Y-70225000D01*
X140964510Y-70224999D01*
X141024038Y-70218598D01*
X141024045Y-70218596D01*
X141158752Y-70168354D01*
X141158759Y-70168350D01*
X141273853Y-70082190D01*
X141273856Y-70082187D01*
X141360016Y-69967093D01*
X141360020Y-69967086D01*
X141410262Y-69832379D01*
X141410264Y-69832372D01*
X141416665Y-69772844D01*
X141416666Y-69772827D01*
X141416666Y-69525000D01*
X140416666Y-69525000D01*
X140416666Y-70225000D01*
X139916666Y-70225000D01*
X139916666Y-69525000D01*
X138916666Y-69525000D01*
X138916666Y-69772844D01*
X136517166Y-69772844D01*
X136517165Y-68777155D01*
X138916666Y-68777155D01*
X138916666Y-69025000D01*
X139916666Y-69025000D01*
X140416666Y-69025000D01*
X141416666Y-69025000D01*
X141416666Y-68777172D01*
X141416665Y-68777155D01*
X141410264Y-68717627D01*
X141410262Y-68717620D01*
X141360020Y-68582913D01*
X141360016Y-68582906D01*
X141273856Y-68467812D01*
X141273853Y-68467809D01*
X141158759Y-68381649D01*
X141158752Y-68381645D01*
X141024045Y-68331403D01*
X141024038Y-68331401D01*
X140964510Y-68325000D01*
X140416666Y-68325000D01*
X140416666Y-69025000D01*
X139916666Y-69025000D01*
X139916666Y-68325000D01*
X139368821Y-68325000D01*
X139309293Y-68331401D01*
X139309286Y-68331403D01*
X139174579Y-68381645D01*
X139174572Y-68381649D01*
X139059478Y-68467809D01*
X139059475Y-68467812D01*
X138973315Y-68582906D01*
X138973311Y-68582913D01*
X138923069Y-68717620D01*
X138923067Y-68717627D01*
X138916666Y-68777155D01*
X136517165Y-68777155D01*
X136517165Y-68777128D01*
X136510757Y-68717517D01*
X136460550Y-68582906D01*
X136460463Y-68582671D01*
X136460459Y-68582664D01*
X136374213Y-68467455D01*
X136374210Y-68467452D01*
X136259001Y-68381206D01*
X136258994Y-68381202D01*
X136124148Y-68330908D01*
X136124149Y-68330908D01*
X136064549Y-68324501D01*
X136064547Y-68324500D01*
X136064539Y-68324500D01*
X136064530Y-68324500D01*
X134468795Y-68324500D01*
X134468789Y-68324501D01*
X134409182Y-68330908D01*
X134274337Y-68381202D01*
X134274330Y-68381206D01*
X134159123Y-68467451D01*
X134159117Y-68467457D01*
X134153614Y-68474809D01*
X134097681Y-68516681D01*
X134054346Y-68524500D01*
X128245563Y-68524500D01*
X128178524Y-68504815D01*
X128157882Y-68488181D01*
X125870151Y-66200450D01*
X125836666Y-66139127D01*
X125833832Y-66112769D01*
X125833832Y-65477129D01*
X125833831Y-65477123D01*
X125827424Y-65417517D01*
X125827422Y-65417513D01*
X125826134Y-65412057D01*
X125829873Y-65342288D01*
X125870738Y-65285615D01*
X125935756Y-65260033D01*
X126004283Y-65273663D01*
X126034489Y-65295856D01*
X127617049Y-66878416D01*
X127721584Y-66982951D01*
X127721587Y-66982953D01*
X127721588Y-66982954D01*
X127844503Y-67065083D01*
X127844506Y-67065085D01*
X127901079Y-67088518D01*
X127901080Y-67088518D01*
X127981088Y-67121659D01*
X128092963Y-67143912D01*
X128115042Y-67148304D01*
X128126081Y-67150500D01*
X128126082Y-67150500D01*
X134915586Y-67150500D01*
X135013128Y-67131096D01*
X135060579Y-67121658D01*
X135197161Y-67065084D01*
X135246395Y-67032186D01*
X135320082Y-66982952D01*
X135341215Y-66961818D01*
X135402537Y-66928333D01*
X135428897Y-66925499D01*
X136064537Y-66925499D01*
X136064538Y-66925499D01*
X136124149Y-66919091D01*
X136258997Y-66868796D01*
X136374212Y-66782546D01*
X136460462Y-66667331D01*
X136510757Y-66532483D01*
X136517166Y-66472873D01*
X136517165Y-65995562D01*
X136536849Y-65928524D01*
X136553479Y-65907887D01*
X136984231Y-65477135D01*
X138916166Y-65477135D01*
X138916166Y-66472870D01*
X138916167Y-66472876D01*
X138922574Y-66532483D01*
X138972868Y-66667328D01*
X138972872Y-66667335D01*
X139059118Y-66782544D01*
X139059121Y-66782547D01*
X139174330Y-66868793D01*
X139174337Y-66868797D01*
X139309183Y-66919091D01*
X139309182Y-66919091D01*
X139316110Y-66919835D01*
X139368793Y-66925500D01*
X140712769Y-66925499D01*
X140779808Y-66945184D01*
X140800450Y-66961818D01*
X143696586Y-69857954D01*
X143726058Y-69877645D01*
X143770268Y-69907184D01*
X143770270Y-69907187D01*
X143770271Y-69907187D01*
X143819496Y-69940079D01*
X143819511Y-69940087D01*
X143876079Y-69963518D01*
X143876080Y-69963518D01*
X143956088Y-69996659D01*
X144072241Y-70019763D01*
X144091468Y-70023587D01*
X144101081Y-70025500D01*
X144101082Y-70025500D01*
X144101083Y-70025500D01*
X144248918Y-70025500D01*
X149637680Y-70025500D01*
X149704719Y-70045185D01*
X149736948Y-70075191D01*
X149742454Y-70082546D01*
X149771095Y-70103987D01*
X149857664Y-70168793D01*
X149857671Y-70168797D01*
X149992517Y-70219091D01*
X149992516Y-70219091D01*
X149999444Y-70219835D01*
X150052127Y-70225500D01*
X151647872Y-70225499D01*
X151707483Y-70219091D01*
X151842331Y-70168796D01*
X151957546Y-70082546D01*
X152043796Y-69967331D01*
X152094091Y-69832483D01*
X152100500Y-69772873D01*
X152100499Y-68777128D01*
X152094091Y-68717517D01*
X152043884Y-68582906D01*
X152043797Y-68582671D01*
X152043793Y-68582664D01*
X151957547Y-68467455D01*
X151957544Y-68467452D01*
X151842335Y-68381206D01*
X151842328Y-68381202D01*
X151707482Y-68330908D01*
X151707483Y-68330908D01*
X151647883Y-68324501D01*
X151647881Y-68324500D01*
X151647873Y-68324500D01*
X151647864Y-68324500D01*
X150052129Y-68324500D01*
X150052123Y-68324501D01*
X149992516Y-68330908D01*
X149857671Y-68381202D01*
X149857664Y-68381206D01*
X149742457Y-68467451D01*
X149742451Y-68467457D01*
X149736948Y-68474809D01*
X149681015Y-68516681D01*
X149637680Y-68524500D01*
X144537230Y-68524500D01*
X144470191Y-68504815D01*
X144449549Y-68488181D01*
X141445516Y-65484148D01*
X141412519Y-65424977D01*
X141410757Y-65417521D01*
X141410757Y-65417517D01*
X141360462Y-65282669D01*
X141360461Y-65282668D01*
X141360459Y-65282664D01*
X141274213Y-65167455D01*
X141274210Y-65167452D01*
X141159001Y-65081206D01*
X141158994Y-65081202D01*
X141024148Y-65030908D01*
X141024149Y-65030908D01*
X140964549Y-65024501D01*
X140964547Y-65024500D01*
X140964539Y-65024500D01*
X140964530Y-65024500D01*
X139368795Y-65024500D01*
X139368789Y-65024501D01*
X139309182Y-65030908D01*
X139174337Y-65081202D01*
X139174330Y-65081206D01*
X139059121Y-65167452D01*
X139059118Y-65167455D01*
X138972872Y-65282664D01*
X138972868Y-65282671D01*
X138922574Y-65417517D01*
X138917074Y-65468680D01*
X138916167Y-65477123D01*
X138916166Y-65477135D01*
X136984231Y-65477135D01*
X138261367Y-64200000D01*
X148591210Y-64200000D01*
X148592854Y-64220910D01*
X148637968Y-64376195D01*
X148720278Y-64515374D01*
X148720285Y-64515383D01*
X148834616Y-64629714D01*
X148834625Y-64629721D01*
X148973804Y-64712031D01*
X149120000Y-64754504D01*
X149120000Y-64200000D01*
X148591210Y-64200000D01*
X138261367Y-64200000D01*
X138774549Y-63686819D01*
X138835872Y-63653334D01*
X138862230Y-63650500D01*
X146423919Y-63650500D01*
X146462210Y-63642883D01*
X146486403Y-63640500D01*
X148481970Y-63640500D01*
X148549009Y-63660185D01*
X148573027Y-63680330D01*
X148591209Y-63700000D01*
X149425500Y-63700000D01*
X149492539Y-63719685D01*
X149538294Y-63772489D01*
X149549500Y-63824000D01*
X149549500Y-64184697D01*
X149552356Y-64220991D01*
X149552357Y-64220997D01*
X149597503Y-64376389D01*
X149597505Y-64376393D01*
X149597506Y-64376395D01*
X149602732Y-64385233D01*
X149620000Y-64448352D01*
X149620000Y-64754503D01*
X149766194Y-64712032D01*
X149786384Y-64700091D01*
X149854108Y-64682906D01*
X149912629Y-64700089D01*
X149930233Y-64710500D01*
X149933605Y-64712494D01*
X149933608Y-64712495D01*
X150010095Y-64734717D01*
X150068981Y-64772323D01*
X150098187Y-64835795D01*
X150099500Y-64853793D01*
X150099500Y-64908023D01*
X150079815Y-64975062D01*
X150027011Y-65020817D01*
X149999865Y-65028266D01*
X150000068Y-65029124D01*
X149992520Y-65030907D01*
X149857671Y-65081202D01*
X149857664Y-65081206D01*
X149742455Y-65167452D01*
X149742452Y-65167455D01*
X149656206Y-65282664D01*
X149656202Y-65282671D01*
X149605908Y-65417517D01*
X149600408Y-65468680D01*
X149599501Y-65477123D01*
X149599500Y-65477135D01*
X149599500Y-66472870D01*
X149599501Y-66472876D01*
X149605908Y-66532483D01*
X149656202Y-66667328D01*
X149656206Y-66667335D01*
X149742452Y-66782544D01*
X149742455Y-66782547D01*
X149857664Y-66868793D01*
X149857671Y-66868797D01*
X149992517Y-66919091D01*
X149992516Y-66919091D01*
X149999444Y-66919835D01*
X150052127Y-66925500D01*
X151647872Y-66925499D01*
X151707483Y-66919091D01*
X151842331Y-66868796D01*
X151957546Y-66782546D01*
X152043796Y-66667331D01*
X152094091Y-66532483D01*
X152100500Y-66472873D01*
X152100499Y-65477128D01*
X152094091Y-65417517D01*
X152094090Y-65417515D01*
X152043797Y-65282671D01*
X152043793Y-65282664D01*
X151957547Y-65167455D01*
X151957544Y-65167452D01*
X151842335Y-65081206D01*
X151842328Y-65081202D01*
X151707482Y-65030908D01*
X151699938Y-65029126D01*
X151700474Y-65026853D01*
X151646688Y-65004571D01*
X151606843Y-64947177D01*
X151600500Y-64908024D01*
X151600500Y-64326079D01*
X151571659Y-64181092D01*
X151571658Y-64181091D01*
X151571658Y-64181087D01*
X151567443Y-64170910D01*
X151515087Y-64044511D01*
X151515080Y-64044498D01*
X151432952Y-63921585D01*
X151416284Y-63904917D01*
X151328416Y-63817049D01*
X151186817Y-63675449D01*
X151153334Y-63614128D01*
X151150500Y-63587770D01*
X151150500Y-63333549D01*
X151121659Y-63188562D01*
X151121658Y-63188561D01*
X151121658Y-63188557D01*
X151121656Y-63188552D01*
X151065087Y-63051981D01*
X151065080Y-63051968D01*
X150982952Y-62929055D01*
X150982951Y-62929054D01*
X150878416Y-62824519D01*
X150752616Y-62698719D01*
X150360951Y-62307052D01*
X150360944Y-62307046D01*
X150287259Y-62257812D01*
X150287259Y-62257813D01*
X150238021Y-62224913D01*
X150101447Y-62168343D01*
X150101437Y-62168340D01*
X149956450Y-62139500D01*
X149956448Y-62139500D01*
X146286082Y-62139500D01*
X146286081Y-62139500D01*
X146247790Y-62147117D01*
X146223597Y-62149500D01*
X138426076Y-62149500D01*
X138397242Y-62155234D01*
X138397243Y-62155235D01*
X138281093Y-62178339D01*
X138281083Y-62178342D01*
X138201081Y-62211479D01*
X138201082Y-62211480D01*
X138144502Y-62234917D01*
X138095269Y-62267813D01*
X138021588Y-62317044D01*
X138021580Y-62317050D01*
X135350449Y-64988181D01*
X135289126Y-65021666D01*
X135262768Y-65024500D01*
X134468795Y-65024500D01*
X134468789Y-65024501D01*
X134409182Y-65030908D01*
X134274337Y-65081202D01*
X134274330Y-65081206D01*
X134159121Y-65167452D01*
X134159118Y-65167455D01*
X134072872Y-65282664D01*
X134072868Y-65282671D01*
X134022574Y-65417517D01*
X134017074Y-65468680D01*
X134016167Y-65477123D01*
X134016166Y-65477135D01*
X134016166Y-65525500D01*
X133996481Y-65592539D01*
X133943677Y-65638294D01*
X133892166Y-65649500D01*
X130896948Y-65649500D01*
X130829909Y-65629815D01*
X130784154Y-65577011D01*
X130774210Y-65507853D01*
X130803235Y-65444297D01*
X130834945Y-65418115D01*
X130880289Y-65391936D01*
X131072738Y-65244265D01*
X131244265Y-65072738D01*
X131391936Y-64880289D01*
X131513224Y-64670212D01*
X131606054Y-64446100D01*
X131668838Y-64211789D01*
X131700500Y-63971288D01*
X131700500Y-63728712D01*
X131668838Y-63488211D01*
X131606054Y-63253900D01*
X131513224Y-63029788D01*
X131391936Y-62819711D01*
X131244265Y-62627262D01*
X131244260Y-62627256D01*
X131072743Y-62455739D01*
X131072736Y-62455733D01*
X130880293Y-62308067D01*
X130880292Y-62308066D01*
X130880289Y-62308064D01*
X130670212Y-62186776D01*
X130670205Y-62186773D01*
X130446104Y-62093947D01*
X130211785Y-62031161D01*
X129971289Y-61999500D01*
X129971288Y-61999500D01*
X129728712Y-61999500D01*
X129728711Y-61999500D01*
X129488214Y-62031161D01*
X129253895Y-62093947D01*
X129029794Y-62186773D01*
X129029785Y-62186777D01*
X128819706Y-62308067D01*
X128627263Y-62455733D01*
X128627256Y-62455739D01*
X128455739Y-62627256D01*
X128455733Y-62627263D01*
X128308067Y-62819706D01*
X128308064Y-62819710D01*
X128308064Y-62819711D01*
X128291817Y-62847851D01*
X128186777Y-63029785D01*
X128186773Y-63029794D01*
X128093947Y-63253895D01*
X128031161Y-63488214D01*
X127999500Y-63728711D01*
X127999500Y-63971288D01*
X128031161Y-64211785D01*
X128093947Y-64446104D01*
X128186773Y-64670205D01*
X128186777Y-64670214D01*
X128204026Y-64700090D01*
X128308064Y-64880289D01*
X128308066Y-64880292D01*
X128308067Y-64880293D01*
X128455733Y-65072736D01*
X128455739Y-65072743D01*
X128627256Y-65244260D01*
X128627263Y-65244266D01*
X128677311Y-65282669D01*
X128819711Y-65391936D01*
X128865053Y-65418114D01*
X128913268Y-65468680D01*
X128926491Y-65537287D01*
X128900523Y-65602152D01*
X128843608Y-65642680D01*
X128803052Y-65649500D01*
X128562229Y-65649500D01*
X128495190Y-65629815D01*
X128474548Y-65613181D01*
X125028421Y-62167052D01*
X125028420Y-62167051D01*
X125010737Y-62155236D01*
X124919009Y-62093946D01*
X124905495Y-62084916D01*
X124905490Y-62084913D01*
X124768917Y-62028343D01*
X124768907Y-62028340D01*
X124623920Y-61999500D01*
X124623918Y-61999500D01*
X118666448Y-61999500D01*
X118123918Y-61999500D01*
X107251082Y-61999500D01*
X107251076Y-61999500D01*
X107222242Y-62005234D01*
X107222243Y-62005235D01*
X107106093Y-62028339D01*
X107106083Y-62028342D01*
X107026081Y-62061479D01*
X107026082Y-62061480D01*
X106969509Y-62084914D01*
X106969503Y-62084917D01*
X106962748Y-62089431D01*
X106955991Y-62093946D01*
X106846579Y-62167051D01*
X104025449Y-64988181D01*
X103964126Y-65021666D01*
X103937768Y-65024500D01*
X103302129Y-65024500D01*
X103302123Y-65024501D01*
X103242516Y-65030908D01*
X103107671Y-65081202D01*
X103107664Y-65081206D01*
X102992455Y-65167452D01*
X102992452Y-65167455D01*
X102906206Y-65282664D01*
X102906202Y-65282671D01*
X102855908Y-65417517D01*
X102850408Y-65468680D01*
X102849501Y-65477123D01*
X102849500Y-65477135D01*
X102849500Y-66472870D01*
X102849501Y-66472876D01*
X102855908Y-66532483D01*
X102906202Y-66667328D01*
X102906206Y-66667335D01*
X102992452Y-66782544D01*
X102992455Y-66782547D01*
X103107664Y-66868793D01*
X103107671Y-66868797D01*
X103242514Y-66919090D01*
X103242517Y-66919091D01*
X103245016Y-66919359D01*
X103246828Y-66920110D01*
X103250062Y-66920874D01*
X103249938Y-66921397D01*
X103309568Y-66946092D01*
X103349421Y-67003481D01*
X103353386Y-67018457D01*
X103378340Y-67143907D01*
X103378343Y-67143917D01*
X103434913Y-67280490D01*
X103434914Y-67280491D01*
X103434916Y-67280495D01*
X103450181Y-67303340D01*
X103450182Y-67303342D01*
X103517051Y-67403420D01*
X103517052Y-67403421D01*
X104226451Y-68112819D01*
X104259936Y-68174142D01*
X104254952Y-68243833D01*
X104213081Y-68299767D01*
X104147616Y-68324184D01*
X104138770Y-68324500D01*
X103302129Y-68324500D01*
X103302123Y-68324501D01*
X103242516Y-68330908D01*
X103107671Y-68381202D01*
X103107664Y-68381206D01*
X102992455Y-68467452D01*
X102992452Y-68467455D01*
X102906206Y-68582664D01*
X102906202Y-68582671D01*
X102855908Y-68717517D01*
X102849501Y-68777116D01*
X102849501Y-68777123D01*
X102849500Y-68777135D01*
X102849500Y-69772870D01*
X102849501Y-69772876D01*
X102855908Y-69832483D01*
X102906202Y-69967328D01*
X102906206Y-69967335D01*
X102992452Y-70082544D01*
X102992455Y-70082547D01*
X103107664Y-70168793D01*
X103107671Y-70168797D01*
X103242517Y-70219091D01*
X103242516Y-70219091D01*
X103249444Y-70219835D01*
X103302127Y-70225500D01*
X104897872Y-70225499D01*
X104957483Y-70219091D01*
X105092331Y-70168796D01*
X105207546Y-70082546D01*
X105293796Y-69967331D01*
X105344091Y-69832483D01*
X105350500Y-69772873D01*
X105350499Y-69536228D01*
X105370183Y-69469190D01*
X105422987Y-69423435D01*
X105492146Y-69413491D01*
X105555701Y-69442516D01*
X105562180Y-69448548D01*
X107846580Y-71732948D01*
X107846584Y-71732951D01*
X107969498Y-71815080D01*
X107969511Y-71815087D01*
X108106082Y-71871656D01*
X108106087Y-71871658D01*
X108106091Y-71871658D01*
X108106092Y-71871659D01*
X108251079Y-71900500D01*
X108251082Y-71900500D01*
X108398917Y-71900500D01*
X123987770Y-71900500D01*
X124054809Y-71920185D01*
X124075451Y-71936819D01*
X125313181Y-73174549D01*
X125346666Y-73235872D01*
X125349500Y-73262230D01*
X125349500Y-75000500D01*
X125329815Y-75067539D01*
X125277011Y-75113294D01*
X125225505Y-75124500D01*
X125202132Y-75124500D01*
X125202123Y-75124501D01*
X125142516Y-75130908D01*
X125007671Y-75181202D01*
X125007664Y-75181206D01*
X124892455Y-75267452D01*
X124892452Y-75267455D01*
X124806206Y-75382664D01*
X124806202Y-75382671D01*
X124755908Y-75517517D01*
X124749501Y-75577116D01*
X124749500Y-75577135D01*
X124749500Y-77372870D01*
X124749501Y-77372876D01*
X124755908Y-77432483D01*
X124806202Y-77567328D01*
X124806206Y-77567335D01*
X124892452Y-77682544D01*
X124892455Y-77682547D01*
X125007664Y-77768793D01*
X125007671Y-77768797D01*
X125142517Y-77819091D01*
X125142516Y-77819091D01*
X125149444Y-77819835D01*
X125202127Y-77825500D01*
X125925500Y-77825499D01*
X125992539Y-77845183D01*
X126038294Y-77897987D01*
X126049500Y-77949499D01*
X126049500Y-82387769D01*
X126029815Y-82454808D01*
X126013181Y-82475450D01*
X117117052Y-91371578D01*
X117117049Y-91371581D01*
X117084228Y-91420701D01*
X117084229Y-91420702D01*
X117034914Y-91494508D01*
X116978343Y-91631082D01*
X116978340Y-91631092D01*
X116949500Y-91776079D01*
X116949500Y-112480336D01*
X116929815Y-112547375D01*
X116877011Y-112593130D01*
X116838754Y-112603626D01*
X116817516Y-112605909D01*
X116682671Y-112656202D01*
X116682664Y-112656206D01*
X116567455Y-112742452D01*
X116567452Y-112742455D01*
X116481206Y-112857664D01*
X116481202Y-112857671D01*
X116458391Y-112918833D01*
X116416520Y-112974767D01*
X116351056Y-112999184D01*
X116342209Y-112999500D01*
X111107791Y-112999500D01*
X111040752Y-112979815D01*
X110994997Y-112927011D01*
X110991609Y-112918833D01*
X110968797Y-112857671D01*
X110968793Y-112857664D01*
X110882547Y-112742455D01*
X110882544Y-112742452D01*
X110767335Y-112656206D01*
X110767328Y-112656202D01*
X110632482Y-112605908D01*
X110632483Y-112605908D01*
X110572883Y-112599501D01*
X110572881Y-112599500D01*
X110572873Y-112599500D01*
X110572864Y-112599500D01*
X108927129Y-112599500D01*
X108927123Y-112599501D01*
X108867516Y-112605908D01*
X108732671Y-112656202D01*
X108732664Y-112656206D01*
X108617455Y-112742452D01*
X108617452Y-112742455D01*
X108531206Y-112857664D01*
X108531202Y-112857671D01*
X108480908Y-112992517D01*
X108474501Y-113052116D01*
X108474501Y-113052123D01*
X108474500Y-113052135D01*
X108474500Y-114447870D01*
X108474501Y-114447876D01*
X108480908Y-114507483D01*
X108531202Y-114642328D01*
X108531206Y-114642335D01*
X108617452Y-114757544D01*
X108617455Y-114757547D01*
X108732664Y-114843793D01*
X108732673Y-114843798D01*
X108870292Y-114895126D01*
X108926226Y-114936997D01*
X108950644Y-115002461D01*
X108935793Y-115070734D01*
X108914641Y-115098989D01*
X107617050Y-116396580D01*
X107617044Y-116396588D01*
X107567812Y-116470268D01*
X107567813Y-116470269D01*
X107534921Y-116519496D01*
X107534914Y-116519508D01*
X107478342Y-116656086D01*
X107478340Y-116656092D01*
X107449500Y-116801079D01*
X107449500Y-116801082D01*
X107449500Y-120598918D01*
X107449500Y-120598920D01*
X107449499Y-120598920D01*
X107478340Y-120743907D01*
X107478343Y-120743917D01*
X107534914Y-120880492D01*
X107534915Y-120880494D01*
X107534916Y-120880495D01*
X107547615Y-120899501D01*
X107551896Y-120905907D01*
X107551897Y-120905910D01*
X107617046Y-121003414D01*
X107617052Y-121003421D01*
X107701450Y-121087819D01*
X107734935Y-121149142D01*
X107729951Y-121218834D01*
X107688079Y-121274767D01*
X107622615Y-121299184D01*
X107613769Y-121299500D01*
X103132791Y-121299500D01*
X103065752Y-121279815D01*
X103019997Y-121227011D01*
X103016609Y-121218833D01*
X102993797Y-121157671D01*
X102993793Y-121157664D01*
X102907547Y-121042455D01*
X102907544Y-121042452D01*
X102792335Y-120956206D01*
X102792328Y-120956202D01*
X102657482Y-120905908D01*
X102657483Y-120905908D01*
X102597883Y-120899501D01*
X102597881Y-120899500D01*
X102597873Y-120899500D01*
X102597864Y-120899500D01*
X100952129Y-120899500D01*
X100952123Y-120899501D01*
X100892516Y-120905908D01*
X100757671Y-120956202D01*
X100757668Y-120956204D01*
X100698811Y-121000265D01*
X100633347Y-121024682D01*
X100565074Y-121009830D01*
X100515668Y-120960425D01*
X100500500Y-120900998D01*
X100500500Y-63003750D01*
X100500726Y-62996263D01*
X100510902Y-62828031D01*
X100518271Y-62706201D01*
X100520076Y-62691340D01*
X100563253Y-62455735D01*
X100571780Y-62409197D01*
X100575364Y-62394663D01*
X100660696Y-62120822D01*
X100665998Y-62106841D01*
X100783731Y-61845249D01*
X100790676Y-61832016D01*
X100939080Y-61586526D01*
X100947567Y-61574230D01*
X101124480Y-61348417D01*
X101134395Y-61337226D01*
X101337226Y-61134395D01*
X101348417Y-61124480D01*
X101574230Y-60947567D01*
X101586526Y-60939080D01*
X101832016Y-60790676D01*
X101845249Y-60783731D01*
X102106841Y-60665998D01*
X102120822Y-60660696D01*
X102394668Y-60575362D01*
X102409197Y-60571780D01*
X102691344Y-60520075D01*
X102706201Y-60518271D01*
X102996264Y-60500726D01*
X103003751Y-60500500D01*
X103065892Y-60500500D01*
X156934108Y-60500500D01*
X156996249Y-60500500D01*
X157003736Y-60500726D01*
G37*
%TD.AperFunction*%
%TA.AperFunction,Conductor*%
G36*
X150881547Y-122219401D02*
G01*
X150932450Y-122267261D01*
X150949500Y-122330012D01*
X150949500Y-123023918D01*
X150949500Y-123023920D01*
X150949499Y-123023920D01*
X150978340Y-123168907D01*
X150978343Y-123168917D01*
X151034914Y-123305491D01*
X151034916Y-123305495D01*
X151054448Y-123334727D01*
X151054447Y-123334727D01*
X151117046Y-123428414D01*
X151117052Y-123428421D01*
X154363181Y-126674549D01*
X154396666Y-126735872D01*
X154399500Y-126762230D01*
X154399500Y-142237769D01*
X154379815Y-142304808D01*
X154363181Y-142325450D01*
X153606996Y-143081634D01*
X153545673Y-143115119D01*
X153475981Y-143110135D01*
X153460211Y-143100000D01*
X152074000Y-143100000D01*
X152006961Y-143080315D01*
X151961206Y-143027511D01*
X151950000Y-142976000D01*
X151950000Y-142600000D01*
X152450000Y-142600000D01*
X153450000Y-142600000D01*
X153450000Y-142352172D01*
X153449999Y-142352155D01*
X153443598Y-142292627D01*
X153443596Y-142292620D01*
X153393354Y-142157913D01*
X153393350Y-142157906D01*
X153307190Y-142042812D01*
X153307187Y-142042809D01*
X153192093Y-141956649D01*
X153192086Y-141956645D01*
X153057379Y-141906403D01*
X153057372Y-141906401D01*
X152997844Y-141900000D01*
X152450000Y-141900000D01*
X152450000Y-142600000D01*
X151950000Y-142600000D01*
X151950000Y-141900000D01*
X151474500Y-141900000D01*
X151407461Y-141880315D01*
X151361706Y-141827511D01*
X151350500Y-141776000D01*
X151350500Y-140977976D01*
X151368382Y-140913829D01*
X151443478Y-140789606D01*
X151494086Y-140627196D01*
X151500500Y-140556616D01*
X151500500Y-138843384D01*
X151494086Y-138772804D01*
X151443478Y-138610394D01*
X151358382Y-138469629D01*
X151340500Y-138405481D01*
X151340500Y-138144499D01*
X151360185Y-138077460D01*
X151412989Y-138031705D01*
X151464496Y-138020499D01*
X151809180Y-138020499D01*
X151845204Y-138017665D01*
X151999393Y-137972869D01*
X152137598Y-137891135D01*
X152251135Y-137777598D01*
X152332869Y-137639393D01*
X152372243Y-137503868D01*
X152377664Y-137485208D01*
X152377665Y-137485202D01*
X152380500Y-137449181D01*
X152380499Y-136950820D01*
X152377665Y-136914796D01*
X152371323Y-136892969D01*
X152365423Y-136872656D01*
X152360500Y-136838064D01*
X152360500Y-136570758D01*
X152348188Y-136508866D01*
X152348188Y-136508865D01*
X152331659Y-136425766D01*
X152277408Y-136294795D01*
X152275764Y-136290200D01*
X152192954Y-136166266D01*
X152192953Y-136166265D01*
X152192951Y-136166262D01*
X152088416Y-136061727D01*
X151970482Y-135943793D01*
X151573743Y-135547052D01*
X151573736Y-135547046D01*
X151500051Y-135497812D01*
X151500051Y-135497813D01*
X151450813Y-135464913D01*
X151314239Y-135408343D01*
X151314229Y-135408340D01*
X151169242Y-135379500D01*
X151169240Y-135379500D01*
X150010760Y-135379500D01*
X150010754Y-135379500D01*
X149981920Y-135385234D01*
X149981921Y-135385235D01*
X149865771Y-135408339D01*
X149865767Y-135408340D01*
X149806353Y-135432951D01*
X149729181Y-135464916D01*
X149679947Y-135497813D01*
X149606266Y-135547044D01*
X149606258Y-135547050D01*
X148167048Y-136986261D01*
X148159380Y-136997738D01*
X148124795Y-137049500D01*
X148104855Y-137079341D01*
X148084916Y-137109182D01*
X148084912Y-137109189D01*
X148028343Y-137245760D01*
X148028340Y-137245770D01*
X147999500Y-137390757D01*
X147999500Y-147893021D01*
X147979815Y-147960060D01*
X147971353Y-147971686D01*
X147914091Y-148041460D01*
X147914088Y-148041464D01*
X147843462Y-148173595D01*
X147794499Y-148223439D01*
X147726361Y-148238899D01*
X147660682Y-148215067D01*
X147646423Y-148202822D01*
X147236819Y-147793218D01*
X147203334Y-147731895D01*
X147200500Y-147705537D01*
X147200500Y-144576079D01*
X147171659Y-144431092D01*
X147171658Y-144431091D01*
X147171658Y-144431087D01*
X147160740Y-144404729D01*
X147115087Y-144294511D01*
X147115080Y-144294498D01*
X147032952Y-144171585D01*
X146997276Y-144135909D01*
X146928416Y-144067049D01*
X145386819Y-142525451D01*
X145353334Y-142464128D01*
X145350500Y-142437770D01*
X145350500Y-140892645D01*
X145370185Y-140825606D01*
X145422989Y-140779851D01*
X145492147Y-140769907D01*
X145555703Y-140798932D01*
X145580617Y-140828495D01*
X145644927Y-140934877D01*
X145765122Y-141055072D01*
X145910604Y-141143019D01*
X145910603Y-141143019D01*
X146072894Y-141193590D01*
X146072893Y-141193590D01*
X146143408Y-141199998D01*
X146143426Y-141199999D01*
X146650000Y-141199999D01*
X146656581Y-141199999D01*
X146727102Y-141193591D01*
X146727107Y-141193590D01*
X146889396Y-141143018D01*
X147034877Y-141055072D01*
X147155072Y-140934877D01*
X147243019Y-140789395D01*
X147293590Y-140627106D01*
X147300000Y-140556572D01*
X147300000Y-139950000D01*
X146650000Y-139950000D01*
X146650000Y-141199999D01*
X146143426Y-141199999D01*
X146149999Y-141199998D01*
X146150000Y-141199998D01*
X146150000Y-139450000D01*
X146650000Y-139450000D01*
X147299999Y-139450000D01*
X147299999Y-138843417D01*
X147293591Y-138772897D01*
X147293590Y-138772892D01*
X147243018Y-138610603D01*
X147155072Y-138465122D01*
X147034877Y-138344927D01*
X146889395Y-138256980D01*
X146889396Y-138256980D01*
X146727105Y-138206409D01*
X146727106Y-138206409D01*
X146656572Y-138200000D01*
X146650000Y-138200000D01*
X146650000Y-139450000D01*
X146150000Y-139450000D01*
X146150000Y-138200000D01*
X146145530Y-138195531D01*
X146093707Y-138180323D01*
X146047944Y-138127526D01*
X146037991Y-138058369D01*
X146067006Y-137994809D01*
X146073036Y-137988331D01*
X150342952Y-133718416D01*
X150392186Y-133644729D01*
X150425084Y-133595495D01*
X150481658Y-133458913D01*
X150499675Y-133368340D01*
X150510500Y-133313920D01*
X150510500Y-124161932D01*
X150515424Y-124127336D01*
X150527665Y-124085204D01*
X150530500Y-124049181D01*
X150530499Y-123550820D01*
X150527665Y-123514796D01*
X150521323Y-123492969D01*
X150515423Y-123472656D01*
X150510500Y-123438064D01*
X150510500Y-122511080D01*
X150502850Y-122472625D01*
X150509076Y-122403033D01*
X150551939Y-122347855D01*
X150583512Y-122331391D01*
X150599522Y-122325789D01*
X150752262Y-122229816D01*
X150752262Y-122229815D01*
X150758158Y-122226111D01*
X150759602Y-122228409D01*
X150812849Y-122206659D01*
X150881547Y-122219401D01*
G37*
%TD.AperFunction*%
%TA.AperFunction,Conductor*%
G36*
X124134248Y-127370185D02*
G01*
X124180003Y-127422989D01*
X124183391Y-127431167D01*
X124206202Y-127492328D01*
X124206206Y-127492335D01*
X124273097Y-127581689D01*
X124297515Y-127647153D01*
X124282664Y-127715426D01*
X124233259Y-127764832D01*
X124173831Y-127780000D01*
X124140864Y-127780000D01*
X124104876Y-127782832D01*
X124104870Y-127782833D01*
X123950811Y-127827592D01*
X123950808Y-127827593D01*
X123812714Y-127909261D01*
X123812705Y-127909268D01*
X123699268Y-128022705D01*
X123699261Y-128022714D01*
X123617593Y-128160808D01*
X123617592Y-128160811D01*
X123572833Y-128314871D01*
X123572832Y-128314877D01*
X123570069Y-128350000D01*
X124465500Y-128350000D01*
X124532539Y-128369685D01*
X124578294Y-128422489D01*
X124589500Y-128474000D01*
X124589500Y-128849170D01*
X124589501Y-128849182D01*
X124589618Y-128850663D01*
X124590000Y-128860393D01*
X124590000Y-129412844D01*
X124729194Y-129372405D01*
X124729196Y-129372404D01*
X124786386Y-129338582D01*
X124854109Y-129321398D01*
X124912629Y-129338581D01*
X124970607Y-129372869D01*
X125011268Y-129384682D01*
X125124791Y-129417664D01*
X125124794Y-129417664D01*
X125124796Y-129417665D01*
X125160819Y-129420500D01*
X125559180Y-129420499D01*
X125595204Y-129417665D01*
X125749393Y-129372869D01*
X125887598Y-129291135D01*
X126001135Y-129177598D01*
X126068768Y-129063235D01*
X126119837Y-129015553D01*
X126188578Y-129003049D01*
X126253168Y-129029694D01*
X126293098Y-129087029D01*
X126299500Y-129126357D01*
X126299500Y-129388132D01*
X126299500Y-129388134D01*
X126299499Y-129388134D01*
X126328340Y-129533121D01*
X126328343Y-129533131D01*
X126384912Y-129669702D01*
X126384918Y-129669713D01*
X126395074Y-129684911D01*
X126395076Y-129684916D01*
X126467046Y-129792628D01*
X126467052Y-129792635D01*
X127162237Y-130487819D01*
X127195722Y-130549142D01*
X127190738Y-130618833D01*
X127148867Y-130674767D01*
X127083402Y-130699184D01*
X127074556Y-130699500D01*
X124812229Y-130699500D01*
X124745190Y-130679815D01*
X124724548Y-130663181D01*
X122911368Y-128850000D01*
X123570069Y-128850000D01*
X123572832Y-128885122D01*
X123572833Y-128885128D01*
X123617592Y-129039188D01*
X123617593Y-129039191D01*
X123699261Y-129177285D01*
X123699268Y-129177294D01*
X123812705Y-129290731D01*
X123812714Y-129290738D01*
X123950805Y-129372404D01*
X124090000Y-129412844D01*
X124090000Y-128850000D01*
X123570069Y-128850000D01*
X122911368Y-128850000D01*
X121878421Y-127817052D01*
X121878414Y-127817046D01*
X121778818Y-127750499D01*
X121778817Y-127750499D01*
X121755495Y-127734916D01*
X121755488Y-127734912D01*
X121618917Y-127678343D01*
X121618907Y-127678340D01*
X121473920Y-127649500D01*
X121473918Y-127649500D01*
X118813769Y-127649500D01*
X118746730Y-127629815D01*
X118700975Y-127577011D01*
X118691031Y-127507853D01*
X118697587Y-127482166D01*
X118716609Y-127431166D01*
X118758481Y-127375233D01*
X118823945Y-127350816D01*
X118832791Y-127350500D01*
X124067209Y-127350500D01*
X124134248Y-127370185D01*
G37*
%TD.AperFunction*%
%TA.AperFunction,Conductor*%
G36*
X123444809Y-118260185D02*
G01*
X123465451Y-118276819D01*
X125926451Y-120737819D01*
X125959936Y-120799142D01*
X125954952Y-120868834D01*
X125913080Y-120924767D01*
X125847616Y-120949184D01*
X125838770Y-120949500D01*
X124602129Y-120949500D01*
X124602123Y-120949501D01*
X124542516Y-120955908D01*
X124407671Y-121006202D01*
X124407664Y-121006206D01*
X124292455Y-121092452D01*
X124292452Y-121092455D01*
X124206206Y-121207664D01*
X124206202Y-121207671D01*
X124183391Y-121268833D01*
X124141520Y-121324767D01*
X124076056Y-121349184D01*
X124067209Y-121349500D01*
X118832791Y-121349500D01*
X118765752Y-121329815D01*
X118719997Y-121277011D01*
X118716609Y-121268833D01*
X118693797Y-121207671D01*
X118693793Y-121207664D01*
X118607547Y-121092455D01*
X118607544Y-121092452D01*
X118492335Y-121006206D01*
X118492328Y-121006202D01*
X118357482Y-120955908D01*
X118357483Y-120955908D01*
X118297883Y-120949501D01*
X118297881Y-120949500D01*
X118297873Y-120949500D01*
X118297864Y-120949500D01*
X116652129Y-120949500D01*
X116652123Y-120949501D01*
X116592516Y-120955908D01*
X116457671Y-121006202D01*
X116457664Y-121006206D01*
X116342455Y-121092452D01*
X116342452Y-121092455D01*
X116256206Y-121207664D01*
X116256202Y-121207671D01*
X116205908Y-121342517D01*
X116199501Y-121402116D01*
X116199500Y-121402135D01*
X116199500Y-122797870D01*
X116199501Y-122797876D01*
X116205908Y-122857483D01*
X116256202Y-122992328D01*
X116256206Y-122992335D01*
X116342452Y-123107544D01*
X116342455Y-123107547D01*
X116457664Y-123193793D01*
X116457671Y-123193797D01*
X116592517Y-123244091D01*
X116592516Y-123244091D01*
X116599444Y-123244835D01*
X116652127Y-123250500D01*
X118297872Y-123250499D01*
X118357483Y-123244091D01*
X118492331Y-123193796D01*
X118607546Y-123107546D01*
X118693796Y-122992331D01*
X118704980Y-122962346D01*
X118716609Y-122931167D01*
X118758480Y-122875233D01*
X118823944Y-122850816D01*
X118832791Y-122850500D01*
X123272472Y-122850500D01*
X123339511Y-122870185D01*
X123385266Y-122922989D01*
X123395875Y-122962346D01*
X123413975Y-123146129D01*
X123471188Y-123334733D01*
X123564086Y-123508532D01*
X123564090Y-123508539D01*
X123689116Y-123660883D01*
X123841460Y-123785909D01*
X123841467Y-123785913D01*
X124015266Y-123878811D01*
X124015269Y-123878811D01*
X124015273Y-123878814D01*
X124203868Y-123936024D01*
X124400000Y-123955341D01*
X124596132Y-123936024D01*
X124784727Y-123878814D01*
X124958538Y-123785910D01*
X125110883Y-123660883D01*
X125235910Y-123508538D01*
X125328814Y-123334727D01*
X125328817Y-123334717D01*
X125331142Y-123329105D01*
X125333258Y-123329981D01*
X125365945Y-123280082D01*
X125429751Y-123251612D01*
X125446328Y-123250499D01*
X126247871Y-123250499D01*
X126247872Y-123250499D01*
X126307483Y-123244091D01*
X126442331Y-123193796D01*
X126557546Y-123107546D01*
X126643796Y-122992331D01*
X126694091Y-122857483D01*
X126700500Y-122797873D01*
X126700499Y-121811227D01*
X126720183Y-121744189D01*
X126772987Y-121698434D01*
X126842146Y-121688490D01*
X126905702Y-121717515D01*
X126912180Y-121723547D01*
X127263181Y-122074548D01*
X127296666Y-122135871D01*
X127299500Y-122162229D01*
X127299500Y-126438770D01*
X127279815Y-126505809D01*
X127227011Y-126551564D01*
X127157853Y-126561508D01*
X127094297Y-126532483D01*
X127087819Y-126526451D01*
X126736818Y-126175450D01*
X126703333Y-126114127D01*
X126700499Y-126087769D01*
X126700499Y-125902129D01*
X126700498Y-125902123D01*
X126700497Y-125902116D01*
X126694091Y-125842517D01*
X126689353Y-125829815D01*
X126643797Y-125707671D01*
X126643793Y-125707664D01*
X126557547Y-125592455D01*
X126557544Y-125592452D01*
X126442335Y-125506206D01*
X126442328Y-125506202D01*
X126307482Y-125455908D01*
X126307483Y-125455908D01*
X126247883Y-125449501D01*
X126247881Y-125449500D01*
X126247873Y-125449500D01*
X126247864Y-125449500D01*
X124602129Y-125449500D01*
X124602123Y-125449501D01*
X124542516Y-125455908D01*
X124407671Y-125506202D01*
X124407664Y-125506206D01*
X124292455Y-125592452D01*
X124292452Y-125592455D01*
X124206206Y-125707664D01*
X124206202Y-125707671D01*
X124183391Y-125768833D01*
X124141520Y-125824767D01*
X124076056Y-125849184D01*
X124067209Y-125849500D01*
X118832791Y-125849500D01*
X118765752Y-125829815D01*
X118719997Y-125777011D01*
X118716609Y-125768833D01*
X118693797Y-125707671D01*
X118693793Y-125707664D01*
X118607547Y-125592455D01*
X118607544Y-125592452D01*
X118492335Y-125506206D01*
X118492328Y-125506202D01*
X118357482Y-125455908D01*
X118357483Y-125455908D01*
X118297883Y-125449501D01*
X118297881Y-125449500D01*
X118297873Y-125449500D01*
X118297864Y-125449500D01*
X116652129Y-125449500D01*
X116652123Y-125449501D01*
X116592516Y-125455908D01*
X116457671Y-125506202D01*
X116457664Y-125506206D01*
X116342455Y-125592452D01*
X116342452Y-125592455D01*
X116256206Y-125707664D01*
X116256202Y-125707671D01*
X116205908Y-125842517D01*
X116199501Y-125902116D01*
X116199501Y-125902123D01*
X116199500Y-125902135D01*
X116199500Y-127297870D01*
X116199501Y-127297876D01*
X116205908Y-127357483D01*
X116252413Y-127482167D01*
X116257397Y-127551859D01*
X116223912Y-127613182D01*
X116162589Y-127646666D01*
X116136231Y-127649500D01*
X111937229Y-127649500D01*
X111870190Y-127629815D01*
X111849548Y-127613181D01*
X111036818Y-126800451D01*
X111003333Y-126739128D01*
X111000499Y-126712770D01*
X111000499Y-125852129D01*
X111000498Y-125852123D01*
X111000182Y-125849184D01*
X110994091Y-125792517D01*
X110989353Y-125779815D01*
X110943797Y-125657671D01*
X110943793Y-125657664D01*
X110857547Y-125542455D01*
X110857544Y-125542452D01*
X110742335Y-125456206D01*
X110742328Y-125456202D01*
X110607482Y-125405908D01*
X110607483Y-125405908D01*
X110547883Y-125399501D01*
X110547881Y-125399500D01*
X110547873Y-125399500D01*
X110547864Y-125399500D01*
X108902129Y-125399500D01*
X108902123Y-125399501D01*
X108842516Y-125405908D01*
X108707671Y-125456202D01*
X108707664Y-125456206D01*
X108592455Y-125542452D01*
X108592452Y-125542455D01*
X108506206Y-125657664D01*
X108506202Y-125657671D01*
X108483391Y-125718833D01*
X108441520Y-125774767D01*
X108376056Y-125799184D01*
X108367209Y-125799500D01*
X103132791Y-125799500D01*
X103065752Y-125779815D01*
X103019997Y-125727011D01*
X103016609Y-125718833D01*
X102993797Y-125657671D01*
X102993793Y-125657664D01*
X102907547Y-125542455D01*
X102907544Y-125542452D01*
X102792335Y-125456206D01*
X102792328Y-125456202D01*
X102657482Y-125405908D01*
X102657483Y-125405908D01*
X102597883Y-125399501D01*
X102597881Y-125399500D01*
X102597873Y-125399500D01*
X102597864Y-125399500D01*
X100952129Y-125399500D01*
X100952123Y-125399501D01*
X100892516Y-125405908D01*
X100757671Y-125456202D01*
X100757668Y-125456204D01*
X100698811Y-125500265D01*
X100633347Y-125524682D01*
X100565074Y-125509830D01*
X100515668Y-125460425D01*
X100500500Y-125400998D01*
X100500500Y-123199001D01*
X100520185Y-123131962D01*
X100572989Y-123086207D01*
X100642147Y-123076263D01*
X100698810Y-123099734D01*
X100717835Y-123113976D01*
X100757668Y-123143795D01*
X100757671Y-123143797D01*
X100892517Y-123194091D01*
X100892516Y-123194091D01*
X100899444Y-123194835D01*
X100952127Y-123200500D01*
X102597872Y-123200499D01*
X102657483Y-123194091D01*
X102792331Y-123143796D01*
X102907546Y-123057546D01*
X102993796Y-122942331D01*
X103016609Y-122881167D01*
X103058480Y-122825233D01*
X103123944Y-122800816D01*
X103132791Y-122800500D01*
X108367209Y-122800500D01*
X108434248Y-122820185D01*
X108480003Y-122872989D01*
X108483391Y-122881167D01*
X108506202Y-122942328D01*
X108506206Y-122942335D01*
X108592452Y-123057544D01*
X108592455Y-123057547D01*
X108707664Y-123143793D01*
X108707671Y-123143797D01*
X108842517Y-123194091D01*
X108842516Y-123194091D01*
X108849444Y-123194835D01*
X108902127Y-123200500D01*
X110547872Y-123200499D01*
X110607483Y-123194091D01*
X110742331Y-123143796D01*
X110857546Y-123057546D01*
X110943796Y-122942331D01*
X110994091Y-122807483D01*
X111000500Y-122747873D01*
X111000499Y-121352128D01*
X110994091Y-121292517D01*
X110989353Y-121279815D01*
X110943797Y-121157671D01*
X110943793Y-121157664D01*
X110857547Y-121042455D01*
X110857544Y-121042452D01*
X110742335Y-120956206D01*
X110742328Y-120956202D01*
X110607482Y-120905908D01*
X110607483Y-120905908D01*
X110547883Y-120899501D01*
X110547881Y-120899500D01*
X110547873Y-120899500D01*
X110547865Y-120899500D01*
X109687229Y-120899500D01*
X109620190Y-120879815D01*
X109599548Y-120863181D01*
X108986819Y-120250451D01*
X108953334Y-120189128D01*
X108950500Y-120162770D01*
X108950500Y-119524499D01*
X108970185Y-119457460D01*
X109022989Y-119411705D01*
X109074500Y-119400499D01*
X110572871Y-119400499D01*
X110572872Y-119400499D01*
X110632483Y-119394091D01*
X110767331Y-119343796D01*
X110882546Y-119257546D01*
X110968796Y-119142331D01*
X110974886Y-119126002D01*
X110991609Y-119081167D01*
X111033480Y-119025233D01*
X111098944Y-119000816D01*
X111107791Y-119000500D01*
X116342209Y-119000500D01*
X116409248Y-119020185D01*
X116455003Y-119072989D01*
X116458391Y-119081167D01*
X116481202Y-119142328D01*
X116481206Y-119142335D01*
X116567452Y-119257544D01*
X116567455Y-119257547D01*
X116682664Y-119343793D01*
X116682671Y-119343797D01*
X116817517Y-119394091D01*
X116817516Y-119394091D01*
X116824444Y-119394835D01*
X116877127Y-119400500D01*
X118522872Y-119400499D01*
X118582483Y-119394091D01*
X118717331Y-119343796D01*
X118832546Y-119257546D01*
X118918796Y-119142331D01*
X118969091Y-119007483D01*
X118971096Y-118988831D01*
X118997833Y-118924284D01*
X119055225Y-118884435D01*
X119125050Y-118881941D01*
X119185139Y-118917592D01*
X119201117Y-118938968D01*
X119259261Y-119037285D01*
X119259268Y-119037294D01*
X119372705Y-119150731D01*
X119372714Y-119150738D01*
X119510808Y-119232406D01*
X119510811Y-119232407D01*
X119664871Y-119277166D01*
X119664877Y-119277167D01*
X119700000Y-119279931D01*
X119700000Y-119279930D01*
X120200000Y-119279930D01*
X120235122Y-119277167D01*
X120235128Y-119277166D01*
X120389188Y-119232407D01*
X120389191Y-119232406D01*
X120527285Y-119150738D01*
X120527294Y-119150731D01*
X120640731Y-119037294D01*
X120640738Y-119037285D01*
X120722404Y-118899194D01*
X120762844Y-118760000D01*
X120200000Y-118760000D01*
X120200000Y-119279930D01*
X119700000Y-119279930D01*
X119700000Y-118384499D01*
X119719685Y-118317460D01*
X119772489Y-118271705D01*
X119823996Y-118260499D01*
X120199180Y-118260499D01*
X120199193Y-118260498D01*
X120200668Y-118260382D01*
X120210393Y-118260000D01*
X120780542Y-118260000D01*
X120796277Y-118248256D01*
X120839445Y-118240500D01*
X123377770Y-118240500D01*
X123444809Y-118260185D01*
G37*
%TD.AperFunction*%
%TD*%
M02*
