%TF.GenerationSoftware,KiCad,Pcbnew,8.0.4-8.0.4-0~ubuntu22.04.1*%
%TF.CreationDate,2024-08-28T20:52:20+02:00*%
%TF.ProjectId,defcon32_badge,64656663-6f6e-4333-925f-62616467652e,rev?*%
%TF.SameCoordinates,Original*%
%TF.FileFunction,Profile,NP*%
%FSLAX46Y46*%
G04 Gerber Fmt 4.6, Leading zero omitted, Abs format (unit mm)*
G04 Created by KiCad (PCBNEW 8.0.4-8.0.4-0~ubuntu22.04.1) date 2024-08-28 20:52:20*
%MOMM*%
%LPD*%
G01*
G04 APERTURE LIST*
%TA.AperFunction,Profile*%
%ADD10C,0.050000*%
%TD*%
%ADD11C,0.150000*%
G04 APERTURE END LIST*
D10*
X110000000Y-160000000D02*
X157000000Y-160000000D01*
X160000000Y-63000000D02*
X160000000Y-157000000D01*
X103000000Y-60000000D02*
X157000000Y-60000000D01*
X100000000Y-63000000D02*
G75*
G02*
X103000000Y-60000000I3000000J0D01*
G01*
X100000000Y-63000000D02*
X100000000Y-150000000D01*
X160000000Y-157000000D02*
G75*
G02*
X157000000Y-160000000I-3000000J0D01*
G01*
X110000000Y-160000000D02*
G75*
G02*
X100000000Y-150000000I0J10000000D01*
G01*
X157000000Y-60000000D02*
G75*
G02*
X160000000Y-63000000I0J-3000000D01*
G01*
D11*
X125857143Y-165304819D02*
X125666667Y-165304819D01*
X125666667Y-165304819D02*
X125571429Y-165352438D01*
X125571429Y-165352438D02*
X125523810Y-165400057D01*
X125523810Y-165400057D02*
X125428572Y-165542914D01*
X125428572Y-165542914D02*
X125380953Y-165733390D01*
X125380953Y-165733390D02*
X125380953Y-166114342D01*
X125380953Y-166114342D02*
X125428572Y-166209580D01*
X125428572Y-166209580D02*
X125476191Y-166257200D01*
X125476191Y-166257200D02*
X125571429Y-166304819D01*
X125571429Y-166304819D02*
X125761905Y-166304819D01*
X125761905Y-166304819D02*
X125857143Y-166257200D01*
X125857143Y-166257200D02*
X125904762Y-166209580D01*
X125904762Y-166209580D02*
X125952381Y-166114342D01*
X125952381Y-166114342D02*
X125952381Y-165876247D01*
X125952381Y-165876247D02*
X125904762Y-165781009D01*
X125904762Y-165781009D02*
X125857143Y-165733390D01*
X125857143Y-165733390D02*
X125761905Y-165685771D01*
X125761905Y-165685771D02*
X125571429Y-165685771D01*
X125571429Y-165685771D02*
X125476191Y-165733390D01*
X125476191Y-165733390D02*
X125428572Y-165781009D01*
X125428572Y-165781009D02*
X125380953Y-165876247D01*
X126571429Y-165304819D02*
X126666667Y-165304819D01*
X126666667Y-165304819D02*
X126761905Y-165352438D01*
X126761905Y-165352438D02*
X126809524Y-165400057D01*
X126809524Y-165400057D02*
X126857143Y-165495295D01*
X126857143Y-165495295D02*
X126904762Y-165685771D01*
X126904762Y-165685771D02*
X126904762Y-165923866D01*
X126904762Y-165923866D02*
X126857143Y-166114342D01*
X126857143Y-166114342D02*
X126809524Y-166209580D01*
X126809524Y-166209580D02*
X126761905Y-166257200D01*
X126761905Y-166257200D02*
X126666667Y-166304819D01*
X126666667Y-166304819D02*
X126571429Y-166304819D01*
X126571429Y-166304819D02*
X126476191Y-166257200D01*
X126476191Y-166257200D02*
X126428572Y-166209580D01*
X126428572Y-166209580D02*
X126380953Y-166114342D01*
X126380953Y-166114342D02*
X126333334Y-165923866D01*
X126333334Y-165923866D02*
X126333334Y-165685771D01*
X126333334Y-165685771D02*
X126380953Y-165495295D01*
X126380953Y-165495295D02*
X126428572Y-165400057D01*
X126428572Y-165400057D02*
X126476191Y-165352438D01*
X126476191Y-165352438D02*
X126571429Y-165304819D01*
X127380953Y-166257200D02*
X127380953Y-166304819D01*
X127380953Y-166304819D02*
X127333334Y-166400057D01*
X127333334Y-166400057D02*
X127285715Y-166447676D01*
X128000000Y-165304819D02*
X128095238Y-165304819D01*
X128095238Y-165304819D02*
X128190476Y-165352438D01*
X128190476Y-165352438D02*
X128238095Y-165400057D01*
X128238095Y-165400057D02*
X128285714Y-165495295D01*
X128285714Y-165495295D02*
X128333333Y-165685771D01*
X128333333Y-165685771D02*
X128333333Y-165923866D01*
X128333333Y-165923866D02*
X128285714Y-166114342D01*
X128285714Y-166114342D02*
X128238095Y-166209580D01*
X128238095Y-166209580D02*
X128190476Y-166257200D01*
X128190476Y-166257200D02*
X128095238Y-166304819D01*
X128095238Y-166304819D02*
X128000000Y-166304819D01*
X128000000Y-166304819D02*
X127904762Y-166257200D01*
X127904762Y-166257200D02*
X127857143Y-166209580D01*
X127857143Y-166209580D02*
X127809524Y-166114342D01*
X127809524Y-166114342D02*
X127761905Y-165923866D01*
X127761905Y-165923866D02*
X127761905Y-165685771D01*
X127761905Y-165685771D02*
X127809524Y-165495295D01*
X127809524Y-165495295D02*
X127857143Y-165400057D01*
X127857143Y-165400057D02*
X127904762Y-165352438D01*
X127904762Y-165352438D02*
X128000000Y-165304819D01*
X128952381Y-165304819D02*
X129047619Y-165304819D01*
X129047619Y-165304819D02*
X129142857Y-165352438D01*
X129142857Y-165352438D02*
X129190476Y-165400057D01*
X129190476Y-165400057D02*
X129238095Y-165495295D01*
X129238095Y-165495295D02*
X129285714Y-165685771D01*
X129285714Y-165685771D02*
X129285714Y-165923866D01*
X129285714Y-165923866D02*
X129238095Y-166114342D01*
X129238095Y-166114342D02*
X129190476Y-166209580D01*
X129190476Y-166209580D02*
X129142857Y-166257200D01*
X129142857Y-166257200D02*
X129047619Y-166304819D01*
X129047619Y-166304819D02*
X128952381Y-166304819D01*
X128952381Y-166304819D02*
X128857143Y-166257200D01*
X128857143Y-166257200D02*
X128809524Y-166209580D01*
X128809524Y-166209580D02*
X128761905Y-166114342D01*
X128761905Y-166114342D02*
X128714286Y-165923866D01*
X128714286Y-165923866D02*
X128714286Y-165685771D01*
X128714286Y-165685771D02*
X128761905Y-165495295D01*
X128761905Y-165495295D02*
X128809524Y-165400057D01*
X128809524Y-165400057D02*
X128857143Y-165352438D01*
X128857143Y-165352438D02*
X128952381Y-165304819D01*
X129904762Y-165304819D02*
X130000000Y-165304819D01*
X130000000Y-165304819D02*
X130095238Y-165352438D01*
X130095238Y-165352438D02*
X130142857Y-165400057D01*
X130142857Y-165400057D02*
X130190476Y-165495295D01*
X130190476Y-165495295D02*
X130238095Y-165685771D01*
X130238095Y-165685771D02*
X130238095Y-165923866D01*
X130238095Y-165923866D02*
X130190476Y-166114342D01*
X130190476Y-166114342D02*
X130142857Y-166209580D01*
X130142857Y-166209580D02*
X130095238Y-166257200D01*
X130095238Y-166257200D02*
X130000000Y-166304819D01*
X130000000Y-166304819D02*
X129904762Y-166304819D01*
X129904762Y-166304819D02*
X129809524Y-166257200D01*
X129809524Y-166257200D02*
X129761905Y-166209580D01*
X129761905Y-166209580D02*
X129714286Y-166114342D01*
X129714286Y-166114342D02*
X129666667Y-165923866D01*
X129666667Y-165923866D02*
X129666667Y-165685771D01*
X129666667Y-165685771D02*
X129714286Y-165495295D01*
X129714286Y-165495295D02*
X129761905Y-165400057D01*
X129761905Y-165400057D02*
X129809524Y-165352438D01*
X129809524Y-165352438D02*
X129904762Y-165304819D01*
X130857143Y-165304819D02*
X130952381Y-165304819D01*
X130952381Y-165304819D02*
X131047619Y-165352438D01*
X131047619Y-165352438D02*
X131095238Y-165400057D01*
X131095238Y-165400057D02*
X131142857Y-165495295D01*
X131142857Y-165495295D02*
X131190476Y-165685771D01*
X131190476Y-165685771D02*
X131190476Y-165923866D01*
X131190476Y-165923866D02*
X131142857Y-166114342D01*
X131142857Y-166114342D02*
X131095238Y-166209580D01*
X131095238Y-166209580D02*
X131047619Y-166257200D01*
X131047619Y-166257200D02*
X130952381Y-166304819D01*
X130952381Y-166304819D02*
X130857143Y-166304819D01*
X130857143Y-166304819D02*
X130761905Y-166257200D01*
X130761905Y-166257200D02*
X130714286Y-166209580D01*
X130714286Y-166209580D02*
X130666667Y-166114342D01*
X130666667Y-166114342D02*
X130619048Y-165923866D01*
X130619048Y-165923866D02*
X130619048Y-165685771D01*
X130619048Y-165685771D02*
X130666667Y-165495295D01*
X130666667Y-165495295D02*
X130714286Y-165400057D01*
X130714286Y-165400057D02*
X130761905Y-165352438D01*
X130761905Y-165352438D02*
X130857143Y-165304819D01*
X132380953Y-166304819D02*
X132380953Y-165638152D01*
X132380953Y-165733390D02*
X132428572Y-165685771D01*
X132428572Y-165685771D02*
X132523810Y-165638152D01*
X132523810Y-165638152D02*
X132666667Y-165638152D01*
X132666667Y-165638152D02*
X132761905Y-165685771D01*
X132761905Y-165685771D02*
X132809524Y-165781009D01*
X132809524Y-165781009D02*
X132809524Y-166304819D01*
X132809524Y-165781009D02*
X132857143Y-165685771D01*
X132857143Y-165685771D02*
X132952381Y-165638152D01*
X132952381Y-165638152D02*
X133095238Y-165638152D01*
X133095238Y-165638152D02*
X133190477Y-165685771D01*
X133190477Y-165685771D02*
X133238096Y-165781009D01*
X133238096Y-165781009D02*
X133238096Y-166304819D01*
X133714286Y-166304819D02*
X133714286Y-165638152D01*
X133714286Y-165733390D02*
X133761905Y-165685771D01*
X133761905Y-165685771D02*
X133857143Y-165638152D01*
X133857143Y-165638152D02*
X134000000Y-165638152D01*
X134000000Y-165638152D02*
X134095238Y-165685771D01*
X134095238Y-165685771D02*
X134142857Y-165781009D01*
X134142857Y-165781009D02*
X134142857Y-166304819D01*
X134142857Y-165781009D02*
X134190476Y-165685771D01*
X134190476Y-165685771D02*
X134285714Y-165638152D01*
X134285714Y-165638152D02*
X134428571Y-165638152D01*
X134428571Y-165638152D02*
X134523810Y-165685771D01*
X134523810Y-165685771D02*
X134571429Y-165781009D01*
X134571429Y-165781009D02*
X134571429Y-166304819D01*
D10*
X100000000Y-160500000D02*
X100000000Y-167586420D01*
X160000000Y-160500000D02*
X160000000Y-167586420D01*
X100000000Y-167000000D02*
X160000000Y-167000000D01*
X100000000Y-167000000D02*
X160000000Y-167000000D01*
X100000000Y-167000000D02*
X101126504Y-166413579D01*
X100000000Y-167000000D02*
X101126504Y-167586421D01*
X160000000Y-167000000D02*
X158873496Y-167586421D01*
X160000000Y-167000000D02*
X158873496Y-166413579D01*
D11*
X85304819Y-114523809D02*
X85304819Y-115095237D01*
X85304819Y-114809523D02*
X84304819Y-114809523D01*
X84304819Y-114809523D02*
X84447676Y-114904761D01*
X84447676Y-114904761D02*
X84542914Y-114999999D01*
X84542914Y-114999999D02*
X84590533Y-115095237D01*
X84304819Y-113904761D02*
X84304819Y-113809523D01*
X84304819Y-113809523D02*
X84352438Y-113714285D01*
X84352438Y-113714285D02*
X84400057Y-113666666D01*
X84400057Y-113666666D02*
X84495295Y-113619047D01*
X84495295Y-113619047D02*
X84685771Y-113571428D01*
X84685771Y-113571428D02*
X84923866Y-113571428D01*
X84923866Y-113571428D02*
X85114342Y-113619047D01*
X85114342Y-113619047D02*
X85209580Y-113666666D01*
X85209580Y-113666666D02*
X85257200Y-113714285D01*
X85257200Y-113714285D02*
X85304819Y-113809523D01*
X85304819Y-113809523D02*
X85304819Y-113904761D01*
X85304819Y-113904761D02*
X85257200Y-113999999D01*
X85257200Y-113999999D02*
X85209580Y-114047618D01*
X85209580Y-114047618D02*
X85114342Y-114095237D01*
X85114342Y-114095237D02*
X84923866Y-114142856D01*
X84923866Y-114142856D02*
X84685771Y-114142856D01*
X84685771Y-114142856D02*
X84495295Y-114095237D01*
X84495295Y-114095237D02*
X84400057Y-114047618D01*
X84400057Y-114047618D02*
X84352438Y-113999999D01*
X84352438Y-113999999D02*
X84304819Y-113904761D01*
X84304819Y-112952380D02*
X84304819Y-112857142D01*
X84304819Y-112857142D02*
X84352438Y-112761904D01*
X84352438Y-112761904D02*
X84400057Y-112714285D01*
X84400057Y-112714285D02*
X84495295Y-112666666D01*
X84495295Y-112666666D02*
X84685771Y-112619047D01*
X84685771Y-112619047D02*
X84923866Y-112619047D01*
X84923866Y-112619047D02*
X85114342Y-112666666D01*
X85114342Y-112666666D02*
X85209580Y-112714285D01*
X85209580Y-112714285D02*
X85257200Y-112761904D01*
X85257200Y-112761904D02*
X85304819Y-112857142D01*
X85304819Y-112857142D02*
X85304819Y-112952380D01*
X85304819Y-112952380D02*
X85257200Y-113047618D01*
X85257200Y-113047618D02*
X85209580Y-113095237D01*
X85209580Y-113095237D02*
X85114342Y-113142856D01*
X85114342Y-113142856D02*
X84923866Y-113190475D01*
X84923866Y-113190475D02*
X84685771Y-113190475D01*
X84685771Y-113190475D02*
X84495295Y-113142856D01*
X84495295Y-113142856D02*
X84400057Y-113095237D01*
X84400057Y-113095237D02*
X84352438Y-113047618D01*
X84352438Y-113047618D02*
X84304819Y-112952380D01*
X85257200Y-112142856D02*
X85304819Y-112142856D01*
X85304819Y-112142856D02*
X85400057Y-112190475D01*
X85400057Y-112190475D02*
X85447676Y-112238094D01*
X84304819Y-111523809D02*
X84304819Y-111428571D01*
X84304819Y-111428571D02*
X84352438Y-111333333D01*
X84352438Y-111333333D02*
X84400057Y-111285714D01*
X84400057Y-111285714D02*
X84495295Y-111238095D01*
X84495295Y-111238095D02*
X84685771Y-111190476D01*
X84685771Y-111190476D02*
X84923866Y-111190476D01*
X84923866Y-111190476D02*
X85114342Y-111238095D01*
X85114342Y-111238095D02*
X85209580Y-111285714D01*
X85209580Y-111285714D02*
X85257200Y-111333333D01*
X85257200Y-111333333D02*
X85304819Y-111428571D01*
X85304819Y-111428571D02*
X85304819Y-111523809D01*
X85304819Y-111523809D02*
X85257200Y-111619047D01*
X85257200Y-111619047D02*
X85209580Y-111666666D01*
X85209580Y-111666666D02*
X85114342Y-111714285D01*
X85114342Y-111714285D02*
X84923866Y-111761904D01*
X84923866Y-111761904D02*
X84685771Y-111761904D01*
X84685771Y-111761904D02*
X84495295Y-111714285D01*
X84495295Y-111714285D02*
X84400057Y-111666666D01*
X84400057Y-111666666D02*
X84352438Y-111619047D01*
X84352438Y-111619047D02*
X84304819Y-111523809D01*
X84304819Y-110571428D02*
X84304819Y-110476190D01*
X84304819Y-110476190D02*
X84352438Y-110380952D01*
X84352438Y-110380952D02*
X84400057Y-110333333D01*
X84400057Y-110333333D02*
X84495295Y-110285714D01*
X84495295Y-110285714D02*
X84685771Y-110238095D01*
X84685771Y-110238095D02*
X84923866Y-110238095D01*
X84923866Y-110238095D02*
X85114342Y-110285714D01*
X85114342Y-110285714D02*
X85209580Y-110333333D01*
X85209580Y-110333333D02*
X85257200Y-110380952D01*
X85257200Y-110380952D02*
X85304819Y-110476190D01*
X85304819Y-110476190D02*
X85304819Y-110571428D01*
X85304819Y-110571428D02*
X85257200Y-110666666D01*
X85257200Y-110666666D02*
X85209580Y-110714285D01*
X85209580Y-110714285D02*
X85114342Y-110761904D01*
X85114342Y-110761904D02*
X84923866Y-110809523D01*
X84923866Y-110809523D02*
X84685771Y-110809523D01*
X84685771Y-110809523D02*
X84495295Y-110761904D01*
X84495295Y-110761904D02*
X84400057Y-110714285D01*
X84400057Y-110714285D02*
X84352438Y-110666666D01*
X84352438Y-110666666D02*
X84304819Y-110571428D01*
X84304819Y-109619047D02*
X84304819Y-109523809D01*
X84304819Y-109523809D02*
X84352438Y-109428571D01*
X84352438Y-109428571D02*
X84400057Y-109380952D01*
X84400057Y-109380952D02*
X84495295Y-109333333D01*
X84495295Y-109333333D02*
X84685771Y-109285714D01*
X84685771Y-109285714D02*
X84923866Y-109285714D01*
X84923866Y-109285714D02*
X85114342Y-109333333D01*
X85114342Y-109333333D02*
X85209580Y-109380952D01*
X85209580Y-109380952D02*
X85257200Y-109428571D01*
X85257200Y-109428571D02*
X85304819Y-109523809D01*
X85304819Y-109523809D02*
X85304819Y-109619047D01*
X85304819Y-109619047D02*
X85257200Y-109714285D01*
X85257200Y-109714285D02*
X85209580Y-109761904D01*
X85209580Y-109761904D02*
X85114342Y-109809523D01*
X85114342Y-109809523D02*
X84923866Y-109857142D01*
X84923866Y-109857142D02*
X84685771Y-109857142D01*
X84685771Y-109857142D02*
X84495295Y-109809523D01*
X84495295Y-109809523D02*
X84400057Y-109761904D01*
X84400057Y-109761904D02*
X84352438Y-109714285D01*
X84352438Y-109714285D02*
X84304819Y-109619047D01*
X84304819Y-108666666D02*
X84304819Y-108571428D01*
X84304819Y-108571428D02*
X84352438Y-108476190D01*
X84352438Y-108476190D02*
X84400057Y-108428571D01*
X84400057Y-108428571D02*
X84495295Y-108380952D01*
X84495295Y-108380952D02*
X84685771Y-108333333D01*
X84685771Y-108333333D02*
X84923866Y-108333333D01*
X84923866Y-108333333D02*
X85114342Y-108380952D01*
X85114342Y-108380952D02*
X85209580Y-108428571D01*
X85209580Y-108428571D02*
X85257200Y-108476190D01*
X85257200Y-108476190D02*
X85304819Y-108571428D01*
X85304819Y-108571428D02*
X85304819Y-108666666D01*
X85304819Y-108666666D02*
X85257200Y-108761904D01*
X85257200Y-108761904D02*
X85209580Y-108809523D01*
X85209580Y-108809523D02*
X85114342Y-108857142D01*
X85114342Y-108857142D02*
X84923866Y-108904761D01*
X84923866Y-108904761D02*
X84685771Y-108904761D01*
X84685771Y-108904761D02*
X84495295Y-108857142D01*
X84495295Y-108857142D02*
X84400057Y-108809523D01*
X84400057Y-108809523D02*
X84352438Y-108761904D01*
X84352438Y-108761904D02*
X84304819Y-108666666D01*
X85304819Y-107142856D02*
X84638152Y-107142856D01*
X84733390Y-107142856D02*
X84685771Y-107095237D01*
X84685771Y-107095237D02*
X84638152Y-106999999D01*
X84638152Y-106999999D02*
X84638152Y-106857142D01*
X84638152Y-106857142D02*
X84685771Y-106761904D01*
X84685771Y-106761904D02*
X84781009Y-106714285D01*
X84781009Y-106714285D02*
X85304819Y-106714285D01*
X84781009Y-106714285D02*
X84685771Y-106666666D01*
X84685771Y-106666666D02*
X84638152Y-106571428D01*
X84638152Y-106571428D02*
X84638152Y-106428571D01*
X84638152Y-106428571D02*
X84685771Y-106333332D01*
X84685771Y-106333332D02*
X84781009Y-106285713D01*
X84781009Y-106285713D02*
X85304819Y-106285713D01*
X85304819Y-105809523D02*
X84638152Y-105809523D01*
X84733390Y-105809523D02*
X84685771Y-105761904D01*
X84685771Y-105761904D02*
X84638152Y-105666666D01*
X84638152Y-105666666D02*
X84638152Y-105523809D01*
X84638152Y-105523809D02*
X84685771Y-105428571D01*
X84685771Y-105428571D02*
X84781009Y-105380952D01*
X84781009Y-105380952D02*
X85304819Y-105380952D01*
X84781009Y-105380952D02*
X84685771Y-105333333D01*
X84685771Y-105333333D02*
X84638152Y-105238095D01*
X84638152Y-105238095D02*
X84638152Y-105095238D01*
X84638152Y-105095238D02*
X84685771Y-104999999D01*
X84685771Y-104999999D02*
X84781009Y-104952380D01*
X84781009Y-104952380D02*
X85304819Y-104952380D01*
D10*
X99500000Y-60000000D02*
X85413580Y-60000000D01*
X99500000Y-160000000D02*
X85413580Y-160000000D01*
X86000000Y-60000000D02*
X86000000Y-160000000D01*
X86000000Y-60000000D02*
X86000000Y-160000000D01*
X86000000Y-60000000D02*
X86586421Y-61126504D01*
X86000000Y-60000000D02*
X85413579Y-61126504D01*
X86000000Y-160000000D02*
X85413579Y-158873496D01*
X86000000Y-160000000D02*
X86586421Y-158873496D01*
M02*
